G04 #@! TF.GenerationSoftware,KiCad,Pcbnew,(5.99.0-10089-gf88d39b4f0)*
G04 #@! TF.CreationDate,2021-04-03T17:52:51-06:00*
G04 #@! TF.ProjectId,aliceq,616c6963-6571-42e6-9b69-6361645f7063,rev?*
G04 #@! TF.SameCoordinates,Original*
G04 #@! TF.FileFunction,Profile,NP*
%FSLAX46Y46*%
G04 Gerber Fmt 4.6, Leading zero omitted, Abs format (unit mm)*
G04 Created by KiCad (PCBNEW (5.99.0-10089-gf88d39b4f0)) date 2021-04-03 17:52:51*
%MOMM*%
%LPD*%
G01*
G04 APERTURE LIST*
G04 #@! TA.AperFunction,Profile*
%ADD10C,0.050000*%
G04 #@! TD*
G04 APERTURE END LIST*
D10*
X197009274Y-14237678D02*
G75*
G03*
X197009274Y-14237678I-2526114J0D01*
G01*
X159440000Y-10160000D02*
X322530000Y-10160000D01*
X-12640000Y-106500000D02*
X60000000Y-106500000D01*
X159440000Y-3990000D02*
X159440000Y-10160000D01*
X154670000Y-126620000D02*
X60000000Y-106500000D01*
X322430000Y-106500000D02*
X322512803Y-106498515D01*
X154670000Y-126620000D02*
X249340000Y-106500000D01*
X-12640000Y-106500000D02*
X-12700000Y-106500000D01*
X322512803Y-106498515D02*
G75*
G03*
X323540000Y-105490000I20137J1006860D01*
G01*
X-13699999Y-105490000D02*
G75*
G03*
X-12700000Y-106500000I1009650J-396D01*
G01*
X149900000Y-3990000D02*
X159440000Y-3990000D01*
X323540000Y-19370000D02*
X323540000Y-105490000D01*
X116063931Y-15918144D02*
G75*
G03*
X116063931Y-15918144I-2526114J0D01*
G01*
X-12672803Y-10161485D02*
X149890000Y-10160000D01*
X149890000Y-3990000D02*
X149890000Y-10160000D01*
X322430000Y-106500000D02*
X249340000Y-106500000D01*
X323540000Y-19370000D02*
X323538515Y-11187197D01*
X323538514Y-11187197D02*
G75*
G03*
X322530000Y-10160000I-1006859J20138D01*
G01*
X-13702999Y-11171283D02*
X-13700000Y-105490000D01*
X-12672803Y-10161485D02*
G75*
G03*
X-13702999Y-11171283I-20196J-1009798D01*
G01*
M02*
