G04 #@! TF.GenerationSoftware,KiCad,Pcbnew,(5.99.0-10089-gf88d39b4f0)*
G04 #@! TF.CreationDate,2021-04-03T17:52:51-06:00*
G04 #@! TF.ProjectId,aliceq,616c6963-6571-42e6-9b69-6361645f7063,rev?*
G04 #@! TF.SameCoordinates,Original*
G04 #@! TF.FileFunction,Soldermask,Top*
G04 #@! TF.FilePolarity,Negative*
%FSLAX46Y46*%
G04 Gerber Fmt 4.6, Leading zero omitted, Abs format (unit mm)*
G04 Created by KiCad (PCBNEW (5.99.0-10089-gf88d39b4f0)) date 2021-04-03 17:52:51*
%MOMM*%
%LPD*%
G01*
G04 APERTURE LIST*
%ADD10C,3.987800*%
%ADD11C,1.750000*%
%ADD12C,3.048000*%
G04 APERTURE END LIST*
D10*
X64240042Y-19160005D03*
D11*
X69320042Y-19160005D03*
X59160042Y-19160005D03*
D10*
X219340125Y-41750017D03*
D11*
X224309115Y-40693826D03*
X214371135Y-42806208D03*
X232379120Y-98943858D03*
X222441140Y-101056240D03*
D10*
X227410130Y-100000049D03*
X203966405Y-83970758D03*
D11*
X208935395Y-82914567D03*
X198997415Y-85026949D03*
D10*
X27150022Y-40350017D03*
D11*
X32230022Y-40350017D03*
X22070022Y-40350017D03*
D10*
X16535018Y-78450037D03*
D11*
X21615018Y-78450037D03*
X11455018Y-78450037D03*
X66491055Y-38713825D03*
X76429035Y-40826207D03*
D10*
X71460045Y-39770016D03*
D11*
X293425163Y-78450037D03*
D10*
X288345163Y-78450037D03*
D11*
X283265163Y-78450037D03*
D10*
X185332683Y-87931477D03*
D11*
X190301673Y-86875286D03*
X180363693Y-88987668D03*
X258750149Y-21300006D03*
D10*
X263830149Y-21300006D03*
D11*
X268910149Y-21300006D03*
D10*
X77510049Y-80010038D03*
D11*
X82479039Y-81066229D03*
X72541059Y-78953847D03*
D10*
X262150148Y-78450037D03*
D11*
X267230148Y-78450037D03*
X257070148Y-78450037D03*
X135672228Y-33945976D03*
D10*
X140641218Y-35002167D03*
D11*
X145610208Y-36058358D03*
X133030201Y-72338377D03*
X123092221Y-70225995D03*
D10*
X128061211Y-71282186D03*
D11*
X240120139Y-19160005D03*
X250280139Y-19160005D03*
D10*
X245200139Y-19160005D03*
X200706403Y-45710737D03*
D11*
X195737413Y-46766928D03*
X205675393Y-44654546D03*
X67731056Y-98943858D03*
D10*
X72700046Y-100000049D03*
D11*
X77669036Y-101056240D03*
X20980018Y-78450037D03*
D10*
X26060018Y-78450037D03*
D11*
X31140018Y-78450037D03*
D10*
X14153768Y-86705037D03*
X37966268Y-86705037D03*
D12*
X37966268Y-71465037D03*
X14153768Y-71465037D03*
D11*
X244920136Y-39290016D03*
X234760136Y-39290016D03*
D10*
X239840136Y-39290016D03*
D11*
X287960160Y-21300006D03*
D10*
X282880160Y-21300006D03*
D11*
X277800160Y-21300006D03*
D10*
X297868168Y-78450037D03*
X285961918Y-86705037D03*
D12*
X285961918Y-71465037D03*
D11*
X302948168Y-78450037D03*
D10*
X309774418Y-86705037D03*
D11*
X292788168Y-78450037D03*
D12*
X309774418Y-71465037D03*
D11*
X40520032Y-21300006D03*
D10*
X45600032Y-21300006D03*
D11*
X50680032Y-21300006D03*
D10*
X267510151Y-59400027D03*
D11*
X262430151Y-59400027D03*
X272590151Y-59400027D03*
X16248992Y-59400027D03*
X26408992Y-59400027D03*
D10*
X21328992Y-59400027D03*
X209326408Y-63360747D03*
D11*
X204357418Y-64416938D03*
X214295398Y-62304556D03*
X126976487Y-32097638D03*
D10*
X122007497Y-31041447D03*
D11*
X117038507Y-29985256D03*
X8610009Y-19160005D03*
D10*
X3530009Y-19160005D03*
D11*
X-1549991Y-19160005D03*
X296850170Y-21300006D03*
X307010170Y-21300006D03*
D10*
X301930170Y-21300006D03*
D11*
X131266108Y-110911799D03*
X141204088Y-113024181D03*
D10*
X136235098Y-111967990D03*
X248460141Y-59400027D03*
D11*
X243380141Y-59400027D03*
X253540141Y-59400027D03*
X306420170Y-40350017D03*
X296260170Y-40350017D03*
D10*
X301340170Y-40350017D03*
D11*
X108342765Y-28136918D03*
D10*
X103373775Y-27080727D03*
D11*
X98404785Y-26024536D03*
X-9779996Y-57260026D03*
D10*
X-4699996Y-57260026D03*
D11*
X380004Y-57260026D03*
X77129036Y-60456218D03*
X67191056Y-58343836D03*
D10*
X72160046Y-59400027D03*
X173637729Y-101460892D03*
D11*
X182031120Y-108116243D03*
D12*
X176806303Y-116367862D03*
D10*
X196929869Y-96509995D03*
D11*
X191969100Y-106003861D03*
D12*
X200098443Y-111416964D03*
D10*
X187000110Y-107060052D03*
X314538927Y-78450037D03*
D11*
X309458927Y-78450037D03*
X319618927Y-78450037D03*
D10*
X292405165Y-21300006D03*
D11*
X287325165Y-21300006D03*
X297485165Y-21300006D03*
D10*
X280498915Y-29555006D03*
D12*
X304311415Y-14315006D03*
D10*
X304311415Y-29555006D03*
D12*
X280498915Y-14315006D03*
D11*
X253390146Y-40350017D03*
X263550146Y-40350017D03*
D10*
X258470146Y-40350017D03*
X108727490Y-47691456D03*
D11*
X103758500Y-46635265D03*
X113696480Y-48747647D03*
X4450007Y-38210015D03*
X-5709993Y-38210015D03*
D10*
X-629993Y-38210015D03*
D11*
X138380204Y-92948388D03*
D10*
X133411214Y-91892197D03*
D11*
X128442224Y-90836006D03*
X311175772Y-97548047D03*
D10*
X306095772Y-97548047D03*
D11*
X301015772Y-97548047D03*
X158469970Y-54688368D03*
X168407950Y-52575986D03*
D10*
X163438960Y-53632177D03*
X243100138Y-78450037D03*
D11*
X248180138Y-78450037D03*
X238020138Y-78450037D03*
D10*
X84740053Y-23120007D03*
D11*
X79771063Y-22063816D03*
X89709043Y-24176198D03*
D12*
X118423875Y-115327863D03*
X95131735Y-110376965D03*
D11*
X113199058Y-107076244D03*
D10*
X108230068Y-106020053D03*
X121592449Y-100420893D03*
D11*
X103261078Y-104963862D03*
D10*
X98300309Y-95469996D03*
X119301002Y-99929115D03*
X96008862Y-94978218D03*
D12*
X92840288Y-109885187D03*
D10*
X105938621Y-105528275D03*
D11*
X110907611Y-106584466D03*
X100969631Y-104472084D03*
D12*
X116132428Y-114836085D03*
D10*
X187432684Y-29061445D03*
D11*
X182463694Y-30117636D03*
X192401674Y-28005254D03*
X21470021Y-21300006D03*
D10*
X26550021Y-21300006D03*
D11*
X31630021Y-21300006D03*
X282600157Y-40350017D03*
D10*
X277520157Y-40350017D03*
D11*
X272440157Y-40350017D03*
D10*
X190692686Y-67321466D03*
D11*
X195661676Y-66265275D03*
X185723696Y-68377657D03*
D10*
X90793768Y-63360747D03*
D11*
X95762758Y-64416938D03*
X85824778Y-62304556D03*
X104458500Y-66265275D03*
X114396480Y-68377657D03*
D10*
X109427490Y-67321466D03*
X127361211Y-51652176D03*
D11*
X122392221Y-50595985D03*
X132330201Y-52708367D03*
X32886268Y-78450037D03*
D10*
X37966268Y-78450037D03*
D11*
X43046268Y-78450037D03*
D10*
X310366418Y-51145027D03*
X298460168Y-59400027D03*
D12*
X286553918Y-66385027D03*
D11*
X303540168Y-59400027D03*
D10*
X286553918Y-51145027D03*
D12*
X310366418Y-66385027D03*
D11*
X293380168Y-59400027D03*
X222991140Y-60456218D03*
D10*
X227960130Y-59400027D03*
D11*
X232929120Y-58343836D03*
X45880034Y-40350017D03*
X56040034Y-40350017D03*
D10*
X50960034Y-40350017D03*
D11*
X62090038Y-78450037D03*
X51930038Y-78450037D03*
D10*
X57010038Y-78450037D03*
D11*
X219731138Y-22196197D03*
D10*
X224700128Y-21140006D03*
D11*
X229669118Y-20083815D03*
X171667952Y-90836006D03*
D10*
X166698962Y-91892197D03*
D11*
X161729972Y-92948388D03*
X101112761Y-85026949D03*
X91174781Y-82914567D03*
D10*
X96143771Y-83970758D03*
D11*
X46580035Y-59400027D03*
D10*
X51660035Y-59400027D03*
D11*
X56740035Y-59400027D03*
X177027955Y-70225995D03*
D10*
X172058965Y-71282186D03*
D11*
X167089975Y-72338377D03*
D10*
X18920017Y-97500047D03*
D11*
X24000017Y-97500047D03*
X13840017Y-97500047D03*
X177103691Y-50727648D03*
D10*
X182072681Y-49671457D03*
D11*
X187041671Y-48615266D03*
X85124778Y-42674545D03*
X95062758Y-44786927D03*
D10*
X90093768Y-43730736D03*
D11*
X217631137Y-81066229D03*
X227569117Y-78953847D03*
D10*
X222600127Y-80010038D03*
D11*
X20380000Y-59400027D03*
D10*
X25460000Y-59400027D03*
D11*
X30540000Y-59400027D03*
X163829973Y-34078357D03*
X173767953Y-31965975D03*
D10*
X168798963Y-33022166D03*
X138550084Y-112460056D03*
D11*
X133581094Y-111403865D03*
X143519074Y-113516247D03*
X109808503Y-86875286D03*
X119746483Y-88987668D03*
D10*
X114777493Y-87931477D03*
D11*
X201097416Y-26156917D03*
X211035396Y-24044535D03*
D10*
X206066406Y-25100726D03*
M02*
