G04 #@! TF.GenerationSoftware,KiCad,Pcbnew,(5.99.0-11539-gc946070005)*
G04 #@! TF.CreationDate,2021-08-03T22:46:40-05:00*
G04 #@! TF.ProjectId,aliceq,616c6963-6571-42e6-9b69-6361645f7063,rev?*
G04 #@! TF.SameCoordinates,Original*
G04 #@! TF.FileFunction,Paste,Bot*
G04 #@! TF.FilePolarity,Positive*
%FSLAX46Y46*%
G04 Gerber Fmt 4.6, Leading zero omitted, Abs format (unit mm)*
G04 Created by KiCad (PCBNEW (5.99.0-11539-gc946070005)) date 2021-08-03 22:46:40*
%MOMM*%
%LPD*%
G01*
G04 APERTURE LIST*
G04 Aperture macros list*
%AMRoundRect*
0 Rectangle with rounded corners*
0 $1 Rounding radius*
0 $2 $3 $4 $5 $6 $7 $8 $9 X,Y pos of 4 corners*
0 Add a 4 corners polygon primitive as box body*
4,1,4,$2,$3,$4,$5,$6,$7,$8,$9,$2,$3,0*
0 Add four circle primitives for the rounded corners*
1,1,$1+$1,$2,$3*
1,1,$1+$1,$4,$5*
1,1,$1+$1,$6,$7*
1,1,$1+$1,$8,$9*
0 Add four rect primitives between the rounded corners*
20,1,$1+$1,$2,$3,$4,$5,0*
20,1,$1+$1,$4,$5,$6,$7,0*
20,1,$1+$1,$6,$7,$8,$9,0*
20,1,$1+$1,$8,$9,$2,$3,0*%
%AMRotRect*
0 Rectangle, with rotation*
0 The origin of the aperture is its center*
0 $1 length*
0 $2 width*
0 $3 Rotation angle, in degrees counterclockwise*
0 Add horizontal line*
21,1,$1,$2,0,0,$3*%
G04 Aperture macros list end*
%ADD10R,2.550000X2.500000*%
%ADD11RotRect,2.550000X2.500000X12.000000*%
%ADD12RotRect,2.550000X2.500000X348.000000*%
%ADD13RotRect,0.900000X1.200000X102.000000*%
%ADD14R,1.200000X0.900000*%
%ADD15R,1.500000X1.000000*%
%ADD16RotRect,0.900000X1.200000X78.000000*%
%ADD17RotRect,1.500000X0.550000X225.000000*%
%ADD18RotRect,1.500000X0.550000X135.000000*%
%ADD19R,1.000000X1.500000*%
%ADD20RoundRect,0.225000X0.017678X-0.335876X0.335876X-0.017678X-0.017678X0.335876X-0.335876X0.017678X0*%
%ADD21R,1.100000X1.800000*%
%ADD22RoundRect,0.200000X0.200000X0.275000X-0.200000X0.275000X-0.200000X-0.275000X0.200000X-0.275000X0*%
%ADD23RoundRect,0.225000X0.335876X0.017678X0.017678X0.335876X-0.335876X-0.017678X-0.017678X-0.335876X0*%
%ADD24RoundRect,0.200000X-0.335876X-0.053033X-0.053033X-0.335876X0.335876X0.053033X0.053033X0.335876X0*%
%ADD25R,0.600000X1.450000*%
%ADD26R,0.300000X1.450000*%
%ADD27R,0.700000X1.000000*%
%ADD28R,0.700000X0.600000*%
%ADD29RoundRect,0.200000X0.275000X-0.200000X0.275000X0.200000X-0.275000X0.200000X-0.275000X-0.200000X0*%
%ADD30RotRect,1.400000X1.200000X45.000000*%
%ADD31RoundRect,0.200000X-0.275000X0.200000X-0.275000X-0.200000X0.275000X-0.200000X0.275000X0.200000X0*%
%ADD32RoundRect,0.250001X0.624999X-0.462499X0.624999X0.462499X-0.624999X0.462499X-0.624999X-0.462499X0*%
%ADD33RoundRect,0.200000X-0.200000X-0.275000X0.200000X-0.275000X0.200000X0.275000X-0.200000X0.275000X0*%
%ADD34RoundRect,0.225000X-0.017678X0.335876X-0.335876X0.017678X0.017678X-0.335876X0.335876X-0.017678X0*%
%ADD35RoundRect,0.225000X-0.335876X-0.017678X-0.017678X-0.335876X0.335876X0.017678X0.017678X0.335876X0*%
G04 APERTURE END LIST*
D10*
X65216567Y-31209745D03*
X78143567Y-28669745D03*
D11*
X219943379Y-55328316D03*
X232059797Y-50156147D03*
X228013384Y-113578348D03*
X240129802Y-108406179D03*
X204569659Y-97549057D03*
X216686077Y-92376888D03*
D10*
X28126547Y-52399757D03*
X41053547Y-49859757D03*
D12*
X73119490Y-50402207D03*
X86292100Y-50605386D03*
D10*
X289321688Y-90499777D03*
X302248688Y-87959777D03*
D11*
X185935937Y-101509776D03*
X198052355Y-96337607D03*
D10*
X264806674Y-33349746D03*
X277733674Y-30809746D03*
D12*
X79169494Y-90642229D03*
X92342104Y-90845408D03*
D10*
X263126673Y-90499777D03*
X276053673Y-87959777D03*
D12*
X142300663Y-45634358D03*
X155473273Y-45837537D03*
X129720656Y-81914377D03*
X142893266Y-82117556D03*
D10*
X246176664Y-31209745D03*
X259103664Y-28669745D03*
D11*
X201309657Y-59289036D03*
X213426075Y-54116867D03*
D12*
X74359491Y-110632240D03*
X87532101Y-110835419D03*
D10*
X27036543Y-90499777D03*
X39963543Y-87959777D03*
X240816661Y-51339756D03*
X253743661Y-48799756D03*
X46576557Y-33349746D03*
X59503557Y-30809746D03*
X268486676Y-71449767D03*
X281413676Y-68909767D03*
D11*
X209929662Y-76939046D03*
X222046080Y-71766877D03*
D12*
X123666942Y-41673638D03*
X136839552Y-41876817D03*
D10*
X4506534Y-31209745D03*
X17433534Y-28669745D03*
X249436666Y-71449767D03*
X262363666Y-68909767D03*
X302316695Y-52399757D03*
X315243695Y-49859757D03*
D12*
X105033220Y-37712918D03*
X118205830Y-37916097D03*
D10*
X-3723471Y-69309766D03*
X9203529Y-66769766D03*
D12*
X73819491Y-70032218D03*
X86992101Y-70235397D03*
D11*
X187603364Y-120638351D03*
X199719782Y-115466182D03*
D10*
X315515452Y-90499777D03*
X328442452Y-87959777D03*
X293381690Y-33349746D03*
X306308690Y-30809746D03*
X259446671Y-52399757D03*
X272373671Y-49859757D03*
D12*
X110386935Y-58323647D03*
X123559545Y-58526826D03*
D10*
X346532Y-50259755D03*
X13273532Y-47719755D03*
D12*
X135070659Y-102524388D03*
X148243269Y-102727567D03*
D10*
X307072297Y-109597787D03*
X319999297Y-107057787D03*
D11*
X164042214Y-67210476D03*
X176158632Y-62038307D03*
D10*
X244076663Y-90499777D03*
X257003663Y-87959777D03*
D12*
X86399498Y-33752198D03*
X99572108Y-33955377D03*
X107598066Y-116160466D03*
X120770676Y-116363645D03*
D11*
X188035938Y-42639744D03*
X200152356Y-37467575D03*
D10*
X27526546Y-33349746D03*
X40453546Y-30809746D03*
X278496682Y-52399757D03*
X291423682Y-49859757D03*
D11*
X191295940Y-80899765D03*
X203412358Y-75727596D03*
D12*
X92453213Y-73992938D03*
X105625823Y-74196117D03*
X111086935Y-77953657D03*
X124259545Y-78156836D03*
X129020656Y-62284367D03*
X142193266Y-62487546D03*
D10*
X299436693Y-71449767D03*
X312363693Y-68909767D03*
D11*
X228563384Y-72978326D03*
X240679802Y-67806157D03*
D10*
X51936559Y-52399757D03*
X64863559Y-49859757D03*
X57986563Y-90499777D03*
X70913563Y-87959777D03*
D11*
X225303382Y-34718305D03*
X237419800Y-29546136D03*
X167302216Y-105470496D03*
X179418634Y-100298327D03*
D12*
X97803216Y-94602949D03*
X110975826Y-94806128D03*
D10*
X52636560Y-71449767D03*
X65563560Y-68909767D03*
D11*
X172662219Y-84860485D03*
X184778637Y-79688316D03*
D10*
X19896542Y-109549787D03*
X32823542Y-107009787D03*
D11*
X182675935Y-63249756D03*
X194792353Y-58077587D03*
D12*
X91753213Y-54362927D03*
X104925823Y-54566106D03*
D11*
X223203381Y-93588337D03*
X235319799Y-88416168D03*
D10*
X26436525Y-71449767D03*
X39363525Y-68909767D03*
D11*
X169402217Y-46600465D03*
X181518635Y-41428296D03*
D12*
X140209529Y-123092247D03*
X153382139Y-123295426D03*
X116436938Y-98563668D03*
X129609548Y-98766847D03*
D11*
X206669660Y-38679025D03*
X218786078Y-33506856D03*
D13*
X242154579Y-40203684D03*
X241468471Y-36975796D03*
X245404579Y-78453684D03*
X244718471Y-75225796D03*
X226804579Y-82453684D03*
X226118471Y-79225796D03*
D14*
X46100000Y-96250000D03*
X46100000Y-92950000D03*
D13*
X240054579Y-99053684D03*
X239368471Y-95825796D03*
X186254579Y-52053684D03*
X185568471Y-48825796D03*
D15*
X181600000Y-30125000D03*
X181600000Y-33325000D03*
X176700000Y-33325000D03*
X176700000Y-30125000D03*
X225125000Y-26900000D03*
X225125000Y-30100000D03*
X220225000Y-30100000D03*
X220225000Y-26900000D03*
D16*
X92318471Y-102553684D03*
X93004579Y-99325796D03*
D14*
X19861525Y-40139740D03*
X19861525Y-36839740D03*
X68011525Y-80339740D03*
X68011525Y-77039740D03*
D16*
X124218471Y-89853684D03*
X124904579Y-86625796D03*
D17*
X156432082Y-78471064D03*
X156997767Y-79036750D03*
X157563452Y-79602435D03*
X158129138Y-80168120D03*
X158694823Y-80733806D03*
X159260509Y-81299491D03*
X159826194Y-81865177D03*
X160391880Y-82430862D03*
X160957565Y-82996548D03*
X161523250Y-83562233D03*
X162088936Y-84127918D03*
D18*
X162088936Y-86532082D03*
X161523250Y-87097767D03*
X160957565Y-87663452D03*
X160391880Y-88229138D03*
X159826194Y-88794823D03*
X159260509Y-89360509D03*
X158694823Y-89926194D03*
X158129138Y-90491880D03*
X157563452Y-91057565D03*
X156997767Y-91623250D03*
X156432082Y-92188936D03*
D17*
X154027918Y-92188936D03*
X153462233Y-91623250D03*
X152896548Y-91057565D03*
X152330862Y-90491880D03*
X151765177Y-89926194D03*
X151199491Y-89360509D03*
X150633806Y-88794823D03*
X150068120Y-88229138D03*
X149502435Y-87663452D03*
X148936750Y-87097767D03*
X148371064Y-86532082D03*
D18*
X148371064Y-84127918D03*
X148936750Y-83562233D03*
X149502435Y-82996548D03*
X150068120Y-82430862D03*
X150633806Y-81865177D03*
X151199491Y-81299491D03*
X151765177Y-80733806D03*
X152330862Y-80168120D03*
X152896548Y-79602435D03*
X153462233Y-79036750D03*
X154027918Y-78471064D03*
D19*
X320350000Y-36275000D03*
X317150000Y-36275000D03*
X317150000Y-31375000D03*
X320350000Y-31375000D03*
D20*
X160531992Y-79508008D03*
X161628008Y-78411992D03*
D14*
X43461525Y-61289740D03*
X43461525Y-57989740D03*
D15*
X49850000Y-112600000D03*
X49850000Y-109400000D03*
X54750000Y-109400000D03*
X54750000Y-112600000D03*
D13*
X236804579Y-60803684D03*
X236118471Y-57575796D03*
D19*
X19800000Y-61050000D03*
X23000000Y-61050000D03*
X23000000Y-65950000D03*
X19800000Y-65950000D03*
D16*
X86268471Y-62303684D03*
X86954579Y-59075796D03*
D14*
X73311525Y-99389740D03*
X73311525Y-96089740D03*
X42986525Y-42433490D03*
X42986525Y-39133490D03*
D15*
X295210000Y-111920000D03*
X295210000Y-108720000D03*
X300110000Y-108720000D03*
X300110000Y-111920000D03*
D21*
X154925000Y-64025000D03*
X154925000Y-70225000D03*
X151225000Y-70225000D03*
X151225000Y-64025000D03*
D15*
X21125000Y-30500000D03*
X21125000Y-27300000D03*
X26025000Y-27300000D03*
X26025000Y-30500000D03*
D19*
X5025000Y-86100000D03*
X8225000Y-86100000D03*
X8225000Y-91000000D03*
X5025000Y-91000000D03*
D16*
X153343471Y-135003684D03*
X154029579Y-131775796D03*
D15*
X86650000Y-26400000D03*
X86650000Y-29600000D03*
X81750000Y-29600000D03*
X81750000Y-26400000D03*
D22*
X149350000Y-70250000D03*
X147700000Y-70250000D03*
D23*
X164308008Y-95668008D03*
X163211992Y-94571992D03*
D15*
X285625000Y-26800000D03*
X285625000Y-30000000D03*
X280725000Y-30000000D03*
X280725000Y-26800000D03*
D16*
X105618471Y-85903684D03*
X106304579Y-82675796D03*
X87543471Y-122528684D03*
X88229579Y-119300796D03*
D13*
X189454579Y-90353684D03*
X188768471Y-87125796D03*
D15*
X93150000Y-119300000D03*
X93150000Y-116100000D03*
X98050000Y-116100000D03*
X98050000Y-119300000D03*
D13*
X221404579Y-103053684D03*
X220718471Y-99825796D03*
D15*
X132950000Y-121900000D03*
X132950000Y-125100000D03*
X128050000Y-125100000D03*
X128050000Y-121900000D03*
X213450000Y-120600000D03*
X213450000Y-117400000D03*
X218350000Y-117400000D03*
X218350000Y-120600000D03*
D16*
X136718471Y-53703684D03*
X137404579Y-50475796D03*
D13*
X184204579Y-110953684D03*
X183518471Y-107725796D03*
D24*
X145796637Y-86446637D03*
X146963363Y-87613363D03*
D14*
X41811525Y-80339740D03*
X41811525Y-77039740D03*
D13*
X204454579Y-126128684D03*
X203768471Y-122900796D03*
X223504579Y-44253684D03*
X222818471Y-41025796D03*
D16*
X99718471Y-45703684D03*
X100404579Y-42475796D03*
X129568471Y-110453684D03*
X130254579Y-107225796D03*
D20*
X146121992Y-83848008D03*
X147218008Y-82751992D03*
D14*
X280161525Y-42289740D03*
X280161525Y-38989740D03*
X306600000Y-99289740D03*
X306600000Y-95989740D03*
D13*
X208154579Y-86403684D03*
X207468471Y-83175796D03*
D19*
X326550000Y-81960000D03*
X323350000Y-81960000D03*
X323350000Y-77060000D03*
X326550000Y-77060000D03*
D14*
X259411525Y-99289740D03*
X259411525Y-95989740D03*
D15*
X249050000Y-115700000D03*
X249050000Y-112500000D03*
X253950000Y-112500000D03*
X253950000Y-115700000D03*
D13*
X180904579Y-72703684D03*
X180218471Y-69475796D03*
D15*
X116550000Y-27400000D03*
X116550000Y-30600000D03*
X111650000Y-30600000D03*
X111650000Y-27400000D03*
D14*
X15711525Y-59139740D03*
X15711525Y-55839740D03*
X307600000Y-43850000D03*
X307600000Y-40550000D03*
D15*
X178650000Y-127900000D03*
X178650000Y-124700000D03*
X183550000Y-124700000D03*
X183550000Y-127900000D03*
D16*
X142868471Y-93803684D03*
X143554579Y-90575796D03*
X155511525Y-57539740D03*
X156197633Y-54311852D03*
D14*
X283811525Y-80339740D03*
X283811525Y-77039740D03*
D25*
X159505000Y-25132500D03*
X160280000Y-25132500D03*
D26*
X160980000Y-25132500D03*
X161480000Y-25132500D03*
X161980000Y-25132500D03*
X162480000Y-25132500D03*
X162980000Y-25132500D03*
X163480000Y-25132500D03*
X163980000Y-25132500D03*
X164480000Y-25132500D03*
D25*
X165180000Y-25132500D03*
X165955000Y-25132500D03*
D16*
X120768471Y-128053684D03*
X121454579Y-124825796D03*
D14*
X293861525Y-61289740D03*
X293861525Y-57989740D03*
D16*
X86968471Y-81953684D03*
X87654579Y-78725796D03*
D13*
X218154579Y-64803684D03*
X217468471Y-61575796D03*
D14*
X62036525Y-42433490D03*
X62036525Y-39133490D03*
D13*
X202804579Y-107003684D03*
X202118471Y-103775796D03*
D14*
X328911525Y-99389740D03*
X328911525Y-96089740D03*
D13*
X204854579Y-48203684D03*
X204168471Y-44975796D03*
D27*
X163731612Y-32114740D03*
D28*
X163731612Y-33814740D03*
X161731612Y-33814740D03*
X161731612Y-31914740D03*
D14*
X278511525Y-99289740D03*
X278511525Y-95989740D03*
D13*
X244879579Y-119078684D03*
X244193471Y-115850796D03*
D14*
X256161525Y-60189740D03*
X256161525Y-56889740D03*
X274761525Y-61289740D03*
X274761525Y-57989740D03*
X264811525Y-80339740D03*
X264811525Y-77039740D03*
D16*
X123568471Y-70203684D03*
X124254579Y-66975796D03*
D14*
X11611525Y-78189740D03*
X11611525Y-74889740D03*
D15*
X9350000Y-109600000D03*
X9350000Y-106400000D03*
X14250000Y-106400000D03*
X14250000Y-109600000D03*
D29*
X160161524Y-77327240D03*
X160161524Y-75677240D03*
D22*
X158119112Y-30149740D03*
X156469112Y-30149740D03*
D30*
X160841142Y-92216777D03*
X162396777Y-90661142D03*
X163598858Y-91863223D03*
X162043223Y-93418858D03*
D16*
X104968471Y-66303684D03*
X105654579Y-63075796D03*
X148268471Y-114403684D03*
X148954579Y-111175796D03*
D14*
X314761525Y-80339740D03*
X314761525Y-77039740D03*
D31*
X158561525Y-75677240D03*
X158561525Y-77327240D03*
D14*
X317661525Y-61289740D03*
X317661525Y-57989740D03*
X35211525Y-118439740D03*
X35211525Y-115139740D03*
D32*
X158901525Y-38167240D03*
X158901525Y-35192240D03*
D16*
X118218471Y-49703684D03*
X118904579Y-46475796D03*
X110968471Y-106453684D03*
X111654579Y-103225796D03*
D14*
X261511525Y-40089740D03*
X261511525Y-36789740D03*
D33*
X167344112Y-30149740D03*
X168994112Y-30149740D03*
D34*
X164728008Y-88011992D03*
X163631992Y-89108008D03*
X153568008Y-76341992D03*
X152471992Y-77438008D03*
D35*
X152901992Y-93681992D03*
X153998008Y-94778008D03*
D23*
X165928008Y-94058008D03*
X164831992Y-92961992D03*
D16*
X142168471Y-74153684D03*
X142854579Y-70925796D03*
D19*
X324710000Y-61570000D03*
X321510000Y-61570000D03*
X321510000Y-56670000D03*
X324710000Y-56670000D03*
D20*
X161601992Y-80578008D03*
X162698008Y-79481992D03*
D14*
X80561525Y-40239740D03*
X80561525Y-36939740D03*
D15*
X148075000Y-28900000D03*
X148075000Y-32100000D03*
X143175000Y-32100000D03*
X143175000Y-28900000D03*
D14*
X67311525Y-61289740D03*
X67311525Y-57989740D03*
X322411525Y-118489740D03*
X322411525Y-115189740D03*
D13*
X199454579Y-68753684D03*
X198768471Y-65525796D03*
M02*
