G04 #@! TF.GenerationSoftware,KiCad,Pcbnew,(5.99.0-11539-gc946070005)*
G04 #@! TF.CreationDate,2021-08-03T22:46:40-05:00*
G04 #@! TF.ProjectId,aliceq,616c6963-6571-42e6-9b69-6361645f7063,rev?*
G04 #@! TF.SameCoordinates,Original*
G04 #@! TF.FileFunction,Profile,NP*
%FSLAX46Y46*%
G04 Gerber Fmt 4.6, Leading zero omitted, Abs format (unit mm)*
G04 Created by KiCad (PCBNEW (5.99.0-11539-gc946070005)) date 2021-08-03 22:46:40*
%MOMM*%
%LPD*%
G01*
G04 APERTURE LIST*
G04 #@! TA.AperFunction,Profile*
%ADD10C,0.050000*%
G04 #@! TD*
G04 APERTURE END LIST*
D10*
X205070799Y-28827418D02*
G75*
G03*
X205070799Y-28827418I-2526114J0D01*
G01*
X167901525Y-24749740D02*
X330591525Y-24749740D01*
X-4578475Y-121089740D02*
X68061525Y-121089740D01*
X167901525Y-18370000D02*
X167901525Y-24749740D01*
X162731525Y-141209740D02*
X68061525Y-121089740D01*
X330491525Y-121089740D02*
X330574328Y-121088255D01*
X162731525Y-141209740D02*
X257401525Y-121089740D01*
X330574328Y-121088255D02*
G75*
G03*
X331601525Y-120079740I20137J1006860D01*
G01*
X157551525Y-18370000D02*
X167901525Y-18370000D01*
X331601525Y-33959740D02*
X331601525Y-120079740D01*
X124125456Y-30507884D02*
G75*
G03*
X124125456Y-30507884I-2526114J0D01*
G01*
X-5638475Y-120079740D02*
G75*
G03*
X-4578475Y-121089740I1010701J-502D01*
G01*
X-4611278Y-24751225D02*
X157551525Y-24749740D01*
X157551525Y-18370000D02*
X157551525Y-24749740D01*
X330491525Y-121089740D02*
X257401525Y-121089740D01*
X331601525Y-33959740D02*
X331600040Y-25776937D01*
X331600039Y-25776937D02*
G75*
G03*
X330591525Y-24749740I-1006859J20138D01*
G01*
X-5641474Y-25761023D02*
X-5638475Y-120079740D01*
X-4611278Y-24751225D02*
G75*
G03*
X-5641474Y-25761023I-20196J-1009798D01*
G01*
G36*
X170417886Y-124702507D02*
G01*
X170472554Y-124722540D01*
X170513354Y-124767605D01*
X170542425Y-124847740D01*
X170561906Y-124972984D01*
X170573937Y-125153376D01*
X170580655Y-125398955D01*
X170584201Y-125719759D01*
X170586713Y-126125828D01*
X170586976Y-126167447D01*
X170590223Y-126515068D01*
X170594992Y-126832071D01*
X170600951Y-127105518D01*
X170607771Y-127322471D01*
X170615121Y-127469992D01*
X170622671Y-127535141D01*
X170626972Y-127592851D01*
X170574905Y-127688303D01*
X170473159Y-127764141D01*
X170348450Y-127795047D01*
X170306456Y-127792780D01*
X170194481Y-127749994D01*
X170120527Y-127645239D01*
X170079724Y-127468373D01*
X170067205Y-127209259D01*
X170067082Y-127159388D01*
X170061299Y-126977150D01*
X170040889Y-126849702D01*
X169997657Y-126743824D01*
X169923410Y-126626298D01*
X169768561Y-126431786D01*
X169613484Y-126309575D01*
X169461824Y-126270094D01*
X169442934Y-126270556D01*
X169393431Y-126282180D01*
X169357763Y-126319924D01*
X169332684Y-126397621D01*
X169314948Y-126529102D01*
X169301312Y-126728199D01*
X169288529Y-127008743D01*
X169287353Y-127036166D01*
X169263835Y-127364647D01*
X169225631Y-127605841D01*
X169171254Y-127766385D01*
X169099214Y-127852916D01*
X169026912Y-127882524D01*
X168882980Y-127875255D01*
X168757418Y-127795842D01*
X168749559Y-127786996D01*
X168710000Y-127728199D01*
X168694081Y-127653977D01*
X168699923Y-127538275D01*
X168725649Y-127355035D01*
X168732987Y-127305538D01*
X168762026Y-127073833D01*
X168789302Y-126807920D01*
X168809740Y-126556023D01*
X168833805Y-126317245D01*
X168892267Y-126048110D01*
X168979197Y-125867678D01*
X169095144Y-125774447D01*
X169137297Y-125760764D01*
X169346527Y-125737800D01*
X169583911Y-125763522D01*
X169810776Y-125831045D01*
X169988450Y-125933483D01*
X170002472Y-125945009D01*
X170036896Y-125965266D01*
X170056180Y-125948419D01*
X170062273Y-125879989D01*
X170057122Y-125745495D01*
X170042677Y-125530456D01*
X170031964Y-125296634D01*
X170043341Y-125027699D01*
X170087994Y-124841222D01*
X170167229Y-124732664D01*
X170282353Y-124697486D01*
X170347210Y-124697467D01*
X170417886Y-124702507D01*
G37*
G36*
X161706314Y-125714677D02*
G01*
X161953697Y-125746864D01*
X162233807Y-125826344D01*
X162430800Y-125946845D01*
X162547168Y-126110076D01*
X162585404Y-126317749D01*
X162577411Y-126416175D01*
X162527134Y-126552830D01*
X162420398Y-126677838D01*
X162245408Y-126803579D01*
X161990375Y-126942432D01*
X161805530Y-127040426D01*
X161631538Y-127153119D01*
X161548519Y-127241379D01*
X161555929Y-127305660D01*
X161652767Y-127351590D01*
X161813057Y-127373597D01*
X162004683Y-127368898D01*
X162196826Y-127336030D01*
X162347896Y-127304651D01*
X162532178Y-127302653D01*
X162643426Y-127360153D01*
X162680713Y-127476884D01*
X162649067Y-127594469D01*
X162530189Y-127713329D01*
X162320142Y-127814981D01*
X162302705Y-127821207D01*
X162001779Y-127884179D01*
X161697329Y-127873228D01*
X161414461Y-127792101D01*
X161178285Y-127644547D01*
X161143092Y-127612970D01*
X161058119Y-127517597D01*
X161020980Y-127414919D01*
X161012796Y-127261200D01*
X161012916Y-127235444D01*
X161025089Y-127087673D01*
X161069614Y-126984479D01*
X161164028Y-126881883D01*
X161180531Y-126867219D01*
X161309446Y-126772805D01*
X161485742Y-126663766D01*
X161676317Y-126560846D01*
X161737702Y-126529302D01*
X161890778Y-126440800D01*
X161997373Y-126364335D01*
X162037374Y-126313673D01*
X162028512Y-126289262D01*
X161946769Y-126245908D01*
X161775272Y-126213976D01*
X161715319Y-126207079D01*
X161576353Y-126200766D01*
X161486040Y-126222270D01*
X161410612Y-126277470D01*
X161356290Y-126320055D01*
X161226925Y-126360614D01*
X161116538Y-126315717D01*
X161044155Y-126189911D01*
X161037512Y-126165427D01*
X161018096Y-125975573D01*
X161072655Y-125837446D01*
X161203802Y-125749172D01*
X161414151Y-125708874D01*
X161706314Y-125714677D01*
G37*
G36*
X164610153Y-125745252D02*
G01*
X164628587Y-125764682D01*
X164650231Y-125788778D01*
X164666974Y-125817976D01*
X164679112Y-125862296D01*
X164686937Y-125931757D01*
X164690744Y-126036381D01*
X164690826Y-126186187D01*
X164687477Y-126391196D01*
X164680992Y-126661427D01*
X164671664Y-127006900D01*
X164659786Y-127437636D01*
X164653041Y-127676319D01*
X164641818Y-128027430D01*
X164630720Y-128299372D01*
X164618925Y-128502430D01*
X164605609Y-128646890D01*
X164589950Y-128743038D01*
X164571125Y-128801159D01*
X164548313Y-128831539D01*
X164479499Y-128872217D01*
X164341098Y-128880046D01*
X164205666Y-128795798D01*
X164191964Y-128781380D01*
X164150070Y-128717634D01*
X164125255Y-128626681D01*
X164113393Y-128485859D01*
X164110357Y-128272507D01*
X164110357Y-127844525D01*
X163907331Y-127872353D01*
X163666617Y-127877393D01*
X163396232Y-127802824D01*
X163159814Y-127639923D01*
X162959903Y-127389982D01*
X162926790Y-127317157D01*
X162885532Y-127130432D01*
X162868342Y-126899110D01*
X162875192Y-126653865D01*
X162906056Y-126425369D01*
X162960907Y-126244295D01*
X163006919Y-126153172D01*
X163164164Y-125950891D01*
X163363576Y-125832260D01*
X163610536Y-125793546D01*
X163702843Y-125796312D01*
X163870843Y-125813700D01*
X163992723Y-125841773D01*
X164056464Y-125861638D01*
X164134823Y-125850563D01*
X164213731Y-125770290D01*
X164219856Y-125762696D01*
X164345713Y-125669225D01*
X164482980Y-125662958D01*
X164610153Y-125745252D01*
G37*
G36*
X167830563Y-125128056D02*
G01*
X167842637Y-125135032D01*
X167892067Y-125188346D01*
X167916303Y-125284750D01*
X167922740Y-125450069D01*
X167922740Y-125722751D01*
X168138326Y-125705605D01*
X168236355Y-125702132D01*
X168387126Y-125731064D01*
X168469555Y-125815865D01*
X168494597Y-125964496D01*
X168489769Y-126030318D01*
X168437628Y-126142238D01*
X168319198Y-126203685D01*
X168123280Y-126222439D01*
X167936317Y-126222439D01*
X167905701Y-126515359D01*
X167899009Y-126591283D01*
X167886740Y-126802959D01*
X167878254Y-127052053D01*
X167875085Y-127299295D01*
X167874336Y-127446779D01*
X167868592Y-127625522D01*
X167854784Y-127738287D01*
X167830089Y-127803324D01*
X167791689Y-127838885D01*
X167710689Y-127873960D01*
X167555083Y-127877579D01*
X167424601Y-127797519D01*
X167394355Y-127755735D01*
X167371668Y-127694171D01*
X167357915Y-127600039D01*
X167351834Y-127457675D01*
X167352165Y-127251411D01*
X167357647Y-126965582D01*
X167374710Y-126226483D01*
X167118252Y-126212548D01*
X166861794Y-126198612D01*
X166856151Y-125972736D01*
X166855349Y-125924482D01*
X166865553Y-125800791D01*
X166911119Y-125732835D01*
X167011960Y-125704141D01*
X167187988Y-125698237D01*
X167398537Y-125698237D01*
X167398537Y-125494394D01*
X167401433Y-125422562D01*
X167446506Y-125236249D01*
X167539121Y-125119914D01*
X167670175Y-125081276D01*
X167830563Y-125128056D01*
G37*
G36*
X165898630Y-125085736D02*
G01*
X166024127Y-125151769D01*
X166086110Y-125288100D01*
X166085127Y-125495593D01*
X166053646Y-125732915D01*
X166290687Y-125710138D01*
X166342782Y-125705537D01*
X166469631Y-125704242D01*
X166546111Y-125732161D01*
X166605722Y-125798712D01*
X166642438Y-125859332D01*
X166677568Y-126004163D01*
X166628129Y-126119193D01*
X166500819Y-126195069D01*
X166302333Y-126222439D01*
X166078687Y-126222439D01*
X166047618Y-126730228D01*
X166039750Y-126867606D01*
X166027819Y-127115906D01*
X166019605Y-127341020D01*
X166016548Y-127507001D01*
X166011746Y-127619392D01*
X165990978Y-127756402D01*
X165959362Y-127833171D01*
X165926464Y-127859228D01*
X165799572Y-127892618D01*
X165663776Y-127860367D01*
X165557789Y-127768691D01*
X165536795Y-127732131D01*
X165512640Y-127663111D01*
X165498472Y-127565495D01*
X165493246Y-127422649D01*
X165495918Y-127217940D01*
X165505445Y-126934732D01*
X165532820Y-126222439D01*
X165283840Y-126222439D01*
X165136584Y-126215187D01*
X165005744Y-126176179D01*
X164939105Y-126092618D01*
X164920488Y-125952484D01*
X164930372Y-125863362D01*
X164990937Y-125766381D01*
X165117475Y-125713962D01*
X165322421Y-125698237D01*
X165540000Y-125698237D01*
X165540000Y-125494394D01*
X165542345Y-125429627D01*
X165586375Y-125240790D01*
X165681408Y-125120768D01*
X165821245Y-125078724D01*
X165898630Y-125085736D01*
G37*
M02*
