G04 #@! TF.GenerationSoftware,KiCad,Pcbnew,(5.99.0-10089-gf88d39b4f0)*
G04 #@! TF.CreationDate,2021-04-03T17:52:51-06:00*
G04 #@! TF.ProjectId,aliceq,616c6963-6571-42e6-9b69-6361645f7063,rev?*
G04 #@! TF.SameCoordinates,Original*
G04 #@! TF.FileFunction,Copper,L2,Bot*
G04 #@! TF.FilePolarity,Positive*
%FSLAX46Y46*%
G04 Gerber Fmt 4.6, Leading zero omitted, Abs format (unit mm)*
G04 Created by KiCad (PCBNEW (5.99.0-10089-gf88d39b4f0)) date 2021-04-03 17:52:51*
%MOMM*%
%LPD*%
G01*
G04 APERTURE LIST*
G04 Aperture macros list*
%AMRotRect*
0 Rectangle, with rotation*
0 The origin of the aperture is its center*
0 $1 length*
0 $2 width*
0 $3 Rotation angle, in degrees counterclockwise*
0 Add horizontal line*
21,1,$1,$2,0,0,$3*%
G04 Aperture macros list end*
G04 #@! TA.AperFunction,ComponentPad*
%ADD10C,2.250000*%
G04 #@! TD*
G04 #@! TA.AperFunction,SMDPad,CuDef*
%ADD11RotRect,0.900000X1.200000X102.000000*%
G04 #@! TD*
G04 #@! TA.AperFunction,SMDPad,CuDef*
%ADD12R,1.200000X0.900000*%
G04 #@! TD*
G04 #@! TA.AperFunction,SMDPad,CuDef*
%ADD13RotRect,0.900000X1.200000X78.000000*%
G04 #@! TD*
G04 APERTURE END LIST*
D10*
X60430042Y-16620005D03*
X66780042Y-14080005D03*
X215085287Y-40057666D03*
X220768429Y-36252931D03*
X223155292Y-98307698D03*
X228838434Y-94502963D03*
X199711567Y-82278407D03*
X205394709Y-78473672D03*
X23340022Y-37810017D03*
X29690022Y-35270017D03*
X12725018Y-75910037D03*
X19075018Y-73370037D03*
X68261398Y-36493378D03*
X75000731Y-35329122D03*
X284535163Y-75910037D03*
X290885163Y-73370037D03*
X181077845Y-86239126D03*
X186760987Y-82434391D03*
X260020149Y-18760006D03*
X266370149Y-16220006D03*
X74311402Y-76733400D03*
X81050735Y-75569144D03*
X258340148Y-75910037D03*
X264690148Y-73370037D03*
X137442571Y-31725529D03*
X144181904Y-30561273D03*
X124862564Y-68005548D03*
X131601897Y-66841292D03*
X241390139Y-16620005D03*
X247740139Y-14080005D03*
X196451565Y-44018386D03*
X202134707Y-40213651D03*
X69501399Y-96723411D03*
X76240732Y-95559155D03*
X22250018Y-75910037D03*
X28600018Y-73370037D03*
X236030136Y-36750016D03*
X242380136Y-34210016D03*
X279070160Y-18760006D03*
X285420160Y-16220006D03*
X294058168Y-75910037D03*
X300408168Y-73370037D03*
X41790032Y-18760006D03*
X48140032Y-16220006D03*
X263700151Y-56860027D03*
X270050151Y-54320027D03*
X17518992Y-56860027D03*
X23868992Y-54320027D03*
X205071570Y-61668396D03*
X210754712Y-57863661D03*
X118808850Y-27764809D03*
X125548183Y-26600553D03*
X-279991Y-16620005D03*
X6070009Y-14080005D03*
X298120170Y-18760006D03*
X304470170Y-16220006D03*
X133036451Y-108691352D03*
X139775784Y-107527096D03*
X244650141Y-56860027D03*
X251000141Y-54320027D03*
X297530170Y-37810017D03*
X303880170Y-35270017D03*
X100175128Y-23804089D03*
X106914461Y-22639833D03*
X-8509996Y-54720026D03*
X-2159996Y-52180026D03*
X68961399Y-56123389D03*
X75700732Y-54959133D03*
X182745272Y-105367701D03*
X188428414Y-101562966D03*
X310728927Y-75910037D03*
X317078927Y-73370037D03*
X288595165Y-18760006D03*
X294945165Y-16220006D03*
X254660146Y-37810017D03*
X261010146Y-35270017D03*
X105528843Y-44414818D03*
X112268176Y-43250562D03*
X-4439993Y-35670015D03*
X1910007Y-33130015D03*
X130212567Y-88615559D03*
X136951900Y-87451303D03*
X302285772Y-95008047D03*
X308635772Y-92468047D03*
X159184122Y-51939826D03*
X164867264Y-48135091D03*
X239290138Y-75910037D03*
X245640138Y-73370037D03*
X81541406Y-19843369D03*
X88280739Y-18679113D03*
X105031421Y-102743415D03*
X111770754Y-101579159D03*
X102739974Y-102251637D03*
X109479307Y-101087381D03*
X183177846Y-27369094D03*
X188860988Y-23564359D03*
X22740021Y-18760006D03*
X29090021Y-16220006D03*
X273710157Y-37810017D03*
X280060157Y-35270017D03*
X186437848Y-65629115D03*
X192120990Y-61824380D03*
X87595121Y-60084109D03*
X94334454Y-58919853D03*
X106228843Y-64044828D03*
X112968176Y-62880572D03*
X124162564Y-48375538D03*
X130901897Y-47211282D03*
X34156268Y-75910037D03*
X40506268Y-73370037D03*
X294650168Y-56860027D03*
X301000168Y-54320027D03*
X223705292Y-57707676D03*
X229388434Y-53902941D03*
X47150034Y-37810017D03*
X53500034Y-35270017D03*
X53200038Y-75910037D03*
X59550038Y-73370037D03*
X220445290Y-19447655D03*
X226128432Y-15642920D03*
X162444124Y-90199846D03*
X168127266Y-86395111D03*
X92945124Y-80694120D03*
X99684457Y-79529864D03*
X47850035Y-56860027D03*
X54200035Y-54320027D03*
X167804127Y-69589835D03*
X173487269Y-65785100D03*
X15110017Y-94960047D03*
X21460017Y-92420047D03*
X177817843Y-47979106D03*
X183500985Y-44174371D03*
X86895121Y-40454098D03*
X93634454Y-39289842D03*
X218345289Y-78317687D03*
X224028431Y-74512952D03*
X21650000Y-56860027D03*
X28000000Y-54320027D03*
X164544125Y-31329815D03*
X170227267Y-27525080D03*
X135351437Y-109183418D03*
X142090770Y-108019162D03*
X111578846Y-84654839D03*
X118318179Y-83490583D03*
X201811568Y-23408375D03*
X207494710Y-19603640D03*
D11*
X234093054Y-25613944D03*
X233406946Y-22386056D03*
X178193054Y-37463944D03*
X177506946Y-34236056D03*
D12*
X11800000Y-25550000D03*
X11800000Y-22250000D03*
X310150000Y-27650000D03*
X310150000Y-24350000D03*
X34925000Y-27843750D03*
X34925000Y-24543750D03*
D13*
X128656946Y-39113944D03*
X129343054Y-35886056D03*
D11*
X215443054Y-29663944D03*
X214756946Y-26436056D03*
D13*
X91656946Y-31113944D03*
X92343054Y-27886056D03*
D12*
X272100000Y-27700000D03*
X272100000Y-24400000D03*
X291150000Y-27650000D03*
X291150000Y-24350000D03*
D13*
X147450000Y-42950000D03*
X148136108Y-39722112D03*
D12*
X53975000Y-27843750D03*
X53975000Y-24543750D03*
D11*
X196793054Y-33613944D03*
X196106946Y-30386056D03*
D13*
X110156946Y-35113944D03*
X110843054Y-31886056D03*
D12*
X253450000Y-25500000D03*
X253450000Y-22200000D03*
X72500000Y-25650000D03*
X72500000Y-22350000D03*
M02*
