M48
; DRILL file {KiCad (5.99.0-10089-gf88d39b4f0)} date Fri Apr  9 00:56:30 2021
; FORMAT={-:-/ absolute / inch / decimal}
; #@! TF.CreationDate,2021-04-09T00:56:30-05:00
; #@! TF.GenerationSoftware,Kicad,Pcbnew,(5.99.0-10089-gf88d39b4f0)
; #@! TF.FileFunction,NonPlated,1,2,NPTH
FMAT,2
INCH
; #@! TA.AperFunction,NonPlated,NPTH,ComponentDrill
T1C0.0256
; #@! TA.AperFunction,NonPlated,NPTH,ComponentDrill
T2C0.0689
; #@! TA.AperFunction,NonPlated,NPTH,ComponentDrill
T3C0.1200
; #@! TA.AperFunction,NonPlated,NPTH,ComponentDrill
T4C0.1570
%
G90
G05
T1
X6.293Y-0.9541
X6.5205Y-0.9541
T2
X-0.0677Y-2.8287
X0.0926Y-2.0787
X0.2564Y-1.3287
X0.3323Y-2.8287
X0.4926Y-2.0787
X0.6564Y-1.3287
X0.7684Y-3.663
X0.8623Y-4.413
X0.9571Y-2.913
X1.1197Y-2.913
X1.1434Y-3.663
X1.1627Y-1.413
X1.1684Y-3.663
X1.1863Y-2.163
X1.2623Y-4.413
X1.3571Y-2.913
X1.5197Y-2.913
X1.5434Y-3.663
X1.5627Y-1.413
X1.5863Y-2.163
X1.6121Y-3.663
X1.9127Y-1.413
X2.0121Y-3.663
X2.1237Y-2.163
X2.1512Y-2.913
X2.3127Y-1.413
X2.3619Y-3.663
X2.5237Y-2.163
X2.5512Y-2.913
X2.6465Y-1.3287
X2.7619Y-3.663
X2.9351Y-2.0986
X2.9627Y-2.8714
X2.984Y-4.4698
X3.0465Y-1.3287
X3.1733Y-3.6828
X3.3264Y-2.1817
X3.354Y-2.9546
X3.3752Y-4.553
X3.458Y-1.4431
X3.5646Y-3.766
X3.6688Y-2.2545
X3.6963Y-3.0273
X3.8492Y-1.5262
X3.9069Y-3.8388
X4.06Y-2.3377
X4.0876Y-3.1105
X4.1916Y-1.599
X4.2926Y-4.6875
X4.2982Y-3.9219
X4.3828Y-4.7068
X4.4024Y-2.4104
X4.4299Y-3.1833
X4.5828Y-1.6822
X4.6406Y-3.9947
X4.6838Y-4.7706
X4.774Y-4.79
X4.7936Y-2.4936
X4.8212Y-3.2664
X4.9252Y-1.7549
X5.0318Y-4.0779
X5.136Y-2.5664
X5.1635Y-3.3392
X5.3165Y-1.8381
X5.3742Y-4.1506
X5.4853Y-4.941
X5.5272Y-2.6495
X5.5548Y-3.4224
X5.5765Y-4.9604
X5.6588Y-1.9109
X5.7654Y-4.2338
X5.8766Y-5.0242
X5.9677Y-5.0435
X6.0501Y-1.994
X6.5564Y-2.7275
X6.6847Y-4.2338
X6.7674Y-1.9161
X6.8957Y-3.4224
X6.9476Y-2.6443
X7.076Y-4.1506
X7.1586Y-1.8329
X7.287Y-3.3392
X7.29Y-2.5716
X7.4183Y-4.0779
X7.484Y-4.8309
X7.501Y-1.7601
X7.6293Y-3.2664
X7.6812Y-2.4884
X7.8096Y-3.9947
X7.8752Y-4.7478
X7.8923Y-1.677
X8.0206Y-3.1833
X8.0236Y-2.4156
X8.1519Y-3.9219
X8.2346Y-1.6042
X8.363Y-3.1105
X8.4148Y-2.3325
X8.5432Y-3.8388
X8.6259Y-1.521
X8.7542Y-3.0273
X8.7572Y-2.2597
X8.8855Y-3.766
X8.9682Y-1.4483
X9.0749Y-4.553
X9.0966Y-2.9546
X9.1485Y-2.1765
X9.2768Y-3.6828
X9.3595Y-1.3651
X9.4662Y-4.4698
X9.4878Y-2.8714
X9.5599Y-2.1213
X9.6883Y-3.663
X9.7709Y-1.3287
X9.8993Y-2.913
X9.9599Y-2.1213
X10.0883Y-3.663
X10.1709Y-1.3287
X10.2934Y-2.163
X10.2993Y-2.913
X10.4383Y-3.663
X10.5044Y-1.413
X10.6493Y-2.913
X10.6934Y-2.163
X10.8383Y-3.663
X10.9044Y-1.413
X11.0434Y-2.163
X11.0493Y-2.913
X11.2544Y-1.413
X11.4434Y-2.163
X11.4696Y-3.663
X11.6294Y-1.413
X11.6544Y-1.413
X11.8445Y-3.663
X11.8678Y-2.913
X11.8696Y-3.663
X11.9812Y-2.163
X12.0044Y-1.413
X12.0294Y-1.413
X12.1684Y-4.4149
X12.2445Y-3.663
X12.2678Y-2.913
X12.3812Y-2.163
X12.4044Y-1.413
X12.5008Y-3.663
X12.5684Y-4.4149
X12.9008Y-3.663
T3
X0.8746Y-3.388
X1.8121Y-3.388
X3.9725Y-4.9006
X4.0627Y-4.9199
X4.8895Y-5.0955
X4.9797Y-5.1149
X7.2783Y-5.1558
X8.1953Y-4.9609
X11.3606Y-1.138
X11.5757Y-3.388
X11.599Y-3.188
X12.2981Y-1.138
X12.5132Y-3.388
X12.5365Y-3.188
T4
X0.1323Y-2.8287
X0.2926Y-2.0787
X0.4564Y-1.3287
X0.8746Y-3.988
X0.9684Y-3.663
X1.0623Y-4.413
X1.1571Y-2.913
X1.3197Y-2.913
X1.3434Y-3.663
X1.3627Y-1.413
X1.3863Y-2.163
X1.8121Y-3.663
X1.8121Y-3.988
X2.1127Y-1.413
X2.3237Y-2.163
X2.3512Y-2.913
X2.5619Y-3.663
X2.8465Y-1.3287
X3.1308Y-2.1401
X3.1583Y-2.913
X3.1796Y-4.5114
X3.369Y-3.7244
X3.6536Y-1.4846
X3.8644Y-2.2961
X3.8919Y-3.0689
X4.0973Y-4.3137
X4.1026Y-3.8803
X4.1875Y-4.3331
X4.3872Y-1.6406
X4.4882Y-4.7291
X4.5784Y-4.7484
X4.598Y-2.452
X4.6256Y-3.2249
X4.8362Y-4.0363
X5.0143Y-4.5086
X5.1045Y-4.528
X5.1208Y-1.7965
X5.3316Y-2.6079
X5.3592Y-3.3808
X5.5698Y-4.1922
X5.681Y-4.9826
X5.7721Y-5.002
X5.8544Y-1.9524
X6.752Y-2.6859
X6.8803Y-4.1922
X6.963Y-1.8745
X7.0914Y-3.3808
X7.1535Y-4.5689
X7.4856Y-2.53
X7.6139Y-4.0363
X7.6796Y-4.7894
X7.6966Y-1.7186
X7.825Y-3.2249
X8.0705Y-4.374
X8.2192Y-2.374
X8.3476Y-3.8803
X8.4302Y-1.5626
X8.5586Y-3.0689
X8.9528Y-2.2181
X9.0812Y-3.7244
X9.1638Y-1.4067
X9.2705Y-4.5114
X9.2922Y-2.913
X9.7599Y-2.1213
X9.8883Y-3.663
X9.9709Y-1.3287
X10.0993Y-2.913
X10.4934Y-2.163
X10.6383Y-3.663
X10.7044Y-1.413
X10.8493Y-2.913
X11.2434Y-2.163
X11.3606Y-1.738
X11.4544Y-1.413
X11.5757Y-3.988
X11.599Y-2.588
X11.6696Y-3.663
X11.8294Y-1.413
X12.0445Y-3.663
X12.0678Y-2.913
X12.1812Y-2.163
X12.2044Y-1.413
X12.2981Y-1.738
X12.3684Y-4.4149
X12.5132Y-3.988
X12.5365Y-2.588
X12.7008Y-3.663
T0
M30
