M48
; DRILL file {KiCad (5.99.0-11539-gc946070005)} date Tue Aug  3 22:46:42 2021
; FORMAT={-:-/ absolute / inch / decimal}
; #@! TF.CreationDate,2021-08-03T22:46:42-05:00
; #@! TF.GenerationSoftware,Kicad,Pcbnew,(5.99.0-11539-gc946070005)
; #@! TF.FileFunction,Plated,1,2,PTH
FMAT,2
INCH
; #@! TA.AperFunction,Plated,PTH,ViaDrill
T1C0.0157
; #@! TA.AperFunction,Plated,PTH,ComponentDrill
T2C0.0236
; #@! TA.AperFunction,Plated,PTH,ComponentDrill
T3C0.0394
%
G90
G05
T1
X0.123Y-3.5197
X0.2736Y-4.2943
X0.3632Y-3.3425
X0.7175Y-2.4035
X0.7795Y-2.6604
X0.7835Y-4.3898
X0.8297Y-1.2598
X0.9055Y-2.3445
X0.9114Y-2.753
X0.9665Y-1.2008
X1.0394Y-2.8937
X1.063Y-3.6417
X1.1063Y-2.1417
X2.0256Y-4.4951
X2.0433Y-2.1417
X2.0709Y-2.8937
X2.2835Y-3.6417
X2.5669Y-1.3071
X2.8543Y-2.063
X2.8819Y-2.8346
X2.9016Y-4.4331
X3.0906Y-3.6457
X3.378Y-1.4055
X3.4852Y-1.0394
X3.5866Y-2.2165
X3.6142Y-2.9882
X3.7254Y-4.7579
X3.8268Y-3.8031
X3.9252Y-4.6969
X4.1142Y-1.563
X4.2047Y-4.6496
X4.3189Y-2.374
X4.3465Y-3.1457
X4.5551Y-3.9567
X4.6437Y-1.0394
X4.8278Y-4.8671
X4.8504Y-1.7126
X5.0472Y-2.5276
X5.0787Y-3.3031
X5.1339Y-5.1516
X5.2776Y-4.7559
X5.2835Y-4.1142
X5.4882Y-4.9213
X5.5748Y-1.874
X5.7181Y-3.2673
X5.7855Y-2.9366
X5.8268Y-1.0974
X5.8686Y-3.8027
X5.8937Y-2.8809
X5.9079Y-3.8027
X5.9259Y-3.0056
X5.9473Y-3.8027
X5.9547Y-2.9651
X5.9732Y-4.3683
X5.9759Y-3.6681
X5.9867Y-3.8027
X6.026Y-3.8027
X6.0655Y-3.8027
X6.1048Y-3.8027
X6.1442Y-3.8027
X6.1694Y-5.3151
X6.1831Y-2.9744
X6.1836Y-3.8027
X6.2036Y-2.265
X6.2229Y-3.8027
X6.2402Y-2.9055
X6.2623Y-3.8027
X6.2741Y-4.4218
X6.2741Y-4.4614
X6.2741Y-4.5015
X6.2741Y-4.5416
X6.2741Y-4.5817
X6.2807Y-1.094
X6.2816Y-1.2567
X6.313Y-2.2165
X6.313Y-2.3268
X6.3213Y-1.5035
X6.3461Y-3.7941
X6.3563Y-2.2165
X6.3563Y-2.3287
X6.3957Y-2.8996
X6.3957Y-2.9843
X6.4268Y-3.1839
X6.4591Y-2.8724
X6.5064Y-3.8667
X6.5064Y-3.909
X6.5187Y-2.8209
X6.5187Y-2.8927
X6.5217Y-3.3472
X6.5272Y-3.5059
X6.5312Y-1.094
X6.5906Y-4.2323
X6.5946Y-3.637
X6.5993Y-2.937
X6.6998Y-3.3986
X6.7134Y-2.2657
X6.7992Y-3.4213
X6.8947Y-1.186
X7.1073Y-5.0364
X7.1496Y-1.1358
X7.1929Y-2.5709
X7.2805Y-5.0053
X7.3228Y-4.0787
X7.3258Y-2.891
X7.3878Y-4.8268
X7.4055Y-1.7598
X7.5374Y-3.2638
X7.6486Y-4.4863
X7.9272Y-2.4154
X7.9882Y-4.5188
X8.0531Y-3.9213
X8.1378Y-1.6043
X8.2657Y-3.1102
X8.3435Y-4.622
X8.4134Y-4.8031
X8.6545Y-4.772
X8.6614Y-2.2598
X8.7972Y-3.7618
X8.7972Y-4.1729
X8.874Y-1.4488
X8.9862Y-4.5512
X9.0059Y-2.9528
X9.4803Y-2.1024
X9.6063Y-3.6437
X9.6073Y-4.0074
X9.6909Y-1.3071
X9.75Y-4.4291
X9.8189Y-2.8937
X9.8445Y-4.5945
X10.2126Y-2.1417
X10.3583Y-3.6417
X10.3583Y-3.9895
X10.4252Y-1.3898
X10.5669Y-2.8937
X10.9646Y-2.1417
X11.3898Y-3.6417
X11.3898Y-3.9717
X11.5512Y-1.3898
X11.6831Y-4.4065
X11.7874Y-2.8898
X11.8671Y-4.4055
X11.9016Y-2.1417
X12.0866Y-4.3937
X12.1949Y-3.8868
X12.233Y-3.8966
X12.3366Y-3.9538
X12.4213Y-3.6417
T3
X6.522Y-3.0248
X6.522Y-3.1248
X6.622Y-3.0248
X6.622Y-3.1248
X6.722Y-3.0248
X6.722Y-3.1248
T2
G00X6.2366Y-0.7771
M15
G01X6.2366Y-0.8007
M16
G05
G00X6.2366Y-0.9318
M15
G01X6.2366Y-0.9751
M16
G05
G00X6.5768Y-0.7771
M15
G01X6.5768Y-0.8007
M16
G05
G00X6.5768Y-0.9318
M15
G01X6.5768Y-0.9751
M16
G05
T0
M30
