G04 #@! TF.GenerationSoftware,KiCad,Pcbnew,(5.99.0-10089-gf88d39b4f0)*
G04 #@! TF.CreationDate,2021-04-19T20:01:08-05:00*
G04 #@! TF.ProjectId,aliceq,616c6963-6571-42e6-9b69-6361645f7063,rev?*
G04 #@! TF.SameCoordinates,Original*
G04 #@! TF.FileFunction,Soldermask,Top*
G04 #@! TF.FilePolarity,Negative*
%FSLAX46Y46*%
G04 Gerber Fmt 4.6, Leading zero omitted, Abs format (unit mm)*
G04 Created by KiCad (PCBNEW (5.99.0-10089-gf88d39b4f0)) date 2021-04-19 20:01:08*
%MOMM*%
%LPD*%
G01*
G04 APERTURE LIST*
%ADD10C,3.987800*%
%ADD11C,1.750000*%
%ADD12C,3.048000*%
%ADD13C,0.650000*%
%ADD14O,1.000000X2.100000*%
%ADD15O,1.000000X1.600000*%
G04 APERTURE END LIST*
D10*
X72301567Y-33749745D03*
D11*
X77381567Y-33749745D03*
X67221567Y-33749745D03*
D10*
X227401650Y-56339757D03*
D11*
X232370640Y-55283566D03*
X222432660Y-57395948D03*
X240440645Y-113533598D03*
X230502665Y-115645980D03*
D10*
X235471655Y-114589789D03*
X212027930Y-98560498D03*
D11*
X216996920Y-97504307D03*
X207058940Y-99616689D03*
D10*
X35211547Y-54939757D03*
D11*
X40291547Y-54939757D03*
X30131547Y-54939757D03*
D10*
X24596543Y-93039777D03*
D11*
X29676543Y-93039777D03*
X19516543Y-93039777D03*
X74552580Y-53303565D03*
X84490560Y-55415947D03*
D10*
X79521570Y-54359756D03*
D11*
X301486688Y-93039777D03*
D10*
X296406688Y-93039777D03*
D11*
X291326688Y-93039777D03*
D10*
X193394208Y-102521217D03*
D11*
X198363198Y-101465026D03*
X188425218Y-103577408D03*
X266811674Y-35889746D03*
D10*
X271891674Y-35889746D03*
D11*
X276971674Y-35889746D03*
D10*
X85571574Y-94599778D03*
D11*
X90540564Y-95655969D03*
X80602584Y-93543587D03*
D10*
X270211673Y-93039777D03*
D11*
X275291673Y-93039777D03*
X265131673Y-93039777D03*
X143733753Y-48535716D03*
D10*
X148702743Y-49591907D03*
D11*
X153671733Y-50648098D03*
X141091726Y-86928117D03*
X131153746Y-84815735D03*
D10*
X136122736Y-85871926D03*
D11*
X248181664Y-33749745D03*
X258341664Y-33749745D03*
D10*
X253261664Y-33749745D03*
X208767928Y-60300477D03*
D11*
X203798938Y-61356668D03*
X213736918Y-59244286D03*
X75792581Y-113533598D03*
D10*
X80761571Y-114589789D03*
D11*
X85730561Y-115645980D03*
X29041543Y-93039777D03*
D10*
X34121543Y-93039777D03*
D11*
X39201543Y-93039777D03*
D10*
X22215293Y-101294777D03*
X46027793Y-101294777D03*
D12*
X46027793Y-86054777D03*
X22215293Y-86054777D03*
D11*
X252981661Y-53879756D03*
X242821661Y-53879756D03*
D10*
X247901661Y-53879756D03*
D11*
X296021685Y-35889746D03*
D10*
X290941685Y-35889746D03*
D11*
X285861685Y-35889746D03*
D10*
X305929693Y-93039777D03*
X294023443Y-101294777D03*
D12*
X294023443Y-86054777D03*
D11*
X311009693Y-93039777D03*
D10*
X317835943Y-101294777D03*
D11*
X300849693Y-93039777D03*
D12*
X317835943Y-86054777D03*
D11*
X48581557Y-35889746D03*
D10*
X53661557Y-35889746D03*
D11*
X58741557Y-35889746D03*
D10*
X275571676Y-73989767D03*
D11*
X270491676Y-73989767D03*
X280651676Y-73989767D03*
X24310517Y-73989767D03*
X34470517Y-73989767D03*
D10*
X29390517Y-73989767D03*
X217387933Y-77950487D03*
D11*
X212418943Y-79006678D03*
X222356923Y-76894296D03*
X135038012Y-46687378D03*
D10*
X130069022Y-45631187D03*
D11*
X125100032Y-44574996D03*
X16671534Y-33749745D03*
D10*
X11591534Y-33749745D03*
D11*
X6511534Y-33749745D03*
X304911695Y-35889746D03*
X315071695Y-35889746D03*
D10*
X309991695Y-35889746D03*
D11*
X139327633Y-125501539D03*
X149265613Y-127613921D03*
D10*
X144296623Y-126557730D03*
X256521666Y-73989767D03*
D11*
X251441666Y-73989767D03*
X261601666Y-73989767D03*
X314481695Y-54939757D03*
X304321695Y-54939757D03*
D10*
X309401695Y-54939757D03*
D11*
X116404290Y-42726658D03*
D10*
X111435300Y-41670467D03*
D11*
X106466310Y-40614276D03*
X-1718471Y-71849766D03*
D10*
X3361529Y-71849766D03*
D11*
X8441529Y-71849766D03*
X85190561Y-75045958D03*
X75252581Y-72933576D03*
D10*
X80221571Y-73989767D03*
X181699254Y-116050632D03*
D11*
X190092645Y-122705983D03*
D12*
X184867828Y-130957602D03*
D10*
X204991394Y-111099735D03*
D11*
X200030625Y-120593601D03*
D12*
X208159968Y-126006704D03*
D10*
X195061635Y-121649792D03*
X322600452Y-93039777D03*
D11*
X317520452Y-93039777D03*
X327680452Y-93039777D03*
D10*
X300466690Y-35889746D03*
D11*
X295386690Y-35889746D03*
X305546690Y-35889746D03*
D10*
X288560440Y-44144746D03*
D12*
X312372940Y-28904746D03*
D10*
X312372940Y-44144746D03*
D12*
X288560440Y-28904746D03*
D11*
X261451671Y-54939757D03*
X271611671Y-54939757D03*
D10*
X266531671Y-54939757D03*
X116789015Y-62281196D03*
D11*
X111820025Y-61225005D03*
X121758005Y-63337387D03*
X12511532Y-52799755D03*
X2351532Y-52799755D03*
D10*
X7431532Y-52799755D03*
D11*
X146441729Y-107538128D03*
D10*
X141472739Y-106481937D03*
D11*
X136503749Y-105425746D03*
X319237297Y-112137787D03*
D10*
X314157297Y-112137787D03*
D11*
X309077297Y-112137787D03*
X166531495Y-69278108D03*
X176469475Y-67165726D03*
D10*
X171500485Y-68221917D03*
X251161663Y-93039777D03*
D11*
X256241663Y-93039777D03*
X246081663Y-93039777D03*
D10*
X92801578Y-37709747D03*
D11*
X87832588Y-36653556D03*
X97770568Y-38765938D03*
D12*
X126485400Y-129917603D03*
X103193260Y-124966705D03*
D11*
X121260583Y-121665984D03*
D10*
X116291593Y-120609793D03*
X129653974Y-115010633D03*
D11*
X111322603Y-119553602D03*
D10*
X106361834Y-110059736D03*
X127362527Y-114518855D03*
X104070387Y-109567958D03*
D12*
X100901813Y-124474927D03*
D10*
X114000146Y-120118015D03*
D11*
X118969136Y-121174206D03*
X109031156Y-119061824D03*
D12*
X124193953Y-129425825D03*
D10*
X195494209Y-43651185D03*
D11*
X190525219Y-44707376D03*
X200463199Y-42594994D03*
X29531546Y-35889746D03*
D10*
X34611546Y-35889746D03*
D11*
X39691546Y-35889746D03*
X290661682Y-54939757D03*
D10*
X285581682Y-54939757D03*
D11*
X280501682Y-54939757D03*
D10*
X198754211Y-81911206D03*
D11*
X203723201Y-80855015D03*
X193785221Y-82967397D03*
D10*
X98855293Y-77950487D03*
D11*
X103824283Y-79006678D03*
X93886303Y-76894296D03*
X112520025Y-80855015D03*
X122458005Y-82967397D03*
D10*
X117489015Y-81911206D03*
X135422736Y-66241916D03*
D11*
X130453746Y-65185725D03*
X140391726Y-67298107D03*
X40947793Y-93039777D03*
D10*
X46027793Y-93039777D03*
D11*
X51107793Y-93039777D03*
D10*
X318427943Y-65734767D03*
X306521693Y-73989767D03*
D12*
X294615443Y-80974767D03*
D11*
X311601693Y-73989767D03*
D10*
X294615443Y-65734767D03*
D12*
X318427943Y-80974767D03*
D11*
X301441693Y-73989767D03*
X231052665Y-75045958D03*
D10*
X236021655Y-73989767D03*
D11*
X240990645Y-72933576D03*
X53941559Y-54939757D03*
X64101559Y-54939757D03*
D10*
X59021559Y-54939757D03*
D11*
X70151563Y-93039777D03*
X59991563Y-93039777D03*
D10*
X65071563Y-93039777D03*
D11*
X227792663Y-36785937D03*
D10*
X232761653Y-35729746D03*
D11*
X237730643Y-34673555D03*
X179729477Y-105425746D03*
D10*
X174760487Y-106481937D03*
D11*
X169791497Y-107538128D03*
X109174286Y-99616689D03*
X99236306Y-97504307D03*
D10*
X104205296Y-98560498D03*
D11*
X54641560Y-73989767D03*
D10*
X59721560Y-73989767D03*
D11*
X64801560Y-73989767D03*
X185089480Y-84815735D03*
D10*
X180120490Y-85871926D03*
D11*
X175151500Y-86928117D03*
D10*
X26981542Y-112089787D03*
D11*
X32061542Y-112089787D03*
X21901542Y-112089787D03*
X185165216Y-65317388D03*
D10*
X190134206Y-64261197D03*
D11*
X195103196Y-63205006D03*
X93186303Y-57264285D03*
X103124283Y-59376667D03*
D10*
X98155293Y-58320476D03*
D11*
X225692662Y-95655969D03*
X235630642Y-93543587D03*
D10*
X230661652Y-94599778D03*
D11*
X28441525Y-73989767D03*
D10*
X33521525Y-73989767D03*
D11*
X38601525Y-73989767D03*
X171891498Y-48668097D03*
X181829478Y-46555715D03*
D10*
X176860488Y-47611906D03*
X146611609Y-127049796D03*
D11*
X141642619Y-125993605D03*
X151580599Y-128105987D03*
X117870028Y-101465026D03*
X127808008Y-103577408D03*
D10*
X122839018Y-102521217D03*
D11*
X209158941Y-40746657D03*
X219096921Y-38634275D03*
D10*
X214127931Y-39690466D03*
D13*
X159841612Y-24234741D03*
X165621612Y-24234741D03*
D14*
X158411612Y-24764741D03*
D15*
X167051612Y-20584741D03*
X158411612Y-20584741D03*
D14*
X167051612Y-24764741D03*
M02*
