M48
; DRILL file {KiCad (5.99.0-10089-gf88d39b4f0)} date Sat Apr  3 17:52:49 2021
; FORMAT={-:-/ absolute / inch / decimal}
; #@! TF.CreationDate,2021-04-03T17:52:49-06:00
; #@! TF.GenerationSoftware,Kicad,Pcbnew,(5.99.0-10089-gf88d39b4f0)
; #@! TF.FileFunction,Plated,1,2,PTH
FMAT,2
INCH
; #@! TA.AperFunction,Plated,PTH,ComponentDrill
T1C0.0579
%
G90
G05
T1
X-0.335Y-2.1543
X-0.1748Y-1.4043
X-0.085Y-2.0543
X-0.011Y-0.6543
X0.0752Y-1.3043
X0.239Y-0.5543
X0.501Y-2.9886
X0.5949Y-3.7386
X0.6897Y-2.2386
X0.751Y-2.8886
X0.8449Y-3.6386
X0.8524Y-2.2386
X0.876Y-2.9886
X0.8953Y-0.7386
X0.9189Y-1.4886
X0.9397Y-2.1386
X1.1024Y-2.1386
X1.126Y-2.8886
X1.1453Y-0.6386
X1.1689Y-1.3886
X1.3447Y-2.9886
X1.5947Y-2.8886
X1.6453Y-0.7386
X1.8563Y-1.4886
X1.8839Y-2.2386
X1.8953Y-0.6386
X2.0945Y-2.9886
X2.1063Y-1.3886
X2.1339Y-2.1386
X2.3445Y-2.8886
X2.3791Y-0.6543
X2.6291Y-0.5543
X2.6875Y-1.4367
X2.715Y-2.2096
X2.7363Y-3.808
X2.9256Y-3.021
X2.9528Y-1.3909
X2.9803Y-2.1637
X3.0016Y-3.7622
X3.191Y-2.9752
X3.2103Y-0.7812
X3.4211Y-1.5927
X3.4486Y-2.3655
X3.4756Y-0.7354
X3.6593Y-3.1769
X3.6864Y-1.5468
X3.714Y-2.3197
X3.9246Y-3.1311
X3.9439Y-0.9372
X4.0449Y-4.0257
X4.1351Y-4.045
X4.1547Y-1.7486
X4.1822Y-2.5214
X4.2092Y-0.8913
X4.3102Y-3.9798
X4.3929Y-3.3329
X4.4004Y-3.9992
X4.42Y-1.7028
X4.4476Y-2.4756
X4.6582Y-3.287
X4.6775Y-1.0931
X4.8883Y-1.9045
X4.9158Y-2.6774
X4.9428Y-1.0473
X5.1265Y-3.4888
X5.1536Y-1.8587
X5.1812Y-2.6315
X5.2377Y-4.2792
X5.3288Y-4.2986
X5.3918Y-3.443
X5.4111Y-1.249
X5.503Y-4.2334
X5.5941Y-4.2527
X5.6765Y-1.2032
X6.2671Y-2.0449
X6.3954Y-3.5512
X6.4781Y-1.2335
X6.4908Y-1.8951
X6.6065Y-2.7398
X6.6192Y-3.4014
X6.7019Y-1.0837
X6.8302Y-2.59
X7.0007Y-1.8889
X7.129Y-3.3952
X7.1947Y-4.1483
X7.2117Y-1.0775
X7.2244Y-1.7391
X7.3401Y-2.5838
X7.3528Y-3.2454
X7.4184Y-3.9985
X7.4355Y-0.9277
X7.5638Y-2.434
X7.7343Y-1.733
X7.8627Y-3.2393
X7.9453Y-0.9216
X7.9581Y-1.5832
X8.0737Y-2.4279
X8.0864Y-3.0895
X8.1691Y-0.7718
X8.2974Y-2.2781
X8.4679Y-1.5771
X8.5963Y-3.0834
X8.6789Y-0.7657
X8.6917Y-1.4273
X8.7856Y-3.8704
X8.8073Y-2.272
X8.82Y-2.9336
X8.9027Y-0.6159
X9.0094Y-3.7206
X9.031Y-2.1222
X9.2925Y-1.4469
X9.4209Y-2.9886
X9.5035Y-0.6543
X9.5425Y-1.3469
X9.6319Y-2.2386
X9.6709Y-2.8886
X9.7535Y-0.5543
X9.8819Y-2.1386
X10.026Y-1.4886
X10.1709Y-2.9886
X10.237Y-0.7386
X10.276Y-1.3886
X10.3819Y-2.2386
X10.4209Y-2.8886
X10.487Y-0.6386
X10.6319Y-2.1386
X10.776Y-1.4886
X10.987Y-0.7386
X11.026Y-1.3886
X11.2022Y-2.9886
X11.237Y-0.6386
X11.362Y-0.7386
X11.4522Y-2.8886
X11.5771Y-2.9886
X11.6004Y-2.2386
X11.612Y-0.6386
X11.7138Y-1.4886
X11.737Y-0.7386
X11.8271Y-2.8886
X11.8504Y-2.1386
X11.901Y-3.7405
X11.9638Y-1.3886
X11.987Y-0.6386
X12.151Y-3.6405
X12.2334Y-2.9886
X12.4834Y-2.8886
T0
M30
