G04 #@! TF.GenerationSoftware,KiCad,Pcbnew,(5.99.0-10089-gf88d39b4f0)*
G04 #@! TF.CreationDate,2021-04-19T21:07:53-05:00*
G04 #@! TF.ProjectId,aliceq,616c6963-6571-42e6-9b69-6361645f7063,rev?*
G04 #@! TF.SameCoordinates,Original*
G04 #@! TF.FileFunction,Paste,Bot*
G04 #@! TF.FilePolarity,Positive*
%FSLAX46Y46*%
G04 Gerber Fmt 4.6, Leading zero omitted, Abs format (unit mm)*
G04 Created by KiCad (PCBNEW (5.99.0-10089-gf88d39b4f0)) date 2021-04-19 21:07:53*
%MOMM*%
%LPD*%
G01*
G04 APERTURE LIST*
G04 Aperture macros list*
%AMRoundRect*
0 Rectangle with rounded corners*
0 $1 Rounding radius*
0 $2 $3 $4 $5 $6 $7 $8 $9 X,Y pos of 4 corners*
0 Add a 4 corners polygon primitive as box body*
4,1,4,$2,$3,$4,$5,$6,$7,$8,$9,$2,$3,0*
0 Add four circle primitives for the rounded corners*
1,1,$1+$1,$2,$3*
1,1,$1+$1,$4,$5*
1,1,$1+$1,$6,$7*
1,1,$1+$1,$8,$9*
0 Add four rect primitives between the rounded corners*
20,1,$1+$1,$2,$3,$4,$5,0*
20,1,$1+$1,$4,$5,$6,$7,0*
20,1,$1+$1,$6,$7,$8,$9,0*
20,1,$1+$1,$8,$9,$2,$3,0*%
%AMRotRect*
0 Rectangle, with rotation*
0 The origin of the aperture is its center*
0 $1 length*
0 $2 width*
0 $3 Rotation angle, in degrees counterclockwise*
0 Add horizontal line*
21,1,$1,$2,0,0,$3*%
G04 Aperture macros list end*
%ADD10RoundRect,0.218750X-0.335876X-0.026517X-0.026517X-0.335876X0.335876X0.026517X0.026517X0.335876X0*%
%ADD11RotRect,1.500000X0.550000X135.000000*%
%ADD12RotRect,1.500000X0.550000X225.000000*%
%ADD13RotRect,0.900000X1.200000X102.000000*%
%ADD14R,1.200000X0.900000*%
%ADD15RotRect,1.500000X1.000000X78.000000*%
%ADD16RotRect,0.900000X1.200000X78.000000*%
%ADD17RotRect,1.500000X1.000000X102.000000*%
%ADD18R,1.500000X1.000000*%
%ADD19RoundRect,0.218750X-0.026517X0.335876X-0.335876X0.026517X0.026517X-0.335876X0.335876X-0.026517X0*%
%ADD20R,1.100000X1.800000*%
%ADD21R,1.000000X1.500000*%
%ADD22RoundRect,0.218750X0.256250X-0.218750X0.256250X0.218750X-0.256250X0.218750X-0.256250X-0.218750X0*%
%ADD23RoundRect,0.225000X0.335876X0.017678X0.017678X0.335876X-0.335876X-0.017678X-0.017678X-0.335876X0*%
%ADD24RoundRect,0.218750X0.026517X-0.335876X0.335876X-0.026517X-0.026517X0.335876X-0.335876X0.026517X0*%
%ADD25RotRect,1.500000X1.000000X348.000000*%
%ADD26R,0.600000X1.450000*%
%ADD27R,0.300000X1.450000*%
%ADD28R,0.700000X1.000000*%
%ADD29R,0.700000X0.600000*%
%ADD30RoundRect,0.218750X0.218750X0.256250X-0.218750X0.256250X-0.218750X-0.256250X0.218750X-0.256250X0*%
%ADD31RotRect,1.400000X1.200000X45.000000*%
%ADD32RoundRect,0.218750X-0.256250X0.218750X-0.256250X-0.218750X0.256250X-0.218750X0.256250X0.218750X0*%
%ADD33RoundRect,0.250001X0.624999X-0.462499X0.624999X0.462499X-0.624999X0.462499X-0.624999X-0.462499X0*%
%ADD34RoundRect,0.218750X-0.218750X-0.256250X0.218750X-0.256250X0.218750X0.256250X-0.218750X0.256250X0*%
G04 APERTURE END LIST*
D10*
X145686306Y-87736306D03*
X146800000Y-88850000D03*
D11*
X154097918Y-79541064D03*
X153532233Y-80106750D03*
X152966548Y-80672435D03*
X152400862Y-81238120D03*
X151835177Y-81803806D03*
X151269491Y-82369491D03*
X150703806Y-82935177D03*
X150138120Y-83500862D03*
X149572435Y-84066548D03*
X149006750Y-84632233D03*
X148441064Y-85197918D03*
D12*
X148441064Y-87602082D03*
X149006750Y-88167767D03*
X149572435Y-88733452D03*
X150138120Y-89299138D03*
X150703806Y-89864823D03*
X151269491Y-90430509D03*
X151835177Y-90996194D03*
X152400862Y-91561880D03*
X152966548Y-92127565D03*
X153532233Y-92693250D03*
X154097918Y-93258936D03*
D11*
X156502082Y-93258936D03*
X157067767Y-92693250D03*
X157633452Y-92127565D03*
X158199138Y-91561880D03*
X158764823Y-90996194D03*
X159330509Y-90430509D03*
X159896194Y-89864823D03*
X160461880Y-89299138D03*
X161027565Y-88733452D03*
X161593250Y-88167767D03*
X162158936Y-87602082D03*
D12*
X162158936Y-85197918D03*
X161593250Y-84632233D03*
X161027565Y-84066548D03*
X160461880Y-83500862D03*
X159896194Y-82935177D03*
X159330509Y-82369491D03*
X158764823Y-81803806D03*
X158199138Y-81238120D03*
X157633452Y-80672435D03*
X157067767Y-80106750D03*
X156502082Y-79541064D03*
D13*
X242154579Y-40203684D03*
X241468471Y-36975796D03*
X245404579Y-78453684D03*
X244718471Y-75225796D03*
X226804579Y-82453684D03*
X226118471Y-79225796D03*
D14*
X32836525Y-99389740D03*
X32836525Y-96089740D03*
D13*
X240054579Y-99053684D03*
X239368471Y-95825796D03*
X186254579Y-52053684D03*
X185568471Y-48825796D03*
D15*
X95155653Y-124879120D03*
X92025580Y-124213803D03*
X93044347Y-119420880D03*
X96174420Y-120086197D03*
D16*
X92318471Y-102553684D03*
X93004579Y-99325796D03*
D14*
X19861525Y-40139740D03*
X19861525Y-36839740D03*
D17*
X194024420Y-132963803D03*
X190894347Y-133629120D03*
X189875580Y-128836197D03*
X193005653Y-128170880D03*
D18*
X191250000Y-27450000D03*
X191250000Y-30650000D03*
X186350000Y-30650000D03*
X186350000Y-27450000D03*
D14*
X68011525Y-80339740D03*
X68011525Y-77039740D03*
D16*
X124218471Y-89853684D03*
X124904579Y-86625796D03*
D19*
X161404855Y-78886306D03*
X160291161Y-80000000D03*
D18*
X95028570Y-27300000D03*
X95028570Y-30500000D03*
X90128570Y-30500000D03*
X90128570Y-27300000D03*
D14*
X43461525Y-61289740D03*
X43461525Y-57989740D03*
X54261525Y-99389740D03*
X54261525Y-96089740D03*
D13*
X236804579Y-60803684D03*
X236118471Y-57575796D03*
D16*
X86268471Y-62303684D03*
X86954579Y-59075796D03*
D14*
X318211525Y-42239740D03*
X318211525Y-38939740D03*
X73311525Y-99389740D03*
X73311525Y-96089740D03*
D18*
X326850000Y-27300000D03*
X326850000Y-30500000D03*
X321950000Y-30500000D03*
X321950000Y-27300000D03*
D14*
X42986525Y-42433490D03*
X42986525Y-39133490D03*
D18*
X-1450000Y-85633332D03*
X-1450000Y-82433332D03*
X3450000Y-82433332D03*
X3450000Y-85633332D03*
D20*
X186700000Y-40600000D03*
X186700000Y-34400000D03*
X183000000Y-40600000D03*
X183000000Y-34400000D03*
D18*
X328550000Y-105300000D03*
X328550000Y-108500000D03*
X323650000Y-108500000D03*
X323650000Y-105300000D03*
D16*
X153343471Y-135003684D03*
X154029579Y-131775796D03*
D21*
X-1750000Y-26450000D03*
X1450000Y-26450000D03*
X1450000Y-31350000D03*
X-1750000Y-31350000D03*
D22*
X182950000Y-32437500D03*
X182950000Y-30862500D03*
D23*
X164727680Y-96732788D03*
X163631664Y-95636772D03*
D16*
X105618471Y-85903684D03*
X106304579Y-82675796D03*
X87543471Y-122528684D03*
X88229579Y-119300796D03*
D13*
X189454579Y-90353684D03*
X188768471Y-87125796D03*
D18*
X230121425Y-27300000D03*
X230121425Y-30500000D03*
X225221425Y-30500000D03*
X225221425Y-27300000D03*
D13*
X221404579Y-103053684D03*
X220718471Y-99825796D03*
D16*
X136718471Y-53703684D03*
X137404579Y-50475796D03*
D13*
X184204579Y-110953684D03*
X183518471Y-107725796D03*
D14*
X41811525Y-80339740D03*
X41811525Y-77039740D03*
D13*
X204454579Y-126128684D03*
X203768471Y-122900796D03*
X223504579Y-44253684D03*
X222818471Y-41025796D03*
D16*
X99718471Y-45703684D03*
X100404579Y-42475796D03*
D18*
X327050000Y-53300000D03*
X327050000Y-56500000D03*
X322150000Y-56500000D03*
X322150000Y-53300000D03*
D16*
X129568471Y-110453684D03*
X130254579Y-107225796D03*
D24*
X146300000Y-84650000D03*
X147413694Y-83536306D03*
D14*
X280161525Y-42289740D03*
X280161525Y-38989740D03*
D17*
X229874420Y-125313803D03*
X226744347Y-125979120D03*
X225725580Y-121186197D03*
X228855653Y-120520880D03*
D14*
X314261525Y-99389740D03*
X314261525Y-96089740D03*
D25*
X139320880Y-134355653D03*
X139986197Y-131225580D03*
X144779120Y-132244347D03*
X144113803Y-135374420D03*
D13*
X208154579Y-86403684D03*
X207468471Y-83175796D03*
D14*
X259411525Y-99389740D03*
X259411525Y-96089740D03*
D13*
X180904579Y-72703684D03*
X180218471Y-69475796D03*
D21*
X52800000Y-119430000D03*
X49600000Y-119430000D03*
X49600000Y-114530000D03*
X52800000Y-114530000D03*
D14*
X15711525Y-59139740D03*
X15711525Y-55839740D03*
X299211525Y-42239740D03*
X299211525Y-38939740D03*
D16*
X142868471Y-93803684D03*
X143554579Y-90575796D03*
D21*
X2410000Y-117790000D03*
X-790000Y-117790000D03*
X-790000Y-112890000D03*
X2410000Y-112890000D03*
D16*
X155511525Y-57539740D03*
X156197633Y-54311852D03*
D18*
X327850000Y-79300000D03*
X327850000Y-82500000D03*
X322950000Y-82500000D03*
X322950000Y-79300000D03*
X283485710Y-27300000D03*
X283485710Y-30500000D03*
X278585710Y-30500000D03*
X278585710Y-27300000D03*
D14*
X283811525Y-80339740D03*
X283811525Y-77039740D03*
D26*
X159506612Y-25679741D03*
X160281612Y-25679741D03*
D27*
X160981612Y-25679741D03*
X161481612Y-25679741D03*
X161981612Y-25679741D03*
X162481612Y-25679741D03*
X162981612Y-25679741D03*
X163481612Y-25679741D03*
X163981612Y-25679741D03*
X164481612Y-25679741D03*
D26*
X165181612Y-25679741D03*
X165956612Y-25679741D03*
D16*
X120768471Y-128053684D03*
X121454579Y-124825796D03*
D14*
X293861525Y-61289740D03*
X293861525Y-57989740D03*
D16*
X86968471Y-81953684D03*
X87654579Y-78725796D03*
D13*
X218154579Y-64803684D03*
X217468471Y-61575796D03*
D14*
X62036525Y-42433490D03*
X62036525Y-39133490D03*
D13*
X202804579Y-107003684D03*
X202118471Y-103775796D03*
D18*
X48664285Y-27300000D03*
X48664285Y-30500000D03*
X43764285Y-30500000D03*
X43764285Y-27300000D03*
D14*
X328911525Y-99389740D03*
X328911525Y-96089740D03*
D13*
X204854579Y-48203684D03*
X204168471Y-44975796D03*
D28*
X163731612Y-32114740D03*
D29*
X163731612Y-33814740D03*
X161731612Y-33814740D03*
X161731612Y-31914740D03*
D14*
X278511525Y-99389740D03*
X278511525Y-96089740D03*
D13*
X244879579Y-119078684D03*
X244193471Y-115850796D03*
D14*
X256161525Y-60189740D03*
X256161525Y-56889740D03*
X274761525Y-61289740D03*
X274761525Y-57989740D03*
D21*
X281871426Y-119250000D03*
X278671426Y-119250000D03*
X278671426Y-114350000D03*
X281871426Y-114350000D03*
D14*
X264811525Y-80339740D03*
X264811525Y-77039740D03*
D16*
X123568471Y-70203684D03*
X124254579Y-66975796D03*
D14*
X11611525Y-78189740D03*
X11611525Y-74889740D03*
D22*
X160161524Y-77289740D03*
X160161524Y-75714740D03*
D30*
X158081612Y-30149740D03*
X156506612Y-30149740D03*
D31*
X161421142Y-93176777D03*
X162976777Y-91621142D03*
X164178858Y-92823223D03*
X162623223Y-94378858D03*
D16*
X104968471Y-66303684D03*
X105654579Y-63075796D03*
X148268471Y-114403684D03*
X148954579Y-111175796D03*
D14*
X314761525Y-80339740D03*
X314761525Y-77039740D03*
D32*
X158561525Y-75714740D03*
X158561525Y-77289740D03*
D18*
X-3750000Y-58066666D03*
X-3750000Y-54866666D03*
X1150000Y-54866666D03*
X1150000Y-58066666D03*
D14*
X317661525Y-61289740D03*
X317661525Y-57989740D03*
X35211525Y-118439740D03*
X35211525Y-115139740D03*
D33*
X158901525Y-38167240D03*
X158901525Y-35192240D03*
D16*
X118218471Y-49703684D03*
X118904579Y-46475796D03*
X110968471Y-106453684D03*
X111654579Y-103225796D03*
D14*
X261511525Y-40089740D03*
X261511525Y-36789740D03*
D34*
X167381612Y-30149740D03*
X168956612Y-30149740D03*
D19*
X165538044Y-88957673D03*
X164424350Y-90071367D03*
X153356847Y-77443153D03*
X152243153Y-78556847D03*
D34*
X153712500Y-94900000D03*
X155287500Y-94900000D03*
D23*
X166625688Y-94880796D03*
X165529672Y-93784780D03*
D16*
X142168471Y-74153684D03*
X142854579Y-70925796D03*
D24*
X161291161Y-81700000D03*
X162404855Y-80586306D03*
D14*
X80561525Y-40239740D03*
X80561525Y-36939740D03*
D18*
X141392855Y-27300000D03*
X141392855Y-30500000D03*
X136492855Y-30500000D03*
X136492855Y-27300000D03*
D14*
X67311525Y-61289740D03*
X67311525Y-57989740D03*
X322411525Y-118489740D03*
X322411525Y-115189740D03*
D13*
X199454579Y-68753684D03*
X198768471Y-65525796D03*
M02*
