G04 #@! TF.GenerationSoftware,KiCad,Pcbnew,(5.99.0-10089-gf88d39b4f0)*
G04 #@! TF.CreationDate,2021-04-19T20:01:08-05:00*
G04 #@! TF.ProjectId,aliceq,616c6963-6571-42e6-9b69-6361645f7063,rev?*
G04 #@! TF.SameCoordinates,Original*
G04 #@! TF.FileFunction,Soldermask,Bot*
G04 #@! TF.FilePolarity,Negative*
%FSLAX46Y46*%
G04 Gerber Fmt 4.6, Leading zero omitted, Abs format (unit mm)*
G04 Created by KiCad (PCBNEW (5.99.0-10089-gf88d39b4f0)) date 2021-04-19 20:01:08*
%MOMM*%
%LPD*%
G01*
G04 APERTURE LIST*
G04 Aperture macros list*
%AMRoundRect*
0 Rectangle with rounded corners*
0 $1 Rounding radius*
0 $2 $3 $4 $5 $6 $7 $8 $9 X,Y pos of 4 corners*
0 Add a 4 corners polygon primitive as box body*
4,1,4,$2,$3,$4,$5,$6,$7,$8,$9,$2,$3,0*
0 Add four circle primitives for the rounded corners*
1,1,$1+$1,$2,$3*
1,1,$1+$1,$4,$5*
1,1,$1+$1,$6,$7*
1,1,$1+$1,$8,$9*
0 Add four rect primitives between the rounded corners*
20,1,$1+$1,$2,$3,$4,$5,0*
20,1,$1+$1,$4,$5,$6,$7,0*
20,1,$1+$1,$6,$7,$8,$9,0*
20,1,$1+$1,$8,$9,$2,$3,0*%
%AMRotRect*
0 Rectangle, with rotation*
0 The origin of the aperture is its center*
0 $1 length*
0 $2 width*
0 $3 Rotation angle, in degrees counterclockwise*
0 Add horizontal line*
21,1,$1,$2,0,0,$3*%
G04 Aperture macros list end*
%ADD10C,3.987800*%
%ADD11C,1.750000*%
%ADD12C,2.250000*%
%ADD13C,3.048000*%
%ADD14RotRect,0.900000X1.200000X102.000000*%
%ADD15R,1.200000X0.900000*%
%ADD16RotRect,1.500000X1.000000X78.000000*%
%ADD17RotRect,0.900000X1.200000X78.000000*%
%ADD18RotRect,1.500000X1.000000X102.000000*%
%ADD19R,1.500000X1.000000*%
%ADD20C,1.700000*%
%ADD21R,1.700000X1.700000*%
%ADD22RoundRect,0.218750X-0.026517X0.335876X-0.335876X0.026517X0.026517X-0.335876X0.335876X-0.026517X0*%
%ADD23R,1.100000X1.800000*%
%ADD24R,1.000000X1.500000*%
%ADD25RoundRect,0.218750X0.256250X-0.218750X0.256250X0.218750X-0.256250X0.218750X-0.256250X-0.218750X0*%
%ADD26RoundRect,0.225000X0.335876X0.017678X0.017678X0.335876X-0.335876X-0.017678X-0.017678X-0.335876X0*%
%ADD27RoundRect,0.062500X0.220971X0.309359X-0.309359X-0.220971X-0.220971X-0.309359X0.309359X0.220971X0*%
%ADD28RoundRect,0.062500X-0.220971X0.309359X-0.309359X0.220971X0.220971X-0.309359X0.309359X-0.220971X0*%
%ADD29RoundRect,0.252350X0.000000X3.284723X-3.284723X0.000000X0.000000X-3.284723X3.284723X0.000000X0*%
%ADD30RoundRect,0.218750X-0.335876X-0.026517X-0.026517X-0.335876X0.335876X0.026517X0.026517X0.335876X0*%
%ADD31RoundRect,0.218750X0.026517X-0.335876X0.335876X-0.026517X-0.026517X0.335876X-0.335876X0.026517X0*%
%ADD32RotRect,1.500000X1.000000X348.000000*%
%ADD33C,0.650000*%
%ADD34R,0.600000X1.450000*%
%ADD35R,0.300000X1.450000*%
%ADD36O,1.000000X2.100000*%
%ADD37O,1.000000X1.600000*%
%ADD38R,0.700000X1.000000*%
%ADD39R,0.700000X0.600000*%
%ADD40RoundRect,0.218750X0.218750X0.256250X-0.218750X0.256250X-0.218750X-0.256250X0.218750X-0.256250X0*%
%ADD41RotRect,1.400000X1.200000X45.000000*%
%ADD42RoundRect,0.218750X-0.256250X0.218750X-0.256250X-0.218750X0.256250X-0.218750X0.256250X0.218750X0*%
%ADD43RoundRect,0.250001X0.624999X-0.462499X0.624999X0.462499X-0.624999X0.462499X-0.624999X-0.462499X0*%
%ADD44RoundRect,0.218750X-0.218750X-0.256250X0.218750X-0.256250X0.218750X0.256250X-0.218750X0.256250X0*%
G04 APERTURE END LIST*
G36*
X265785576Y-115540037D02*
G01*
X266306197Y-115540037D01*
X266306197Y-115758277D01*
X266306130Y-115783000D01*
X266305003Y-115860164D01*
X266302701Y-115923923D01*
X266299500Y-115968230D01*
X266295680Y-115987035D01*
X266292352Y-115988065D01*
X266263460Y-115990610D01*
X266208477Y-115992883D01*
X266131353Y-115994798D01*
X266036035Y-115996272D01*
X265926472Y-115997218D01*
X265806611Y-115997552D01*
X265328061Y-115997552D01*
X265328061Y-107825378D01*
X265785576Y-107825378D01*
X265785576Y-115540037D01*
G37*
G36*
X267189352Y-112769278D02*
G01*
X267218894Y-112785751D01*
X267264879Y-112813823D01*
X267321580Y-112850078D01*
X267386023Y-112891006D01*
X267623898Y-113023049D01*
X267861669Y-113124526D01*
X268101480Y-113196113D01*
X268345475Y-113238489D01*
X268595800Y-113252330D01*
X268697375Y-113250423D01*
X268966759Y-113227359D01*
X269226744Y-113178877D01*
X269473958Y-113105902D01*
X269705029Y-113009358D01*
X269916585Y-112890171D01*
X270016724Y-112825198D01*
X269981100Y-112875227D01*
X269958071Y-112905003D01*
X269901687Y-112968487D01*
X269831045Y-113040369D01*
X269753134Y-113113914D01*
X269674944Y-113182389D01*
X269603464Y-113239059D01*
X269387394Y-113382043D01*
X269154335Y-113501949D01*
X268909203Y-113594243D01*
X268649544Y-113659842D01*
X268372905Y-113699665D01*
X268344600Y-113702172D01*
X268087831Y-113708296D01*
X267830524Y-113685493D01*
X267578579Y-113634581D01*
X267337899Y-113556376D01*
X267194258Y-113499939D01*
X267185580Y-113135609D01*
X267184195Y-113074712D01*
X267182267Y-112976808D01*
X267180982Y-112892566D01*
X267180389Y-112826456D01*
X267180540Y-112782948D01*
X267181483Y-112766511D01*
X267189352Y-112769278D01*
G37*
G36*
X261335564Y-109808217D02*
G01*
X261335874Y-109814003D01*
X261339020Y-109841026D01*
X261345679Y-109881681D01*
X261356166Y-109937393D01*
X261370797Y-110009581D01*
X261389887Y-110099669D01*
X261413753Y-110209077D01*
X261442709Y-110339230D01*
X261477071Y-110491547D01*
X261517155Y-110667451D01*
X261563276Y-110868364D01*
X261615750Y-111095709D01*
X261674892Y-111350906D01*
X261741018Y-111635378D01*
X261741310Y-111636634D01*
X261788952Y-111841395D01*
X261834668Y-112037978D01*
X261877934Y-112224127D01*
X261918226Y-112397587D01*
X261955023Y-112556103D01*
X261987801Y-112697420D01*
X262016037Y-112819283D01*
X262039207Y-112919436D01*
X262056789Y-112995624D01*
X262068260Y-113045593D01*
X262073097Y-113067086D01*
X262082067Y-113110472D01*
X262529722Y-113110472D01*
X262552180Y-113110488D01*
X262665581Y-113111106D01*
X262767254Y-113112525D01*
X262853236Y-113114629D01*
X262919560Y-113117298D01*
X262962262Y-113120414D01*
X262977377Y-113123858D01*
X262976869Y-113127979D01*
X262971438Y-113157065D01*
X262961243Y-113207293D01*
X262947760Y-113271718D01*
X262932467Y-113343396D01*
X262916840Y-113415380D01*
X262902356Y-113480727D01*
X262890491Y-113532490D01*
X262882118Y-113567987D01*
X261627977Y-113567987D01*
X261330152Y-112287372D01*
X261032327Y-111006758D01*
X261170230Y-110421813D01*
X261174257Y-110404743D01*
X261205396Y-110273437D01*
X261234619Y-110151393D01*
X261261050Y-110042189D01*
X261283812Y-109949402D01*
X261302028Y-109876610D01*
X261314821Y-109827389D01*
X261321315Y-109805316D01*
X261327645Y-109790605D01*
X261333773Y-109784128D01*
X261335564Y-109808217D01*
G37*
G36*
X257806516Y-107923981D02*
G01*
X257810986Y-107944434D01*
X257822020Y-107995563D01*
X257838968Y-108074411D01*
X257861468Y-108179283D01*
X257889157Y-108308489D01*
X257921674Y-108460333D01*
X257958657Y-108633124D01*
X257999743Y-108825169D01*
X258044569Y-109034774D01*
X258092775Y-109260248D01*
X258143997Y-109499896D01*
X258197874Y-109752026D01*
X258254043Y-110014945D01*
X258312142Y-110286960D01*
X258371810Y-110566379D01*
X258914955Y-113110175D01*
X259368527Y-113110323D01*
X259395960Y-113110345D01*
X259509756Y-113110713D01*
X259611695Y-113111483D01*
X259697837Y-113112593D01*
X259764245Y-113113982D01*
X259806978Y-113115590D01*
X259822098Y-113117355D01*
X259820340Y-113127260D01*
X259812588Y-113162699D01*
X259800156Y-113216952D01*
X259784693Y-113283071D01*
X259767851Y-113354107D01*
X259751279Y-113423111D01*
X259736630Y-113483135D01*
X259725552Y-113527230D01*
X259719697Y-113548448D01*
X259718816Y-113549843D01*
X259707401Y-113554742D01*
X259681520Y-113558634D01*
X259638734Y-113561579D01*
X259576602Y-113563637D01*
X259492683Y-113564870D01*
X259384538Y-113565339D01*
X259249725Y-113565103D01*
X259085806Y-113564224D01*
X258459098Y-113560099D01*
X257847518Y-110704571D01*
X257796866Y-110468038D01*
X257735195Y-110179968D01*
X257675575Y-109901381D01*
X257618330Y-109633803D01*
X257563788Y-109378761D01*
X257512274Y-109137782D01*
X257464113Y-108912391D01*
X257419632Y-108704115D01*
X257379156Y-108514481D01*
X257343012Y-108345014D01*
X257311525Y-108197241D01*
X257285021Y-108072689D01*
X257263826Y-107972883D01*
X257248266Y-107899351D01*
X257238667Y-107853618D01*
X257235354Y-107837211D01*
X257246077Y-107833919D01*
X257283676Y-107830509D01*
X257343488Y-107827804D01*
X257420467Y-107826021D01*
X257509568Y-107825378D01*
X257784367Y-107825378D01*
X257806516Y-107923981D01*
G37*
G36*
X268397093Y-108052786D02*
G01*
X268538725Y-108067208D01*
X268661023Y-108091405D01*
X268715198Y-108106780D01*
X268926057Y-108186505D01*
X269122772Y-108293167D01*
X269304157Y-108425194D01*
X269469028Y-108581014D01*
X269616198Y-108759053D01*
X269744482Y-108957740D01*
X269852695Y-109175500D01*
X269939651Y-109410762D01*
X270004165Y-109661953D01*
X270045050Y-109927500D01*
X270057868Y-110103073D01*
X270059984Y-110321996D01*
X270048457Y-110544934D01*
X270024113Y-110766162D01*
X269987780Y-110979956D01*
X269940284Y-111180590D01*
X269882452Y-111362339D01*
X269815111Y-111519478D01*
X269803008Y-111542525D01*
X269758700Y-111610673D01*
X269703082Y-111670989D01*
X269629960Y-111729460D01*
X269533146Y-111792071D01*
X269531063Y-111793322D01*
X269484281Y-111820047D01*
X269449419Y-111837445D01*
X269433885Y-111841803D01*
X269433408Y-111838738D01*
X269438129Y-111812793D01*
X269450202Y-111766918D01*
X269467761Y-111708461D01*
X269478497Y-111673349D01*
X269529675Y-111466886D01*
X269567957Y-111240992D01*
X269592691Y-111003864D01*
X269603225Y-110763696D01*
X269598910Y-110528684D01*
X269579093Y-110307025D01*
X269547315Y-110115536D01*
X269482597Y-109861310D01*
X269395193Y-109624062D01*
X269286181Y-109405202D01*
X269156643Y-109206138D01*
X269007655Y-109028280D01*
X268840299Y-108873036D01*
X268655652Y-108741816D01*
X268454795Y-108636029D01*
X268238806Y-108557083D01*
X268180202Y-108542095D01*
X268036753Y-108518359D01*
X267878834Y-108506678D01*
X267715243Y-108506873D01*
X267554776Y-108518760D01*
X267406231Y-108542159D01*
X267278406Y-108576889D01*
X267265214Y-108581425D01*
X267225997Y-108593555D01*
X267203469Y-108598422D01*
X267196762Y-108585574D01*
X267191637Y-108549098D01*
X267189676Y-108497278D01*
X267189676Y-108497114D01*
X267190945Y-108440630D01*
X267197204Y-108405055D01*
X267212138Y-108379798D01*
X267239432Y-108354266D01*
X267279057Y-108324806D01*
X267366106Y-108273928D01*
X267473781Y-108222944D01*
X267595434Y-108174419D01*
X267724417Y-108130921D01*
X267854083Y-108095014D01*
X267977783Y-108069264D01*
X268098935Y-108054665D01*
X268246904Y-108048489D01*
X268397093Y-108052786D01*
G37*
G36*
X260467454Y-108365222D02*
G01*
X260464917Y-108376197D01*
X260452265Y-108431022D01*
X260433378Y-108512971D01*
X260408895Y-108619268D01*
X260379453Y-108747139D01*
X260345693Y-108893810D01*
X260308251Y-109056506D01*
X260267767Y-109232452D01*
X260224879Y-109418874D01*
X260180227Y-109612998D01*
X260134448Y-109812049D01*
X260106097Y-109935196D01*
X260055181Y-110155504D01*
X260010576Y-110347167D01*
X259971929Y-110511613D01*
X259938883Y-110650272D01*
X259911084Y-110764573D01*
X259888176Y-110855948D01*
X259869804Y-110925824D01*
X259855612Y-110975632D01*
X259845246Y-111006802D01*
X259838350Y-111020762D01*
X259834570Y-111018943D01*
X259827284Y-110985682D01*
X259814554Y-110920702D01*
X259796871Y-110826134D01*
X259774380Y-110702769D01*
X259747227Y-110551397D01*
X259715558Y-110372809D01*
X259690414Y-110230364D01*
X259925941Y-109205356D01*
X260161467Y-108180347D01*
X260336881Y-108175905D01*
X260512294Y-108171463D01*
X260467454Y-108365222D01*
G37*
G36*
X263290238Y-108957335D02*
G01*
X263268205Y-109064405D01*
X263227478Y-109262587D01*
X263187074Y-109459515D01*
X263147749Y-109651482D01*
X263110261Y-109834783D01*
X263075366Y-110005712D01*
X263043822Y-110160563D01*
X263016385Y-110295630D01*
X262993812Y-110407208D01*
X262976861Y-110491590D01*
X262957314Y-110588881D01*
X262936692Y-110690189D01*
X262918510Y-110778100D01*
X262903686Y-110848224D01*
X262893138Y-110896171D01*
X262887785Y-110917552D01*
X262882314Y-110927736D01*
X262873881Y-110925440D01*
X262870470Y-110913740D01*
X262859700Y-110872037D01*
X262844271Y-110809057D01*
X262825382Y-110729997D01*
X262804230Y-110640054D01*
X262782012Y-110544426D01*
X262759927Y-110448308D01*
X262739172Y-110356899D01*
X262720944Y-110275394D01*
X262706442Y-110208992D01*
X262696862Y-110162887D01*
X262693402Y-110142279D01*
X262694398Y-110135129D01*
X262700818Y-110099941D01*
X262712669Y-110038523D01*
X262729343Y-109953863D01*
X262750229Y-109848947D01*
X262774719Y-109726763D01*
X262802204Y-109590297D01*
X262832074Y-109442537D01*
X262863720Y-109286470D01*
X262896533Y-109125082D01*
X262929904Y-108961362D01*
X262963224Y-108798295D01*
X262995883Y-108638869D01*
X263027273Y-108486072D01*
X263056784Y-108342889D01*
X263083807Y-108212309D01*
X263107732Y-108097318D01*
X263127951Y-108000903D01*
X263143855Y-107926051D01*
X263154834Y-107875751D01*
X263160279Y-107852987D01*
X263160305Y-107852901D01*
X263167639Y-107840796D01*
X263184335Y-107832815D01*
X263215939Y-107828134D01*
X263267996Y-107825930D01*
X263346049Y-107825378D01*
X263523278Y-107825378D01*
X263290238Y-108957335D01*
G37*
G36*
X164453866Y-122449476D02*
G01*
X164553532Y-122472292D01*
X164644949Y-122509905D01*
X164729934Y-122563099D01*
X164810303Y-122632661D01*
X164839596Y-122662982D01*
X164899885Y-122737041D01*
X164946049Y-122814026D01*
X164980482Y-122897665D01*
X165003119Y-122983477D01*
X165015329Y-123087287D01*
X165011674Y-123189354D01*
X164993077Y-123288215D01*
X164960463Y-123382409D01*
X164914756Y-123470474D01*
X164856881Y-123550949D01*
X164787761Y-123622371D01*
X164708323Y-123683279D01*
X164619488Y-123732211D01*
X164522183Y-123767704D01*
X164417331Y-123788298D01*
X164385441Y-123791153D01*
X164285933Y-123790139D01*
X164185341Y-123775117D01*
X164108174Y-123752886D01*
X164013853Y-123710463D01*
X163928040Y-123654335D01*
X163851995Y-123586085D01*
X163786976Y-123507293D01*
X163734240Y-123419538D01*
X163695047Y-123324401D01*
X163670654Y-123223463D01*
X163662321Y-123118304D01*
X163662334Y-123114514D01*
X163670478Y-123004449D01*
X163693966Y-122902767D01*
X163733232Y-122808414D01*
X163788714Y-122720334D01*
X163860846Y-122637474D01*
X163889196Y-122610374D01*
X163972903Y-122544297D01*
X164061409Y-122494841D01*
X164155957Y-122461526D01*
X164257790Y-122443872D01*
X164368152Y-122441398D01*
X164453866Y-122449476D01*
G37*
G36*
X171803751Y-119202772D02*
G01*
X171900224Y-119226998D01*
X171993610Y-119266025D01*
X172082271Y-119320154D01*
X172164572Y-119389683D01*
X172233156Y-119468484D01*
X172289524Y-119558889D01*
X172330509Y-119656964D01*
X172355528Y-119761301D01*
X172363998Y-119870493D01*
X172357698Y-119964229D01*
X172335314Y-120067898D01*
X172297795Y-120165092D01*
X172246250Y-120254462D01*
X172181787Y-120334657D01*
X172105515Y-120404327D01*
X172018544Y-120462121D01*
X171921981Y-120506689D01*
X171816936Y-120536682D01*
X171801223Y-120539672D01*
X171699587Y-120548988D01*
X171597168Y-120542101D01*
X171496421Y-120519910D01*
X171399802Y-120483313D01*
X171309768Y-120433210D01*
X171228775Y-120370499D01*
X171159279Y-120296078D01*
X171145388Y-120277890D01*
X171087182Y-120185558D01*
X171045797Y-120088134D01*
X171020955Y-119984823D01*
X171012378Y-119874827D01*
X171013928Y-119814224D01*
X171023212Y-119737115D01*
X171042095Y-119664482D01*
X171072008Y-119589484D01*
X171117262Y-119505924D01*
X171179503Y-119422509D01*
X171251753Y-119351501D01*
X171332373Y-119293200D01*
X171419728Y-119247905D01*
X171512180Y-119215916D01*
X171608093Y-119197531D01*
X171705829Y-119193050D01*
X171803751Y-119202772D01*
G37*
G36*
X167009913Y-123981361D02*
G01*
X167082986Y-123986846D01*
X167143795Y-123995261D01*
X167182793Y-124003090D01*
X167332327Y-124043793D01*
X167474261Y-124099420D01*
X167607731Y-124169012D01*
X167731872Y-124251607D01*
X167845821Y-124346244D01*
X167948712Y-124451961D01*
X168039683Y-124567798D01*
X168117868Y-124692792D01*
X168182404Y-124825984D01*
X168232426Y-124966411D01*
X168267070Y-125113112D01*
X168285472Y-125265127D01*
X168287172Y-125296454D01*
X168285667Y-125454037D01*
X168267469Y-125608300D01*
X168232906Y-125758063D01*
X168182304Y-125902148D01*
X168115993Y-126039376D01*
X168034300Y-126168567D01*
X167977214Y-126243493D01*
X167873760Y-126357876D01*
X167760643Y-126457873D01*
X167637514Y-126543688D01*
X167504024Y-126615525D01*
X167359823Y-126673588D01*
X167204561Y-126718080D01*
X167037888Y-126749206D01*
X167013987Y-126751403D01*
X166969006Y-126752638D01*
X166913849Y-126752005D01*
X166852760Y-126749721D01*
X166789985Y-126746006D01*
X166729767Y-126741076D01*
X166676351Y-126735150D01*
X166633982Y-126728446D01*
X166596977Y-126720595D01*
X166448321Y-126678193D01*
X166306709Y-126620311D01*
X166173211Y-126547853D01*
X166048896Y-126461721D01*
X165934835Y-126362819D01*
X165832096Y-126252050D01*
X165741751Y-126130318D01*
X165664869Y-125998525D01*
X165602519Y-125857575D01*
X165576071Y-125780511D01*
X165538586Y-125630682D01*
X165517858Y-125477902D01*
X165513887Y-125323869D01*
X165526674Y-125170283D01*
X165556218Y-125018844D01*
X165602519Y-124871251D01*
X165625473Y-124814278D01*
X165693555Y-124677436D01*
X165775818Y-124549861D01*
X165871134Y-124432491D01*
X165978375Y-124326266D01*
X166096413Y-124232127D01*
X166224120Y-124151013D01*
X166360368Y-124083863D01*
X166504029Y-124031618D01*
X166653976Y-123995218D01*
X166697823Y-123988732D01*
X166768531Y-123982492D01*
X166847543Y-123979184D01*
X166929718Y-123978807D01*
X167009913Y-123981361D01*
G37*
G36*
X167920714Y-129917309D02*
G01*
X168020524Y-129947745D01*
X168116068Y-129994101D01*
X168140457Y-130009870D01*
X168190840Y-130049651D01*
X168242490Y-130098307D01*
X168291241Y-130151465D01*
X168332925Y-130204747D01*
X168363375Y-130253780D01*
X168366262Y-130259400D01*
X168397163Y-130324526D01*
X168418618Y-130382677D01*
X168432083Y-130439916D01*
X168439019Y-130502308D01*
X168440885Y-130575914D01*
X168440863Y-130581772D01*
X168438840Y-130652215D01*
X168432806Y-130711025D01*
X168421642Y-130763593D01*
X168404226Y-130815311D01*
X168379438Y-130871570D01*
X168372619Y-130885403D01*
X168317139Y-130975682D01*
X168248254Y-131055754D01*
X168167627Y-131124383D01*
X168076919Y-131180332D01*
X167977791Y-131222364D01*
X167871905Y-131249245D01*
X167837598Y-131252881D01*
X167789024Y-131254171D01*
X167735434Y-131252789D01*
X167683315Y-131248917D01*
X167639154Y-131242737D01*
X167637748Y-131242466D01*
X167541636Y-131216972D01*
X167454167Y-131178610D01*
X167372376Y-131125786D01*
X167293296Y-131056907D01*
X167282036Y-131045628D01*
X167215670Y-130968145D01*
X167164697Y-130886134D01*
X167127176Y-130796553D01*
X167111625Y-130743137D01*
X167093533Y-130635718D01*
X167092599Y-130528857D01*
X167108545Y-130423998D01*
X167141090Y-130322587D01*
X167189957Y-130226069D01*
X167254865Y-130135890D01*
X167265871Y-130123157D01*
X167341118Y-130051109D01*
X167425705Y-129992741D01*
X167517689Y-129948374D01*
X167615125Y-129918327D01*
X167716071Y-129902920D01*
X167818582Y-129902475D01*
X167920714Y-129917309D01*
G37*
D10*
X72301567Y-33749745D03*
D11*
X77381567Y-33749745D03*
X67221567Y-33749745D03*
D12*
X68491567Y-31209745D03*
X74841567Y-28669745D03*
D10*
X227401650Y-56339757D03*
D11*
X232370640Y-55283566D03*
X222432660Y-57395948D03*
D12*
X223146812Y-54647406D03*
X228829954Y-50842671D03*
D11*
X240440645Y-113533598D03*
X230502665Y-115645980D03*
D10*
X235471655Y-114589789D03*
D12*
X231216817Y-112897438D03*
X236899959Y-109092703D03*
D10*
X212027930Y-98560498D03*
D11*
X216996920Y-97504307D03*
X207058940Y-99616689D03*
D12*
X207773092Y-96868147D03*
X213456234Y-93063412D03*
D10*
X35211547Y-54939757D03*
D11*
X40291547Y-54939757D03*
X30131547Y-54939757D03*
D12*
X31401547Y-52399757D03*
X37751547Y-49859757D03*
D10*
X24596543Y-93039777D03*
D11*
X29676543Y-93039777D03*
X19516543Y-93039777D03*
D12*
X20786543Y-90499777D03*
X27136543Y-87959777D03*
D11*
X74552580Y-53303565D03*
X84490560Y-55415947D03*
D10*
X79521570Y-54359756D03*
D12*
X76322923Y-51083118D03*
X83062256Y-49918862D03*
D11*
X301486688Y-93039777D03*
D10*
X296406688Y-93039777D03*
D11*
X291326688Y-93039777D03*
D12*
X292596688Y-90499777D03*
X298946688Y-87959777D03*
D10*
X193394208Y-102521217D03*
D11*
X198363198Y-101465026D03*
X188425218Y-103577408D03*
D12*
X189139370Y-100828866D03*
X194822512Y-97024131D03*
D11*
X266811674Y-35889746D03*
D10*
X271891674Y-35889746D03*
D11*
X276971674Y-35889746D03*
D12*
X268081674Y-33349746D03*
X274431674Y-30809746D03*
D10*
X85571574Y-94599778D03*
D11*
X90540564Y-95655969D03*
X80602584Y-93543587D03*
D12*
X82372927Y-91323140D03*
X89112260Y-90158884D03*
D10*
X270211673Y-93039777D03*
D11*
X275291673Y-93039777D03*
X265131673Y-93039777D03*
D12*
X266401673Y-90499777D03*
X272751673Y-87959777D03*
D11*
X143733753Y-48535716D03*
D10*
X148702743Y-49591907D03*
D11*
X153671733Y-50648098D03*
D12*
X145504096Y-46315269D03*
X152243429Y-45151013D03*
D11*
X141091726Y-86928117D03*
X131153746Y-84815735D03*
D10*
X136122736Y-85871926D03*
D12*
X132924089Y-82595288D03*
X139663422Y-81431032D03*
D11*
X248181664Y-33749745D03*
X258341664Y-33749745D03*
D10*
X253261664Y-33749745D03*
D12*
X249451664Y-31209745D03*
X255801664Y-28669745D03*
D10*
X208767928Y-60300477D03*
D11*
X203798938Y-61356668D03*
X213736918Y-59244286D03*
D12*
X204513090Y-58608126D03*
X210196232Y-54803391D03*
D11*
X75792581Y-113533598D03*
D10*
X80761571Y-114589789D03*
D11*
X85730561Y-115645980D03*
D12*
X77562924Y-111313151D03*
X84302257Y-110148895D03*
D11*
X29041543Y-93039777D03*
D10*
X34121543Y-93039777D03*
D11*
X39201543Y-93039777D03*
D10*
X22215293Y-101294777D03*
X46027793Y-101294777D03*
D13*
X46027793Y-86054777D03*
X22215293Y-86054777D03*
D12*
X30311543Y-90499777D03*
X36661543Y-87959777D03*
D11*
X252981661Y-53879756D03*
X242821661Y-53879756D03*
D10*
X247901661Y-53879756D03*
D12*
X244091661Y-51339756D03*
X250441661Y-48799756D03*
D11*
X296021685Y-35889746D03*
D10*
X290941685Y-35889746D03*
D11*
X285861685Y-35889746D03*
D12*
X287131685Y-33349746D03*
X293481685Y-30809746D03*
D10*
X305929693Y-93039777D03*
X294023443Y-101294777D03*
D13*
X294023443Y-86054777D03*
D11*
X311009693Y-93039777D03*
D10*
X317835943Y-101294777D03*
D11*
X300849693Y-93039777D03*
D13*
X317835943Y-86054777D03*
D12*
X302119693Y-90499777D03*
X308469693Y-87959777D03*
D11*
X48581557Y-35889746D03*
D10*
X53661557Y-35889746D03*
D11*
X58741557Y-35889746D03*
D12*
X49851557Y-33349746D03*
X56201557Y-30809746D03*
D10*
X275571676Y-73989767D03*
D11*
X270491676Y-73989767D03*
X280651676Y-73989767D03*
D12*
X271761676Y-71449767D03*
X278111676Y-68909767D03*
D11*
X24310517Y-73989767D03*
X34470517Y-73989767D03*
D10*
X29390517Y-73989767D03*
D12*
X25580517Y-71449767D03*
X31930517Y-68909767D03*
D10*
X217387933Y-77950487D03*
D11*
X212418943Y-79006678D03*
X222356923Y-76894296D03*
D12*
X213133095Y-76258136D03*
X218816237Y-72453401D03*
D11*
X135038012Y-46687378D03*
D10*
X130069022Y-45631187D03*
D11*
X125100032Y-44574996D03*
D12*
X126870375Y-42354549D03*
X133609708Y-41190293D03*
D11*
X16671534Y-33749745D03*
D10*
X11591534Y-33749745D03*
D11*
X6511534Y-33749745D03*
D12*
X7781534Y-31209745D03*
X14131534Y-28669745D03*
D11*
X304911695Y-35889746D03*
X315071695Y-35889746D03*
D10*
X309991695Y-35889746D03*
D12*
X306181695Y-33349746D03*
X312531695Y-30809746D03*
D11*
X139327633Y-125501539D03*
X149265613Y-127613921D03*
D10*
X144296623Y-126557730D03*
D12*
X141097976Y-123281092D03*
X147837309Y-122116836D03*
D10*
X256521666Y-73989767D03*
D11*
X251441666Y-73989767D03*
X261601666Y-73989767D03*
D12*
X252711666Y-71449767D03*
X259061666Y-68909767D03*
D11*
X314481695Y-54939757D03*
X304321695Y-54939757D03*
D10*
X309401695Y-54939757D03*
D12*
X305591695Y-52399757D03*
X311941695Y-49859757D03*
D11*
X116404290Y-42726658D03*
D10*
X111435300Y-41670467D03*
D11*
X106466310Y-40614276D03*
D12*
X108236653Y-38393829D03*
X114975986Y-37229573D03*
D11*
X-1718471Y-71849766D03*
D10*
X3361529Y-71849766D03*
D11*
X8441529Y-71849766D03*
D12*
X-448471Y-69309766D03*
X5901529Y-66769766D03*
D11*
X85190561Y-75045958D03*
X75252581Y-72933576D03*
D10*
X80221571Y-73989767D03*
D12*
X77022924Y-70713129D03*
X83762257Y-69548873D03*
D10*
X181699254Y-116050632D03*
D11*
X190092645Y-122705983D03*
D13*
X184867828Y-130957602D03*
D10*
X204991394Y-111099735D03*
D11*
X200030625Y-120593601D03*
D13*
X208159968Y-126006704D03*
D10*
X195061635Y-121649792D03*
D12*
X190806797Y-119957441D03*
X196489939Y-116152706D03*
D10*
X322600452Y-93039777D03*
D11*
X317520452Y-93039777D03*
X327680452Y-93039777D03*
D12*
X318790452Y-90499777D03*
X325140452Y-87959777D03*
D10*
X300466690Y-35889746D03*
D11*
X295386690Y-35889746D03*
X305546690Y-35889746D03*
D10*
X288560440Y-44144746D03*
D13*
X312372940Y-28904746D03*
D10*
X312372940Y-44144746D03*
D13*
X288560440Y-28904746D03*
D12*
X296656690Y-33349746D03*
X303006690Y-30809746D03*
D11*
X261451671Y-54939757D03*
X271611671Y-54939757D03*
D10*
X266531671Y-54939757D03*
D12*
X262721671Y-52399757D03*
X269071671Y-49859757D03*
D10*
X116789015Y-62281196D03*
D11*
X111820025Y-61225005D03*
X121758005Y-63337387D03*
D12*
X113590368Y-59004558D03*
X120329701Y-57840302D03*
D11*
X12511532Y-52799755D03*
X2351532Y-52799755D03*
D10*
X7431532Y-52799755D03*
D12*
X3621532Y-50259755D03*
X9971532Y-47719755D03*
D11*
X146441729Y-107538128D03*
D10*
X141472739Y-106481937D03*
D11*
X136503749Y-105425746D03*
D12*
X138274092Y-103205299D03*
X145013425Y-102041043D03*
D11*
X319237297Y-112137787D03*
D10*
X314157297Y-112137787D03*
D11*
X309077297Y-112137787D03*
D12*
X310347297Y-109597787D03*
X316697297Y-107057787D03*
D11*
X166531495Y-69278108D03*
X176469475Y-67165726D03*
D10*
X171500485Y-68221917D03*
D12*
X167245647Y-66529566D03*
X172928789Y-62724831D03*
D10*
X251161663Y-93039777D03*
D11*
X256241663Y-93039777D03*
X246081663Y-93039777D03*
D12*
X247351663Y-90499777D03*
X253701663Y-87959777D03*
D10*
X92801578Y-37709747D03*
D11*
X87832588Y-36653556D03*
X97770568Y-38765938D03*
D12*
X89602931Y-34433109D03*
X96342264Y-33268853D03*
D13*
X126485400Y-129917603D03*
X103193260Y-124966705D03*
D11*
X121260583Y-121665984D03*
D10*
X116291593Y-120609793D03*
X129653974Y-115010633D03*
D11*
X111322603Y-119553602D03*
D10*
X106361834Y-110059736D03*
D12*
X113092946Y-117333155D03*
X119832279Y-116168899D03*
D10*
X127362527Y-114518855D03*
X104070387Y-109567958D03*
D13*
X100901813Y-124474927D03*
D10*
X114000146Y-120118015D03*
D11*
X118969136Y-121174206D03*
X109031156Y-119061824D03*
D13*
X124193953Y-129425825D03*
D12*
X110801499Y-116841377D03*
X117540832Y-115677121D03*
D10*
X195494209Y-43651185D03*
D11*
X190525219Y-44707376D03*
X200463199Y-42594994D03*
D12*
X191239371Y-41958834D03*
X196922513Y-38154099D03*
D11*
X29531546Y-35889746D03*
D10*
X34611546Y-35889746D03*
D11*
X39691546Y-35889746D03*
D12*
X30801546Y-33349746D03*
X37151546Y-30809746D03*
D11*
X290661682Y-54939757D03*
D10*
X285581682Y-54939757D03*
D11*
X280501682Y-54939757D03*
D12*
X281771682Y-52399757D03*
X288121682Y-49859757D03*
D10*
X198754211Y-81911206D03*
D11*
X203723201Y-80855015D03*
X193785221Y-82967397D03*
D12*
X194499373Y-80218855D03*
X200182515Y-76414120D03*
D10*
X98855293Y-77950487D03*
D11*
X103824283Y-79006678D03*
X93886303Y-76894296D03*
D12*
X95656646Y-74673849D03*
X102395979Y-73509593D03*
D11*
X112520025Y-80855015D03*
X122458005Y-82967397D03*
D10*
X117489015Y-81911206D03*
D12*
X114290368Y-78634568D03*
X121029701Y-77470312D03*
D10*
X135422736Y-66241916D03*
D11*
X130453746Y-65185725D03*
X140391726Y-67298107D03*
D12*
X132224089Y-62965278D03*
X138963422Y-61801022D03*
D11*
X40947793Y-93039777D03*
D10*
X46027793Y-93039777D03*
D11*
X51107793Y-93039777D03*
D12*
X42217793Y-90499777D03*
X48567793Y-87959777D03*
D10*
X318427943Y-65734767D03*
X306521693Y-73989767D03*
D13*
X294615443Y-80974767D03*
D11*
X311601693Y-73989767D03*
D10*
X294615443Y-65734767D03*
D13*
X318427943Y-80974767D03*
D11*
X301441693Y-73989767D03*
D12*
X302711693Y-71449767D03*
X309061693Y-68909767D03*
D11*
X231052665Y-75045958D03*
D10*
X236021655Y-73989767D03*
D11*
X240990645Y-72933576D03*
D12*
X231766817Y-72297416D03*
X237449959Y-68492681D03*
D11*
X53941559Y-54939757D03*
X64101559Y-54939757D03*
D10*
X59021559Y-54939757D03*
D12*
X55211559Y-52399757D03*
X61561559Y-49859757D03*
D11*
X70151563Y-93039777D03*
X59991563Y-93039777D03*
D10*
X65071563Y-93039777D03*
D12*
X61261563Y-90499777D03*
X67611563Y-87959777D03*
D11*
X227792663Y-36785937D03*
D10*
X232761653Y-35729746D03*
D11*
X237730643Y-34673555D03*
D12*
X228506815Y-34037395D03*
X234189957Y-30232660D03*
D11*
X179729477Y-105425746D03*
D10*
X174760487Y-106481937D03*
D11*
X169791497Y-107538128D03*
D12*
X170505649Y-104789586D03*
X176188791Y-100984851D03*
D11*
X109174286Y-99616689D03*
X99236306Y-97504307D03*
D10*
X104205296Y-98560498D03*
D12*
X101006649Y-95283860D03*
X107745982Y-94119604D03*
D11*
X54641560Y-73989767D03*
D10*
X59721560Y-73989767D03*
D11*
X64801560Y-73989767D03*
D12*
X55911560Y-71449767D03*
X62261560Y-68909767D03*
D11*
X185089480Y-84815735D03*
D10*
X180120490Y-85871926D03*
D11*
X175151500Y-86928117D03*
D12*
X175865652Y-84179575D03*
X181548794Y-80374840D03*
D10*
X26981542Y-112089787D03*
D11*
X32061542Y-112089787D03*
X21901542Y-112089787D03*
D12*
X23171542Y-109549787D03*
X29521542Y-107009787D03*
D11*
X185165216Y-65317388D03*
D10*
X190134206Y-64261197D03*
D11*
X195103196Y-63205006D03*
D12*
X185879368Y-62568846D03*
X191562510Y-58764111D03*
D11*
X93186303Y-57264285D03*
X103124283Y-59376667D03*
D10*
X98155293Y-58320476D03*
D12*
X94956646Y-55043838D03*
X101695979Y-53879582D03*
D11*
X225692662Y-95655969D03*
X235630642Y-93543587D03*
D10*
X230661652Y-94599778D03*
D12*
X226406814Y-92907427D03*
X232089956Y-89102692D03*
D11*
X28441525Y-73989767D03*
D10*
X33521525Y-73989767D03*
D11*
X38601525Y-73989767D03*
D12*
X29711525Y-71449767D03*
X36061525Y-68909767D03*
D11*
X171891498Y-48668097D03*
X181829478Y-46555715D03*
D10*
X176860488Y-47611906D03*
D12*
X172605650Y-45919555D03*
X178288792Y-42114820D03*
D10*
X146611609Y-127049796D03*
D11*
X141642619Y-125993605D03*
X151580599Y-128105987D03*
D12*
X143412962Y-123773158D03*
X150152295Y-122608902D03*
D11*
X117870028Y-101465026D03*
X127808008Y-103577408D03*
D10*
X122839018Y-102521217D03*
D12*
X119640371Y-99244579D03*
X126379704Y-98080323D03*
D11*
X209158941Y-40746657D03*
X219096921Y-38634275D03*
D10*
X214127931Y-39690466D03*
D12*
X209873093Y-37998115D03*
X215556235Y-34193380D03*
D14*
X242154579Y-40203684D03*
X241468471Y-36975796D03*
X245404579Y-78453684D03*
X244718471Y-75225796D03*
X226804579Y-82453684D03*
X226118471Y-79225796D03*
D15*
X32836525Y-99389740D03*
X32836525Y-96089740D03*
D14*
X240054579Y-99053684D03*
X239368471Y-95825796D03*
X186254579Y-52053684D03*
X185568471Y-48825796D03*
D16*
X95155653Y-124879120D03*
X92025580Y-124213803D03*
X93044347Y-119420880D03*
X96174420Y-120086197D03*
D17*
X92318471Y-102553684D03*
X93004579Y-99325796D03*
D15*
X19861525Y-40139740D03*
X19861525Y-36839740D03*
D18*
X194024420Y-132963803D03*
X190894347Y-133629120D03*
X189875580Y-128836197D03*
X193005653Y-128170880D03*
D19*
X191250000Y-27450000D03*
X191250000Y-30650000D03*
X186350000Y-30650000D03*
X186350000Y-27450000D03*
D15*
X68011525Y-80339740D03*
X68011525Y-77039740D03*
D17*
X124218471Y-89853684D03*
X124904579Y-86625796D03*
D20*
X181001525Y-29759740D03*
X181001525Y-27219740D03*
X178461525Y-29759740D03*
X178461525Y-27219740D03*
X175921525Y-29759740D03*
D21*
X175921525Y-27219740D03*
D22*
X161318372Y-79632893D03*
X160204678Y-80746587D03*
D19*
X95028570Y-27300000D03*
X95028570Y-30500000D03*
X90128570Y-30500000D03*
X90128570Y-27300000D03*
D15*
X43461525Y-61289740D03*
X43461525Y-57989740D03*
X54261525Y-99389740D03*
X54261525Y-96089740D03*
D14*
X236804579Y-60803684D03*
X236118471Y-57575796D03*
D17*
X86268471Y-62303684D03*
X86954579Y-59075796D03*
D15*
X318211525Y-42239740D03*
X318211525Y-38939740D03*
X73311525Y-99389740D03*
X73311525Y-96089740D03*
D19*
X326850000Y-27300000D03*
X326850000Y-30500000D03*
X321950000Y-30500000D03*
X321950000Y-27300000D03*
D15*
X42986525Y-42433490D03*
X42986525Y-39133490D03*
D19*
X-1450000Y-85633332D03*
X-1450000Y-82433332D03*
X3450000Y-82433332D03*
X3450000Y-85633332D03*
D23*
X186700000Y-40600000D03*
X186700000Y-34400000D03*
X183000000Y-40600000D03*
X183000000Y-34400000D03*
D19*
X328550000Y-105300000D03*
X328550000Y-108500000D03*
X323650000Y-108500000D03*
X323650000Y-105300000D03*
D17*
X153343471Y-135003684D03*
X154029579Y-131775796D03*
D24*
X-1750000Y-26450000D03*
X1450000Y-26450000D03*
X1450000Y-31350000D03*
X-1750000Y-31350000D03*
D25*
X182950000Y-32437500D03*
X182950000Y-30862500D03*
D26*
X164448008Y-94798008D03*
X163351992Y-93701992D03*
D17*
X105618471Y-85903684D03*
X106304579Y-82675796D03*
X87543471Y-122528684D03*
X88229579Y-119300796D03*
D14*
X189454579Y-90353684D03*
X188768471Y-87125796D03*
D27*
X157000103Y-81673479D03*
X157353656Y-82027033D03*
X157707209Y-82380586D03*
X158060763Y-82734140D03*
X158414316Y-83087693D03*
X158767870Y-83441246D03*
X159121423Y-83794800D03*
X159474976Y-84148353D03*
X159828530Y-84501907D03*
X160182083Y-84855460D03*
X160535637Y-85209013D03*
D28*
X160535637Y-86534839D03*
X160182083Y-86888392D03*
X159828530Y-87241945D03*
X159474976Y-87595499D03*
D29*
X156337190Y-85871926D03*
D28*
X159121423Y-87949052D03*
X158767870Y-88302606D03*
X158414316Y-88656159D03*
X158060763Y-89009712D03*
X157707209Y-89363266D03*
X157353656Y-89716819D03*
X157000103Y-90070373D03*
D27*
X155674277Y-90070373D03*
X155320724Y-89716819D03*
X154967171Y-89363266D03*
X154613617Y-89009712D03*
X154260064Y-88656159D03*
X153906510Y-88302606D03*
X153552957Y-87949052D03*
X153199404Y-87595499D03*
X152845850Y-87241945D03*
X152492297Y-86888392D03*
X152138743Y-86534839D03*
D28*
X152138743Y-85209013D03*
X152492297Y-84855460D03*
X152845850Y-84501907D03*
X153199404Y-84148353D03*
X153552957Y-83794800D03*
X153906510Y-83441246D03*
X154260064Y-83087693D03*
X154613617Y-82734140D03*
X154967171Y-82380586D03*
X155320724Y-82027033D03*
X155674277Y-81673479D03*
D19*
X230121425Y-27300000D03*
X230121425Y-30500000D03*
X225221425Y-30500000D03*
X225221425Y-27300000D03*
D14*
X221404579Y-103053684D03*
X220718471Y-99825796D03*
D17*
X136718471Y-53703684D03*
X137404579Y-50475796D03*
D14*
X184204579Y-110953684D03*
X183518471Y-107725796D03*
D30*
X148904678Y-87032893D03*
X150018372Y-88146587D03*
D15*
X41811525Y-80339740D03*
X41811525Y-77039740D03*
D14*
X204454579Y-126128684D03*
X203768471Y-122900796D03*
X223504579Y-44253684D03*
X222818471Y-41025796D03*
D17*
X99718471Y-45703684D03*
X100404579Y-42475796D03*
D19*
X327050000Y-53300000D03*
X327050000Y-56500000D03*
X322150000Y-56500000D03*
X322150000Y-53300000D03*
D17*
X129568471Y-110453684D03*
X130254579Y-107225796D03*
D31*
X149824678Y-85296587D03*
X150938372Y-84182893D03*
D15*
X280161525Y-42289740D03*
X280161525Y-38989740D03*
D18*
X229874420Y-125313803D03*
X226744347Y-125979120D03*
X225725580Y-121186197D03*
X228855653Y-120520880D03*
D15*
X314261525Y-99389740D03*
X314261525Y-96089740D03*
D32*
X139320880Y-134355653D03*
X139986197Y-131225580D03*
X144779120Y-132244347D03*
X144113803Y-135374420D03*
D14*
X208154579Y-86403684D03*
X207468471Y-83175796D03*
D15*
X259411525Y-99389740D03*
X259411525Y-96089740D03*
D14*
X180904579Y-72703684D03*
X180218471Y-69475796D03*
D24*
X52800000Y-119430000D03*
X49600000Y-119430000D03*
X49600000Y-114530000D03*
X52800000Y-114530000D03*
D15*
X15711525Y-59139740D03*
X15711525Y-55839740D03*
X299211525Y-42239740D03*
X299211525Y-38939740D03*
D17*
X142868471Y-93803684D03*
X143554579Y-90575796D03*
D24*
X2410000Y-117790000D03*
X-790000Y-117790000D03*
X-790000Y-112890000D03*
X2410000Y-112890000D03*
D17*
X155511525Y-57539740D03*
X156197633Y-54311852D03*
D19*
X327850000Y-79300000D03*
X327850000Y-82500000D03*
X322950000Y-82500000D03*
X322950000Y-79300000D03*
X283485710Y-27300000D03*
X283485710Y-30500000D03*
X278585710Y-30500000D03*
X278585710Y-27300000D03*
D15*
X283811525Y-80339740D03*
X283811525Y-77039740D03*
D33*
X159841612Y-24234741D03*
X165621612Y-24234741D03*
D34*
X159506612Y-25679741D03*
X160281612Y-25679741D03*
D35*
X160981612Y-25679741D03*
X161481612Y-25679741D03*
X161981612Y-25679741D03*
X162481612Y-25679741D03*
X162981612Y-25679741D03*
X163481612Y-25679741D03*
X163981612Y-25679741D03*
X164481612Y-25679741D03*
D34*
X165181612Y-25679741D03*
X165956612Y-25679741D03*
D36*
X158411612Y-24764741D03*
D37*
X167051612Y-20584741D03*
X158411612Y-20584741D03*
D36*
X167051612Y-24764741D03*
D17*
X120768471Y-128053684D03*
X121454579Y-124825796D03*
D15*
X293861525Y-61289740D03*
X293861525Y-57989740D03*
D17*
X86968471Y-81953684D03*
X87654579Y-78725796D03*
D14*
X218154579Y-64803684D03*
X217468471Y-61575796D03*
D15*
X62036525Y-42433490D03*
X62036525Y-39133490D03*
D14*
X202804579Y-107003684D03*
X202118471Y-103775796D03*
D19*
X48664285Y-27300000D03*
X48664285Y-30500000D03*
X43764285Y-30500000D03*
X43764285Y-27300000D03*
D15*
X328911525Y-99389740D03*
X328911525Y-96089740D03*
D14*
X204854579Y-48203684D03*
X204168471Y-44975796D03*
D38*
X163731612Y-32114740D03*
D39*
X163731612Y-33814740D03*
X161731612Y-33814740D03*
X161731612Y-31914740D03*
D15*
X278511525Y-99389740D03*
X278511525Y-96089740D03*
D14*
X244879579Y-119078684D03*
X244193471Y-115850796D03*
D15*
X256161525Y-60189740D03*
X256161525Y-56889740D03*
X274761525Y-61289740D03*
X274761525Y-57989740D03*
D24*
X281871426Y-119250000D03*
X278671426Y-119250000D03*
X278671426Y-114350000D03*
X281871426Y-114350000D03*
D15*
X264811525Y-80339740D03*
X264811525Y-77039740D03*
D17*
X123568471Y-70203684D03*
X124254579Y-66975796D03*
D15*
X11611525Y-78189740D03*
X11611525Y-74889740D03*
D25*
X160161524Y-77289740D03*
X160161524Y-75714740D03*
D40*
X158081612Y-30149740D03*
X156506612Y-30149740D03*
D41*
X160883777Y-90986517D03*
X162439412Y-89430882D03*
X163641493Y-90632963D03*
X162085858Y-92188598D03*
D17*
X104968471Y-66303684D03*
X105654579Y-63075796D03*
X148268471Y-114403684D03*
X148954579Y-111175796D03*
D15*
X314761525Y-80339740D03*
X314761525Y-77039740D03*
D42*
X158561525Y-75714740D03*
X158561525Y-77289740D03*
D19*
X-3750000Y-58066666D03*
X-3750000Y-54866666D03*
X1150000Y-54866666D03*
X1150000Y-58066666D03*
D15*
X317661525Y-61289740D03*
X317661525Y-57989740D03*
X35211525Y-118439740D03*
X35211525Y-115139740D03*
D43*
X158901525Y-38167240D03*
X158901525Y-35192240D03*
D17*
X118218471Y-49703684D03*
X118904579Y-46475796D03*
X110968471Y-106453684D03*
X111654579Y-103225796D03*
D15*
X261511525Y-40089740D03*
X261511525Y-36789740D03*
D44*
X167381612Y-30149740D03*
X168956612Y-30149740D03*
D22*
X165258372Y-87022893D03*
X164144678Y-88136587D03*
X154965219Y-79436046D03*
X153851525Y-80549740D03*
D30*
X154304678Y-91332893D03*
X155418372Y-92446587D03*
D26*
X166346016Y-92946016D03*
X165250000Y-91850000D03*
D17*
X142168471Y-74153684D03*
X142854579Y-70925796D03*
D31*
X161204678Y-82446587D03*
X162318372Y-81332893D03*
D15*
X80561525Y-40239740D03*
X80561525Y-36939740D03*
D19*
X141392855Y-27300000D03*
X141392855Y-30500000D03*
X136492855Y-30500000D03*
X136492855Y-27300000D03*
D15*
X67311525Y-61289740D03*
X67311525Y-57989740D03*
X322411525Y-118489740D03*
X322411525Y-115189740D03*
D14*
X199454579Y-68753684D03*
X198768471Y-65525796D03*
M02*
