M48
; DRILL file {KiCad (5.99.0-10089-gf88d39b4f0)} date Mon Apr 19 21:07:55 2021
; FORMAT={-:-/ absolute / inch / decimal}
; #@! TF.CreationDate,2021-04-19T21:07:55-05:00
; #@! TF.GenerationSoftware,Kicad,Pcbnew,(5.99.0-10089-gf88d39b4f0)
; #@! TF.FileFunction,Plated,1,2,PTH
FMAT,2
INCH
; #@! TA.AperFunction,Plated,PTH,ViaDrill
T1C0.0157
; #@! TA.AperFunction,Plated,PTH,ComponentDrill
T2C0.0236
; #@! TA.AperFunction,Plated,PTH,ComponentDrill
T3C0.0394
; #@! TA.AperFunction,Plated,PTH,ComponentDrill
T4C0.0579
%
G90
G05
T1
X-0.148Y-1.0449
X-0.148Y-2.3594
X-0.148Y-3.3724
X0.0949Y-4.7122
X1.2363Y-2.4726
X1.9142Y-1.0091
X2.1319Y-4.7047
X2.1492Y-4.5094
X2.1737Y-2.4897
X2.3049Y-4.6639
X2.9815Y-4.7098
X3.0048Y-2.5074
X3.737Y-4.9693
X3.7385Y-2.7097
X3.7421Y-1.0091
X3.8504Y-4.7283
X4.4996Y-3.4829
X4.5681Y-4.9697
X4.665Y-5.1031
X5.2332Y-3.6187
X5.3701Y-5.2894
X5.4469Y-5.1575
X5.5661Y-1.0106
X5.7146Y-3.376
X5.7855Y-2.9366
X5.8686Y-3.8027
X5.9079Y-3.8027
X5.9473Y-3.8027
X5.9732Y-4.3683
X5.9867Y-3.8027
X6.026Y-3.8027
X6.0655Y-3.8027
X6.0742Y-3.7561
X6.0935Y-2.9951
X6.1048Y-3.8027
X6.1442Y-3.8027
X6.1723Y-5.3151
X6.1831Y-2.9744
X6.1836Y-3.8027
X6.2036Y-2.265
X6.2229Y-3.8027
X6.2402Y-2.9055
X6.2623Y-3.8027
X6.2741Y-4.4218
X6.2741Y-4.4614
X6.2741Y-4.5015
X6.2741Y-4.5416
X6.2741Y-4.5817
X6.2807Y-1.094
X6.2816Y-1.2567
X6.313Y-2.2165
X6.313Y-2.3268
X6.3213Y-1.5035
X6.3563Y-2.2165
X6.3563Y-2.3287
X6.3957Y-2.8996
X6.3957Y-2.9843
X6.3976Y-3.2362
X6.4035Y-3.8071
X6.4071Y-5.4736
X6.4213Y-2.8697
X6.5312Y-1.094
X6.5324Y-2.8785
X6.5334Y-2.3509
X6.5485Y-3.471
X6.5886Y-2.8307
X6.5945Y-3.873
X6.5945Y-3.9134
X6.5993Y-2.937
X6.6024Y-4.4921
X6.6083Y-3.7033
X6.7134Y-2.2657
X6.9664Y-1.3475
X7.1006Y-1.2375
X7.2539Y-1.0827
X7.3445Y-5.0354
X7.6966Y-5.1769
X7.7017Y-3.6285
X8.4354Y-3.4573
X8.6051Y-4.8157
X8.6929Y-5.0197
X8.9977Y-4.1816
X9.1198Y-4.8639
X9.2854Y-4.8602
X9.7623Y-4.0074
X9.9646Y-4.752
X10.5142Y-3.9897
X11.1657Y-4.5024
X11.189Y-4.7165
X11.4512Y-3.9238
X12.5827Y-4.6575
X12.7421Y-4.3602
X12.9327Y-4.3819
X12.9449Y-3.313
X12.9689Y-3.9823
T3
X6.926Y-1.0716
X6.926Y-1.1716
X7.026Y-1.0716
X7.026Y-1.1716
X7.126Y-1.0716
X7.126Y-1.1716
T4
X-0.0177Y-2.7287
X0.1426Y-1.9787
X0.2323Y-2.6287
X0.3064Y-1.2287
X0.3926Y-1.8787
X0.5564Y-1.1287
X0.8184Y-3.563
X0.9123Y-4.313
X1.0071Y-2.813
X1.0684Y-3.463
X1.1623Y-4.213
X1.1697Y-2.813
X1.1934Y-3.563
X1.2127Y-1.313
X1.2363Y-2.063
X1.2571Y-2.713
X1.4197Y-2.713
X1.4434Y-3.463
X1.4627Y-1.213
X1.4863Y-1.963
X1.6621Y-3.563
X1.9121Y-3.463
X1.9627Y-1.313
X2.1737Y-2.063
X2.2012Y-2.813
X2.2127Y-1.213
X2.4119Y-3.563
X2.4237Y-1.963
X2.4512Y-2.713
X2.6619Y-3.463
X2.6965Y-1.2287
X2.9465Y-1.1287
X3.0048Y-2.0111
X3.0324Y-2.784
X3.0537Y-4.3824
X3.243Y-3.5954
X3.2702Y-1.9653
X3.2977Y-2.7381
X3.319Y-4.3366
X3.5084Y-3.5496
X3.5277Y-1.3556
X3.7385Y-2.1671
X3.766Y-2.9399
X3.793Y-1.3098
X3.9766Y-3.7513
X4.0038Y-2.1212
X4.0313Y-2.8941
X4.242Y-3.7055
X4.2613Y-1.5116
X4.3623Y-4.6001
X4.4525Y-4.6194
X4.4721Y-2.323
X4.4996Y-3.0958
X4.5266Y-1.4657
X4.6276Y-4.5542
X4.7103Y-3.9073
X4.7178Y-4.5736
X4.7374Y-2.2772
X4.7649Y-3.05
X4.9756Y-3.8614
X4.9949Y-1.6675
X5.2057Y-2.4789
X5.2332Y-3.2518
X5.2602Y-1.6217
X5.4439Y-4.0632
X5.471Y-2.4331
X5.4986Y-3.2059
X5.555Y-4.8536
X5.6462Y-4.873
X5.7092Y-4.0174
X5.7285Y-1.8234
X5.8204Y-4.8077
X5.9115Y-4.8271
X5.9938Y-1.7776
X6.5845Y-2.6193
X6.7128Y-4.1256
X6.7955Y-1.8079
X6.8082Y-2.4695
X6.9238Y-3.3142
X6.9366Y-3.9758
X7.0192Y-1.6581
X7.1476Y-3.1644
X7.3181Y-2.4633
X7.4464Y-3.9696
X7.5121Y-4.7227
X7.5291Y-1.6519
X7.5418Y-2.3135
X7.6575Y-3.1582
X7.6702Y-3.8198
X7.7358Y-4.5729
X7.7529Y-1.5021
X7.8812Y-3.0084
X8.0517Y-2.3074
X8.18Y-3.8137
X8.2627Y-1.496
X8.2754Y-2.1576
X8.3911Y-3.0023
X8.4038Y-3.6639
X8.4865Y-1.3462
X8.6148Y-2.8525
X8.7853Y-2.1515
X8.9137Y-3.6578
X8.9963Y-1.3401
X9.0091Y-2.0017
X9.103Y-4.4448
X9.1247Y-2.8464
X9.1374Y-3.508
X9.2201Y-1.1903
X9.3268Y-4.295
X9.3484Y-2.6966
X9.6099Y-2.0213
X9.7383Y-3.563
X9.8209Y-1.2287
X9.8599Y-1.9213
X9.9493Y-2.813
X9.9883Y-3.463
X10.0709Y-1.1287
X10.1993Y-2.713
X10.3434Y-2.063
X10.4883Y-3.563
X10.5544Y-1.313
X10.5934Y-1.963
X10.6993Y-2.813
X10.7383Y-3.463
X10.8044Y-1.213
X10.9493Y-2.713
X11.0934Y-2.063
X11.3044Y-1.313
X11.3434Y-1.963
X11.5196Y-3.563
X11.5544Y-1.213
X11.6794Y-1.313
X11.7696Y-3.463
X11.8945Y-3.563
X11.9178Y-2.813
X11.9294Y-1.213
X12.0312Y-2.063
X12.0544Y-1.313
X12.1445Y-3.463
X12.1678Y-2.713
X12.2184Y-4.3149
X12.2812Y-1.963
X12.3044Y-1.213
X12.4684Y-4.2149
X12.5508Y-3.563
X12.8008Y-3.463
T2
G00X6.2367Y-0.7986
M15
G01X6.2367Y-0.8222
M16
G05
G00X6.2367Y-0.9533
M15
G01X6.2367Y-0.9966
M16
G05
G00X6.5768Y-0.7986
M15
G01X6.5768Y-0.8222
M16
G05
G00X6.5768Y-0.9533
M15
G01X6.5768Y-0.9966
M16
G05
T0
M30
