G04 #@! TF.GenerationSoftware,KiCad,Pcbnew,(5.99.0-10089-gf88d39b4f0)*
G04 #@! TF.CreationDate,2021-04-09T00:56:27-05:00*
G04 #@! TF.ProjectId,aliceq,616c6963-6571-42e6-9b69-6361645f7063,rev?*
G04 #@! TF.SameCoordinates,Original*
G04 #@! TF.FileFunction,Legend,Bot*
G04 #@! TF.FilePolarity,Positive*
%FSLAX46Y46*%
G04 Gerber Fmt 4.6, Leading zero omitted, Abs format (unit mm)*
G04 Created by KiCad (PCBNEW (5.99.0-10089-gf88d39b4f0)) date 2021-04-09 00:56:27*
%MOMM*%
%LPD*%
G01*
G04 APERTURE LIST*
%ADD10C,0.150000*%
%ADD11C,0.120000*%
%ADD12C,0.250000*%
G04 APERTURE END LIST*
D10*
X243957851Y-36892111D02*
X242979703Y-37100022D01*
X243029206Y-37332915D01*
X243105486Y-37462749D01*
X243218444Y-37536105D01*
X243321501Y-37562882D01*
X243517716Y-37569859D01*
X243657451Y-37540157D01*
X243833864Y-37453976D01*
X243917121Y-37387597D01*
X243990477Y-37274639D01*
X244007353Y-37125003D01*
X243957851Y-36892111D01*
X244274668Y-38382621D02*
X244155862Y-37823680D01*
X244215265Y-38103150D02*
X243237118Y-38311062D01*
X243357052Y-38188204D01*
X243430408Y-38075246D01*
X243457185Y-37972188D01*
X244472680Y-39314190D02*
X244353873Y-38755249D01*
X244413276Y-39034720D02*
X243435129Y-39242631D01*
X243555063Y-39119773D01*
X243628419Y-39006815D01*
X243655196Y-38903757D01*
X247207851Y-75142111D02*
X246229703Y-75350022D01*
X246279206Y-75582915D01*
X246355486Y-75712749D01*
X246468444Y-75786105D01*
X246571501Y-75812882D01*
X246767716Y-75819859D01*
X246907451Y-75790157D01*
X247083864Y-75703976D01*
X247167121Y-75637597D01*
X247240477Y-75524639D01*
X247257353Y-75375003D01*
X247207851Y-75142111D01*
X246852769Y-76678072D02*
X247504867Y-76539464D01*
X246430639Y-76524384D02*
X247079813Y-76142984D01*
X247208520Y-76748504D01*
X247722680Y-77564190D02*
X247603873Y-77005249D01*
X247663276Y-77284720D02*
X246685129Y-77492631D01*
X246805063Y-77369773D01*
X246878419Y-77256815D01*
X246905196Y-77153757D01*
X228607851Y-79142111D02*
X227629703Y-79350022D01*
X227679206Y-79582915D01*
X227755486Y-79712749D01*
X227868444Y-79786105D01*
X227971501Y-79812882D01*
X228167716Y-79819859D01*
X228307451Y-79790157D01*
X228483864Y-79703976D01*
X228567121Y-79637597D01*
X228640477Y-79524639D01*
X228657353Y-79375003D01*
X228607851Y-79142111D01*
X228252769Y-80678072D02*
X228904867Y-80539464D01*
X227830639Y-80524384D02*
X228479813Y-80142984D01*
X228608520Y-80748504D01*
X228075228Y-81446053D02*
X228095029Y-81539210D01*
X228161409Y-81622466D01*
X228217888Y-81659144D01*
X228320945Y-81685921D01*
X228517160Y-81692898D01*
X228750052Y-81643395D01*
X228926465Y-81557214D01*
X229009722Y-81490835D01*
X229046399Y-81434356D01*
X229073177Y-81331298D01*
X229053376Y-81238141D01*
X228986996Y-81154885D01*
X228930517Y-81118207D01*
X228827460Y-81091430D01*
X228631245Y-81084453D01*
X228398353Y-81133956D01*
X228221940Y-81220137D01*
X228138683Y-81286516D01*
X228102005Y-81342995D01*
X228075228Y-81446053D01*
X35288905Y-96525454D02*
X34288905Y-96525454D01*
X34288905Y-96763549D01*
X34336525Y-96906406D01*
X34431763Y-97001644D01*
X34527001Y-97049263D01*
X34717477Y-97096882D01*
X34860334Y-97096882D01*
X35050810Y-97049263D01*
X35146048Y-97001644D01*
X35241286Y-96906406D01*
X35288905Y-96763549D01*
X35288905Y-96525454D01*
X34622239Y-97954025D02*
X35288905Y-97954025D01*
X34241286Y-97715930D02*
X34955572Y-97477835D01*
X34955572Y-98096882D01*
X34288905Y-98906406D02*
X34288905Y-98715930D01*
X34336525Y-98620692D01*
X34384144Y-98573073D01*
X34527001Y-98477835D01*
X34717477Y-98430216D01*
X35098429Y-98430216D01*
X35193667Y-98477835D01*
X35241286Y-98525454D01*
X35288905Y-98620692D01*
X35288905Y-98811168D01*
X35241286Y-98906406D01*
X35193667Y-98954025D01*
X35098429Y-99001644D01*
X34860334Y-99001644D01*
X34765096Y-98954025D01*
X34717477Y-98906406D01*
X34669858Y-98811168D01*
X34669858Y-98620692D01*
X34717477Y-98525454D01*
X34765096Y-98477835D01*
X34860334Y-98430216D01*
X241857851Y-95742111D02*
X240879703Y-95950022D01*
X240929206Y-96182915D01*
X241005486Y-96312749D01*
X241118444Y-96386105D01*
X241221501Y-96412882D01*
X241417716Y-96419859D01*
X241557451Y-96390157D01*
X241733864Y-96303976D01*
X241817121Y-96237597D01*
X241890477Y-96124639D01*
X241907353Y-95975003D01*
X241857851Y-95742111D01*
X241186620Y-97393954D02*
X241087615Y-96928170D01*
X241543499Y-96782586D01*
X241506821Y-96839065D01*
X241480044Y-96942122D01*
X241529546Y-97175015D01*
X241595926Y-97258271D01*
X241652405Y-97294949D01*
X241755462Y-97321726D01*
X241988355Y-97272223D01*
X242071611Y-97205844D01*
X242108289Y-97149365D01*
X242135066Y-97046307D01*
X242085563Y-96813415D01*
X242019184Y-96730159D01*
X241962705Y-96693481D01*
X241384631Y-98325524D02*
X241285626Y-97859739D01*
X241741510Y-97714155D01*
X241704832Y-97770634D01*
X241678055Y-97873691D01*
X241727557Y-98106584D01*
X241793937Y-98189840D01*
X241850416Y-98226518D01*
X241953473Y-98253295D01*
X242186366Y-98203793D01*
X242269622Y-98137413D01*
X242306300Y-98080934D01*
X242333077Y-97977876D01*
X242283575Y-97744984D01*
X242217195Y-97661728D01*
X242160716Y-97625050D01*
X188156856Y-49207895D02*
X187178709Y-49415807D01*
X187228211Y-49648699D01*
X187304492Y-49778534D01*
X187417450Y-49851890D01*
X187520507Y-49878667D01*
X187716721Y-49885643D01*
X187856457Y-49855942D01*
X188032870Y-49769761D01*
X188116126Y-49703381D01*
X188189482Y-49590423D01*
X188206359Y-49440787D01*
X188156856Y-49207895D01*
X187835528Y-50444585D02*
X187769149Y-50361328D01*
X187712670Y-50324651D01*
X187609612Y-50297873D01*
X187563034Y-50307774D01*
X187479777Y-50374153D01*
X187443099Y-50430632D01*
X187416322Y-50533690D01*
X187455924Y-50720004D01*
X187522304Y-50803260D01*
X187578783Y-50839938D01*
X187681840Y-50866715D01*
X187728419Y-50856815D01*
X187811675Y-50790435D01*
X187848353Y-50733956D01*
X187875130Y-50630899D01*
X187835528Y-50444585D01*
X187862305Y-50341527D01*
X187898983Y-50285048D01*
X187982240Y-50218669D01*
X188168554Y-50179066D01*
X188271611Y-50205844D01*
X188328090Y-50242522D01*
X188394470Y-50325778D01*
X188434072Y-50512092D01*
X188407294Y-50615149D01*
X188370617Y-50671628D01*
X188287360Y-50738008D01*
X188101046Y-50777610D01*
X187997989Y-50750833D01*
X187941510Y-50714155D01*
X187875130Y-50630899D01*
X98218476Y-121783995D02*
X97240328Y-121576083D01*
X97190826Y-121808976D01*
X97207702Y-121958612D01*
X97281058Y-122071570D01*
X97364315Y-122137949D01*
X97540728Y-122224130D01*
X97680463Y-122253832D01*
X97876678Y-122246855D01*
X97979735Y-122220078D01*
X98092693Y-122146722D01*
X98168973Y-122016887D01*
X98218476Y-121783995D01*
X97052218Y-122461074D02*
X96913610Y-123113173D01*
X97980863Y-122901878D01*
X97071350Y-123974310D02*
X97723448Y-124112918D01*
X96748225Y-123662213D02*
X97496405Y-123577830D01*
X97367697Y-124183349D01*
X95312779Y-100261867D02*
X94334631Y-100053955D01*
X94285129Y-100286848D01*
X94302005Y-100436484D01*
X94375361Y-100549442D01*
X94458618Y-100615821D01*
X94635031Y-100702002D01*
X94774766Y-100731704D01*
X94970981Y-100724727D01*
X95074038Y-100697950D01*
X95186996Y-100624594D01*
X95263276Y-100494759D01*
X95312779Y-100261867D01*
X94363664Y-101520613D02*
X95015762Y-101659221D01*
X94040539Y-101208516D02*
X94788719Y-101124132D01*
X94660011Y-101729652D01*
X94318213Y-102192513D02*
X94291436Y-102089455D01*
X94254758Y-102032976D01*
X94171501Y-101966597D01*
X94124923Y-101956696D01*
X94021866Y-101983473D01*
X93965387Y-102020151D01*
X93899007Y-102103408D01*
X93859405Y-102289721D01*
X93886182Y-102392779D01*
X93922860Y-102449258D01*
X94006116Y-102515637D01*
X94052695Y-102525538D01*
X94155752Y-102498761D01*
X94212231Y-102462083D01*
X94278611Y-102378826D01*
X94318213Y-102192513D01*
X94384593Y-102109256D01*
X94441072Y-102072578D01*
X94544129Y-102045801D01*
X94730443Y-102085403D01*
X94813699Y-102151783D01*
X94850377Y-102208262D01*
X94877155Y-102311319D01*
X94837552Y-102497633D01*
X94771173Y-102580889D01*
X94714694Y-102617567D01*
X94611636Y-102644345D01*
X94425322Y-102604742D01*
X94342066Y-102538363D01*
X94305388Y-102481884D01*
X94278611Y-102378826D01*
X22313905Y-37275454D02*
X21313905Y-37275454D01*
X21313905Y-37513549D01*
X21361525Y-37656406D01*
X21456763Y-37751644D01*
X21552001Y-37799263D01*
X21742477Y-37846882D01*
X21885334Y-37846882D01*
X22075810Y-37799263D01*
X22171048Y-37751644D01*
X22266286Y-37656406D01*
X22313905Y-37513549D01*
X22313905Y-37275454D01*
X22313905Y-38799263D02*
X22313905Y-38227835D01*
X22313905Y-38513549D02*
X21313905Y-38513549D01*
X21456763Y-38418311D01*
X21552001Y-38323073D01*
X21599620Y-38227835D01*
X21313905Y-39656406D02*
X21313905Y-39465930D01*
X21361525Y-39370692D01*
X21409144Y-39323073D01*
X21552001Y-39227835D01*
X21742477Y-39180216D01*
X22123429Y-39180216D01*
X22218667Y-39227835D01*
X22266286Y-39275454D01*
X22313905Y-39370692D01*
X22313905Y-39561168D01*
X22266286Y-39656406D01*
X22218667Y-39704025D01*
X22123429Y-39751644D01*
X21885334Y-39751644D01*
X21790096Y-39704025D01*
X21742477Y-39656406D01*
X21694858Y-39561168D01*
X21694858Y-39370692D01*
X21742477Y-39275454D01*
X21790096Y-39227835D01*
X21885334Y-39180216D01*
X195563548Y-128890503D02*
X194585400Y-129098414D01*
X194634903Y-129331307D01*
X194711183Y-129461141D01*
X194824141Y-129534497D01*
X194927198Y-129561274D01*
X195123413Y-129568251D01*
X195263148Y-129538549D01*
X195439561Y-129452368D01*
X195522818Y-129385989D01*
X195596174Y-129273031D01*
X195613050Y-129123395D01*
X195563548Y-128890503D01*
X194773511Y-129983405D02*
X194912118Y-130635503D01*
X195801161Y-130008386D01*
X195080428Y-131427337D02*
X195040826Y-131241023D01*
X195067603Y-131137966D01*
X195104281Y-131081487D01*
X195224215Y-130958628D01*
X195400628Y-130872448D01*
X195773256Y-130793243D01*
X195876314Y-130820020D01*
X195932793Y-130856698D01*
X195999172Y-130939955D01*
X196038774Y-131126268D01*
X196011997Y-131229326D01*
X195975319Y-131285805D01*
X195892063Y-131352185D01*
X195659170Y-131401687D01*
X195556113Y-131374910D01*
X195499634Y-131338232D01*
X195433254Y-131254976D01*
X195393652Y-131068662D01*
X195420430Y-130965604D01*
X195457107Y-130909125D01*
X195540364Y-130842746D01*
X190014285Y-26002380D02*
X190014285Y-25002380D01*
X189776190Y-25002380D01*
X189633333Y-25050000D01*
X189538095Y-25145238D01*
X189490476Y-25240476D01*
X189442857Y-25430952D01*
X189442857Y-25573809D01*
X189490476Y-25764285D01*
X189538095Y-25859523D01*
X189633333Y-25954761D01*
X189776190Y-26002380D01*
X190014285Y-26002380D01*
X188585714Y-25002380D02*
X188776190Y-25002380D01*
X188871428Y-25050000D01*
X188919047Y-25097619D01*
X189014285Y-25240476D01*
X189061904Y-25430952D01*
X189061904Y-25811904D01*
X189014285Y-25907142D01*
X188966666Y-25954761D01*
X188871428Y-26002380D01*
X188680952Y-26002380D01*
X188585714Y-25954761D01*
X188538095Y-25907142D01*
X188490476Y-25811904D01*
X188490476Y-25573809D01*
X188538095Y-25478571D01*
X188585714Y-25430952D01*
X188680952Y-25383333D01*
X188871428Y-25383333D01*
X188966666Y-25430952D01*
X189014285Y-25478571D01*
X189061904Y-25573809D01*
X187919047Y-25430952D02*
X188014285Y-25383333D01*
X188061904Y-25335714D01*
X188109523Y-25240476D01*
X188109523Y-25192857D01*
X188061904Y-25097619D01*
X188014285Y-25050000D01*
X187919047Y-25002380D01*
X187728571Y-25002380D01*
X187633333Y-25050000D01*
X187585714Y-25097619D01*
X187538095Y-25192857D01*
X187538095Y-25240476D01*
X187585714Y-25335714D01*
X187633333Y-25383333D01*
X187728571Y-25430952D01*
X187919047Y-25430952D01*
X188014285Y-25478571D01*
X188061904Y-25526190D01*
X188109523Y-25621428D01*
X188109523Y-25811904D01*
X188061904Y-25907142D01*
X188014285Y-25954761D01*
X187919047Y-26002380D01*
X187728571Y-26002380D01*
X187633333Y-25954761D01*
X187585714Y-25907142D01*
X187538095Y-25811904D01*
X187538095Y-25621428D01*
X187585714Y-25526190D01*
X187633333Y-25478571D01*
X187728571Y-25430952D01*
X70463905Y-77475454D02*
X69463905Y-77475454D01*
X69463905Y-77713549D01*
X69511525Y-77856406D01*
X69606763Y-77951644D01*
X69702001Y-77999263D01*
X69892477Y-78046882D01*
X70035334Y-78046882D01*
X70225810Y-77999263D01*
X70321048Y-77951644D01*
X70416286Y-77856406D01*
X70463905Y-77713549D01*
X70463905Y-77475454D01*
X69463905Y-78380216D02*
X69463905Y-78999263D01*
X69844858Y-78665930D01*
X69844858Y-78808787D01*
X69892477Y-78904025D01*
X69940096Y-78951644D01*
X70035334Y-78999263D01*
X70273429Y-78999263D01*
X70368667Y-78951644D01*
X70416286Y-78904025D01*
X70463905Y-78808787D01*
X70463905Y-78523073D01*
X70416286Y-78427835D01*
X70368667Y-78380216D01*
X69463905Y-79332597D02*
X69463905Y-79951644D01*
X69844858Y-79618311D01*
X69844858Y-79761168D01*
X69892477Y-79856406D01*
X69940096Y-79904025D01*
X70035334Y-79951644D01*
X70273429Y-79951644D01*
X70368667Y-79904025D01*
X70416286Y-79856406D01*
X70463905Y-79761168D01*
X70463905Y-79475454D01*
X70416286Y-79380216D01*
X70368667Y-79332597D01*
X127212779Y-87561867D02*
X126234631Y-87353955D01*
X126185129Y-87586848D01*
X126202005Y-87736484D01*
X126275361Y-87849442D01*
X126358618Y-87915821D01*
X126535031Y-88002002D01*
X126674766Y-88031704D01*
X126870981Y-88024727D01*
X126974038Y-87997950D01*
X127086996Y-87924594D01*
X127163276Y-87794759D01*
X127212779Y-87561867D01*
X126046521Y-88238946D02*
X125917814Y-88844466D01*
X126359745Y-88597621D01*
X126330044Y-88737357D01*
X126356821Y-88840414D01*
X126393499Y-88896893D01*
X126476755Y-88963273D01*
X126709647Y-89012776D01*
X126812705Y-88985998D01*
X126869184Y-88949320D01*
X126935563Y-88866064D01*
X126994967Y-88586593D01*
X126968189Y-88483536D01*
X126931512Y-88427057D01*
X125739604Y-89682878D02*
X125779206Y-89496564D01*
X125845585Y-89413308D01*
X125902064Y-89376630D01*
X126061601Y-89313175D01*
X126257815Y-89306199D01*
X126630443Y-89385403D01*
X126713699Y-89451783D01*
X126750377Y-89508262D01*
X126777155Y-89611319D01*
X126737552Y-89797633D01*
X126671173Y-89880889D01*
X126614694Y-89917567D01*
X126511636Y-89944345D01*
X126278744Y-89894842D01*
X126195488Y-89828462D01*
X126158810Y-89771983D01*
X126132032Y-89668926D01*
X126171635Y-89482612D01*
X126238014Y-89399356D01*
X126294493Y-89362678D01*
X126397551Y-89335900D01*
X163041914Y-78574427D02*
X163109257Y-78574427D01*
X163243944Y-78507083D01*
X163311288Y-78439740D01*
X163378631Y-78305052D01*
X163378631Y-78170365D01*
X163344960Y-78069350D01*
X163243944Y-77900991D01*
X163142929Y-77799976D01*
X162974570Y-77698961D01*
X162873555Y-77665289D01*
X162738868Y-77665289D01*
X162604181Y-77732633D01*
X162536837Y-77799976D01*
X162469494Y-77934663D01*
X162469494Y-78002007D01*
X162435822Y-79315205D02*
X162839883Y-78911144D01*
X162637853Y-79113175D02*
X161930746Y-78406068D01*
X162099105Y-78439740D01*
X162233792Y-78439740D01*
X162334807Y-78406068D01*
X93792855Y-25852380D02*
X93792855Y-24852380D01*
X93554760Y-24852380D01*
X93411903Y-24900000D01*
X93316665Y-24995238D01*
X93269046Y-25090476D01*
X93221427Y-25280952D01*
X93221427Y-25423809D01*
X93269046Y-25614285D01*
X93316665Y-25709523D01*
X93411903Y-25804761D01*
X93554760Y-25852380D01*
X93792855Y-25852380D01*
X92745236Y-25852380D02*
X92554760Y-25852380D01*
X92459522Y-25804761D01*
X92411903Y-25757142D01*
X92316665Y-25614285D01*
X92269046Y-25423809D01*
X92269046Y-25042857D01*
X92316665Y-24947619D01*
X92364284Y-24900000D01*
X92459522Y-24852380D01*
X92649998Y-24852380D01*
X92745236Y-24900000D01*
X92792855Y-24947619D01*
X92840474Y-25042857D01*
X92840474Y-25280952D01*
X92792855Y-25376190D01*
X92745236Y-25423809D01*
X92649998Y-25471428D01*
X92459522Y-25471428D01*
X92364284Y-25423809D01*
X92316665Y-25376190D01*
X92269046Y-25280952D01*
X91411903Y-25185714D02*
X91411903Y-25852380D01*
X91649998Y-24804761D02*
X91888093Y-25519047D01*
X91269046Y-25519047D01*
X96442855Y-27752380D02*
X97014284Y-27752380D01*
X96728570Y-27752380D02*
X96728570Y-26752380D01*
X96823808Y-26895238D01*
X96919046Y-26990476D01*
X97014284Y-27038095D01*
X45913905Y-58425454D02*
X44913905Y-58425454D01*
X44913905Y-58663549D01*
X44961525Y-58806406D01*
X45056763Y-58901644D01*
X45152001Y-58949263D01*
X45342477Y-58996882D01*
X45485334Y-58996882D01*
X45675810Y-58949263D01*
X45771048Y-58901644D01*
X45866286Y-58806406D01*
X45913905Y-58663549D01*
X45913905Y-58425454D01*
X45913905Y-59949263D02*
X45913905Y-59377835D01*
X45913905Y-59663549D02*
X44913905Y-59663549D01*
X45056763Y-59568311D01*
X45152001Y-59473073D01*
X45199620Y-59377835D01*
X44913905Y-60282597D02*
X44913905Y-60949263D01*
X45913905Y-60520692D01*
X56713905Y-96525454D02*
X55713905Y-96525454D01*
X55713905Y-96763549D01*
X55761525Y-96906406D01*
X55856763Y-97001644D01*
X55952001Y-97049263D01*
X56142477Y-97096882D01*
X56285334Y-97096882D01*
X56475810Y-97049263D01*
X56571048Y-97001644D01*
X56666286Y-96906406D01*
X56713905Y-96763549D01*
X56713905Y-96525454D01*
X55713905Y-97954025D02*
X55713905Y-97763549D01*
X55761525Y-97668311D01*
X55809144Y-97620692D01*
X55952001Y-97525454D01*
X56142477Y-97477835D01*
X56523429Y-97477835D01*
X56618667Y-97525454D01*
X56666286Y-97573073D01*
X56713905Y-97668311D01*
X56713905Y-97858787D01*
X56666286Y-97954025D01*
X56618667Y-98001644D01*
X56523429Y-98049263D01*
X56285334Y-98049263D01*
X56190096Y-98001644D01*
X56142477Y-97954025D01*
X56094858Y-97858787D01*
X56094858Y-97668311D01*
X56142477Y-97573073D01*
X56190096Y-97525454D01*
X56285334Y-97477835D01*
X56713905Y-99001644D02*
X56713905Y-98430216D01*
X56713905Y-98715930D02*
X55713905Y-98715930D01*
X55856763Y-98620692D01*
X55952001Y-98525454D01*
X55999620Y-98430216D01*
X238607851Y-57492111D02*
X237629703Y-57700022D01*
X237679206Y-57932915D01*
X237755486Y-58062749D01*
X237868444Y-58136105D01*
X237971501Y-58162882D01*
X238167716Y-58169859D01*
X238307451Y-58140157D01*
X238483864Y-58053976D01*
X238567121Y-57987597D01*
X238640477Y-57874639D01*
X238657353Y-57725003D01*
X238607851Y-57492111D01*
X237920871Y-58611790D02*
X237884193Y-58668269D01*
X237857416Y-58771327D01*
X237906919Y-59004219D01*
X237973298Y-59087475D01*
X238029777Y-59124153D01*
X238132835Y-59150931D01*
X238225992Y-59131130D01*
X238355826Y-59054849D01*
X238795961Y-58377101D01*
X238924668Y-58982621D01*
X238124731Y-60028945D02*
X238085129Y-59842631D01*
X238111906Y-59739574D01*
X238148584Y-59683095D01*
X238268518Y-59560236D01*
X238444931Y-59474056D01*
X238817559Y-59394851D01*
X238920617Y-59421628D01*
X238977096Y-59458306D01*
X239043475Y-59541563D01*
X239083077Y-59727876D01*
X239056300Y-59830934D01*
X239019622Y-59887413D01*
X238936366Y-59953793D01*
X238703473Y-60003295D01*
X238600416Y-59976518D01*
X238543937Y-59939840D01*
X238477557Y-59856584D01*
X238437955Y-59670270D01*
X238464733Y-59567212D01*
X238501410Y-59510733D01*
X238584667Y-59444354D01*
X89262779Y-60011867D02*
X88284631Y-59803955D01*
X88235129Y-60036848D01*
X88252005Y-60186484D01*
X88325361Y-60299442D01*
X88408618Y-60365821D01*
X88585031Y-60452002D01*
X88724766Y-60481704D01*
X88920981Y-60474727D01*
X89024038Y-60447950D01*
X89136996Y-60374594D01*
X89213276Y-60244759D01*
X89262779Y-60011867D01*
X88945961Y-61502378D02*
X89064768Y-60943436D01*
X89005365Y-61222907D02*
X88027217Y-61014995D01*
X88186753Y-60951540D01*
X88299711Y-60878184D01*
X88366091Y-60794928D01*
X88846956Y-61968162D02*
X88807353Y-62154476D01*
X88740974Y-62237733D01*
X88684495Y-62274410D01*
X88524958Y-62337866D01*
X88328744Y-62344842D01*
X87956116Y-62265637D01*
X87872860Y-62199258D01*
X87836182Y-62142779D01*
X87809405Y-62039721D01*
X87849007Y-61853408D01*
X87915387Y-61770151D01*
X87971866Y-61733473D01*
X88074923Y-61706696D01*
X88307815Y-61756199D01*
X88391072Y-61822578D01*
X88427750Y-61879057D01*
X88454527Y-61982115D01*
X88414925Y-62168429D01*
X88348545Y-62251685D01*
X88292066Y-62288363D01*
X88189009Y-62315140D01*
X320663905Y-39375454D02*
X319663905Y-39375454D01*
X319663905Y-39613549D01*
X319711525Y-39756406D01*
X319806763Y-39851644D01*
X319902001Y-39899263D01*
X320092477Y-39946882D01*
X320235334Y-39946882D01*
X320425810Y-39899263D01*
X320521048Y-39851644D01*
X320616286Y-39756406D01*
X320663905Y-39613549D01*
X320663905Y-39375454D01*
X320663905Y-40899263D02*
X320663905Y-40327835D01*
X320663905Y-40613549D02*
X319663905Y-40613549D01*
X319806763Y-40518311D01*
X319902001Y-40423073D01*
X319949620Y-40327835D01*
X319663905Y-41804025D02*
X319663905Y-41327835D01*
X320140096Y-41280216D01*
X320092477Y-41327835D01*
X320044858Y-41423073D01*
X320044858Y-41661168D01*
X320092477Y-41756406D01*
X320140096Y-41804025D01*
X320235334Y-41851644D01*
X320473429Y-41851644D01*
X320568667Y-41804025D01*
X320616286Y-41756406D01*
X320663905Y-41661168D01*
X320663905Y-41423073D01*
X320616286Y-41327835D01*
X320568667Y-41280216D01*
X75763905Y-96525454D02*
X74763905Y-96525454D01*
X74763905Y-96763549D01*
X74811525Y-96906406D01*
X74906763Y-97001644D01*
X75002001Y-97049263D01*
X75192477Y-97096882D01*
X75335334Y-97096882D01*
X75525810Y-97049263D01*
X75621048Y-97001644D01*
X75716286Y-96906406D01*
X75763905Y-96763549D01*
X75763905Y-96525454D01*
X75097239Y-97954025D02*
X75763905Y-97954025D01*
X74716286Y-97715930D02*
X75430572Y-97477835D01*
X75430572Y-98096882D01*
X74763905Y-98382597D02*
X74763905Y-99049263D01*
X75763905Y-98620692D01*
X45438905Y-40045394D02*
X44438905Y-40045394D01*
X44438905Y-40283490D01*
X44486525Y-40426347D01*
X44581763Y-40521585D01*
X44677001Y-40569204D01*
X44867477Y-40616823D01*
X45010334Y-40616823D01*
X45200810Y-40569204D01*
X45296048Y-40521585D01*
X45391286Y-40426347D01*
X45438905Y-40283490D01*
X45438905Y-40045394D01*
X45438905Y-41569204D02*
X45438905Y-40997775D01*
X45438905Y-41283490D02*
X44438905Y-41283490D01*
X44581763Y-41188251D01*
X44677001Y-41093013D01*
X44724620Y-40997775D01*
X2214285Y-87985712D02*
X2214285Y-86985712D01*
X1976190Y-86985712D01*
X1833333Y-87033332D01*
X1738095Y-87128570D01*
X1690476Y-87223808D01*
X1642857Y-87414284D01*
X1642857Y-87557141D01*
X1690476Y-87747617D01*
X1738095Y-87842855D01*
X1833333Y-87938093D01*
X1976190Y-87985712D01*
X2214285Y-87985712D01*
X1071428Y-87414284D02*
X1166666Y-87366665D01*
X1214285Y-87319046D01*
X1261904Y-87223808D01*
X1261904Y-87176189D01*
X1214285Y-87080951D01*
X1166666Y-87033332D01*
X1071428Y-86985712D01*
X880952Y-86985712D01*
X785714Y-87033332D01*
X738095Y-87080951D01*
X690476Y-87176189D01*
X690476Y-87223808D01*
X738095Y-87319046D01*
X785714Y-87366665D01*
X880952Y-87414284D01*
X1071428Y-87414284D01*
X1166666Y-87461903D01*
X1214285Y-87509522D01*
X1261904Y-87604760D01*
X1261904Y-87795236D01*
X1214285Y-87890474D01*
X1166666Y-87938093D01*
X1071428Y-87985712D01*
X880952Y-87985712D01*
X785714Y-87938093D01*
X738095Y-87890474D01*
X690476Y-87795236D01*
X690476Y-87604760D01*
X738095Y-87509522D01*
X785714Y-87461903D01*
X880952Y-87414284D01*
X-214285Y-86985712D02*
X261904Y-86985712D01*
X309523Y-87461903D01*
X261904Y-87414284D01*
X166666Y-87366665D01*
X-71428Y-87366665D01*
X-166666Y-87414284D01*
X-214285Y-87461903D01*
X-261904Y-87557141D01*
X-261904Y-87795236D01*
X-214285Y-87890474D01*
X-166666Y-87938093D01*
X-71428Y-87985712D01*
X166666Y-87985712D01*
X261904Y-87938093D01*
X309523Y-87890474D01*
X-3435714Y-86085712D02*
X-2864285Y-86085712D01*
X-3150000Y-86085712D02*
X-3150000Y-85085712D01*
X-3054761Y-85228570D01*
X-2959523Y-85323808D01*
X-2864285Y-85371427D01*
X156337779Y-132711867D02*
X155359631Y-132503955D01*
X155310129Y-132736848D01*
X155327005Y-132886484D01*
X155400361Y-132999442D01*
X155483618Y-133065821D01*
X155660031Y-133152002D01*
X155799766Y-133181704D01*
X155995981Y-133174727D01*
X156099038Y-133147950D01*
X156211996Y-133074594D01*
X156288276Y-132944759D01*
X156337779Y-132711867D01*
X155062615Y-133901309D02*
X155102217Y-133714995D01*
X155168597Y-133631739D01*
X155225076Y-133595061D01*
X155384612Y-133531606D01*
X155580826Y-133524630D01*
X155953454Y-133603834D01*
X156036710Y-133670214D01*
X156073388Y-133726693D01*
X156100166Y-133829750D01*
X156060563Y-134016064D01*
X155994184Y-134099320D01*
X155937705Y-134135998D01*
X155834647Y-134162776D01*
X155601755Y-134113273D01*
X155518499Y-134046893D01*
X155481821Y-133990414D01*
X155455044Y-133887357D01*
X155494646Y-133701043D01*
X155561025Y-133617787D01*
X155617504Y-133581109D01*
X155720562Y-133554331D01*
X155190653Y-134902182D02*
X155842751Y-135040790D01*
X154867528Y-134590085D02*
X155615708Y-134505702D01*
X155487000Y-135111221D01*
X-3197619Y-27685714D02*
X-4197619Y-27685714D01*
X-4197619Y-27923809D01*
X-4150000Y-28066666D01*
X-4054761Y-28161904D01*
X-3959523Y-28209523D01*
X-3769047Y-28257142D01*
X-3626190Y-28257142D01*
X-3435714Y-28209523D01*
X-3340476Y-28161904D01*
X-3245238Y-28066666D01*
X-3197619Y-27923809D01*
X-3197619Y-27685714D01*
X-3769047Y-28828571D02*
X-3816666Y-28733333D01*
X-3864285Y-28685714D01*
X-3959523Y-28638095D01*
X-4007142Y-28638095D01*
X-4102380Y-28685714D01*
X-4150000Y-28733333D01*
X-4197619Y-28828571D01*
X-4197619Y-29019047D01*
X-4150000Y-29114285D01*
X-4102380Y-29161904D01*
X-4007142Y-29209523D01*
X-3959523Y-29209523D01*
X-3864285Y-29161904D01*
X-3816666Y-29114285D01*
X-3769047Y-29019047D01*
X-3769047Y-28828571D01*
X-3721428Y-28733333D01*
X-3673809Y-28685714D01*
X-3578571Y-28638095D01*
X-3388095Y-28638095D01*
X-3292857Y-28685714D01*
X-3245238Y-28733333D01*
X-3197619Y-28828571D01*
X-3197619Y-29019047D01*
X-3245238Y-29114285D01*
X-3292857Y-29161904D01*
X-3388095Y-29209523D01*
X-3578571Y-29209523D01*
X-3673809Y-29161904D01*
X-3721428Y-29114285D01*
X-3769047Y-29019047D01*
X-4197619Y-29542857D02*
X-4197619Y-30209523D01*
X-3197619Y-29780952D01*
X-1297619Y-25035714D02*
X-1297619Y-24464285D01*
X-1297619Y-24750000D02*
X-2297619Y-24750000D01*
X-2154761Y-24654761D01*
X-2059523Y-24559523D01*
X-2011904Y-24464285D01*
X184832380Y-31483333D02*
X184356190Y-31150000D01*
X184832380Y-30911904D02*
X183832380Y-30911904D01*
X183832380Y-31292857D01*
X183880000Y-31388095D01*
X183927619Y-31435714D01*
X184022857Y-31483333D01*
X184165714Y-31483333D01*
X184260952Y-31435714D01*
X184308571Y-31388095D01*
X184356190Y-31292857D01*
X184356190Y-30911904D01*
X183832380Y-32340476D02*
X183832380Y-32150000D01*
X183880000Y-32054761D01*
X183927619Y-32007142D01*
X184070476Y-31911904D01*
X184260952Y-31864285D01*
X184641904Y-31864285D01*
X184737142Y-31911904D01*
X184784761Y-31959523D01*
X184832380Y-32054761D01*
X184832380Y-32245238D01*
X184784761Y-32340476D01*
X184737142Y-32388095D01*
X184641904Y-32435714D01*
X184403809Y-32435714D01*
X184308571Y-32388095D01*
X184260952Y-32340476D01*
X184213333Y-32245238D01*
X184213333Y-32054761D01*
X184260952Y-31959523D01*
X184308571Y-31911904D01*
X184403809Y-31864285D01*
X165615312Y-96370388D02*
X165615312Y-96437731D01*
X165682656Y-96572418D01*
X165750000Y-96639762D01*
X165884687Y-96707105D01*
X166019374Y-96707105D01*
X166120389Y-96673434D01*
X166288748Y-96572418D01*
X166389763Y-96471403D01*
X166490778Y-96303044D01*
X166524450Y-96202029D01*
X166524450Y-96067342D01*
X166457106Y-95932655D01*
X166389763Y-95865311D01*
X166255076Y-95797968D01*
X166187732Y-95797968D01*
X166019374Y-95494922D02*
X165547969Y-95023518D01*
X165143908Y-96033670D01*
X108612779Y-83611867D02*
X107634631Y-83403955D01*
X107585129Y-83636848D01*
X107602005Y-83786484D01*
X107675361Y-83899442D01*
X107758618Y-83965821D01*
X107935031Y-84052002D01*
X108074766Y-84081704D01*
X108270981Y-84074727D01*
X108374038Y-84047950D01*
X108486996Y-83974594D01*
X108563276Y-83844759D01*
X108612779Y-83611867D01*
X107446521Y-84288946D02*
X107317814Y-84894466D01*
X107759745Y-84647621D01*
X107730044Y-84787357D01*
X107756821Y-84890414D01*
X107793499Y-84946893D01*
X107876755Y-85013273D01*
X108109647Y-85062776D01*
X108212705Y-85035998D01*
X108269184Y-84999320D01*
X108335563Y-84916064D01*
X108394967Y-84636593D01*
X108368189Y-84533536D01*
X108331512Y-84477057D01*
X107129703Y-85779457D02*
X107228709Y-85313672D01*
X107704394Y-85366099D01*
X107647915Y-85402777D01*
X107581535Y-85486034D01*
X107532032Y-85718926D01*
X107558810Y-85821983D01*
X107595488Y-85878462D01*
X107678744Y-85944842D01*
X107911636Y-85994345D01*
X108014694Y-85967567D01*
X108071173Y-85930889D01*
X108137552Y-85847633D01*
X108187055Y-85614741D01*
X108160278Y-85511683D01*
X108123600Y-85455204D01*
X90537779Y-120236867D02*
X89559631Y-120028955D01*
X89510129Y-120261848D01*
X89527005Y-120411484D01*
X89600361Y-120524442D01*
X89683618Y-120590821D01*
X89860031Y-120677002D01*
X89999766Y-120706704D01*
X90195981Y-120699727D01*
X90299038Y-120672950D01*
X90411996Y-120599594D01*
X90488276Y-120469759D01*
X90537779Y-120236867D01*
X89262615Y-121426309D02*
X89302217Y-121239995D01*
X89368597Y-121156739D01*
X89425076Y-121120061D01*
X89584612Y-121056606D01*
X89780826Y-121049630D01*
X90153454Y-121128834D01*
X90236710Y-121195214D01*
X90273388Y-121251693D01*
X90300166Y-121354750D01*
X90260563Y-121541064D01*
X90194184Y-121624320D01*
X90137705Y-121660998D01*
X90034647Y-121687776D01*
X89801755Y-121638273D01*
X89718499Y-121571893D01*
X89681821Y-121515414D01*
X89655044Y-121412357D01*
X89694646Y-121226043D01*
X89761025Y-121142787D01*
X89817504Y-121106109D01*
X89920562Y-121079331D01*
X89256766Y-121911895D02*
X89200287Y-121948573D01*
X89133908Y-122031829D01*
X89084405Y-122264721D01*
X89111182Y-122367779D01*
X89147860Y-122424258D01*
X89231116Y-122490637D01*
X89324273Y-122510439D01*
X89473909Y-122493562D01*
X90151657Y-122053427D01*
X90022950Y-122658947D01*
X191257851Y-87042111D02*
X190279703Y-87250022D01*
X190329206Y-87482915D01*
X190405486Y-87612749D01*
X190518444Y-87686105D01*
X190621501Y-87712882D01*
X190817716Y-87719859D01*
X190957451Y-87690157D01*
X191133864Y-87603976D01*
X191217121Y-87537597D01*
X191290477Y-87424639D01*
X191307353Y-87275003D01*
X191257851Y-87042111D01*
X190467814Y-88135013D02*
X190596521Y-88740533D01*
X190899845Y-88335279D01*
X190929546Y-88475015D01*
X190995926Y-88558271D01*
X191052405Y-88594949D01*
X191155462Y-88621726D01*
X191388355Y-88572223D01*
X191471611Y-88505844D01*
X191508289Y-88449365D01*
X191535066Y-88346307D01*
X191475663Y-88066837D01*
X191409283Y-87983580D01*
X191352804Y-87946902D01*
X191134534Y-89210369D02*
X191068154Y-89127113D01*
X191011675Y-89090435D01*
X190908618Y-89063658D01*
X190862039Y-89073558D01*
X190778783Y-89139938D01*
X190742105Y-89196417D01*
X190715328Y-89299474D01*
X190754930Y-89485788D01*
X190821309Y-89569045D01*
X190877788Y-89605722D01*
X190980846Y-89632500D01*
X191027424Y-89622599D01*
X191110681Y-89556220D01*
X191147359Y-89499741D01*
X191174136Y-89396683D01*
X191134534Y-89210369D01*
X191161311Y-89107312D01*
X191197989Y-89050833D01*
X191281245Y-88984453D01*
X191467559Y-88944851D01*
X191570617Y-88971628D01*
X191627096Y-89008306D01*
X191693475Y-89091563D01*
X191733077Y-89277876D01*
X191706300Y-89380934D01*
X191669622Y-89437413D01*
X191586366Y-89503793D01*
X191400052Y-89543395D01*
X191296994Y-89516617D01*
X191240515Y-89479940D01*
X191174136Y-89396683D01*
X223207851Y-99742111D02*
X222229703Y-99950022D01*
X222279206Y-100182915D01*
X222355486Y-100312749D01*
X222468444Y-100386105D01*
X222571501Y-100412882D01*
X222767716Y-100419859D01*
X222907451Y-100390157D01*
X223083864Y-100303976D01*
X223167121Y-100237597D01*
X223240477Y-100124639D01*
X223257353Y-99975003D01*
X223207851Y-99742111D01*
X222536620Y-101393954D02*
X222437615Y-100928170D01*
X222893499Y-100782586D01*
X222856821Y-100839065D01*
X222830044Y-100942122D01*
X222879546Y-101175015D01*
X222945926Y-101258271D01*
X223002405Y-101294949D01*
X223105462Y-101321726D01*
X223338355Y-101272223D01*
X223421611Y-101205844D01*
X223458289Y-101149365D01*
X223485066Y-101046307D01*
X223435563Y-100813415D01*
X223369184Y-100730159D01*
X223312705Y-100693481D01*
X223050780Y-102209641D02*
X223702878Y-102071033D01*
X222628650Y-102055953D02*
X223277824Y-101674553D01*
X223406531Y-102280073D01*
X139613773Y-51877652D02*
X138635626Y-51669740D01*
X138586123Y-51902632D01*
X138603000Y-52052268D01*
X138676356Y-52165226D01*
X138759612Y-52231606D01*
X138936025Y-52317787D01*
X139075761Y-52347488D01*
X139271975Y-52340512D01*
X139375033Y-52313735D01*
X139487991Y-52240379D01*
X139564271Y-52110544D01*
X139613773Y-51877652D01*
X138338609Y-53067094D02*
X138378211Y-52880780D01*
X138444591Y-52797524D01*
X138501070Y-52760846D01*
X138660606Y-52697390D01*
X138856821Y-52690414D01*
X139229449Y-52769619D01*
X139312705Y-52835998D01*
X139349383Y-52892477D01*
X139376160Y-52995535D01*
X139336558Y-53181849D01*
X139270178Y-53265105D01*
X139213699Y-53301783D01*
X139110642Y-53328560D01*
X138877750Y-53279057D01*
X138794493Y-53212678D01*
X138757815Y-53156199D01*
X138731038Y-53053141D01*
X138770640Y-52866827D01*
X138837020Y-52783571D01*
X138893499Y-52746893D01*
X138996556Y-52720116D01*
X186007851Y-107642111D02*
X185029703Y-107850022D01*
X185079206Y-108082915D01*
X185155486Y-108212749D01*
X185268444Y-108286105D01*
X185371501Y-108312882D01*
X185567716Y-108319859D01*
X185707451Y-108290157D01*
X185883864Y-108203976D01*
X185967121Y-108137597D01*
X186040477Y-108024639D01*
X186057353Y-107875003D01*
X186007851Y-107642111D01*
X185336620Y-109293954D02*
X185237615Y-108828170D01*
X185693499Y-108682586D01*
X185656821Y-108739065D01*
X185630044Y-108842122D01*
X185679546Y-109075015D01*
X185745926Y-109158271D01*
X185802405Y-109194949D01*
X185905462Y-109221726D01*
X186138355Y-109172223D01*
X186221611Y-109105844D01*
X186258289Y-109049365D01*
X186285066Y-108946307D01*
X186235563Y-108713415D01*
X186169184Y-108630159D01*
X186112705Y-108593481D01*
X185518882Y-109693359D02*
X185482204Y-109749838D01*
X185455427Y-109852896D01*
X185504930Y-110085788D01*
X185571309Y-110169045D01*
X185627788Y-110205722D01*
X185730846Y-110232500D01*
X185824003Y-110212699D01*
X185953838Y-110136419D01*
X186393972Y-109458670D01*
X186522680Y-110064190D01*
X151109494Y-89627472D02*
X151681914Y-89526457D01*
X151513555Y-90031533D02*
X152220662Y-89324427D01*
X151951288Y-89055052D01*
X151850273Y-89021381D01*
X151782929Y-89021381D01*
X151681914Y-89055052D01*
X151580899Y-89156068D01*
X151547227Y-89257083D01*
X151547227Y-89324427D01*
X151580899Y-89425442D01*
X151850273Y-89694816D01*
X150436059Y-88954037D02*
X150840120Y-89358098D01*
X150638089Y-89156068D02*
X151345196Y-88448961D01*
X151311525Y-88617320D01*
X151311525Y-88752007D01*
X151345196Y-88853022D01*
X44263905Y-77475454D02*
X43263905Y-77475454D01*
X43263905Y-77713549D01*
X43311525Y-77856406D01*
X43406763Y-77951644D01*
X43502001Y-77999263D01*
X43692477Y-78046882D01*
X43835334Y-78046882D01*
X44025810Y-77999263D01*
X44121048Y-77951644D01*
X44216286Y-77856406D01*
X44263905Y-77713549D01*
X44263905Y-77475454D01*
X43263905Y-78380216D02*
X43263905Y-78999263D01*
X43644858Y-78665930D01*
X43644858Y-78808787D01*
X43692477Y-78904025D01*
X43740096Y-78951644D01*
X43835334Y-78999263D01*
X44073429Y-78999263D01*
X44168667Y-78951644D01*
X44216286Y-78904025D01*
X44263905Y-78808787D01*
X44263905Y-78523073D01*
X44216286Y-78427835D01*
X44168667Y-78380216D01*
X43359144Y-79380216D02*
X43311525Y-79427835D01*
X43263905Y-79523073D01*
X43263905Y-79761168D01*
X43311525Y-79856406D01*
X43359144Y-79904025D01*
X43454382Y-79951644D01*
X43549620Y-79951644D01*
X43692477Y-79904025D01*
X44263905Y-79332597D01*
X44263905Y-79951644D01*
X206257851Y-122817111D02*
X205279703Y-123025022D01*
X205329206Y-123257915D01*
X205405486Y-123387749D01*
X205518444Y-123461105D01*
X205621501Y-123487882D01*
X205817716Y-123494859D01*
X205957451Y-123465157D01*
X206133864Y-123378976D01*
X206217121Y-123312597D01*
X206290477Y-123199639D01*
X206307353Y-123050003D01*
X206257851Y-122817111D01*
X205576720Y-124422376D02*
X205537118Y-124236062D01*
X205563895Y-124133005D01*
X205600573Y-124076526D01*
X205720507Y-123953667D01*
X205896920Y-123867486D01*
X206269548Y-123788282D01*
X206372605Y-123815059D01*
X206429084Y-123851737D01*
X206495464Y-123934994D01*
X206535066Y-124121307D01*
X206508289Y-124224365D01*
X206471611Y-124280844D01*
X206388355Y-124347223D01*
X206155462Y-124396726D01*
X206052405Y-124369949D01*
X205995926Y-124333271D01*
X205929546Y-124250015D01*
X205889944Y-124063701D01*
X205916721Y-123960643D01*
X205953399Y-123904164D01*
X206036656Y-123837785D01*
X205784631Y-125400524D02*
X205685626Y-124934739D01*
X206141510Y-124789155D01*
X206104832Y-124845634D01*
X206078055Y-124948691D01*
X206127557Y-125181584D01*
X206193937Y-125264840D01*
X206250416Y-125301518D01*
X206353473Y-125328295D01*
X206586366Y-125278793D01*
X206669622Y-125212413D01*
X206706300Y-125155934D01*
X206733077Y-125052876D01*
X206683575Y-124819984D01*
X206617195Y-124736728D01*
X206560716Y-124700050D01*
X225307851Y-40942111D02*
X224329703Y-41150022D01*
X224379206Y-41382915D01*
X224455486Y-41512749D01*
X224568444Y-41586105D01*
X224671501Y-41612882D01*
X224867716Y-41619859D01*
X225007451Y-41590157D01*
X225183864Y-41503976D01*
X225267121Y-41437597D01*
X225340477Y-41324639D01*
X225357353Y-41175003D01*
X225307851Y-40942111D01*
X225624668Y-42432621D02*
X225505862Y-41873680D01*
X225565265Y-42153150D02*
X224587118Y-42361062D01*
X224707052Y-42238204D01*
X224780408Y-42125246D01*
X224807185Y-42022188D01*
X224775228Y-43246053D02*
X224795029Y-43339210D01*
X224861409Y-43422466D01*
X224917888Y-43459144D01*
X225020945Y-43485921D01*
X225217160Y-43492898D01*
X225450052Y-43443395D01*
X225626465Y-43357214D01*
X225709722Y-43290835D01*
X225746399Y-43234356D01*
X225773177Y-43131298D01*
X225753376Y-43038141D01*
X225686996Y-42954885D01*
X225630517Y-42918207D01*
X225527460Y-42891430D01*
X225331245Y-42884453D01*
X225098353Y-42933956D01*
X224921940Y-43020137D01*
X224838683Y-43086516D01*
X224802005Y-43142995D01*
X224775228Y-43246053D01*
X102613773Y-43877652D02*
X101635626Y-43669740D01*
X101586123Y-43902632D01*
X101603000Y-44052268D01*
X101676356Y-44165226D01*
X101759612Y-44231606D01*
X101936025Y-44317787D01*
X102075761Y-44347488D01*
X102271975Y-44340512D01*
X102375033Y-44313735D01*
X102487991Y-44240379D01*
X102564271Y-44110544D01*
X102613773Y-43877652D01*
X101664658Y-45136398D02*
X102316757Y-45275005D01*
X101341533Y-44824301D02*
X102089713Y-44739917D01*
X101961006Y-45345437D01*
X132562779Y-108161867D02*
X131584631Y-107953955D01*
X131535129Y-108186848D01*
X131552005Y-108336484D01*
X131625361Y-108449442D01*
X131708618Y-108515821D01*
X131885031Y-108602002D01*
X132024766Y-108631704D01*
X132220981Y-108624727D01*
X132324038Y-108597950D01*
X132436996Y-108524594D01*
X132513276Y-108394759D01*
X132562779Y-108161867D01*
X131277714Y-109397888D02*
X131376720Y-108932103D01*
X131852405Y-108984530D01*
X131795926Y-109021208D01*
X131729546Y-109104464D01*
X131680044Y-109337357D01*
X131706821Y-109440414D01*
X131743499Y-109496893D01*
X131826755Y-109563273D01*
X132059647Y-109612776D01*
X132162705Y-109585998D01*
X132219184Y-109549320D01*
X132285563Y-109466064D01*
X132335066Y-109233172D01*
X132308289Y-109130114D01*
X132271611Y-109073635D01*
X131139106Y-110049986D02*
X131119305Y-110143143D01*
X131146083Y-110246200D01*
X131182761Y-110302679D01*
X131266017Y-110369059D01*
X131442430Y-110455240D01*
X131675322Y-110504742D01*
X131871537Y-110497766D01*
X131974594Y-110470989D01*
X132031073Y-110434311D01*
X132097453Y-110351055D01*
X132117254Y-110257898D01*
X132090477Y-110154840D01*
X132053799Y-110098361D01*
X131970542Y-110031982D01*
X131794129Y-109945801D01*
X131561237Y-109896298D01*
X131365022Y-109903274D01*
X131261965Y-109930052D01*
X131205486Y-109966730D01*
X131139106Y-110049986D01*
X152631914Y-83074427D02*
X152699257Y-83074427D01*
X152833944Y-83007083D01*
X152901288Y-82939740D01*
X152968631Y-82805052D01*
X152968631Y-82670365D01*
X152934960Y-82569350D01*
X152833944Y-82400991D01*
X152732929Y-82299976D01*
X152564570Y-82198961D01*
X152463555Y-82165289D01*
X152328868Y-82165289D01*
X152194181Y-82232633D01*
X152126837Y-82299976D01*
X152059494Y-82434663D01*
X152059494Y-82502007D01*
X151621761Y-83276457D02*
X152093166Y-83747862D01*
X151520746Y-82838724D02*
X152194181Y-83175442D01*
X151756448Y-83613175D01*
X282613905Y-39425454D02*
X281613905Y-39425454D01*
X281613905Y-39663549D01*
X281661525Y-39806406D01*
X281756763Y-39901644D01*
X281852001Y-39949263D01*
X282042477Y-39996882D01*
X282185334Y-39996882D01*
X282375810Y-39949263D01*
X282471048Y-39901644D01*
X282566286Y-39806406D01*
X282613905Y-39663549D01*
X282613905Y-39425454D01*
X282613905Y-40949263D02*
X282613905Y-40377835D01*
X282613905Y-40663549D02*
X281613905Y-40663549D01*
X281756763Y-40568311D01*
X281852001Y-40473073D01*
X281899620Y-40377835D01*
X281613905Y-41282597D02*
X281613905Y-41901644D01*
X281994858Y-41568311D01*
X281994858Y-41711168D01*
X282042477Y-41806406D01*
X282090096Y-41854025D01*
X282185334Y-41901644D01*
X282423429Y-41901644D01*
X282518667Y-41854025D01*
X282566286Y-41806406D01*
X282613905Y-41711168D01*
X282613905Y-41425454D01*
X282566286Y-41330216D01*
X282518667Y-41282597D01*
X231413548Y-121240503D02*
X230435400Y-121448414D01*
X230484903Y-121681307D01*
X230561183Y-121811141D01*
X230674141Y-121884497D01*
X230777198Y-121911274D01*
X230973413Y-121918251D01*
X231113148Y-121888549D01*
X231289561Y-121802368D01*
X231372818Y-121735989D01*
X231446174Y-121623031D01*
X231463050Y-121473395D01*
X231413548Y-121240503D01*
X230623511Y-122333405D02*
X230762118Y-122985503D01*
X231651161Y-122358386D01*
X230821522Y-123264974D02*
X230960130Y-123917072D01*
X231849172Y-123289955D01*
X316713905Y-96525454D02*
X315713905Y-96525454D01*
X315713905Y-96763549D01*
X315761525Y-96906406D01*
X315856763Y-97001644D01*
X315952001Y-97049263D01*
X316142477Y-97096882D01*
X316285334Y-97096882D01*
X316475810Y-97049263D01*
X316571048Y-97001644D01*
X316666286Y-96906406D01*
X316713905Y-96763549D01*
X316713905Y-96525454D01*
X315713905Y-98001644D02*
X315713905Y-97525454D01*
X316190096Y-97477835D01*
X316142477Y-97525454D01*
X316094858Y-97620692D01*
X316094858Y-97858787D01*
X316142477Y-97954025D01*
X316190096Y-98001644D01*
X316285334Y-98049263D01*
X316523429Y-98049263D01*
X316618667Y-98001644D01*
X316666286Y-97954025D01*
X316713905Y-97858787D01*
X316713905Y-97620692D01*
X316666286Y-97525454D01*
X316618667Y-97477835D01*
X316142477Y-98620692D02*
X316094858Y-98525454D01*
X316047239Y-98477835D01*
X315952001Y-98430216D01*
X315904382Y-98430216D01*
X315809144Y-98477835D01*
X315761525Y-98525454D01*
X315713905Y-98620692D01*
X315713905Y-98811168D01*
X315761525Y-98906406D01*
X315809144Y-98954025D01*
X315904382Y-99001644D01*
X315952001Y-99001644D01*
X316047239Y-98954025D01*
X316094858Y-98906406D01*
X316142477Y-98811168D01*
X316142477Y-98620692D01*
X316190096Y-98525454D01*
X316237715Y-98477835D01*
X316332953Y-98430216D01*
X316523429Y-98430216D01*
X316618667Y-98477835D01*
X316666286Y-98525454D01*
X316713905Y-98620692D01*
X316713905Y-98811168D01*
X316666286Y-98906406D01*
X316618667Y-98954025D01*
X316523429Y-99001644D01*
X316332953Y-99001644D01*
X316237715Y-98954025D01*
X316190096Y-98906406D01*
X316142477Y-98811168D01*
X209957851Y-83092111D02*
X208979703Y-83300022D01*
X209029206Y-83532915D01*
X209105486Y-83662749D01*
X209218444Y-83736105D01*
X209321501Y-83762882D01*
X209517716Y-83769859D01*
X209657451Y-83740157D01*
X209833864Y-83653976D01*
X209917121Y-83587597D01*
X209990477Y-83474639D01*
X210007353Y-83325003D01*
X209957851Y-83092111D01*
X209167814Y-84185013D02*
X209296521Y-84790533D01*
X209599845Y-84385279D01*
X209629546Y-84525015D01*
X209695926Y-84608271D01*
X209752405Y-84644949D01*
X209855462Y-84671726D01*
X210088355Y-84622223D01*
X210171611Y-84555844D01*
X210208289Y-84499365D01*
X210235066Y-84396307D01*
X210175663Y-84116837D01*
X210109283Y-84033580D01*
X210052804Y-83996902D01*
X210373674Y-85048406D02*
X210413276Y-85234720D01*
X210386499Y-85337777D01*
X210349821Y-85394256D01*
X210229887Y-85517115D01*
X210053473Y-85603295D01*
X209680846Y-85682500D01*
X209577788Y-85655722D01*
X209521309Y-85619045D01*
X209454930Y-85535788D01*
X209415328Y-85349474D01*
X209442105Y-85246417D01*
X209478783Y-85189938D01*
X209562039Y-85123558D01*
X209794931Y-85074056D01*
X209897989Y-85100833D01*
X209954468Y-85137511D01*
X210020847Y-85220767D01*
X210060450Y-85407081D01*
X210033672Y-85510138D01*
X209996994Y-85566617D01*
X209913738Y-85632997D01*
X261863905Y-96525454D02*
X260863905Y-96525454D01*
X260863905Y-96763549D01*
X260911525Y-96906406D01*
X261006763Y-97001644D01*
X261102001Y-97049263D01*
X261292477Y-97096882D01*
X261435334Y-97096882D01*
X261625810Y-97049263D01*
X261721048Y-97001644D01*
X261816286Y-96906406D01*
X261863905Y-96763549D01*
X261863905Y-96525454D01*
X260863905Y-98001644D02*
X260863905Y-97525454D01*
X261340096Y-97477835D01*
X261292477Y-97525454D01*
X261244858Y-97620692D01*
X261244858Y-97858787D01*
X261292477Y-97954025D01*
X261340096Y-98001644D01*
X261435334Y-98049263D01*
X261673429Y-98049263D01*
X261768667Y-98001644D01*
X261816286Y-97954025D01*
X261863905Y-97858787D01*
X261863905Y-97620692D01*
X261816286Y-97525454D01*
X261768667Y-97477835D01*
X260863905Y-98906406D02*
X260863905Y-98715930D01*
X260911525Y-98620692D01*
X260959144Y-98573073D01*
X261102001Y-98477835D01*
X261292477Y-98430216D01*
X261673429Y-98430216D01*
X261768667Y-98477835D01*
X261816286Y-98525454D01*
X261863905Y-98620692D01*
X261863905Y-98811168D01*
X261816286Y-98906406D01*
X261768667Y-98954025D01*
X261673429Y-99001644D01*
X261435334Y-99001644D01*
X261340096Y-98954025D01*
X261292477Y-98906406D01*
X261244858Y-98811168D01*
X261244858Y-98620692D01*
X261292477Y-98525454D01*
X261340096Y-98477835D01*
X261435334Y-98430216D01*
X182707851Y-69392111D02*
X181729703Y-69600022D01*
X181779206Y-69832915D01*
X181855486Y-69962749D01*
X181968444Y-70036105D01*
X182071501Y-70062882D01*
X182267716Y-70069859D01*
X182407451Y-70040157D01*
X182583864Y-69953976D01*
X182667121Y-69887597D01*
X182740477Y-69774639D01*
X182757353Y-69625003D01*
X182707851Y-69392111D01*
X182020871Y-70511790D02*
X181984193Y-70568269D01*
X181957416Y-70671327D01*
X182006919Y-70904219D01*
X182073298Y-70987475D01*
X182129777Y-71024153D01*
X182232835Y-71050931D01*
X182325992Y-71031130D01*
X182455826Y-70954849D01*
X182895961Y-70277101D01*
X183024668Y-70882621D01*
X182115825Y-71416582D02*
X182244532Y-72022102D01*
X182547856Y-71616848D01*
X182577557Y-71756584D01*
X182643937Y-71839840D01*
X182700416Y-71876518D01*
X182803473Y-71903295D01*
X183036366Y-71853793D01*
X183119622Y-71787413D01*
X183156300Y-71730934D01*
X183183077Y-71627876D01*
X183123674Y-71348406D01*
X183057294Y-71265149D01*
X183000815Y-71228471D01*
X55152380Y-115765714D02*
X54152380Y-115765714D01*
X54152380Y-116003809D01*
X54200000Y-116146666D01*
X54295238Y-116241904D01*
X54390476Y-116289523D01*
X54580952Y-116337142D01*
X54723809Y-116337142D01*
X54914285Y-116289523D01*
X55009523Y-116241904D01*
X55104761Y-116146666D01*
X55152380Y-116003809D01*
X55152380Y-115765714D01*
X54580952Y-116908571D02*
X54533333Y-116813333D01*
X54485714Y-116765714D01*
X54390476Y-116718095D01*
X54342857Y-116718095D01*
X54247619Y-116765714D01*
X54200000Y-116813333D01*
X54152380Y-116908571D01*
X54152380Y-117099047D01*
X54200000Y-117194285D01*
X54247619Y-117241904D01*
X54342857Y-117289523D01*
X54390476Y-117289523D01*
X54485714Y-117241904D01*
X54533333Y-117194285D01*
X54580952Y-117099047D01*
X54580952Y-116908571D01*
X54628571Y-116813333D01*
X54676190Y-116765714D01*
X54771428Y-116718095D01*
X54961904Y-116718095D01*
X55057142Y-116765714D01*
X55104761Y-116813333D01*
X55152380Y-116908571D01*
X55152380Y-117099047D01*
X55104761Y-117194285D01*
X55057142Y-117241904D01*
X54961904Y-117289523D01*
X54771428Y-117289523D01*
X54676190Y-117241904D01*
X54628571Y-117194285D01*
X54580952Y-117099047D01*
X54152380Y-117622857D02*
X54152380Y-118241904D01*
X54533333Y-117908571D01*
X54533333Y-118051428D01*
X54580952Y-118146666D01*
X54628571Y-118194285D01*
X54723809Y-118241904D01*
X54961904Y-118241904D01*
X55057142Y-118194285D01*
X55104761Y-118146666D01*
X55152380Y-118051428D01*
X55152380Y-117765714D01*
X55104761Y-117670476D01*
X55057142Y-117622857D01*
X53252380Y-121415714D02*
X53252380Y-120844285D01*
X53252380Y-121130000D02*
X52252380Y-121130000D01*
X52395238Y-121034761D01*
X52490476Y-120939523D01*
X52538095Y-120844285D01*
X18163905Y-56275454D02*
X17163905Y-56275454D01*
X17163905Y-56513549D01*
X17211525Y-56656406D01*
X17306763Y-56751644D01*
X17402001Y-56799263D01*
X17592477Y-56846882D01*
X17735334Y-56846882D01*
X17925810Y-56799263D01*
X18021048Y-56751644D01*
X18116286Y-56656406D01*
X18163905Y-56513549D01*
X18163905Y-56275454D01*
X17163905Y-57180216D02*
X17163905Y-57799263D01*
X17544858Y-57465930D01*
X17544858Y-57608787D01*
X17592477Y-57704025D01*
X17640096Y-57751644D01*
X17735334Y-57799263D01*
X17973429Y-57799263D01*
X18068667Y-57751644D01*
X18116286Y-57704025D01*
X18163905Y-57608787D01*
X18163905Y-57323073D01*
X18116286Y-57227835D01*
X18068667Y-57180216D01*
X18163905Y-58751644D02*
X18163905Y-58180216D01*
X18163905Y-58465930D02*
X17163905Y-58465930D01*
X17306763Y-58370692D01*
X17402001Y-58275454D01*
X17449620Y-58180216D01*
X301663905Y-39375454D02*
X300663905Y-39375454D01*
X300663905Y-39613549D01*
X300711525Y-39756406D01*
X300806763Y-39851644D01*
X300902001Y-39899263D01*
X301092477Y-39946882D01*
X301235334Y-39946882D01*
X301425810Y-39899263D01*
X301521048Y-39851644D01*
X301616286Y-39756406D01*
X301663905Y-39613549D01*
X301663905Y-39375454D01*
X301663905Y-40899263D02*
X301663905Y-40327835D01*
X301663905Y-40613549D02*
X300663905Y-40613549D01*
X300806763Y-40518311D01*
X300902001Y-40423073D01*
X300949620Y-40327835D01*
X300997239Y-41756406D02*
X301663905Y-41756406D01*
X300616286Y-41518311D02*
X301330572Y-41280216D01*
X301330572Y-41899263D01*
X145862779Y-91511867D02*
X144884631Y-91303955D01*
X144835129Y-91536848D01*
X144852005Y-91686484D01*
X144925361Y-91799442D01*
X145008618Y-91865821D01*
X145185031Y-91952002D01*
X145324766Y-91981704D01*
X145520981Y-91974727D01*
X145624038Y-91947950D01*
X145736996Y-91874594D01*
X145813276Y-91744759D01*
X145862779Y-91511867D01*
X144696521Y-92188946D02*
X144567814Y-92794466D01*
X145009745Y-92547621D01*
X144980044Y-92687357D01*
X145006821Y-92790414D01*
X145043499Y-92846893D01*
X145126755Y-92913273D01*
X145359647Y-92962776D01*
X145462705Y-92935998D01*
X145519184Y-92899320D01*
X145585563Y-92816064D01*
X145644967Y-92536593D01*
X145618189Y-92433536D01*
X145581512Y-92377057D01*
X144498510Y-93120515D02*
X144359902Y-93772614D01*
X145427155Y-93561319D01*
X4762380Y-114125714D02*
X3762380Y-114125714D01*
X3762380Y-114363809D01*
X3810000Y-114506666D01*
X3905238Y-114601904D01*
X4000476Y-114649523D01*
X4190952Y-114697142D01*
X4333809Y-114697142D01*
X4524285Y-114649523D01*
X4619523Y-114601904D01*
X4714761Y-114506666D01*
X4762380Y-114363809D01*
X4762380Y-114125714D01*
X4190952Y-115268571D02*
X4143333Y-115173333D01*
X4095714Y-115125714D01*
X4000476Y-115078095D01*
X3952857Y-115078095D01*
X3857619Y-115125714D01*
X3810000Y-115173333D01*
X3762380Y-115268571D01*
X3762380Y-115459047D01*
X3810000Y-115554285D01*
X3857619Y-115601904D01*
X3952857Y-115649523D01*
X4000476Y-115649523D01*
X4095714Y-115601904D01*
X4143333Y-115554285D01*
X4190952Y-115459047D01*
X4190952Y-115268571D01*
X4238571Y-115173333D01*
X4286190Y-115125714D01*
X4381428Y-115078095D01*
X4571904Y-115078095D01*
X4667142Y-115125714D01*
X4714761Y-115173333D01*
X4762380Y-115268571D01*
X4762380Y-115459047D01*
X4714761Y-115554285D01*
X4667142Y-115601904D01*
X4571904Y-115649523D01*
X4381428Y-115649523D01*
X4286190Y-115601904D01*
X4238571Y-115554285D01*
X4190952Y-115459047D01*
X4095714Y-116506666D02*
X4762380Y-116506666D01*
X3714761Y-116268571D02*
X4429047Y-116030476D01*
X4429047Y-116649523D01*
X2862380Y-119775714D02*
X2862380Y-119204285D01*
X2862380Y-119490000D02*
X1862380Y-119490000D01*
X2005238Y-119394761D01*
X2100476Y-119299523D01*
X2148095Y-119204285D01*
X158406827Y-55713708D02*
X157428680Y-55505796D01*
X157379177Y-55738688D01*
X157396054Y-55888324D01*
X157469410Y-56001282D01*
X157552666Y-56067662D01*
X157729079Y-56153843D01*
X157868815Y-56183544D01*
X158065029Y-56176568D01*
X158168087Y-56149791D01*
X158281045Y-56076435D01*
X158357325Y-55946600D01*
X158406827Y-55713708D01*
X157240569Y-56390787D02*
X157101962Y-57042885D01*
X158169214Y-56831591D01*
X286263905Y-77475454D02*
X285263905Y-77475454D01*
X285263905Y-77713549D01*
X285311525Y-77856406D01*
X285406763Y-77951644D01*
X285502001Y-77999263D01*
X285692477Y-78046882D01*
X285835334Y-78046882D01*
X286025810Y-77999263D01*
X286121048Y-77951644D01*
X286216286Y-77856406D01*
X286263905Y-77713549D01*
X286263905Y-77475454D01*
X285597239Y-78904025D02*
X286263905Y-78904025D01*
X285216286Y-78665930D02*
X285930572Y-78427835D01*
X285930572Y-79046882D01*
X285263905Y-79332597D02*
X285263905Y-79951644D01*
X285644858Y-79618311D01*
X285644858Y-79761168D01*
X285692477Y-79856406D01*
X285740096Y-79904025D01*
X285835334Y-79951644D01*
X286073429Y-79951644D01*
X286168667Y-79904025D01*
X286216286Y-79856406D01*
X286263905Y-79761168D01*
X286263905Y-79475454D01*
X286216286Y-79380216D01*
X286168667Y-79332597D01*
X123762779Y-125761867D02*
X122784631Y-125553955D01*
X122735129Y-125786848D01*
X122752005Y-125936484D01*
X122825361Y-126049442D01*
X122908618Y-126115821D01*
X123085031Y-126202002D01*
X123224766Y-126231704D01*
X123420981Y-126224727D01*
X123524038Y-126197950D01*
X123636996Y-126124594D01*
X123713276Y-125994759D01*
X123762779Y-125761867D01*
X122487615Y-126951309D02*
X122527217Y-126764995D01*
X122593597Y-126681739D01*
X122650076Y-126645061D01*
X122809612Y-126581606D01*
X123005826Y-126574630D01*
X123378454Y-126653834D01*
X123461710Y-126720214D01*
X123498388Y-126776693D01*
X123525166Y-126879750D01*
X123485563Y-127066064D01*
X123419184Y-127149320D01*
X123362705Y-127185998D01*
X123259647Y-127212776D01*
X123026755Y-127163273D01*
X122943499Y-127096893D01*
X122906821Y-127040414D01*
X122880044Y-126937357D01*
X122919646Y-126751043D01*
X122986025Y-126667787D01*
X123042504Y-126631109D01*
X123145562Y-126604331D01*
X122398510Y-127370515D02*
X122269802Y-127976035D01*
X122711734Y-127729190D01*
X122682032Y-127868926D01*
X122708810Y-127971983D01*
X122745488Y-128028462D01*
X122828744Y-128094842D01*
X123061636Y-128144345D01*
X123164694Y-128117567D01*
X123221173Y-128080889D01*
X123287552Y-127997633D01*
X123346956Y-127718162D01*
X123320178Y-127615105D01*
X123283500Y-127558626D01*
X296313905Y-58425454D02*
X295313905Y-58425454D01*
X295313905Y-58663549D01*
X295361525Y-58806406D01*
X295456763Y-58901644D01*
X295552001Y-58949263D01*
X295742477Y-58996882D01*
X295885334Y-58996882D01*
X296075810Y-58949263D01*
X296171048Y-58901644D01*
X296266286Y-58806406D01*
X296313905Y-58663549D01*
X296313905Y-58425454D01*
X295409144Y-59377835D02*
X295361525Y-59425454D01*
X295313905Y-59520692D01*
X295313905Y-59758787D01*
X295361525Y-59854025D01*
X295409144Y-59901644D01*
X295504382Y-59949263D01*
X295599620Y-59949263D01*
X295742477Y-59901644D01*
X296313905Y-59330216D01*
X296313905Y-59949263D01*
X296313905Y-60425454D02*
X296313905Y-60615930D01*
X296266286Y-60711168D01*
X296218667Y-60758787D01*
X296075810Y-60854025D01*
X295885334Y-60901644D01*
X295504382Y-60901644D01*
X295409144Y-60854025D01*
X295361525Y-60806406D01*
X295313905Y-60711168D01*
X295313905Y-60520692D01*
X295361525Y-60425454D01*
X295409144Y-60377835D01*
X295504382Y-60330216D01*
X295742477Y-60330216D01*
X295837715Y-60377835D01*
X295885334Y-60425454D01*
X295932953Y-60520692D01*
X295932953Y-60711168D01*
X295885334Y-60806406D01*
X295837715Y-60854025D01*
X295742477Y-60901644D01*
X89962779Y-79661867D02*
X88984631Y-79453955D01*
X88935129Y-79686848D01*
X88952005Y-79836484D01*
X89025361Y-79949442D01*
X89108618Y-80015821D01*
X89285031Y-80102002D01*
X89424766Y-80131704D01*
X89620981Y-80124727D01*
X89724038Y-80097950D01*
X89836996Y-80024594D01*
X89913276Y-79894759D01*
X89962779Y-79661867D01*
X88796521Y-80338946D02*
X88667814Y-80944466D01*
X89109745Y-80697621D01*
X89080044Y-80837357D01*
X89106821Y-80940414D01*
X89143499Y-80996893D01*
X89226755Y-81063273D01*
X89459647Y-81112776D01*
X89562705Y-81085998D01*
X89619184Y-81049320D01*
X89685563Y-80966064D01*
X89744967Y-80686593D01*
X89718189Y-80583536D01*
X89681512Y-80527057D01*
X88815653Y-81852182D02*
X89467751Y-81990790D01*
X88492528Y-81540085D02*
X89240708Y-81455702D01*
X89112000Y-82061221D01*
X219957851Y-61492111D02*
X218979703Y-61700022D01*
X219029206Y-61932915D01*
X219105486Y-62062749D01*
X219218444Y-62136105D01*
X219321501Y-62162882D01*
X219517716Y-62169859D01*
X219657451Y-62140157D01*
X219833864Y-62053976D01*
X219917121Y-61987597D01*
X219990477Y-61874639D01*
X220007353Y-61725003D01*
X219957851Y-61492111D01*
X219270871Y-62611790D02*
X219234193Y-62668269D01*
X219207416Y-62771327D01*
X219256919Y-63004219D01*
X219323298Y-63087475D01*
X219379777Y-63124153D01*
X219482835Y-63150931D01*
X219575992Y-63131130D01*
X219705826Y-63054849D01*
X220145961Y-62377101D01*
X220274668Y-62982621D01*
X219484631Y-64075524D02*
X219385626Y-63609739D01*
X219841510Y-63464155D01*
X219804832Y-63520634D01*
X219778055Y-63623691D01*
X219827557Y-63856584D01*
X219893937Y-63939840D01*
X219950416Y-63976518D01*
X220053473Y-64003295D01*
X220286366Y-63953793D01*
X220369622Y-63887413D01*
X220406300Y-63830934D01*
X220433077Y-63727876D01*
X220383575Y-63494984D01*
X220317195Y-63411728D01*
X220260716Y-63375050D01*
X64488905Y-40045394D02*
X63488905Y-40045394D01*
X63488905Y-40283490D01*
X63536525Y-40426347D01*
X63631763Y-40521585D01*
X63727001Y-40569204D01*
X63917477Y-40616823D01*
X64060334Y-40616823D01*
X64250810Y-40569204D01*
X64346048Y-40521585D01*
X64441286Y-40426347D01*
X64488905Y-40283490D01*
X64488905Y-40045394D01*
X63584144Y-40997775D02*
X63536525Y-41045394D01*
X63488905Y-41140632D01*
X63488905Y-41378728D01*
X63536525Y-41473966D01*
X63584144Y-41521585D01*
X63679382Y-41569204D01*
X63774620Y-41569204D01*
X63917477Y-41521585D01*
X64488905Y-40950156D01*
X64488905Y-41569204D01*
X204607851Y-103692111D02*
X203629703Y-103900022D01*
X203679206Y-104132915D01*
X203755486Y-104262749D01*
X203868444Y-104336105D01*
X203971501Y-104362882D01*
X204167716Y-104369859D01*
X204307451Y-104340157D01*
X204483864Y-104253976D01*
X204567121Y-104187597D01*
X204640477Y-104074639D01*
X204657353Y-103925003D01*
X204607851Y-103692111D01*
X203936620Y-105343954D02*
X203837615Y-104878170D01*
X204293499Y-104732586D01*
X204256821Y-104789065D01*
X204230044Y-104892122D01*
X204279546Y-105125015D01*
X204345926Y-105208271D01*
X204402405Y-105244949D01*
X204505462Y-105271726D01*
X204738355Y-105222223D01*
X204821611Y-105155844D01*
X204858289Y-105099365D01*
X204885066Y-104996307D01*
X204835563Y-104763415D01*
X204769184Y-104680159D01*
X204712705Y-104643481D01*
X204015825Y-105716582D02*
X204144532Y-106322102D01*
X204447856Y-105916848D01*
X204477557Y-106056584D01*
X204543937Y-106139840D01*
X204600416Y-106176518D01*
X204703473Y-106203295D01*
X204936366Y-106153793D01*
X205019622Y-106087413D01*
X205056300Y-106030934D01*
X205083077Y-105927876D01*
X205023674Y-105648406D01*
X204957294Y-105565149D01*
X204900815Y-105528471D01*
X47428570Y-25852380D02*
X47428570Y-24852380D01*
X47190475Y-24852380D01*
X47047618Y-24900000D01*
X46952380Y-24995238D01*
X46904761Y-25090476D01*
X46857142Y-25280952D01*
X46857142Y-25423809D01*
X46904761Y-25614285D01*
X46952380Y-25709523D01*
X47047618Y-25804761D01*
X47190475Y-25852380D01*
X47428570Y-25852380D01*
X46285713Y-25280952D02*
X46380951Y-25233333D01*
X46428570Y-25185714D01*
X46476189Y-25090476D01*
X46476189Y-25042857D01*
X46428570Y-24947619D01*
X46380951Y-24900000D01*
X46285713Y-24852380D01*
X46095237Y-24852380D01*
X45999999Y-24900000D01*
X45952380Y-24947619D01*
X45904761Y-25042857D01*
X45904761Y-25090476D01*
X45952380Y-25185714D01*
X45999999Y-25233333D01*
X46095237Y-25280952D01*
X46285713Y-25280952D01*
X46380951Y-25328571D01*
X46428570Y-25376190D01*
X46476189Y-25471428D01*
X46476189Y-25661904D01*
X46428570Y-25757142D01*
X46380951Y-25804761D01*
X46285713Y-25852380D01*
X46095237Y-25852380D01*
X45999999Y-25804761D01*
X45952380Y-25757142D01*
X45904761Y-25661904D01*
X45904761Y-25471428D01*
X45952380Y-25376190D01*
X45999999Y-25328571D01*
X46095237Y-25280952D01*
X45333332Y-25280952D02*
X45428570Y-25233333D01*
X45476189Y-25185714D01*
X45523808Y-25090476D01*
X45523808Y-25042857D01*
X45476189Y-24947619D01*
X45428570Y-24900000D01*
X45333332Y-24852380D01*
X45142856Y-24852380D01*
X45047618Y-24900000D01*
X44999999Y-24947619D01*
X44952380Y-25042857D01*
X44952380Y-25090476D01*
X44999999Y-25185714D01*
X45047618Y-25233333D01*
X45142856Y-25280952D01*
X45333332Y-25280952D01*
X45428570Y-25328571D01*
X45476189Y-25376190D01*
X45523808Y-25471428D01*
X45523808Y-25661904D01*
X45476189Y-25757142D01*
X45428570Y-25804761D01*
X45333332Y-25852380D01*
X45142856Y-25852380D01*
X45047618Y-25804761D01*
X44999999Y-25757142D01*
X44952380Y-25661904D01*
X44952380Y-25471428D01*
X44999999Y-25376190D01*
X45047618Y-25328571D01*
X45142856Y-25280952D01*
X50078570Y-27752380D02*
X50649999Y-27752380D01*
X50364285Y-27752380D02*
X50364285Y-26752380D01*
X50459523Y-26895238D01*
X50554761Y-26990476D01*
X50649999Y-27038095D01*
X206756856Y-45357895D02*
X205778709Y-45565807D01*
X205828211Y-45798699D01*
X205904492Y-45928534D01*
X206017450Y-46001890D01*
X206120507Y-46028667D01*
X206316721Y-46035643D01*
X206456457Y-46005942D01*
X206632870Y-45919761D01*
X206716126Y-45853381D01*
X206789482Y-45740423D01*
X206806359Y-45590787D01*
X206756856Y-45357895D01*
X206974668Y-46382621D02*
X207014271Y-46568935D01*
X206987493Y-46671992D01*
X206950815Y-46728471D01*
X206830881Y-46851330D01*
X206654468Y-46937511D01*
X206281840Y-47016715D01*
X206178783Y-46989938D01*
X206122304Y-46953260D01*
X206055924Y-46870004D01*
X206016322Y-46683690D01*
X206043099Y-46580632D01*
X206079777Y-46524153D01*
X206163034Y-46457774D01*
X206395926Y-46408271D01*
X206498983Y-46435048D01*
X206555462Y-46471726D01*
X206621842Y-46554983D01*
X206661444Y-46741296D01*
X206634667Y-46844354D01*
X206597989Y-46900833D01*
X206514733Y-46967212D01*
X280963905Y-96525454D02*
X279963905Y-96525454D01*
X279963905Y-96763549D01*
X280011525Y-96906406D01*
X280106763Y-97001644D01*
X280202001Y-97049263D01*
X280392477Y-97096882D01*
X280535334Y-97096882D01*
X280725810Y-97049263D01*
X280821048Y-97001644D01*
X280916286Y-96906406D01*
X280963905Y-96763549D01*
X280963905Y-96525454D01*
X279963905Y-98001644D02*
X279963905Y-97525454D01*
X280440096Y-97477835D01*
X280392477Y-97525454D01*
X280344858Y-97620692D01*
X280344858Y-97858787D01*
X280392477Y-97954025D01*
X280440096Y-98001644D01*
X280535334Y-98049263D01*
X280773429Y-98049263D01*
X280868667Y-98001644D01*
X280916286Y-97954025D01*
X280963905Y-97858787D01*
X280963905Y-97620692D01*
X280916286Y-97525454D01*
X280868667Y-97477835D01*
X279963905Y-98382597D02*
X279963905Y-99049263D01*
X280963905Y-98620692D01*
X246682851Y-115767111D02*
X245704703Y-115975022D01*
X245754206Y-116207915D01*
X245830486Y-116337749D01*
X245943444Y-116411105D01*
X246046501Y-116437882D01*
X246242716Y-116444859D01*
X246382451Y-116415157D01*
X246558864Y-116328976D01*
X246642121Y-116262597D01*
X246715477Y-116149639D01*
X246732353Y-116000003D01*
X246682851Y-115767111D01*
X246001720Y-117372376D02*
X245962118Y-117186062D01*
X245988895Y-117083005D01*
X246025573Y-117026526D01*
X246145507Y-116903667D01*
X246321920Y-116817486D01*
X246694548Y-116738282D01*
X246797605Y-116765059D01*
X246854084Y-116801737D01*
X246920464Y-116884994D01*
X246960066Y-117071307D01*
X246933289Y-117174365D01*
X246896611Y-117230844D01*
X246813355Y-117297223D01*
X246580462Y-117346726D01*
X246477405Y-117319949D01*
X246420926Y-117283271D01*
X246354546Y-117200015D01*
X246314944Y-117013701D01*
X246341721Y-116910643D01*
X246378399Y-116854164D01*
X246461656Y-116787785D01*
X246199731Y-118303945D02*
X246160129Y-118117631D01*
X246186906Y-118014574D01*
X246223584Y-117958095D01*
X246343518Y-117835236D01*
X246519931Y-117749056D01*
X246892559Y-117669851D01*
X246995617Y-117696628D01*
X247052096Y-117733306D01*
X247118475Y-117816563D01*
X247158077Y-118002876D01*
X247131300Y-118105934D01*
X247094622Y-118162413D01*
X247011366Y-118228793D01*
X246778473Y-118278295D01*
X246675416Y-118251518D01*
X246618937Y-118214840D01*
X246552557Y-118131584D01*
X246512955Y-117945270D01*
X246539733Y-117842212D01*
X246576410Y-117785733D01*
X246659667Y-117719354D01*
X258613905Y-57325454D02*
X257613905Y-57325454D01*
X257613905Y-57563549D01*
X257661525Y-57706406D01*
X257756763Y-57801644D01*
X257852001Y-57849263D01*
X258042477Y-57896882D01*
X258185334Y-57896882D01*
X258375810Y-57849263D01*
X258471048Y-57801644D01*
X258566286Y-57706406D01*
X258613905Y-57563549D01*
X258613905Y-57325454D01*
X257709144Y-58277835D02*
X257661525Y-58325454D01*
X257613905Y-58420692D01*
X257613905Y-58658787D01*
X257661525Y-58754025D01*
X257709144Y-58801644D01*
X257804382Y-58849263D01*
X257899620Y-58849263D01*
X258042477Y-58801644D01*
X258613905Y-58230216D01*
X258613905Y-58849263D01*
X257613905Y-59182597D02*
X257613905Y-59849263D01*
X258613905Y-59420692D01*
X277213905Y-58425454D02*
X276213905Y-58425454D01*
X276213905Y-58663549D01*
X276261525Y-58806406D01*
X276356763Y-58901644D01*
X276452001Y-58949263D01*
X276642477Y-58996882D01*
X276785334Y-58996882D01*
X276975810Y-58949263D01*
X277071048Y-58901644D01*
X277166286Y-58806406D01*
X277213905Y-58663549D01*
X277213905Y-58425454D01*
X276309144Y-59377835D02*
X276261525Y-59425454D01*
X276213905Y-59520692D01*
X276213905Y-59758787D01*
X276261525Y-59854025D01*
X276309144Y-59901644D01*
X276404382Y-59949263D01*
X276499620Y-59949263D01*
X276642477Y-59901644D01*
X277213905Y-59330216D01*
X277213905Y-59949263D01*
X276642477Y-60520692D02*
X276594858Y-60425454D01*
X276547239Y-60377835D01*
X276452001Y-60330216D01*
X276404382Y-60330216D01*
X276309144Y-60377835D01*
X276261525Y-60425454D01*
X276213905Y-60520692D01*
X276213905Y-60711168D01*
X276261525Y-60806406D01*
X276309144Y-60854025D01*
X276404382Y-60901644D01*
X276452001Y-60901644D01*
X276547239Y-60854025D01*
X276594858Y-60806406D01*
X276642477Y-60711168D01*
X276642477Y-60520692D01*
X276690096Y-60425454D01*
X276737715Y-60377835D01*
X276832953Y-60330216D01*
X277023429Y-60330216D01*
X277118667Y-60377835D01*
X277166286Y-60425454D01*
X277213905Y-60520692D01*
X277213905Y-60711168D01*
X277166286Y-60806406D01*
X277118667Y-60854025D01*
X277023429Y-60901644D01*
X276832953Y-60901644D01*
X276737715Y-60854025D01*
X276690096Y-60806406D01*
X276642477Y-60711168D01*
X267263905Y-77475454D02*
X266263905Y-77475454D01*
X266263905Y-77713549D01*
X266311525Y-77856406D01*
X266406763Y-77951644D01*
X266502001Y-77999263D01*
X266692477Y-78046882D01*
X266835334Y-78046882D01*
X267025810Y-77999263D01*
X267121048Y-77951644D01*
X267216286Y-77856406D01*
X267263905Y-77713549D01*
X267263905Y-77475454D01*
X266597239Y-78904025D02*
X267263905Y-78904025D01*
X266216286Y-78665930D02*
X266930572Y-78427835D01*
X266930572Y-79046882D01*
X266359144Y-79380216D02*
X266311525Y-79427835D01*
X266263905Y-79523073D01*
X266263905Y-79761168D01*
X266311525Y-79856406D01*
X266359144Y-79904025D01*
X266454382Y-79951644D01*
X266549620Y-79951644D01*
X266692477Y-79904025D01*
X267263905Y-79332597D01*
X267263905Y-79951644D01*
X126562779Y-67911867D02*
X125584631Y-67703955D01*
X125535129Y-67936848D01*
X125552005Y-68086484D01*
X125625361Y-68199442D01*
X125708618Y-68265821D01*
X125885031Y-68352002D01*
X126024766Y-68381704D01*
X126220981Y-68374727D01*
X126324038Y-68347950D01*
X126436996Y-68274594D01*
X126513276Y-68144759D01*
X126562779Y-67911867D01*
X125479777Y-68655326D02*
X125423298Y-68692004D01*
X125356919Y-68775260D01*
X125307416Y-69008152D01*
X125334193Y-69111210D01*
X125370871Y-69167689D01*
X125454127Y-69234068D01*
X125547284Y-69253869D01*
X125696920Y-69236993D01*
X126374668Y-68796858D01*
X126245961Y-69402378D01*
X126047950Y-70333947D02*
X126166757Y-69775005D01*
X126107353Y-70054476D02*
X125129206Y-69846564D01*
X125288742Y-69783109D01*
X125401700Y-69709753D01*
X125468080Y-69626497D01*
X14063905Y-75325454D02*
X13063905Y-75325454D01*
X13063905Y-75563549D01*
X13111525Y-75706406D01*
X13206763Y-75801644D01*
X13302001Y-75849263D01*
X13492477Y-75896882D01*
X13635334Y-75896882D01*
X13825810Y-75849263D01*
X13921048Y-75801644D01*
X14016286Y-75706406D01*
X14063905Y-75563549D01*
X14063905Y-75325454D01*
X13397239Y-76754025D02*
X14063905Y-76754025D01*
X13016286Y-76515930D02*
X13730572Y-76277835D01*
X13730572Y-76896882D01*
X13063905Y-77754025D02*
X13063905Y-77277835D01*
X13540096Y-77230216D01*
X13492477Y-77277835D01*
X13444858Y-77373073D01*
X13444858Y-77611168D01*
X13492477Y-77706406D01*
X13540096Y-77754025D01*
X13635334Y-77801644D01*
X13873429Y-77801644D01*
X13968667Y-77754025D01*
X14016286Y-77706406D01*
X14063905Y-77611168D01*
X14063905Y-77373073D01*
X14016286Y-77277835D01*
X13968667Y-77230216D01*
X160788743Y-73679464D02*
X160312553Y-73346131D01*
X160788743Y-73108035D02*
X159788743Y-73108035D01*
X159788743Y-73488988D01*
X159836363Y-73584226D01*
X159883982Y-73631845D01*
X159979220Y-73679464D01*
X160122077Y-73679464D01*
X160217315Y-73631845D01*
X160264934Y-73584226D01*
X160312553Y-73488988D01*
X160312553Y-73108035D01*
X159788743Y-74012797D02*
X159788743Y-74631845D01*
X160169696Y-74298511D01*
X160169696Y-74441369D01*
X160217315Y-74536607D01*
X160264934Y-74584226D01*
X160360172Y-74631845D01*
X160598267Y-74631845D01*
X160693505Y-74584226D01*
X160741124Y-74536607D01*
X160788743Y-74441369D01*
X160788743Y-74155654D01*
X160741124Y-74060416D01*
X160693505Y-74012797D01*
X157460778Y-29172120D02*
X157794112Y-28695930D01*
X158032207Y-29172120D02*
X158032207Y-28172120D01*
X157651254Y-28172120D01*
X157556016Y-28219740D01*
X157508397Y-28267359D01*
X157460778Y-28362597D01*
X157460778Y-28505454D01*
X157508397Y-28600692D01*
X157556016Y-28648311D01*
X157651254Y-28695930D01*
X158032207Y-28695930D01*
X156556016Y-28172120D02*
X157032207Y-28172120D01*
X157079826Y-28648311D01*
X157032207Y-28600692D01*
X156936969Y-28553073D01*
X156698873Y-28553073D01*
X156603635Y-28600692D01*
X156556016Y-28648311D01*
X156508397Y-28743549D01*
X156508397Y-28981644D01*
X156556016Y-29076882D01*
X156603635Y-29124501D01*
X156698873Y-29172120D01*
X156936969Y-29172120D01*
X157032207Y-29124501D01*
X157079826Y-29076882D01*
X160069881Y-92896446D02*
X160406599Y-93233164D01*
X159935194Y-92290355D02*
X160069881Y-92896446D01*
X159463790Y-92761759D01*
X159564805Y-94074957D02*
X159968866Y-93670896D01*
X159766835Y-93872927D02*
X159059729Y-93165820D01*
X159228087Y-93199492D01*
X159362774Y-93199492D01*
X159463790Y-93165820D01*
X107962779Y-64011867D02*
X106984631Y-63803955D01*
X106935129Y-64036848D01*
X106952005Y-64186484D01*
X107025361Y-64299442D01*
X107108618Y-64365821D01*
X107285031Y-64452002D01*
X107424766Y-64481704D01*
X107620981Y-64474727D01*
X107724038Y-64447950D01*
X107836996Y-64374594D01*
X107913276Y-64244759D01*
X107962779Y-64011867D01*
X106879777Y-64755326D02*
X106823298Y-64792004D01*
X106756919Y-64875260D01*
X106707416Y-65108152D01*
X106734193Y-65211210D01*
X106770871Y-65267689D01*
X106854127Y-65334068D01*
X106947284Y-65353869D01*
X107096920Y-65336993D01*
X107774668Y-64896858D01*
X107645961Y-65502378D01*
X106539106Y-65899986D02*
X106519305Y-65993143D01*
X106546083Y-66096200D01*
X106582761Y-66152679D01*
X106666017Y-66219059D01*
X106842430Y-66305240D01*
X107075322Y-66354742D01*
X107271537Y-66347766D01*
X107374594Y-66320989D01*
X107431073Y-66284311D01*
X107497453Y-66201055D01*
X107517254Y-66107898D01*
X107490477Y-66004840D01*
X107453799Y-65948361D01*
X107370542Y-65881982D01*
X107194129Y-65795801D01*
X106961237Y-65746298D01*
X106765022Y-65753274D01*
X106661965Y-65780052D01*
X106605486Y-65816730D01*
X106539106Y-65899986D01*
X151262779Y-112111867D02*
X150284631Y-111903955D01*
X150235129Y-112136848D01*
X150252005Y-112286484D01*
X150325361Y-112399442D01*
X150408618Y-112465821D01*
X150585031Y-112552002D01*
X150724766Y-112581704D01*
X150920981Y-112574727D01*
X151024038Y-112547950D01*
X151136996Y-112474594D01*
X151213276Y-112344759D01*
X151262779Y-112111867D01*
X149977714Y-113347888D02*
X150076720Y-112882103D01*
X150552405Y-112934530D01*
X150495926Y-112971208D01*
X150429546Y-113054464D01*
X150380044Y-113287357D01*
X150406821Y-113390414D01*
X150443499Y-113446893D01*
X150526755Y-113513273D01*
X150759647Y-113562776D01*
X150862705Y-113535998D01*
X150919184Y-113499320D01*
X150985563Y-113416064D01*
X151035066Y-113183172D01*
X151008289Y-113080114D01*
X150971611Y-113023635D01*
X150747950Y-114533947D02*
X150866757Y-113975005D01*
X150807353Y-114254476D02*
X149829206Y-114046564D01*
X149988742Y-113983109D01*
X150101700Y-113909753D01*
X150168080Y-113826497D01*
X317213905Y-77475454D02*
X316213905Y-77475454D01*
X316213905Y-77713549D01*
X316261525Y-77856406D01*
X316356763Y-77951644D01*
X316452001Y-77999263D01*
X316642477Y-78046882D01*
X316785334Y-78046882D01*
X316975810Y-77999263D01*
X317071048Y-77951644D01*
X317166286Y-77856406D01*
X317213905Y-77713549D01*
X317213905Y-77475454D01*
X316547239Y-78904025D02*
X317213905Y-78904025D01*
X316166286Y-78665930D02*
X316880572Y-78427835D01*
X316880572Y-79046882D01*
X316547239Y-79856406D02*
X317213905Y-79856406D01*
X316166286Y-79618311D02*
X316880572Y-79380216D01*
X316880572Y-79999263D01*
X159091687Y-73820885D02*
X158615497Y-73487552D01*
X159091687Y-73249456D02*
X158091687Y-73249456D01*
X158091687Y-73630409D01*
X158139307Y-73725647D01*
X158186926Y-73773266D01*
X158282164Y-73820885D01*
X158425021Y-73820885D01*
X158520259Y-73773266D01*
X158567878Y-73725647D01*
X158615497Y-73630409D01*
X158615497Y-73249456D01*
X158186926Y-74201837D02*
X158139307Y-74249456D01*
X158091687Y-74344694D01*
X158091687Y-74582790D01*
X158139307Y-74678028D01*
X158186926Y-74725647D01*
X158282164Y-74773266D01*
X158377402Y-74773266D01*
X158520259Y-74725647D01*
X159091687Y-74154218D01*
X159091687Y-74773266D01*
X-85714Y-60419046D02*
X-85714Y-59419046D01*
X-323809Y-59419046D01*
X-466666Y-59466666D01*
X-561904Y-59561904D01*
X-609523Y-59657142D01*
X-657142Y-59847618D01*
X-657142Y-59990475D01*
X-609523Y-60180951D01*
X-561904Y-60276189D01*
X-466666Y-60371427D01*
X-323809Y-60419046D01*
X-85714Y-60419046D01*
X-1228571Y-59847618D02*
X-1133333Y-59799999D01*
X-1085714Y-59752380D01*
X-1038095Y-59657142D01*
X-1038095Y-59609523D01*
X-1085714Y-59514285D01*
X-1133333Y-59466666D01*
X-1228571Y-59419046D01*
X-1419047Y-59419046D01*
X-1514285Y-59466666D01*
X-1561904Y-59514285D01*
X-1609523Y-59609523D01*
X-1609523Y-59657142D01*
X-1561904Y-59752380D01*
X-1514285Y-59799999D01*
X-1419047Y-59847618D01*
X-1228571Y-59847618D01*
X-1133333Y-59895237D01*
X-1085714Y-59942856D01*
X-1038095Y-60038094D01*
X-1038095Y-60228570D01*
X-1085714Y-60323808D01*
X-1133333Y-60371427D01*
X-1228571Y-60419046D01*
X-1419047Y-60419046D01*
X-1514285Y-60371427D01*
X-1561904Y-60323808D01*
X-1609523Y-60228570D01*
X-1609523Y-60038094D01*
X-1561904Y-59942856D01*
X-1514285Y-59895237D01*
X-1419047Y-59847618D01*
X-2466666Y-59419046D02*
X-2276190Y-59419046D01*
X-2180952Y-59466666D01*
X-2133333Y-59514285D01*
X-2038095Y-59657142D01*
X-1990476Y-59847618D01*
X-1990476Y-60228570D01*
X-2038095Y-60323808D01*
X-2085714Y-60371427D01*
X-2180952Y-60419046D01*
X-2371428Y-60419046D01*
X-2466666Y-60371427D01*
X-2514285Y-60323808D01*
X-2561904Y-60228570D01*
X-2561904Y-59990475D01*
X-2514285Y-59895237D01*
X-2466666Y-59847618D01*
X-2371428Y-59799999D01*
X-2180952Y-59799999D01*
X-2085714Y-59847618D01*
X-2038095Y-59895237D01*
X-1990476Y-59990475D01*
X-5735714Y-58519046D02*
X-5164285Y-58519046D01*
X-5449999Y-58519046D02*
X-5449999Y-57519046D01*
X-5354761Y-57661904D01*
X-5259523Y-57757142D01*
X-5164285Y-57804761D01*
X320113905Y-58425454D02*
X319113905Y-58425454D01*
X319113905Y-58663549D01*
X319161525Y-58806406D01*
X319256763Y-58901644D01*
X319352001Y-58949263D01*
X319542477Y-58996882D01*
X319685334Y-58996882D01*
X319875810Y-58949263D01*
X319971048Y-58901644D01*
X320066286Y-58806406D01*
X320113905Y-58663549D01*
X320113905Y-58425454D01*
X319113905Y-59330216D02*
X319113905Y-59949263D01*
X319494858Y-59615930D01*
X319494858Y-59758787D01*
X319542477Y-59854025D01*
X319590096Y-59901644D01*
X319685334Y-59949263D01*
X319923429Y-59949263D01*
X320018667Y-59901644D01*
X320066286Y-59854025D01*
X320113905Y-59758787D01*
X320113905Y-59473073D01*
X320066286Y-59377835D01*
X320018667Y-59330216D01*
X319113905Y-60568311D02*
X319113905Y-60663549D01*
X319161525Y-60758787D01*
X319209144Y-60806406D01*
X319304382Y-60854025D01*
X319494858Y-60901644D01*
X319732953Y-60901644D01*
X319923429Y-60854025D01*
X320018667Y-60806406D01*
X320066286Y-60758787D01*
X320113905Y-60663549D01*
X320113905Y-60568311D01*
X320066286Y-60473073D01*
X320018667Y-60425454D01*
X319923429Y-60377835D01*
X319732953Y-60330216D01*
X319494858Y-60330216D01*
X319304382Y-60377835D01*
X319209144Y-60425454D01*
X319161525Y-60473073D01*
X319113905Y-60568311D01*
X37663905Y-115575454D02*
X36663905Y-115575454D01*
X36663905Y-115813549D01*
X36711525Y-115956406D01*
X36806763Y-116051644D01*
X36902001Y-116099263D01*
X37092477Y-116146882D01*
X37235334Y-116146882D01*
X37425810Y-116099263D01*
X37521048Y-116051644D01*
X37616286Y-115956406D01*
X37663905Y-115813549D01*
X37663905Y-115575454D01*
X36663905Y-117004025D02*
X36663905Y-116813549D01*
X36711525Y-116718311D01*
X36759144Y-116670692D01*
X36902001Y-116575454D01*
X37092477Y-116527835D01*
X37473429Y-116527835D01*
X37568667Y-116575454D01*
X37616286Y-116623073D01*
X37663905Y-116718311D01*
X37663905Y-116908787D01*
X37616286Y-117004025D01*
X37568667Y-117051644D01*
X37473429Y-117099263D01*
X37235334Y-117099263D01*
X37140096Y-117051644D01*
X37092477Y-117004025D01*
X37044858Y-116908787D01*
X37044858Y-116718311D01*
X37092477Y-116623073D01*
X37140096Y-116575454D01*
X37235334Y-116527835D01*
X36663905Y-117718311D02*
X36663905Y-117813549D01*
X36711525Y-117908787D01*
X36759144Y-117956406D01*
X36854382Y-118004025D01*
X37044858Y-118051644D01*
X37282953Y-118051644D01*
X37473429Y-118004025D01*
X37568667Y-117956406D01*
X37616286Y-117908787D01*
X37663905Y-117813549D01*
X37663905Y-117718311D01*
X37616286Y-117623073D01*
X37568667Y-117575454D01*
X37473429Y-117527835D01*
X37282953Y-117480216D01*
X37044858Y-117480216D01*
X36854382Y-117527835D01*
X36759144Y-117575454D01*
X36711525Y-117623073D01*
X36663905Y-117718311D01*
X160650096Y-36346406D02*
X160650096Y-36013073D01*
X161173905Y-36013073D02*
X160173905Y-36013073D01*
X160173905Y-36489263D01*
X161173905Y-37394025D02*
X161173905Y-36822597D01*
X161173905Y-37108311D02*
X160173905Y-37108311D01*
X160316763Y-37013073D01*
X160412001Y-36917835D01*
X160459620Y-36822597D01*
X121113773Y-47877652D02*
X120135626Y-47669740D01*
X120086123Y-47902632D01*
X120103000Y-48052268D01*
X120176356Y-48165226D01*
X120259612Y-48231606D01*
X120436025Y-48317787D01*
X120575761Y-48347488D01*
X120771975Y-48340512D01*
X120875033Y-48313735D01*
X120987991Y-48240379D01*
X121064271Y-48110544D01*
X121113773Y-47877652D01*
X119828709Y-49113672D02*
X119927714Y-48647888D01*
X120403399Y-48700315D01*
X120346920Y-48736993D01*
X120280541Y-48820249D01*
X120231038Y-49053141D01*
X120257815Y-49156199D01*
X120294493Y-49212678D01*
X120377750Y-49279057D01*
X120610642Y-49328560D01*
X120713699Y-49301783D01*
X120770178Y-49265105D01*
X120836558Y-49181849D01*
X120886061Y-48948956D01*
X120859283Y-48845899D01*
X120822605Y-48789420D01*
X113962779Y-104161867D02*
X112984631Y-103953955D01*
X112935129Y-104186848D01*
X112952005Y-104336484D01*
X113025361Y-104449442D01*
X113108618Y-104515821D01*
X113285031Y-104602002D01*
X113424766Y-104631704D01*
X113620981Y-104624727D01*
X113724038Y-104597950D01*
X113836996Y-104524594D01*
X113913276Y-104394759D01*
X113962779Y-104161867D01*
X113013664Y-105420613D02*
X113665762Y-105559221D01*
X112690539Y-105108516D02*
X113438719Y-105024132D01*
X113310011Y-105629652D01*
X113546956Y-106118162D02*
X113507353Y-106304476D01*
X113440974Y-106387733D01*
X113384495Y-106424410D01*
X113224958Y-106487866D01*
X113028744Y-106494842D01*
X112656116Y-106415637D01*
X112572860Y-106349258D01*
X112536182Y-106292779D01*
X112509405Y-106189721D01*
X112549007Y-106003408D01*
X112615387Y-105920151D01*
X112671866Y-105883473D01*
X112774923Y-105856696D01*
X113007815Y-105906199D01*
X113091072Y-105972578D01*
X113127750Y-106029057D01*
X113154527Y-106132115D01*
X113114925Y-106318429D01*
X113048545Y-106401685D01*
X112992066Y-106438363D01*
X112889009Y-106465140D01*
X263963905Y-37225454D02*
X262963905Y-37225454D01*
X262963905Y-37463549D01*
X263011525Y-37606406D01*
X263106763Y-37701644D01*
X263202001Y-37749263D01*
X263392477Y-37796882D01*
X263535334Y-37796882D01*
X263725810Y-37749263D01*
X263821048Y-37701644D01*
X263916286Y-37606406D01*
X263963905Y-37463549D01*
X263963905Y-37225454D01*
X263963905Y-38749263D02*
X263963905Y-38177835D01*
X263963905Y-38463549D02*
X262963905Y-38463549D01*
X263106763Y-38368311D01*
X263202001Y-38273073D01*
X263249620Y-38177835D01*
X263059144Y-39130216D02*
X263011525Y-39177835D01*
X262963905Y-39273073D01*
X262963905Y-39511168D01*
X263011525Y-39606406D01*
X263059144Y-39654025D01*
X263154382Y-39701644D01*
X263249620Y-39701644D01*
X263392477Y-39654025D01*
X263963905Y-39082597D01*
X263963905Y-39701644D01*
X168348191Y-29172120D02*
X168681525Y-28695930D01*
X168919620Y-29172120D02*
X168919620Y-28172120D01*
X168538667Y-28172120D01*
X168443429Y-28219740D01*
X168395810Y-28267359D01*
X168348191Y-28362597D01*
X168348191Y-28505454D01*
X168395810Y-28600692D01*
X168443429Y-28648311D01*
X168538667Y-28695930D01*
X168919620Y-28695930D01*
X167491048Y-28505454D02*
X167491048Y-29172120D01*
X167729144Y-28124501D02*
X167967239Y-28838787D01*
X167348191Y-28838787D01*
X166831914Y-85974427D02*
X166899257Y-85974427D01*
X167033944Y-85907083D01*
X167101288Y-85839740D01*
X167168631Y-85705052D01*
X167168631Y-85570365D01*
X167134960Y-85469350D01*
X167033944Y-85300991D01*
X166932929Y-85199976D01*
X166764570Y-85098961D01*
X166663555Y-85065289D01*
X166528868Y-85065289D01*
X166394181Y-85132633D01*
X166326837Y-85199976D01*
X166259494Y-85334663D01*
X166259494Y-85402007D01*
X165990120Y-85671381D02*
X165922776Y-85671381D01*
X165821761Y-85705052D01*
X165653402Y-85873411D01*
X165619731Y-85974427D01*
X165619731Y-86041770D01*
X165653402Y-86142785D01*
X165720746Y-86210129D01*
X165855433Y-86277472D01*
X166663555Y-86277472D01*
X166225822Y-86715205D01*
X156631914Y-78274427D02*
X156699257Y-78274427D01*
X156833944Y-78207083D01*
X156901288Y-78139740D01*
X156968631Y-78005052D01*
X156968631Y-77870365D01*
X156934960Y-77769350D01*
X156833944Y-77600991D01*
X156732929Y-77499976D01*
X156564570Y-77398961D01*
X156463555Y-77365289D01*
X156328868Y-77365289D01*
X156194181Y-77432633D01*
X156126837Y-77499976D01*
X156059494Y-77634663D01*
X156059494Y-77702007D01*
X155386059Y-78240755D02*
X155520746Y-78106068D01*
X155621761Y-78072396D01*
X155689105Y-78072396D01*
X155857463Y-78106068D01*
X156025822Y-78207083D01*
X156295196Y-78476457D01*
X156328868Y-78577472D01*
X156328868Y-78644816D01*
X156295196Y-78745831D01*
X156160509Y-78880518D01*
X156059494Y-78914190D01*
X155992150Y-78914190D01*
X155891135Y-78880518D01*
X155722776Y-78712159D01*
X155689105Y-78611144D01*
X155689105Y-78543801D01*
X155722776Y-78442785D01*
X155857463Y-78308098D01*
X155958479Y-78274427D01*
X156025822Y-78274427D01*
X156126837Y-78308098D01*
X156526837Y-94060129D02*
X156526837Y-94127472D01*
X156594181Y-94262159D01*
X156661525Y-94329503D01*
X156796212Y-94396846D01*
X156930899Y-94396846D01*
X157031914Y-94363175D01*
X157200273Y-94262159D01*
X157301288Y-94161144D01*
X157402303Y-93992785D01*
X157435975Y-93891770D01*
X157435975Y-93757083D01*
X157368631Y-93622396D01*
X157301288Y-93555052D01*
X157166601Y-93487709D01*
X157099257Y-93487709D01*
X156930899Y-93184663D02*
X156493166Y-92746930D01*
X156459494Y-93252007D01*
X156358479Y-93150991D01*
X156257463Y-93117320D01*
X156190120Y-93117320D01*
X156089105Y-93150991D01*
X155920746Y-93319350D01*
X155887074Y-93420365D01*
X155887074Y-93487709D01*
X155920746Y-93588724D01*
X156122776Y-93790755D01*
X156223792Y-93824427D01*
X156291135Y-93824427D01*
X167615312Y-94670389D02*
X167615312Y-94737732D01*
X167682656Y-94872419D01*
X167750000Y-94939763D01*
X167884687Y-95007106D01*
X168019374Y-95007106D01*
X168120389Y-94973435D01*
X168288748Y-94872419D01*
X168389763Y-94771404D01*
X168490778Y-94603045D01*
X168524450Y-94502030D01*
X168524450Y-94367343D01*
X168457106Y-94232656D01*
X168389763Y-94165312D01*
X168255076Y-94097969D01*
X168187732Y-94097969D01*
X167547969Y-93929610D02*
X167648984Y-93963282D01*
X167716328Y-93963282D01*
X167817343Y-93929610D01*
X167851015Y-93895938D01*
X167884687Y-93794923D01*
X167884687Y-93727580D01*
X167851015Y-93626564D01*
X167716328Y-93491877D01*
X167615312Y-93458206D01*
X167547969Y-93458206D01*
X167446954Y-93491877D01*
X167413282Y-93525549D01*
X167379610Y-93626564D01*
X167379610Y-93693908D01*
X167413282Y-93794923D01*
X167547969Y-93929610D01*
X167581641Y-94030625D01*
X167581641Y-94097969D01*
X167547969Y-94198984D01*
X167413282Y-94333671D01*
X167312267Y-94367343D01*
X167244923Y-94367343D01*
X167143908Y-94333671D01*
X167009221Y-94198984D01*
X166975549Y-94097969D01*
X166975549Y-94030625D01*
X167009221Y-93929610D01*
X167143908Y-93794923D01*
X167244923Y-93761251D01*
X167312267Y-93761251D01*
X167413282Y-93794923D01*
X145162779Y-71861867D02*
X144184631Y-71653955D01*
X144135129Y-71886848D01*
X144152005Y-72036484D01*
X144225361Y-72149442D01*
X144308618Y-72215821D01*
X144485031Y-72302002D01*
X144624766Y-72331704D01*
X144820981Y-72324727D01*
X144924038Y-72297950D01*
X145036996Y-72224594D01*
X145113276Y-72094759D01*
X145162779Y-71861867D01*
X144079777Y-72605326D02*
X144023298Y-72642004D01*
X143956919Y-72725260D01*
X143907416Y-72958152D01*
X143934193Y-73061210D01*
X143970871Y-73117689D01*
X144054127Y-73184068D01*
X144147284Y-73203869D01*
X144296920Y-73186993D01*
X144974668Y-72746858D01*
X144845961Y-73352378D01*
X143881766Y-73536895D02*
X143825287Y-73573573D01*
X143758908Y-73656829D01*
X143709405Y-73889721D01*
X143736182Y-73992779D01*
X143772860Y-74049258D01*
X143856116Y-74115637D01*
X143949273Y-74135439D01*
X144098909Y-74118562D01*
X144776657Y-73678427D01*
X144647950Y-74283947D01*
X164031914Y-80224427D02*
X164099257Y-80224427D01*
X164233944Y-80157083D01*
X164301288Y-80089740D01*
X164368631Y-79955052D01*
X164368631Y-79820365D01*
X164334960Y-79719350D01*
X164233944Y-79550991D01*
X164132929Y-79449976D01*
X163964570Y-79348961D01*
X163863555Y-79315289D01*
X163728868Y-79315289D01*
X163594181Y-79382633D01*
X163526837Y-79449976D01*
X163459494Y-79584663D01*
X163459494Y-79652007D01*
X162752387Y-80224427D02*
X163089105Y-79887709D01*
X163459494Y-80190755D01*
X163392150Y-80190755D01*
X163291135Y-80224427D01*
X163122776Y-80392785D01*
X163089105Y-80493801D01*
X163089105Y-80561144D01*
X163122776Y-80662159D01*
X163291135Y-80830518D01*
X163392150Y-80864190D01*
X163459494Y-80864190D01*
X163560509Y-80830518D01*
X163728868Y-80662159D01*
X163762540Y-80561144D01*
X163762540Y-80493801D01*
X83013905Y-37851644D02*
X82013905Y-37851644D01*
X82013905Y-38089740D01*
X82061525Y-38232597D01*
X82156763Y-38327835D01*
X82252001Y-38375454D01*
X82442477Y-38423073D01*
X82585334Y-38423073D01*
X82775810Y-38375454D01*
X82871048Y-38327835D01*
X82966286Y-38232597D01*
X83013905Y-38089740D01*
X83013905Y-37851644D01*
X82013905Y-38756406D02*
X82013905Y-39375454D01*
X82394858Y-39042120D01*
X82394858Y-39184978D01*
X82442477Y-39280216D01*
X82490096Y-39327835D01*
X82585334Y-39375454D01*
X82823429Y-39375454D01*
X82918667Y-39327835D01*
X82966286Y-39280216D01*
X83013905Y-39184978D01*
X83013905Y-38899263D01*
X82966286Y-38804025D01*
X82918667Y-38756406D01*
X140157140Y-25852380D02*
X140157140Y-24852380D01*
X139919045Y-24852380D01*
X139776188Y-24900000D01*
X139680950Y-24995238D01*
X139633331Y-25090476D01*
X139585712Y-25280952D01*
X139585712Y-25423809D01*
X139633331Y-25614285D01*
X139680950Y-25709523D01*
X139776188Y-25804761D01*
X139919045Y-25852380D01*
X140157140Y-25852380D01*
X139109521Y-25852380D02*
X138919045Y-25852380D01*
X138823807Y-25804761D01*
X138776188Y-25757142D01*
X138680950Y-25614285D01*
X138633331Y-25423809D01*
X138633331Y-25042857D01*
X138680950Y-24947619D01*
X138728569Y-24900000D01*
X138823807Y-24852380D01*
X139014283Y-24852380D01*
X139109521Y-24900000D01*
X139157140Y-24947619D01*
X139204759Y-25042857D01*
X139204759Y-25280952D01*
X139157140Y-25376190D01*
X139109521Y-25423809D01*
X139014283Y-25471428D01*
X138823807Y-25471428D01*
X138728569Y-25423809D01*
X138680950Y-25376190D01*
X138633331Y-25280952D01*
X138299997Y-24852380D02*
X137680950Y-24852380D01*
X138014283Y-25233333D01*
X137871426Y-25233333D01*
X137776188Y-25280952D01*
X137728569Y-25328571D01*
X137680950Y-25423809D01*
X137680950Y-25661904D01*
X137728569Y-25757142D01*
X137776188Y-25804761D01*
X137871426Y-25852380D01*
X138157140Y-25852380D01*
X138252378Y-25804761D01*
X138299997Y-25757142D01*
X142807140Y-27752380D02*
X143378569Y-27752380D01*
X143092855Y-27752380D02*
X143092855Y-26752380D01*
X143188093Y-26895238D01*
X143283331Y-26990476D01*
X143378569Y-27038095D01*
X69763905Y-58425454D02*
X68763905Y-58425454D01*
X68763905Y-58663549D01*
X68811525Y-58806406D01*
X68906763Y-58901644D01*
X69002001Y-58949263D01*
X69192477Y-58996882D01*
X69335334Y-58996882D01*
X69525810Y-58949263D01*
X69621048Y-58901644D01*
X69716286Y-58806406D01*
X69763905Y-58663549D01*
X69763905Y-58425454D01*
X69763905Y-59949263D02*
X69763905Y-59377835D01*
X69763905Y-59663549D02*
X68763905Y-59663549D01*
X68906763Y-59568311D01*
X69002001Y-59473073D01*
X69049620Y-59377835D01*
X69192477Y-60520692D02*
X69144858Y-60425454D01*
X69097239Y-60377835D01*
X69002001Y-60330216D01*
X68954382Y-60330216D01*
X68859144Y-60377835D01*
X68811525Y-60425454D01*
X68763905Y-60520692D01*
X68763905Y-60711168D01*
X68811525Y-60806406D01*
X68859144Y-60854025D01*
X68954382Y-60901644D01*
X69002001Y-60901644D01*
X69097239Y-60854025D01*
X69144858Y-60806406D01*
X69192477Y-60711168D01*
X69192477Y-60520692D01*
X69240096Y-60425454D01*
X69287715Y-60377835D01*
X69382953Y-60330216D01*
X69573429Y-60330216D01*
X69668667Y-60377835D01*
X69716286Y-60425454D01*
X69763905Y-60520692D01*
X69763905Y-60711168D01*
X69716286Y-60806406D01*
X69668667Y-60854025D01*
X69573429Y-60901644D01*
X69382953Y-60901644D01*
X69287715Y-60854025D01*
X69240096Y-60806406D01*
X69192477Y-60711168D01*
X324863905Y-115625454D02*
X323863905Y-115625454D01*
X323863905Y-115863549D01*
X323911525Y-116006406D01*
X324006763Y-116101644D01*
X324102001Y-116149263D01*
X324292477Y-116196882D01*
X324435334Y-116196882D01*
X324625810Y-116149263D01*
X324721048Y-116101644D01*
X324816286Y-116006406D01*
X324863905Y-115863549D01*
X324863905Y-115625454D01*
X323863905Y-117054025D02*
X323863905Y-116863549D01*
X323911525Y-116768311D01*
X323959144Y-116720692D01*
X324102001Y-116625454D01*
X324292477Y-116577835D01*
X324673429Y-116577835D01*
X324768667Y-116625454D01*
X324816286Y-116673073D01*
X324863905Y-116768311D01*
X324863905Y-116958787D01*
X324816286Y-117054025D01*
X324768667Y-117101644D01*
X324673429Y-117149263D01*
X324435334Y-117149263D01*
X324340096Y-117101644D01*
X324292477Y-117054025D01*
X324244858Y-116958787D01*
X324244858Y-116768311D01*
X324292477Y-116673073D01*
X324340096Y-116625454D01*
X324435334Y-116577835D01*
X323863905Y-117482597D02*
X323863905Y-118149263D01*
X324863905Y-117720692D01*
X201257851Y-65442111D02*
X200279703Y-65650022D01*
X200329206Y-65882915D01*
X200405486Y-66012749D01*
X200518444Y-66086105D01*
X200621501Y-66112882D01*
X200817716Y-66119859D01*
X200957451Y-66090157D01*
X201133864Y-66003976D01*
X201217121Y-65937597D01*
X201290477Y-65824639D01*
X201307353Y-65675003D01*
X201257851Y-65442111D01*
X200570871Y-66561790D02*
X200534193Y-66618269D01*
X200507416Y-66721327D01*
X200556919Y-66954219D01*
X200623298Y-67037475D01*
X200679777Y-67074153D01*
X200782835Y-67100931D01*
X200875992Y-67081130D01*
X201005826Y-67004849D01*
X201445961Y-66327101D01*
X201574668Y-66932621D01*
X201100780Y-67909641D02*
X201752878Y-67771033D01*
X200678650Y-67755953D02*
X201327824Y-67374553D01*
X201456531Y-67980073D01*
G36*
X161213948Y-129852541D02*
G01*
X161169392Y-129902167D01*
X161104570Y-129963781D01*
X161034979Y-130018723D01*
X160960982Y-130066811D01*
X160882938Y-130107857D01*
X160801211Y-130141679D01*
X160716162Y-130168091D01*
X160628152Y-130186908D01*
X160537543Y-130197947D01*
X160519469Y-130198932D01*
X160482363Y-130199192D01*
X160440676Y-130197702D01*
X160396647Y-130194632D01*
X160352517Y-130190155D01*
X160310527Y-130184442D01*
X160272916Y-130177664D01*
X160226473Y-130166652D01*
X160144733Y-130140787D01*
X160065935Y-130107542D01*
X159990551Y-130067340D01*
X159919051Y-130020602D01*
X159851908Y-129967751D01*
X159789592Y-129909208D01*
X159732575Y-129845395D01*
X159681329Y-129776733D01*
X159636325Y-129703646D01*
X159598035Y-129626554D01*
X159566929Y-129545880D01*
X159553899Y-129502250D01*
X160297920Y-129502250D01*
X160298858Y-129517719D01*
X160303979Y-129535385D01*
X160313897Y-129546865D01*
X160328994Y-129552781D01*
X160345265Y-129553734D01*
X160357969Y-129548737D01*
X160367184Y-129536985D01*
X160369037Y-129532596D01*
X160370778Y-129516318D01*
X160366310Y-129499713D01*
X160356299Y-129485906D01*
X160350792Y-129479478D01*
X160347929Y-129472515D01*
X160348077Y-129471170D01*
X160353274Y-129464870D01*
X160364587Y-129459955D01*
X160380219Y-129456605D01*
X160398378Y-129454995D01*
X160417268Y-129455305D01*
X160435095Y-129457712D01*
X160450064Y-129462395D01*
X160463141Y-129469756D01*
X160479220Y-129483943D01*
X160489908Y-129500375D01*
X160493786Y-129517269D01*
X160493625Y-129522214D01*
X160491491Y-129532375D01*
X160485939Y-129540581D01*
X160475792Y-129547782D01*
X160459872Y-129554924D01*
X160437000Y-129562956D01*
X160427439Y-129566171D01*
X160394061Y-129578909D01*
X160367415Y-129592012D01*
X160346231Y-129606176D01*
X160329241Y-129622098D01*
X160318580Y-129635606D01*
X160307660Y-129657729D01*
X160304492Y-129680911D01*
X160309017Y-129705956D01*
X160321177Y-129733669D01*
X160328113Y-129744905D01*
X160349552Y-129769458D01*
X160377082Y-129790674D01*
X160409294Y-129807574D01*
X160444777Y-129819184D01*
X160466038Y-129823142D01*
X160499425Y-129825459D01*
X160531697Y-129823322D01*
X160561230Y-129816997D01*
X160586400Y-129806750D01*
X160605581Y-129792847D01*
X160615172Y-129781224D01*
X160625709Y-129760480D01*
X160630828Y-129738157D01*
X160630121Y-129716462D01*
X160623181Y-129697598D01*
X160613788Y-129686259D01*
X160597197Y-129676288D01*
X160577980Y-129673130D01*
X160558094Y-129677391D01*
X160555853Y-129678397D01*
X160543360Y-129688117D01*
X160537728Y-129701138D01*
X160538901Y-129716284D01*
X160546823Y-129732378D01*
X160561440Y-129748243D01*
X160578483Y-129762829D01*
X160558013Y-129772268D01*
X160553931Y-129774079D01*
X160542965Y-129777945D01*
X160530888Y-129780268D01*
X160515296Y-129781399D01*
X160493786Y-129781692D01*
X160484053Y-129781644D01*
X160465328Y-129781043D01*
X160451426Y-129779453D01*
X160439870Y-129776503D01*
X160428185Y-129771819D01*
X160424977Y-129770317D01*
X160403393Y-129756798D01*
X160387283Y-129740408D01*
X160377315Y-129722306D01*
X160374156Y-129703650D01*
X160378476Y-129685599D01*
X160380830Y-129681145D01*
X160386830Y-129673406D01*
X160395529Y-129667003D01*
X160408307Y-129661246D01*
X160426539Y-129655441D01*
X160451605Y-129648899D01*
X160452766Y-129648610D01*
X160487951Y-129637919D01*
X160515661Y-129625051D01*
X160536572Y-129609510D01*
X160551354Y-129590800D01*
X160560683Y-129568423D01*
X160562652Y-129558265D01*
X160561779Y-129534368D01*
X160554515Y-129509417D01*
X160541741Y-129484917D01*
X160524338Y-129462374D01*
X160503189Y-129443294D01*
X160479173Y-129429183D01*
X160476353Y-129427993D01*
X160453161Y-129421039D01*
X160425952Y-129416553D01*
X160398284Y-129414957D01*
X160373718Y-129416675D01*
X160368508Y-129417577D01*
X160341572Y-129425090D01*
X160321617Y-129436668D01*
X160308071Y-129452957D01*
X160300363Y-129474603D01*
X160297920Y-129502250D01*
X159553899Y-129502250D01*
X159547845Y-129481977D01*
X159533632Y-129418417D01*
X159524421Y-129354310D01*
X159519892Y-129287408D01*
X159519722Y-129215464D01*
X159522016Y-129164921D01*
X159529499Y-129092363D01*
X159534265Y-129066571D01*
X159925727Y-129066571D01*
X159927613Y-129081512D01*
X159933024Y-129100051D01*
X159941197Y-129120498D01*
X159951363Y-129141165D01*
X159962758Y-129160361D01*
X159974615Y-129176396D01*
X159986168Y-129187581D01*
X159996706Y-129194342D01*
X160019373Y-129202508D01*
X160042420Y-129202405D01*
X160065617Y-129194057D01*
X160088735Y-129177484D01*
X160099485Y-129168146D01*
X160107986Y-129161375D01*
X160112223Y-129158791D01*
X160116399Y-129160945D01*
X160125299Y-129166916D01*
X160136871Y-129175365D01*
X160147892Y-129182998D01*
X160163537Y-129192183D01*
X160176806Y-129198282D01*
X160179847Y-129199263D01*
X160198881Y-129202897D01*
X160220850Y-129204105D01*
X160242131Y-129202851D01*
X160259098Y-129199099D01*
X160264569Y-129196868D01*
X160286618Y-129184006D01*
X160306639Y-129166752D01*
X160321498Y-129147689D01*
X160326853Y-129137984D01*
X160330340Y-129129139D01*
X160332214Y-129119089D01*
X160332914Y-129105458D01*
X160332875Y-129085874D01*
X160332765Y-129078341D01*
X160332293Y-129065237D01*
X160331202Y-129053349D01*
X160329154Y-129041158D01*
X160325811Y-129027144D01*
X160320835Y-129009787D01*
X160313886Y-128987569D01*
X160304628Y-128958968D01*
X160302330Y-128951864D01*
X160294156Y-128925660D01*
X160287016Y-128901354D01*
X160281321Y-128880443D01*
X160277487Y-128864427D01*
X160275924Y-128854801D01*
X160275600Y-128846162D01*
X160276567Y-128838828D01*
X160280722Y-128835786D01*
X160289706Y-128834636D01*
X160293174Y-128834499D01*
X160306022Y-128837110D01*
X160318489Y-128845195D01*
X160331187Y-128859404D01*
X160344731Y-128880386D01*
X160359734Y-128908791D01*
X160367451Y-128924176D01*
X160376075Y-128940160D01*
X160382699Y-128950392D01*
X160388075Y-128955989D01*
X160392957Y-128958069D01*
X160398070Y-128958427D01*
X160408261Y-128955167D01*
X160412942Y-128945775D01*
X160412112Y-128930342D01*
X160405770Y-128908956D01*
X160393913Y-128881707D01*
X160392175Y-128878418D01*
X160543273Y-128878418D01*
X160544609Y-128898076D01*
X160549800Y-128914350D01*
X160559538Y-128925088D01*
X160574486Y-128931420D01*
X160589348Y-128932299D01*
X160601955Y-128926986D01*
X160610434Y-128916610D01*
X160614093Y-128902614D01*
X160612238Y-128886444D01*
X160604178Y-128869541D01*
X160599563Y-128862097D01*
X160595823Y-128851167D01*
X160598903Y-128843470D01*
X160608999Y-128837725D01*
X160623302Y-128834443D01*
X160642248Y-128833058D01*
X160662454Y-128833582D01*
X160680775Y-128835928D01*
X160694070Y-128840012D01*
X160705565Y-128846650D01*
X160724007Y-128862373D01*
X160735622Y-128880467D01*
X160739659Y-128899948D01*
X160739656Y-128900454D01*
X160737725Y-128909818D01*
X160731585Y-128918014D01*
X160720243Y-128925725D01*
X160702704Y-128933637D01*
X160677974Y-128942434D01*
X160668358Y-128945775D01*
X160652345Y-128951339D01*
X160627721Y-128961343D01*
X160608174Y-128971454D01*
X160592005Y-128982572D01*
X160577515Y-128995595D01*
X160561965Y-129014874D01*
X160551360Y-129038778D01*
X160548803Y-129063845D01*
X160554259Y-129089663D01*
X160567696Y-129115818D01*
X160589082Y-129141896D01*
X160614097Y-129163469D01*
X160649374Y-129183878D01*
X160689918Y-129197830D01*
X160701341Y-129200145D01*
X160722969Y-129202797D01*
X160745971Y-129204045D01*
X160767177Y-129203754D01*
X160783417Y-129201790D01*
X160786676Y-129201039D01*
X160818178Y-129190933D01*
X160842492Y-129177135D01*
X160860017Y-129159353D01*
X160871151Y-129137295D01*
X160875485Y-129117914D01*
X160874919Y-129095961D01*
X160868312Y-129077231D01*
X160856146Y-129062968D01*
X160838907Y-129054417D01*
X160824804Y-129051944D01*
X160806342Y-129054241D01*
X160790710Y-129063992D01*
X160787038Y-129068094D01*
X160781923Y-129081365D01*
X160784001Y-129096599D01*
X160792976Y-129112717D01*
X160808549Y-129128643D01*
X160823436Y-129140913D01*
X160801343Y-129150893D01*
X160799319Y-129151769D01*
X160777007Y-129158120D01*
X160750445Y-129161242D01*
X160722614Y-129161126D01*
X160696494Y-129157768D01*
X160675066Y-129151161D01*
X160673006Y-129150205D01*
X160650182Y-129136589D01*
X160633224Y-129120631D01*
X160622549Y-129103298D01*
X160618577Y-129085553D01*
X160621724Y-129068362D01*
X160632409Y-129052690D01*
X160635045Y-129050158D01*
X160643096Y-129043987D01*
X160653162Y-129039090D01*
X160667315Y-129034604D01*
X160687627Y-129029666D01*
X160697909Y-129027191D01*
X160717922Y-129021640D01*
X160735589Y-129015860D01*
X160747994Y-129010765D01*
X160767980Y-128998343D01*
X160787741Y-128979362D01*
X160801120Y-128957575D01*
X160807473Y-128934099D01*
X160806153Y-128910051D01*
X160796952Y-128883112D01*
X160780174Y-128854725D01*
X160758059Y-128830243D01*
X160732157Y-128811729D01*
X160730501Y-128810850D01*
X160705727Y-128801319D01*
X160676435Y-128795293D01*
X160645628Y-128793196D01*
X160616309Y-128795448D01*
X160589086Y-128802418D01*
X160568328Y-128813711D01*
X160554091Y-128829781D01*
X160545898Y-128851170D01*
X160543273Y-128878418D01*
X160392175Y-128878418D01*
X160382213Y-128859569D01*
X160365297Y-128834709D01*
X160346977Y-128816207D01*
X160326264Y-128802908D01*
X160319475Y-128799781D01*
X160293807Y-128792698D01*
X160269617Y-128793528D01*
X160247547Y-128802168D01*
X160228240Y-128818517D01*
X160223361Y-128824391D01*
X160215131Y-128836996D01*
X160209924Y-128850571D01*
X160207752Y-128866245D01*
X160208624Y-128885145D01*
X160212550Y-128908402D01*
X160219541Y-128937143D01*
X160229606Y-128972497D01*
X160236184Y-128995362D01*
X160246817Y-129037534D01*
X160253354Y-129072934D01*
X160255745Y-129101916D01*
X160253944Y-129124835D01*
X160247902Y-129142045D01*
X160237571Y-129153899D01*
X160222904Y-129160752D01*
X160203853Y-129162957D01*
X160192882Y-129162278D01*
X160175136Y-129157135D01*
X160159695Y-129146234D01*
X160145527Y-129128727D01*
X160131602Y-129103769D01*
X160130256Y-129100988D01*
X160124671Y-129088731D01*
X160119197Y-129075306D01*
X160113517Y-129059726D01*
X160107316Y-129041006D01*
X160100276Y-129018163D01*
X160092082Y-128990211D01*
X160082417Y-128956165D01*
X160070964Y-128915041D01*
X160069738Y-128910640D01*
X160060386Y-128879289D01*
X160051807Y-128855091D01*
X160043566Y-128837080D01*
X160035229Y-128824291D01*
X160026364Y-128815756D01*
X160015096Y-128810599D01*
X160000686Y-128811424D01*
X159987241Y-128820014D01*
X159984893Y-128823229D01*
X159982498Y-128830956D01*
X159981852Y-128842483D01*
X159983043Y-128858514D01*
X159986162Y-128879750D01*
X159991300Y-128906893D01*
X159998546Y-128940644D01*
X160007991Y-128981707D01*
X160011742Y-128997907D01*
X160020902Y-129040286D01*
X160027825Y-129077017D01*
X160032450Y-129107643D01*
X160034714Y-129131705D01*
X160034555Y-129148748D01*
X160031911Y-129158313D01*
X160026674Y-129162564D01*
X160017919Y-129161935D01*
X160007874Y-129155135D01*
X159997480Y-129143084D01*
X159987675Y-129126701D01*
X159979401Y-129106907D01*
X159972602Y-129089318D01*
X159962881Y-129070631D01*
X159952865Y-129057555D01*
X159943192Y-129050692D01*
X159934505Y-129050645D01*
X159927441Y-129058015D01*
X159925727Y-129066571D01*
X159534265Y-129066571D01*
X159542226Y-129023492D01*
X159560681Y-128956328D01*
X159585349Y-128888893D01*
X159616714Y-128819207D01*
X159645844Y-128764407D01*
X159692405Y-128691631D01*
X159745598Y-128623147D01*
X159804763Y-128559709D01*
X159869238Y-128502075D01*
X159938362Y-128451002D01*
X159949330Y-128443781D01*
X160027634Y-128397758D01*
X160108733Y-128359523D01*
X160192415Y-128329155D01*
X160278469Y-128306733D01*
X160366682Y-128292335D01*
X160388590Y-128290395D01*
X160420903Y-128288844D01*
X160457160Y-128288170D01*
X160494978Y-128288356D01*
X160531973Y-128289387D01*
X160565762Y-128291244D01*
X160593961Y-128293912D01*
X160608471Y-128295827D01*
X160696890Y-128312227D01*
X160782147Y-128336317D01*
X160864054Y-128368004D01*
X160942424Y-128407196D01*
X161017070Y-128453802D01*
X161087804Y-128507729D01*
X161154439Y-128568886D01*
X161201318Y-128619098D01*
X161256811Y-128688758D01*
X161304779Y-128761999D01*
X161345217Y-128838810D01*
X161378119Y-128919179D01*
X161403480Y-129003094D01*
X161421295Y-129090544D01*
X161424382Y-129117914D01*
X161431557Y-129181517D01*
X161433179Y-129212099D01*
X161432238Y-129298697D01*
X161423296Y-129384784D01*
X161406572Y-129469682D01*
X161382288Y-129552710D01*
X161350663Y-129633189D01*
X161311918Y-129710441D01*
X161294669Y-129738157D01*
X161266273Y-129783784D01*
X161213948Y-129852541D01*
G37*
G36*
X165841695Y-129807855D02*
G01*
X165785682Y-129874437D01*
X165724138Y-129935415D01*
X165657506Y-129990481D01*
X165586232Y-130039325D01*
X165510761Y-130081640D01*
X165431537Y-130117115D01*
X165349007Y-130145442D01*
X165263614Y-130166313D01*
X165175804Y-130179419D01*
X165156966Y-130180802D01*
X165128264Y-130181746D01*
X165095187Y-130181931D01*
X165059853Y-130181413D01*
X165024378Y-130180243D01*
X164990877Y-130178477D01*
X164961467Y-130176168D01*
X164938265Y-130173370D01*
X164874246Y-130161370D01*
X164787848Y-130138261D01*
X164705305Y-130107772D01*
X164626515Y-130069855D01*
X164551378Y-130024457D01*
X164479791Y-129971530D01*
X164411654Y-129911021D01*
X164358397Y-129855118D01*
X164303734Y-129786720D01*
X164255942Y-129714049D01*
X164215189Y-129637572D01*
X164181644Y-129557753D01*
X164167179Y-129512047D01*
X164962151Y-129512047D01*
X164964495Y-129526177D01*
X164972152Y-129542103D01*
X164984904Y-129551524D01*
X165002929Y-129554624D01*
X165007024Y-129554464D01*
X165022279Y-129550054D01*
X165031968Y-129540441D01*
X165035714Y-129526758D01*
X165033138Y-129510136D01*
X165023866Y-129491709D01*
X165017498Y-129481127D01*
X165015236Y-129472488D01*
X165019017Y-129466464D01*
X165029599Y-129461985D01*
X165047737Y-129457981D01*
X165056787Y-129456648D01*
X165083652Y-129456712D01*
X165108575Y-129462432D01*
X165130101Y-129473157D01*
X165146779Y-129488237D01*
X165157154Y-129507019D01*
X165159110Y-129513929D01*
X165160103Y-129525629D01*
X165156731Y-129535566D01*
X165148231Y-129544409D01*
X165133839Y-129552830D01*
X165112793Y-129561501D01*
X165084329Y-129571094D01*
X165065939Y-129577499D01*
X165031824Y-129593348D01*
X165004894Y-129611976D01*
X164985385Y-129633157D01*
X164973529Y-129656664D01*
X164969561Y-129682271D01*
X164969827Y-129688780D01*
X164975791Y-129715114D01*
X164988885Y-129740843D01*
X165008164Y-129764942D01*
X165032685Y-129786385D01*
X165061504Y-129804145D01*
X165093678Y-129817198D01*
X165095343Y-129817705D01*
X165131171Y-129825470D01*
X165167358Y-129827808D01*
X165202120Y-129824862D01*
X165233673Y-129816777D01*
X165260232Y-129803699D01*
X165266201Y-129799231D01*
X165279936Y-129783722D01*
X165289306Y-129765019D01*
X165294217Y-129744773D01*
X165294572Y-129724635D01*
X165290275Y-129706256D01*
X165281231Y-129691287D01*
X165267343Y-129681379D01*
X165248009Y-129675985D01*
X165230101Y-129676405D01*
X165215799Y-129682511D01*
X165206322Y-129693768D01*
X165202892Y-129709641D01*
X165203108Y-129715585D01*
X165205273Y-129724841D01*
X165210965Y-129733822D01*
X165221645Y-129745304D01*
X165230643Y-129754427D01*
X165237696Y-129761848D01*
X165240398Y-129765076D01*
X165238252Y-129766459D01*
X165230309Y-129770371D01*
X165218519Y-129775716D01*
X165209170Y-129779449D01*
X165195801Y-129783024D01*
X165180119Y-129784789D01*
X165159134Y-129785221D01*
X165126716Y-129783151D01*
X165099452Y-129776641D01*
X165076812Y-129765194D01*
X165057423Y-129748313D01*
X165051343Y-129741499D01*
X165044263Y-129731608D01*
X165041094Y-129722153D01*
X165040365Y-129709811D01*
X165040733Y-129701360D01*
X165044154Y-129686844D01*
X165051977Y-129675485D01*
X165065185Y-129666492D01*
X165084762Y-129659074D01*
X165111690Y-129652440D01*
X165115072Y-129651711D01*
X165152171Y-129640906D01*
X165181835Y-129626483D01*
X165204159Y-129608381D01*
X165219236Y-129586544D01*
X165226164Y-129565841D01*
X165227173Y-129539853D01*
X165220412Y-129513217D01*
X165206070Y-129486614D01*
X165184335Y-129460726D01*
X165175709Y-129452627D01*
X165153014Y-129436184D01*
X165127865Y-129425190D01*
X165098579Y-129419039D01*
X165063473Y-129417124D01*
X165032607Y-129419739D01*
X165005899Y-129427949D01*
X164985245Y-129441524D01*
X164970899Y-129460224D01*
X164963117Y-129483811D01*
X164962151Y-129512047D01*
X164167179Y-129512047D01*
X164155474Y-129475060D01*
X164136848Y-129389958D01*
X164125934Y-129302913D01*
X164122900Y-129214390D01*
X164127914Y-129124857D01*
X164133815Y-129078417D01*
X164150990Y-128993362D01*
X164176038Y-128910418D01*
X164208735Y-128830042D01*
X164248861Y-128752688D01*
X164296193Y-128678814D01*
X164350508Y-128608873D01*
X164366078Y-128592162D01*
X164585073Y-128592162D01*
X164585381Y-128599445D01*
X164587644Y-128613522D01*
X164591912Y-128634641D01*
X164598237Y-128663051D01*
X164606673Y-128698998D01*
X164617271Y-128742731D01*
X164620812Y-128757184D01*
X164636526Y-128821583D01*
X164650296Y-128878489D01*
X164662230Y-128928379D01*
X164672440Y-128971733D01*
X164681035Y-129009025D01*
X164688127Y-129040736D01*
X164693825Y-129067341D01*
X164698240Y-129089318D01*
X164701482Y-129107146D01*
X164702082Y-129110699D01*
X164705030Y-129129052D01*
X164706478Y-129141180D01*
X164706442Y-129148785D01*
X164704942Y-129153566D01*
X164701992Y-129157227D01*
X164696969Y-129160705D01*
X164685414Y-129161587D01*
X164683820Y-129161033D01*
X164674887Y-129154224D01*
X164664773Y-129142034D01*
X164654818Y-129126504D01*
X164646363Y-129109675D01*
X164640748Y-129093586D01*
X164638182Y-129083335D01*
X164634180Y-129068338D01*
X164630902Y-129059150D01*
X164627492Y-129054254D01*
X164623096Y-129052135D01*
X164616858Y-129051279D01*
X164610594Y-129051051D01*
X164603710Y-129053895D01*
X164598724Y-129062721D01*
X164596709Y-129069810D01*
X164596820Y-129087302D01*
X164602447Y-129109850D01*
X164613689Y-129137957D01*
X164621453Y-129152885D01*
X164638472Y-129175610D01*
X164658146Y-129191889D01*
X164679495Y-129201514D01*
X164701542Y-129204278D01*
X164723308Y-129199976D01*
X164743814Y-129188399D01*
X164762083Y-129169342D01*
X164767867Y-129161829D01*
X164774861Y-129153802D01*
X164778854Y-129150620D01*
X164782127Y-129151926D01*
X164790599Y-129156977D01*
X164801775Y-129164551D01*
X164809788Y-129169974D01*
X164827388Y-129180785D01*
X164844239Y-129190017D01*
X164848571Y-129192100D01*
X164877863Y-129201505D01*
X164906895Y-129202861D01*
X164934923Y-129196119D01*
X164944176Y-129191976D01*
X164970450Y-129174701D01*
X164992855Y-129151640D01*
X165009481Y-129124626D01*
X165011096Y-129121093D01*
X165015894Y-129109572D01*
X165018954Y-129099091D01*
X165020655Y-129087306D01*
X165021375Y-129071875D01*
X165021495Y-129050457D01*
X165021346Y-129034411D01*
X165020539Y-129015735D01*
X165018689Y-129000894D01*
X165015416Y-128987204D01*
X165010337Y-128971980D01*
X165008684Y-128967487D01*
X164995872Y-128937614D01*
X164980591Y-128911122D01*
X164961231Y-128885543D01*
X164948241Y-128871473D01*
X165159267Y-128871473D01*
X165160059Y-128891253D01*
X165163967Y-128908370D01*
X165170900Y-128920257D01*
X165173021Y-128921851D01*
X165182890Y-128925882D01*
X165195724Y-128928491D01*
X165206250Y-128929174D01*
X165215668Y-128927393D01*
X165223241Y-128921777D01*
X165227901Y-128915544D01*
X165231989Y-128900631D01*
X165229884Y-128883485D01*
X165221645Y-128866229D01*
X165218889Y-128862023D01*
X165213406Y-128852454D01*
X165211226Y-128846658D01*
X165212408Y-128843231D01*
X165220702Y-128837736D01*
X165236507Y-128833529D01*
X165259332Y-128830771D01*
X165259486Y-128830759D01*
X165276527Y-128829867D01*
X165288832Y-128830687D01*
X165299895Y-128833803D01*
X165313214Y-128839803D01*
X165324606Y-128846264D01*
X165341921Y-128860839D01*
X165353111Y-128877500D01*
X165357084Y-128894877D01*
X165356915Y-128898795D01*
X165354098Y-128909118D01*
X165347037Y-128917888D01*
X165334734Y-128925807D01*
X165316190Y-128933581D01*
X165290406Y-128941915D01*
X165260635Y-128952289D01*
X165227585Y-128968459D01*
X165201133Y-128987364D01*
X165181691Y-129008626D01*
X165169669Y-129031866D01*
X165166534Y-129050457D01*
X165165480Y-129056707D01*
X165165733Y-129061751D01*
X165170368Y-129081362D01*
X165179895Y-129103024D01*
X165193082Y-129124287D01*
X165208697Y-129142698D01*
X165208841Y-129142839D01*
X165235991Y-129164613D01*
X165267881Y-129182183D01*
X165301295Y-129193774D01*
X165307983Y-129195311D01*
X165345034Y-129200873D01*
X165379996Y-129201269D01*
X165411830Y-129196723D01*
X165439497Y-129187459D01*
X165461956Y-129173701D01*
X165478168Y-129155672D01*
X165485284Y-129142575D01*
X165492469Y-129119305D01*
X165492799Y-129097065D01*
X165486343Y-129077189D01*
X165473171Y-129061010D01*
X165472759Y-129060667D01*
X165458003Y-129052572D01*
X165441703Y-129049853D01*
X165425742Y-129051977D01*
X165412008Y-129058410D01*
X165402384Y-129068618D01*
X165398757Y-129082068D01*
X165399244Y-129087007D01*
X165404568Y-129101753D01*
X165414138Y-129116280D01*
X165425918Y-129127205D01*
X165433126Y-129133000D01*
X165436263Y-129137754D01*
X165433872Y-129140315D01*
X165425500Y-129144966D01*
X165413186Y-129150158D01*
X165411169Y-129150891D01*
X165382171Y-129157676D01*
X165350801Y-129159108D01*
X165319436Y-129155449D01*
X165290454Y-129146964D01*
X165266233Y-129133914D01*
X165250689Y-129119953D01*
X165239768Y-129101754D01*
X165236230Y-129080758D01*
X165236759Y-129071849D01*
X165240574Y-129058914D01*
X165248891Y-129048556D01*
X165262666Y-129040066D01*
X165282857Y-129032736D01*
X165310421Y-129025857D01*
X165338324Y-129018561D01*
X165369790Y-129006061D01*
X165393812Y-128990430D01*
X165410635Y-128971441D01*
X165420506Y-128948872D01*
X165423670Y-128922498D01*
X165422041Y-128902991D01*
X165415508Y-128881624D01*
X165403141Y-128860653D01*
X165384049Y-128838184D01*
X165368970Y-128823632D01*
X165350127Y-128809890D01*
X165329788Y-128800816D01*
X165305747Y-128795488D01*
X165275797Y-128792986D01*
X165268647Y-128792756D01*
X165247562Y-128792831D01*
X165229302Y-128793946D01*
X165216602Y-128795965D01*
X165196963Y-128804413D01*
X165179719Y-128817595D01*
X165167861Y-128833245D01*
X165167388Y-128834201D01*
X165161680Y-128851600D01*
X165159267Y-128871473D01*
X164948241Y-128871473D01*
X164936181Y-128858410D01*
X164926105Y-128848526D01*
X164898529Y-128825032D01*
X164872181Y-128808437D01*
X164845828Y-128798062D01*
X164818238Y-128793223D01*
X164804464Y-128792629D01*
X164781148Y-128795192D01*
X164761095Y-128803421D01*
X164741781Y-128818138D01*
X164723792Y-128834717D01*
X164719146Y-128822796D01*
X164717401Y-128817901D01*
X164713017Y-128803543D01*
X164707769Y-128784454D01*
X164702037Y-128762233D01*
X164696200Y-128738475D01*
X164690638Y-128714779D01*
X164685729Y-128692740D01*
X164681854Y-128673956D01*
X164679390Y-128660024D01*
X164678717Y-128652541D01*
X164679850Y-128645562D01*
X164683005Y-128641521D01*
X164690268Y-128639382D01*
X164703743Y-128637916D01*
X164714490Y-128636421D01*
X164729602Y-128631433D01*
X164737607Y-128624352D01*
X164738227Y-128616045D01*
X164731184Y-128607377D01*
X164716198Y-128599215D01*
X164711769Y-128597569D01*
X164693398Y-128592499D01*
X164672056Y-128588619D01*
X164649592Y-128586045D01*
X164627854Y-128584892D01*
X164608690Y-128585274D01*
X164593949Y-128587305D01*
X164585479Y-128591102D01*
X164585073Y-128592162D01*
X164366078Y-128592162D01*
X164411584Y-128543322D01*
X164414724Y-128540252D01*
X164470583Y-128489744D01*
X164528596Y-128445284D01*
X164590755Y-128405467D01*
X164659052Y-128368890D01*
X164713025Y-128344381D01*
X164794517Y-128314649D01*
X164877196Y-128292737D01*
X164960583Y-128278486D01*
X165044201Y-128271736D01*
X165127572Y-128272328D01*
X165210220Y-128280104D01*
X165291666Y-128294903D01*
X165371433Y-128316568D01*
X165449044Y-128344938D01*
X165524021Y-128379855D01*
X165595887Y-128421159D01*
X165664163Y-128468692D01*
X165728374Y-128522293D01*
X165788040Y-128581805D01*
X165842685Y-128647067D01*
X165891832Y-128717921D01*
X165935002Y-128794207D01*
X165939724Y-128803647D01*
X165975413Y-128885159D01*
X166003197Y-128968693D01*
X166023074Y-129053741D01*
X166029098Y-129097065D01*
X166035040Y-129139795D01*
X166039091Y-129226347D01*
X166035224Y-129312887D01*
X166023437Y-129398909D01*
X166003726Y-129483903D01*
X165976086Y-129567360D01*
X165940517Y-129648774D01*
X165935343Y-129659114D01*
X165898166Y-129724635D01*
X165891730Y-129735977D01*
X165841695Y-129807855D01*
G37*
G36*
X163914871Y-125711936D02*
G01*
X163870037Y-125797887D01*
X163817692Y-125881347D01*
X163757559Y-125962957D01*
X163753749Y-125967716D01*
X163725109Y-126001143D01*
X163691756Y-126036723D01*
X163655074Y-126073195D01*
X163616448Y-126109296D01*
X163577264Y-126143764D01*
X163538906Y-126175337D01*
X163502760Y-126202754D01*
X163470211Y-126224751D01*
X163449301Y-126237631D01*
X163422187Y-126253957D01*
X163395046Y-126269935D01*
X163368897Y-126284995D01*
X163344761Y-126298564D01*
X163323656Y-126310071D01*
X163306602Y-126318944D01*
X163294620Y-126324611D01*
X163288727Y-126326501D01*
X163284235Y-126327128D01*
X163272856Y-126330319D01*
X163257244Y-126335622D01*
X163239392Y-126342394D01*
X163221991Y-126349146D01*
X163148824Y-126373835D01*
X163071166Y-126394202D01*
X162988009Y-126410486D01*
X162898347Y-126422925D01*
X162898321Y-126422928D01*
X162890305Y-126423324D01*
X162875216Y-126423601D01*
X162854305Y-126423754D01*
X162828824Y-126423777D01*
X162800025Y-126423667D01*
X162769159Y-126423418D01*
X162747582Y-126423165D01*
X162712822Y-126422532D01*
X162683990Y-126421614D01*
X162659520Y-126420318D01*
X162637843Y-126418553D01*
X162617393Y-126416225D01*
X162596603Y-126413243D01*
X162511040Y-126396903D01*
X162414216Y-126370820D01*
X162320651Y-126337426D01*
X162230683Y-126297032D01*
X162144651Y-126249947D01*
X162062894Y-126196481D01*
X161985749Y-126136943D01*
X161913557Y-126071643D01*
X161846654Y-126000890D01*
X161785379Y-125924994D01*
X161730072Y-125844264D01*
X161681070Y-125759010D01*
X161638713Y-125669542D01*
X161603337Y-125576170D01*
X161575283Y-125479202D01*
X161557294Y-125392968D01*
X161548809Y-125327859D01*
X162628785Y-125327859D01*
X162631266Y-125355040D01*
X162635629Y-125368471D01*
X162645156Y-125381175D01*
X162659512Y-125387548D01*
X162679561Y-125388186D01*
X162679632Y-125388180D01*
X162691353Y-125383554D01*
X162698838Y-125373383D01*
X162701704Y-125359500D01*
X162699573Y-125343740D01*
X162692063Y-125327937D01*
X162685368Y-125317085D01*
X162682319Y-125307646D01*
X162685318Y-125301395D01*
X162694486Y-125296797D01*
X162699076Y-125295284D01*
X162728288Y-125289639D01*
X162756210Y-125290752D01*
X162781569Y-125298275D01*
X162803092Y-125311857D01*
X162819506Y-125331148D01*
X162824983Y-125341604D01*
X162828266Y-125355583D01*
X162824969Y-125367605D01*
X162814657Y-125378273D01*
X162796893Y-125388189D01*
X162771243Y-125397957D01*
X162760200Y-125401720D01*
X162740191Y-125408929D01*
X162722383Y-125415798D01*
X162709649Y-125421241D01*
X162708120Y-125421978D01*
X162686848Y-125434856D01*
X162667323Y-125451137D01*
X162651610Y-125468849D01*
X162641778Y-125486019D01*
X162639357Y-125493384D01*
X162636439Y-125518427D01*
X162640864Y-125543773D01*
X162651955Y-125568607D01*
X162669037Y-125592118D01*
X162691433Y-125613491D01*
X162718467Y-125631915D01*
X162749463Y-125646576D01*
X162783745Y-125656662D01*
X162809550Y-125660815D01*
X162849462Y-125661705D01*
X162886212Y-125655370D01*
X162919193Y-125641875D01*
X162931557Y-125633498D01*
X162946746Y-125617319D01*
X162957209Y-125598415D01*
X162962788Y-125578257D01*
X162963321Y-125558313D01*
X162958649Y-125540055D01*
X162948613Y-125524951D01*
X162933051Y-125514472D01*
X162923905Y-125511254D01*
X162904331Y-125509323D01*
X162885698Y-125515116D01*
X162876164Y-125522257D01*
X162869863Y-125534621D01*
X162870573Y-125549432D01*
X162878190Y-125565687D01*
X162892611Y-125582381D01*
X162911216Y-125599721D01*
X162887345Y-125608651D01*
X162870901Y-125613866D01*
X162841289Y-125619003D01*
X162812079Y-125619222D01*
X162784369Y-125614937D01*
X162759257Y-125606564D01*
X162737840Y-125594515D01*
X162721217Y-125579206D01*
X162710485Y-125561052D01*
X162706741Y-125540466D01*
X162706952Y-125535285D01*
X162710225Y-125521229D01*
X162718171Y-125509960D01*
X162731704Y-125500791D01*
X162751741Y-125493031D01*
X162779196Y-125485994D01*
X162805444Y-125479431D01*
X162828948Y-125471179D01*
X162847882Y-125461184D01*
X162864245Y-125448567D01*
X162866097Y-125446866D01*
X162882357Y-125427892D01*
X162891389Y-125407255D01*
X162894180Y-125382785D01*
X162892301Y-125364890D01*
X162883310Y-125338282D01*
X162867633Y-125312295D01*
X162846089Y-125288530D01*
X162844665Y-125287239D01*
X162826911Y-125273100D01*
X162808922Y-125263199D01*
X162788718Y-125256902D01*
X162764316Y-125253575D01*
X162733737Y-125252585D01*
X162712833Y-125252749D01*
X162698077Y-125253521D01*
X162687341Y-125255248D01*
X162678469Y-125258278D01*
X162669304Y-125262957D01*
X162664800Y-125265655D01*
X162645908Y-125282303D01*
X162633784Y-125303325D01*
X162628785Y-125327859D01*
X161548809Y-125327859D01*
X161544418Y-125294164D01*
X161539558Y-125195381D01*
X161542569Y-125097078D01*
X161553302Y-124999711D01*
X161571612Y-124903737D01*
X161597351Y-124809614D01*
X161630372Y-124717799D01*
X161670528Y-124628749D01*
X161708579Y-124559476D01*
X162289456Y-124559476D01*
X162289801Y-124566053D01*
X162291364Y-124576667D01*
X162294267Y-124591892D01*
X162298633Y-124612307D01*
X162304587Y-124638485D01*
X162312250Y-124671005D01*
X162321746Y-124710443D01*
X162333199Y-124757373D01*
X162347198Y-124814665D01*
X162360446Y-124869355D01*
X162371834Y-124916978D01*
X162381480Y-124958052D01*
X162389502Y-124993098D01*
X162396015Y-125022635D01*
X162401136Y-125047184D01*
X162404983Y-125067265D01*
X162407672Y-125083396D01*
X162409321Y-125096099D01*
X162409444Y-125097277D01*
X162410573Y-125110702D01*
X162409968Y-125118383D01*
X162406961Y-125122684D01*
X162400883Y-125125972D01*
X162394816Y-125128285D01*
X162387832Y-125127774D01*
X162379858Y-125121616D01*
X162375229Y-125116619D01*
X162364538Y-125101242D01*
X162354324Y-125082276D01*
X162346162Y-125062836D01*
X162341627Y-125046036D01*
X162341518Y-125045336D01*
X162336644Y-125028015D01*
X162328893Y-125016888D01*
X162318950Y-125012957D01*
X162309410Y-125015784D01*
X162303186Y-125024420D01*
X162300834Y-125037661D01*
X162301986Y-125054281D01*
X162306275Y-125073056D01*
X162313335Y-125092762D01*
X162322797Y-125112173D01*
X162334296Y-125130065D01*
X162347464Y-125145214D01*
X162361934Y-125156394D01*
X162379031Y-125164639D01*
X162401775Y-125169347D01*
X162423426Y-125165973D01*
X162444378Y-125154432D01*
X162465026Y-125134641D01*
X162483103Y-125113659D01*
X162507530Y-125130245D01*
X162509488Y-125131566D01*
X162541285Y-125150550D01*
X162569963Y-125162442D01*
X162596417Y-125167417D01*
X162621539Y-125165649D01*
X162646222Y-125157313D01*
X162646815Y-125157035D01*
X162675822Y-125139191D01*
X162698385Y-125116064D01*
X162714500Y-125087660D01*
X162724164Y-125053984D01*
X162725634Y-125036151D01*
X162819167Y-125036151D01*
X162819799Y-125043138D01*
X162824538Y-125060965D01*
X162832940Y-125081843D01*
X162843843Y-125103564D01*
X162856087Y-125123918D01*
X162868508Y-125140697D01*
X162879945Y-125151691D01*
X162892896Y-125159195D01*
X162916063Y-125165775D01*
X162939496Y-125164350D01*
X162962357Y-125155029D01*
X162983811Y-125137923D01*
X162990720Y-125131173D01*
X162999004Y-125124053D01*
X163003717Y-125121291D01*
X163006829Y-125122610D01*
X163014989Y-125128020D01*
X163025560Y-125136186D01*
X163031994Y-125141028D01*
X163048670Y-125151371D01*
X163064854Y-125159103D01*
X163085810Y-125164736D01*
X163112465Y-125167087D01*
X163138581Y-125164989D01*
X163160890Y-125158463D01*
X163170432Y-125153653D01*
X163194624Y-125135636D01*
X163212538Y-125112505D01*
X163223672Y-125085044D01*
X163227527Y-125054038D01*
X163226520Y-125037479D01*
X163222435Y-125011043D01*
X163215681Y-124980957D01*
X163206764Y-124949410D01*
X163196190Y-124918589D01*
X163192435Y-124908234D01*
X163185495Y-124887042D01*
X163179078Y-124865060D01*
X163173620Y-124844024D01*
X163169557Y-124825668D01*
X163167325Y-124811726D01*
X163167361Y-124803932D01*
X163168773Y-124801015D01*
X163176166Y-124796496D01*
X163187239Y-124796929D01*
X163200232Y-124801754D01*
X163213386Y-124810407D01*
X163224942Y-124822328D01*
X163228511Y-124827630D01*
X163236122Y-124840805D01*
X163245014Y-124857759D01*
X163253917Y-124876132D01*
X163260302Y-124889385D01*
X163270492Y-124907529D01*
X163279435Y-124918704D01*
X163287753Y-124923598D01*
X163296063Y-124922899D01*
X163303042Y-124917081D01*
X163305963Y-124904874D01*
X163303511Y-124887128D01*
X163295748Y-124864236D01*
X163282734Y-124836592D01*
X163280835Y-124833030D01*
X163262221Y-124804393D01*
X163241407Y-124782048D01*
X163219158Y-124766197D01*
X163196238Y-124757044D01*
X163173412Y-124754794D01*
X163151444Y-124759648D01*
X163131098Y-124771810D01*
X163113139Y-124791483D01*
X163111335Y-124794164D01*
X163104778Y-124807313D01*
X163101297Y-124822397D01*
X163100941Y-124840557D01*
X163103764Y-124862934D01*
X163109816Y-124890668D01*
X163119149Y-124924900D01*
X163130748Y-124966460D01*
X163139500Y-125001827D01*
X163145304Y-125031141D01*
X163148263Y-125055240D01*
X163148478Y-125074962D01*
X163146053Y-125091144D01*
X163141089Y-125104624D01*
X163138361Y-125109235D01*
X163125925Y-125120699D01*
X163109397Y-125126737D01*
X163090593Y-125127217D01*
X163071329Y-125122008D01*
X163053423Y-125110978D01*
X163043151Y-125100226D01*
X163030677Y-125081222D01*
X163018212Y-125055466D01*
X163005592Y-125022568D01*
X162992654Y-124982139D01*
X162979237Y-124933791D01*
X162972611Y-124909207D01*
X162965125Y-124882689D01*
X162957817Y-124857875D01*
X162951607Y-124837957D01*
X162941684Y-124812057D01*
X162930115Y-124791179D01*
X162917910Y-124777839D01*
X162905336Y-124772234D01*
X162892657Y-124774559D01*
X162880136Y-124785010D01*
X162876316Y-124792048D01*
X162874257Y-124804048D01*
X162874729Y-124820964D01*
X162877802Y-124843529D01*
X162883548Y-124872475D01*
X162892035Y-124908533D01*
X162893530Y-124914582D01*
X162905991Y-124967121D01*
X162915604Y-125011972D01*
X162916162Y-125015041D01*
X162922385Y-125049258D01*
X162926352Y-125079104D01*
X162927521Y-125101633D01*
X162925910Y-125116969D01*
X162921534Y-125125236D01*
X162921406Y-125125341D01*
X162912746Y-125127734D01*
X162902821Y-125122948D01*
X162892448Y-125111851D01*
X162882446Y-125095316D01*
X162873632Y-125074213D01*
X162869496Y-125062700D01*
X162860597Y-125041981D01*
X162851845Y-125027852D01*
X162842588Y-125019152D01*
X162836041Y-125015654D01*
X162826752Y-125015063D01*
X162821085Y-125021926D01*
X162819167Y-125036151D01*
X162725634Y-125036151D01*
X162727375Y-125015041D01*
X162724495Y-124979636D01*
X162714124Y-124937770D01*
X162696965Y-124897197D01*
X162673819Y-124859197D01*
X162645488Y-124825054D01*
X162612772Y-124796049D01*
X162576472Y-124773466D01*
X162556206Y-124764644D01*
X162525291Y-124756923D01*
X162496491Y-124757235D01*
X162469724Y-124765587D01*
X162444912Y-124781984D01*
X162436365Y-124789116D01*
X162430091Y-124793171D01*
X162426461Y-124792746D01*
X162423521Y-124788428D01*
X162420953Y-124781528D01*
X162416917Y-124767934D01*
X162411872Y-124749384D01*
X162406216Y-124727498D01*
X162400343Y-124703897D01*
X162394650Y-124680200D01*
X162389533Y-124658029D01*
X162385387Y-124639004D01*
X162382609Y-124624745D01*
X162381595Y-124616872D01*
X162381596Y-124616470D01*
X162382216Y-124610250D01*
X162385318Y-124606591D01*
X162392841Y-124604385D01*
X162406726Y-124602526D01*
X162411360Y-124601918D01*
X162429650Y-124597525D01*
X162440318Y-124591306D01*
X162443612Y-124583896D01*
X162439782Y-124575927D01*
X162429076Y-124568034D01*
X162411746Y-124560851D01*
X162388039Y-124555012D01*
X162368705Y-124552287D01*
X162347976Y-124550765D01*
X162327847Y-124550434D01*
X162310236Y-124551268D01*
X162297057Y-124553243D01*
X162290226Y-124556332D01*
X162290204Y-124556358D01*
X162289456Y-124559476D01*
X161708579Y-124559476D01*
X161717673Y-124542921D01*
X161771659Y-124460774D01*
X161832339Y-124382763D01*
X161899567Y-124309346D01*
X161973195Y-124240982D01*
X161977940Y-124236922D01*
X161993595Y-124223516D01*
X162006671Y-124212302D01*
X162015917Y-124204355D01*
X162020080Y-124200750D01*
X162019945Y-124197991D01*
X162016486Y-124189267D01*
X162009959Y-124176262D01*
X162001124Y-124160588D01*
X161993513Y-124147536D01*
X161981128Y-124124888D01*
X161972604Y-124106417D01*
X161967296Y-124090358D01*
X161964556Y-124074947D01*
X161963741Y-124058420D01*
X161964699Y-124042044D01*
X161972194Y-124011958D01*
X161986367Y-123985387D01*
X162006310Y-123963227D01*
X162031114Y-123946375D01*
X162059870Y-123935728D01*
X162091670Y-123932181D01*
X162107983Y-123933063D01*
X162133391Y-123938340D01*
X162155988Y-123948984D01*
X162176796Y-123965714D01*
X162196834Y-123989245D01*
X162217124Y-124020295D01*
X162225817Y-124034955D01*
X162233972Y-124048666D01*
X162239650Y-124058162D01*
X162241968Y-124061964D01*
X162244903Y-124061168D01*
X162254063Y-124057597D01*
X162267906Y-124051793D01*
X162284864Y-124044398D01*
X162324215Y-124027862D01*
X162413378Y-123996487D01*
X162507685Y-123971228D01*
X162606632Y-123952228D01*
X162607052Y-123952162D01*
X162633697Y-123948943D01*
X162666827Y-123946366D01*
X162704648Y-123944455D01*
X162745364Y-123943232D01*
X162787183Y-123942718D01*
X162828311Y-123942937D01*
X162866952Y-123943911D01*
X162901314Y-123945662D01*
X162929602Y-123948211D01*
X162975702Y-123954555D01*
X163076683Y-123974359D01*
X163174536Y-124001835D01*
X163269045Y-124036876D01*
X163359994Y-124079376D01*
X163447169Y-124129228D01*
X163530354Y-124186325D01*
X163609333Y-124250560D01*
X163683892Y-124321828D01*
X163713183Y-124352873D01*
X163742806Y-124386464D01*
X163770108Y-124420286D01*
X163797045Y-124456778D01*
X163825573Y-124498374D01*
X163870910Y-124571608D01*
X163915068Y-124656382D01*
X163952239Y-124744351D01*
X163982662Y-124836151D01*
X163999730Y-124904874D01*
X164006571Y-124932418D01*
X164024203Y-125033791D01*
X164025845Y-125048353D01*
X164027756Y-125075749D01*
X164029059Y-125108599D01*
X164029765Y-125145198D01*
X164029884Y-125183842D01*
X164029430Y-125222826D01*
X164028412Y-125260445D01*
X164026842Y-125294995D01*
X164024733Y-125324773D01*
X164022094Y-125348072D01*
X164007073Y-125432707D01*
X163983113Y-125529989D01*
X163973767Y-125558313D01*
X163952471Y-125622851D01*
X163914871Y-125711936D01*
G37*
G36*
X168181305Y-125663498D02*
G01*
X168135336Y-125737727D01*
X168082906Y-125807328D01*
X168024461Y-125871513D01*
X167985100Y-125908723D01*
X167915846Y-125965181D01*
X167842206Y-126014665D01*
X167764514Y-126057020D01*
X167683105Y-126092091D01*
X167598313Y-126119722D01*
X167510474Y-126139758D01*
X167419922Y-126152045D01*
X167414066Y-126152473D01*
X167393744Y-126153128D01*
X167367806Y-126153159D01*
X167338198Y-126152636D01*
X167306866Y-126151629D01*
X167275756Y-126150210D01*
X167246815Y-126148449D01*
X167221987Y-126146416D01*
X167203220Y-126144182D01*
X167171325Y-126138842D01*
X167107526Y-126124955D01*
X167046400Y-126106850D01*
X166985386Y-126083713D01*
X166921924Y-126054730D01*
X166852227Y-126017251D01*
X166778595Y-125969359D01*
X166710845Y-125915692D01*
X166648670Y-125855978D01*
X166591763Y-125789946D01*
X166539815Y-125717323D01*
X166515629Y-125678171D01*
X166474921Y-125600403D01*
X166441708Y-125519459D01*
X166416121Y-125435901D01*
X166398609Y-125351813D01*
X167170645Y-125351813D01*
X167174359Y-125376832D01*
X167175980Y-125381928D01*
X167182298Y-125392207D01*
X167193521Y-125398943D01*
X167201613Y-125401624D01*
X167218369Y-125402508D01*
X167232136Y-125397016D01*
X167241462Y-125385961D01*
X167244893Y-125370156D01*
X167242969Y-125357875D01*
X167236166Y-125341983D01*
X167226415Y-125329852D01*
X167222754Y-125326144D01*
X167219889Y-125320568D01*
X167221698Y-125317234D01*
X167230063Y-125312394D01*
X167243471Y-125308158D01*
X167259964Y-125305097D01*
X167277584Y-125303781D01*
X167279513Y-125303765D01*
X167308549Y-125306734D01*
X167332796Y-125315548D01*
X167351574Y-125329850D01*
X167364200Y-125349282D01*
X167368337Y-125361351D01*
X167369110Y-125374189D01*
X167364264Y-125384982D01*
X167353136Y-125394500D01*
X167335063Y-125403509D01*
X167309383Y-125412779D01*
X167271964Y-125426354D01*
X167240441Y-125441228D01*
X167216022Y-125457219D01*
X167198080Y-125474741D01*
X167185991Y-125494207D01*
X167182248Y-125504096D01*
X167178752Y-125528712D01*
X167182496Y-125553865D01*
X167192838Y-125578717D01*
X167209130Y-125602431D01*
X167230727Y-125624172D01*
X167256986Y-125643102D01*
X167287260Y-125658385D01*
X167320905Y-125669184D01*
X167348867Y-125673852D01*
X167382638Y-125674918D01*
X167415061Y-125671340D01*
X167444132Y-125663363D01*
X167467847Y-125651232D01*
X167472669Y-125647623D01*
X167488228Y-125631179D01*
X167498735Y-125611989D01*
X167504123Y-125591561D01*
X167504327Y-125571405D01*
X167499283Y-125553030D01*
X167488924Y-125537946D01*
X167473187Y-125527662D01*
X167472392Y-125527346D01*
X167455705Y-125522263D01*
X167442184Y-125522283D01*
X167428555Y-125527386D01*
X167418552Y-125534400D01*
X167413096Y-125544428D01*
X167411587Y-125559727D01*
X167411588Y-125559984D01*
X167413472Y-125569322D01*
X167419757Y-125579516D01*
X167431649Y-125592539D01*
X167451711Y-125612598D01*
X167430607Y-125622028D01*
X167429852Y-125622363D01*
X167417771Y-125626928D01*
X167405111Y-125629725D01*
X167389295Y-125631146D01*
X167367742Y-125631583D01*
X167348356Y-125631450D01*
X167334050Y-125630550D01*
X167322689Y-125628346D01*
X167311548Y-125624302D01*
X167297898Y-125617884D01*
X167277906Y-125606332D01*
X167261423Y-125591486D01*
X167252067Y-125574553D01*
X167249193Y-125554698D01*
X167249586Y-125546830D01*
X167252818Y-125533546D01*
X167260181Y-125523103D01*
X167272723Y-125514672D01*
X167291491Y-125507422D01*
X167317532Y-125500524D01*
X167324335Y-125498905D01*
X167351537Y-125491441D01*
X167372736Y-125483501D01*
X167389839Y-125474266D01*
X167404752Y-125462911D01*
X167408378Y-125459591D01*
X167425468Y-125438198D01*
X167434826Y-125414526D01*
X167436488Y-125389193D01*
X167430492Y-125362820D01*
X167416873Y-125336024D01*
X167395668Y-125309425D01*
X167383798Y-125297925D01*
X167363123Y-125283062D01*
X167339693Y-125273106D01*
X167310874Y-125266732D01*
X167283688Y-125264163D01*
X167253856Y-125265221D01*
X167227152Y-125270294D01*
X167205114Y-125279071D01*
X167189280Y-125291243D01*
X167180198Y-125304884D01*
X167172732Y-125327023D01*
X167170645Y-125351813D01*
X166398609Y-125351813D01*
X166398291Y-125350288D01*
X166388349Y-125263182D01*
X166386425Y-125175142D01*
X166392650Y-125086730D01*
X166396995Y-125054388D01*
X166414188Y-124968136D01*
X166439012Y-124884583D01*
X166471150Y-124804159D01*
X166510287Y-124727292D01*
X166556105Y-124654411D01*
X166608291Y-124585945D01*
X166622217Y-124570731D01*
X166851691Y-124570731D01*
X166852426Y-124577982D01*
X166854191Y-124588424D01*
X166857123Y-124602757D01*
X166861361Y-124621680D01*
X166867044Y-124645894D01*
X166874311Y-124676098D01*
X166883299Y-124712993D01*
X166894147Y-124757278D01*
X166898816Y-124776334D01*
X166914031Y-124838804D01*
X166927256Y-124893774D01*
X166938582Y-124941682D01*
X166948097Y-124982969D01*
X166955892Y-125018074D01*
X166962056Y-125047434D01*
X166966678Y-125071491D01*
X166969850Y-125090682D01*
X166971660Y-125105447D01*
X166972197Y-125116226D01*
X166971553Y-125123456D01*
X166969817Y-125127578D01*
X166969013Y-125128487D01*
X166960156Y-125132976D01*
X166949729Y-125130582D01*
X166938559Y-125122274D01*
X166927472Y-125109022D01*
X166917298Y-125091796D01*
X166908863Y-125071564D01*
X166902995Y-125049297D01*
X166902918Y-125048893D01*
X166897794Y-125032077D01*
X166890389Y-125021071D01*
X166881537Y-125017124D01*
X166876650Y-125019656D01*
X166869313Y-125025976D01*
X166864211Y-125032434D01*
X166861996Y-125040973D01*
X166862747Y-125054146D01*
X166863439Y-125059211D01*
X166870779Y-125088112D01*
X166883045Y-125115215D01*
X166899164Y-125138893D01*
X166918065Y-125157517D01*
X166938675Y-125169460D01*
X166943055Y-125171004D01*
X166966918Y-125174749D01*
X166989603Y-125170336D01*
X167010773Y-125157884D01*
X167030090Y-125137509D01*
X167034331Y-125132088D01*
X167041179Y-125124336D01*
X167045108Y-125121291D01*
X167045650Y-125121425D01*
X167051589Y-125124563D01*
X167062090Y-125131011D01*
X167075291Y-125139639D01*
X167092149Y-125150006D01*
X167110435Y-125159778D01*
X167126008Y-125166723D01*
X167137703Y-125170645D01*
X167158814Y-125174569D01*
X167179043Y-125173160D01*
X167200537Y-125166124D01*
X167225441Y-125153171D01*
X167242560Y-125140947D01*
X167263511Y-125117502D01*
X167279024Y-125087957D01*
X167282932Y-125076506D01*
X167286010Y-125062098D01*
X167287655Y-125044554D01*
X167288224Y-125021291D01*
X167288206Y-125007815D01*
X167287503Y-124989597D01*
X167285520Y-124974627D01*
X167281754Y-124959704D01*
X167275701Y-124941633D01*
X167257019Y-124899783D01*
X167229722Y-124858030D01*
X167195342Y-124820217D01*
X167174651Y-124802321D01*
X167143449Y-124781718D01*
X167112121Y-124768914D01*
X167080064Y-124763613D01*
X167066747Y-124763431D01*
X167044601Y-124766501D01*
X167024747Y-124774959D01*
X167004184Y-124789841D01*
X167001608Y-124791970D01*
X166993655Y-124798024D01*
X166989365Y-124800457D01*
X166988020Y-124798899D01*
X166984673Y-124790659D01*
X166980150Y-124776590D01*
X166974813Y-124758112D01*
X166969020Y-124736646D01*
X166963132Y-124713611D01*
X166957507Y-124690429D01*
X166952507Y-124668520D01*
X166948489Y-124649305D01*
X166945815Y-124634204D01*
X166944844Y-124624637D01*
X166944844Y-124608791D01*
X166963326Y-124608791D01*
X166972052Y-124608559D01*
X166989576Y-124605736D01*
X166999841Y-124599573D01*
X167003187Y-124589909D01*
X167002109Y-124583406D01*
X166996856Y-124577341D01*
X166985451Y-124571311D01*
X166982345Y-124570212D01*
X167419922Y-124570212D01*
X167420591Y-124574740D01*
X167423071Y-124586906D01*
X167427194Y-124605588D01*
X167432759Y-124629926D01*
X167439568Y-124659060D01*
X167447420Y-124692131D01*
X167456118Y-124728278D01*
X167465460Y-124766642D01*
X167480841Y-124829609D01*
X167494269Y-124885068D01*
X167505797Y-124933413D01*
X167515504Y-124975124D01*
X167523466Y-125010683D01*
X167529759Y-125040571D01*
X167534460Y-125065270D01*
X167537646Y-125085260D01*
X167539394Y-125101023D01*
X167539779Y-125113041D01*
X167538880Y-125121794D01*
X167536772Y-125127765D01*
X167533533Y-125131433D01*
X167529239Y-125133281D01*
X167523966Y-125133791D01*
X167523097Y-125133744D01*
X167514071Y-125129241D01*
X167503908Y-125118572D01*
X167493619Y-125103409D01*
X167484213Y-125085428D01*
X167476697Y-125066301D01*
X167472082Y-125047703D01*
X167470673Y-125041048D01*
X167464550Y-125027284D01*
X167455721Y-125019599D01*
X167445234Y-125019109D01*
X167442686Y-125020208D01*
X167441764Y-125021291D01*
X167435587Y-125028548D01*
X167432593Y-125042506D01*
X167433664Y-125060808D01*
X167438763Y-125082183D01*
X167447850Y-125105358D01*
X167461658Y-125129668D01*
X167481700Y-125152399D01*
X167505260Y-125167661D01*
X167512424Y-125170535D01*
X167535556Y-125174580D01*
X167557756Y-125170503D01*
X167578522Y-125158462D01*
X167597352Y-125138615D01*
X167612955Y-125117719D01*
X167637632Y-125134474D01*
X167650983Y-125143029D01*
X167668627Y-125153273D01*
X167683847Y-125161065D01*
X167703865Y-125168637D01*
X167729417Y-125173421D01*
X167751715Y-125171682D01*
X167758758Y-125169696D01*
X167788475Y-125156365D01*
X167814257Y-125136665D01*
X167834798Y-125111792D01*
X167848790Y-125082941D01*
X167849912Y-125079486D01*
X167857017Y-125043809D01*
X167857465Y-125005223D01*
X167851484Y-124965324D01*
X167839299Y-124925704D01*
X167821136Y-124887958D01*
X167809173Y-124870261D01*
X167792464Y-124849808D01*
X167773153Y-124829020D01*
X167753037Y-124809721D01*
X167733912Y-124793734D01*
X167717576Y-124782883D01*
X167684262Y-124768365D01*
X167653246Y-124761713D01*
X167624683Y-124762978D01*
X167598632Y-124772157D01*
X167575148Y-124789249D01*
X167572504Y-124791678D01*
X167563031Y-124798286D01*
X167557360Y-124797873D01*
X167555041Y-124793023D01*
X167551151Y-124781330D01*
X167546213Y-124764443D01*
X167540615Y-124743897D01*
X167534746Y-124721227D01*
X167528993Y-124697968D01*
X167523743Y-124675655D01*
X167519384Y-124655822D01*
X167516304Y-124640005D01*
X167514891Y-124629739D01*
X167513687Y-124611103D01*
X167538499Y-124607907D01*
X167550652Y-124605881D01*
X167565218Y-124600974D01*
X167572291Y-124593994D01*
X167572301Y-124584645D01*
X167566716Y-124577559D01*
X167553922Y-124570335D01*
X167535538Y-124564042D01*
X167512996Y-124559068D01*
X167487729Y-124555799D01*
X167461171Y-124554624D01*
X167449579Y-124554745D01*
X167434464Y-124555790D01*
X167425434Y-124558357D01*
X167421062Y-124562985D01*
X167419922Y-124570212D01*
X166982345Y-124570212D01*
X166969252Y-124565579D01*
X166948163Y-124560595D01*
X166925289Y-124557041D01*
X166902592Y-124555080D01*
X166882035Y-124554878D01*
X166865578Y-124556597D01*
X166855185Y-124560403D01*
X166854275Y-124561124D01*
X166852754Y-124563002D01*
X166851846Y-124565971D01*
X166851691Y-124570731D01*
X166622217Y-124570731D01*
X166666527Y-124522324D01*
X166730498Y-124463976D01*
X166799887Y-124411331D01*
X166874379Y-124364818D01*
X166953659Y-124324865D01*
X166981979Y-124312726D01*
X167064551Y-124283261D01*
X167148585Y-124261708D01*
X167233551Y-124247970D01*
X167318923Y-124241951D01*
X167404170Y-124243555D01*
X167488765Y-124252683D01*
X167572177Y-124269242D01*
X167653880Y-124293132D01*
X167733343Y-124324259D01*
X167810039Y-124362526D01*
X167883438Y-124407836D01*
X167953011Y-124460092D01*
X168018231Y-124519199D01*
X168040027Y-124541465D01*
X168096562Y-124605957D01*
X168145680Y-124673032D01*
X168187967Y-124743544D01*
X168224008Y-124818345D01*
X168239225Y-124855474D01*
X168262572Y-124922059D01*
X168280005Y-124987584D01*
X168283170Y-125005223D01*
X168291941Y-125054106D01*
X168298797Y-125123684D01*
X168300990Y-125198374D01*
X168300990Y-125199447D01*
X168300431Y-125244721D01*
X168298594Y-125284274D01*
X168295180Y-125320607D01*
X168289886Y-125356220D01*
X168282412Y-125393614D01*
X168272456Y-125435290D01*
X168252069Y-125504303D01*
X168225845Y-125571405D01*
X168220365Y-125585428D01*
X168181305Y-125663498D01*
G37*
G36*
X158946985Y-125674718D02*
G01*
X158898922Y-125749019D01*
X158894331Y-125755393D01*
X158839254Y-125824278D01*
X158778351Y-125887273D01*
X158711527Y-125944459D01*
X158638687Y-125995918D01*
X158559737Y-126041732D01*
X158497294Y-126071594D01*
X158426060Y-126098892D01*
X158351392Y-126120508D01*
X158272142Y-126136770D01*
X158187157Y-126148007D01*
X158182050Y-126148408D01*
X158163698Y-126148990D01*
X158139679Y-126148953D01*
X158111901Y-126148373D01*
X158082272Y-126147325D01*
X158052700Y-126145884D01*
X158025092Y-126144126D01*
X158001358Y-126142126D01*
X157983405Y-126139960D01*
X157970617Y-126137907D01*
X157881968Y-126119080D01*
X157796876Y-126092963D01*
X157715660Y-126059875D01*
X157638642Y-126020139D01*
X157566142Y-125974073D01*
X157498481Y-125921999D01*
X157435980Y-125864237D01*
X157378960Y-125801106D01*
X157327741Y-125732928D01*
X157282644Y-125660023D01*
X157243991Y-125582712D01*
X157212102Y-125501314D01*
X157187297Y-125416150D01*
X157173853Y-125347683D01*
X158007961Y-125347683D01*
X158007999Y-125356669D01*
X158008547Y-125370150D01*
X158010251Y-125378726D01*
X158013742Y-125384704D01*
X158019654Y-125390392D01*
X158029963Y-125397022D01*
X158045597Y-125400832D01*
X158060488Y-125398303D01*
X158072253Y-125389479D01*
X158074939Y-125385720D01*
X158080219Y-125371436D01*
X158078118Y-125355735D01*
X158068558Y-125337543D01*
X158066679Y-125334716D01*
X158060687Y-125324484D01*
X158059235Y-125318175D01*
X158061721Y-125313692D01*
X158062009Y-125313411D01*
X158073079Y-125307231D01*
X158089746Y-125303037D01*
X158109549Y-125301081D01*
X158130029Y-125301610D01*
X158148723Y-125304874D01*
X158161381Y-125310024D01*
X158178204Y-125321717D01*
X158192415Y-125336843D01*
X158202241Y-125353402D01*
X158205910Y-125369394D01*
X158205897Y-125369998D01*
X158201401Y-125380739D01*
X158189331Y-125391444D01*
X158170394Y-125401629D01*
X158145296Y-125410813D01*
X158131351Y-125415248D01*
X158098476Y-125427703D01*
X158071591Y-125441398D01*
X158048985Y-125457157D01*
X158035892Y-125469756D01*
X158022006Y-125491177D01*
X158015203Y-125514487D01*
X158015129Y-125538857D01*
X158021429Y-125563458D01*
X158033749Y-125587461D01*
X158051734Y-125610037D01*
X158075029Y-125630357D01*
X158103280Y-125647591D01*
X158136133Y-125660911D01*
X158167748Y-125668855D01*
X158203969Y-125673003D01*
X158238245Y-125671770D01*
X158269348Y-125665315D01*
X158296053Y-125653798D01*
X158317132Y-125637378D01*
X158318460Y-125635959D01*
X158330814Y-125619385D01*
X158337352Y-125601494D01*
X158339266Y-125579146D01*
X158338985Y-125571537D01*
X158334142Y-125549994D01*
X158323493Y-125534243D01*
X158307308Y-125524578D01*
X158285859Y-125521291D01*
X158276566Y-125521985D01*
X158260853Y-125527844D01*
X158250998Y-125539237D01*
X158247584Y-125555640D01*
X158247809Y-125561907D01*
X158249959Y-125571006D01*
X158255634Y-125579662D01*
X158266337Y-125590685D01*
X158275109Y-125599305D01*
X158282321Y-125606885D01*
X158285090Y-125610504D01*
X158282338Y-125612408D01*
X158273664Y-125616414D01*
X158261128Y-125621442D01*
X158243599Y-125626624D01*
X158212506Y-125630658D01*
X158180143Y-125629554D01*
X158149794Y-125623258D01*
X158131833Y-125615588D01*
X158114096Y-125604221D01*
X158099144Y-125590944D01*
X158088680Y-125577284D01*
X158084409Y-125564765D01*
X158084511Y-125546699D01*
X158087808Y-125532016D01*
X158095373Y-125520802D01*
X158108221Y-125512087D01*
X158127365Y-125504899D01*
X158153819Y-125498266D01*
X158179888Y-125491510D01*
X158213476Y-125478513D01*
X158239467Y-125462256D01*
X158257930Y-125442675D01*
X158268933Y-125419710D01*
X158272547Y-125393299D01*
X158271919Y-125384074D01*
X158265356Y-125359709D01*
X158252655Y-125335041D01*
X158235051Y-125311819D01*
X158213783Y-125291792D01*
X158190085Y-125276709D01*
X158183468Y-125273543D01*
X158173849Y-125269632D01*
X158164189Y-125267145D01*
X158152414Y-125265763D01*
X158136452Y-125265168D01*
X158114229Y-125265041D01*
X158102435Y-125265066D01*
X158083586Y-125265384D01*
X158070241Y-125266287D01*
X158060498Y-125268055D01*
X158052458Y-125270966D01*
X158044220Y-125275298D01*
X158041930Y-125276640D01*
X158025758Y-125288890D01*
X158015289Y-125303651D01*
X158009648Y-125322668D01*
X158007961Y-125347683D01*
X157173853Y-125347683D01*
X157169898Y-125327541D01*
X157166118Y-125294750D01*
X157163568Y-125256117D01*
X157162273Y-125214111D01*
X157162234Y-125171053D01*
X157163453Y-125129265D01*
X157165933Y-125091071D01*
X157169674Y-125058791D01*
X157173889Y-125036766D01*
X157632502Y-125036766D01*
X157635278Y-125051271D01*
X157641037Y-125069418D01*
X157649035Y-125089370D01*
X157658527Y-125109290D01*
X157668767Y-125127340D01*
X157679011Y-125141686D01*
X157690306Y-125153034D01*
X157711100Y-125165716D01*
X157733622Y-125170784D01*
X157756862Y-125168247D01*
X157779809Y-125158118D01*
X157801453Y-125140406D01*
X157806581Y-125135247D01*
X157814340Y-125128215D01*
X157818591Y-125125457D01*
X157820557Y-125126268D01*
X157827716Y-125130989D01*
X157837569Y-125138522D01*
X157843110Y-125142678D01*
X157858809Y-125152710D01*
X157874606Y-125161019D01*
X157900421Y-125169783D01*
X157930834Y-125173007D01*
X157960024Y-125168789D01*
X157986882Y-125157460D01*
X158010298Y-125139352D01*
X158029161Y-125114798D01*
X158035436Y-125102402D01*
X158040532Y-125086566D01*
X158042855Y-125068830D01*
X158042310Y-125048236D01*
X158039469Y-125028477D01*
X158256656Y-125028477D01*
X158258785Y-125044962D01*
X158266277Y-125067710D01*
X158267339Y-125070391D01*
X158283140Y-125104394D01*
X158300226Y-125130397D01*
X158318853Y-125148656D01*
X158339276Y-125159424D01*
X158361749Y-125162957D01*
X158377034Y-125162064D01*
X158391761Y-125158087D01*
X158405880Y-125149783D01*
X158422123Y-125135929D01*
X158442239Y-125117115D01*
X158461733Y-125131997D01*
X158469429Y-125137510D01*
X158485632Y-125147657D01*
X158500413Y-125155365D01*
X158516314Y-125160676D01*
X158538444Y-125164646D01*
X158560543Y-125165702D01*
X158578888Y-125163459D01*
X158603227Y-125153950D01*
X158626457Y-125138731D01*
X158645434Y-125119752D01*
X158658123Y-125098677D01*
X158661360Y-125089998D01*
X158665311Y-125074468D01*
X158666908Y-125057711D01*
X158666011Y-125038648D01*
X158662481Y-125016201D01*
X158656177Y-124989291D01*
X158646960Y-124956839D01*
X158634690Y-124917769D01*
X158629506Y-124901578D01*
X158619304Y-124868070D01*
X158612127Y-124841504D01*
X158607875Y-124821339D01*
X158606447Y-124807035D01*
X158607743Y-124798051D01*
X158611663Y-124793847D01*
X158618745Y-124792425D01*
X158632987Y-124795556D01*
X158648110Y-124805372D01*
X158663193Y-124821017D01*
X158677319Y-124841636D01*
X158689568Y-124866373D01*
X158689728Y-124866760D01*
X158700760Y-124891354D01*
X158710310Y-124908313D01*
X158718707Y-124918128D01*
X158726280Y-124921291D01*
X158734909Y-124919322D01*
X158741519Y-124911205D01*
X158743040Y-124897190D01*
X158739443Y-124877691D01*
X158730703Y-124853121D01*
X158726900Y-124844503D01*
X158709377Y-124813164D01*
X158688854Y-124787722D01*
X158666024Y-124768787D01*
X158641583Y-124756966D01*
X158616225Y-124752867D01*
X158614388Y-124752882D01*
X158592067Y-124756525D01*
X158572503Y-124767070D01*
X158554326Y-124785232D01*
X158550402Y-124790232D01*
X158545456Y-124798050D01*
X158542763Y-124806430D01*
X158541659Y-124817961D01*
X158541478Y-124835232D01*
X158541787Y-124847690D01*
X158543255Y-124863587D01*
X158546309Y-124880728D01*
X158551362Y-124901314D01*
X158558826Y-124927541D01*
X158567832Y-124958683D01*
X158575278Y-124986470D01*
X158580542Y-125009289D01*
X158583933Y-125028648D01*
X158585755Y-125046056D01*
X158586316Y-125063021D01*
X158584654Y-125085095D01*
X158578280Y-125104638D01*
X158566966Y-125117585D01*
X158550543Y-125124119D01*
X158528838Y-125124423D01*
X158526346Y-125124106D01*
X158511515Y-125120424D01*
X158498078Y-125113403D01*
X158485694Y-125102432D01*
X158474023Y-125086902D01*
X158462723Y-125066201D01*
X158451453Y-125039717D01*
X158439872Y-125006840D01*
X158427639Y-124966960D01*
X158414413Y-124919464D01*
X158407949Y-124895683D01*
X158398909Y-124863794D01*
X158391126Y-124838477D01*
X158384254Y-124818772D01*
X158377949Y-124803718D01*
X158371865Y-124792356D01*
X158365659Y-124783726D01*
X158361043Y-124778972D01*
X158347679Y-124771843D01*
X158333613Y-124772827D01*
X158319875Y-124781966D01*
X158315543Y-124786602D01*
X158311685Y-124793235D01*
X158310765Y-124801836D01*
X158312058Y-124815521D01*
X158312521Y-124818813D01*
X158315092Y-124833401D01*
X158319061Y-124853186D01*
X158323981Y-124875991D01*
X158329401Y-124899638D01*
X158330860Y-124905871D01*
X158337427Y-124933916D01*
X158347354Y-124977733D01*
X158355191Y-125014485D01*
X158361027Y-125044745D01*
X158364950Y-125069085D01*
X158367049Y-125088075D01*
X158367412Y-125102290D01*
X158366127Y-125112299D01*
X158363284Y-125118676D01*
X158358793Y-125122916D01*
X158349799Y-125124183D01*
X158339729Y-125118093D01*
X158329052Y-125105139D01*
X158318240Y-125085813D01*
X158307765Y-125060609D01*
X158300083Y-125041889D01*
X158290156Y-125025094D01*
X158279766Y-125015876D01*
X158268558Y-125013809D01*
X158268506Y-125013815D01*
X158259895Y-125018135D01*
X158256656Y-125028477D01*
X158039469Y-125028477D01*
X158038801Y-125023830D01*
X158032232Y-124994658D01*
X158022509Y-124959763D01*
X158009536Y-124918190D01*
X158009275Y-124917384D01*
X158001345Y-124891970D01*
X157994386Y-124868055D01*
X157988825Y-124847239D01*
X157985090Y-124831118D01*
X157983607Y-124821291D01*
X157983452Y-124815153D01*
X157984187Y-124806518D01*
X157987506Y-124802671D01*
X157994751Y-124801190D01*
X157995875Y-124801086D01*
X158010976Y-124804032D01*
X158026609Y-124814460D01*
X158042128Y-124831662D01*
X158056884Y-124854932D01*
X158070230Y-124883564D01*
X158077057Y-124898815D01*
X158086587Y-124915115D01*
X158095830Y-124925793D01*
X158103891Y-124929624D01*
X158108912Y-124927607D01*
X158116194Y-124921421D01*
X158117819Y-124919542D01*
X158121121Y-124913597D01*
X158121299Y-124905871D01*
X158118619Y-124893296D01*
X158111162Y-124869672D01*
X158097309Y-124840072D01*
X158079862Y-124813552D01*
X158059782Y-124791144D01*
X158038032Y-124773882D01*
X158015576Y-124762797D01*
X157993376Y-124758923D01*
X157988691Y-124759113D01*
X157966272Y-124764661D01*
X157945808Y-124776844D01*
X157929167Y-124794257D01*
X157918213Y-124815494D01*
X157916114Y-124823848D01*
X157915053Y-124837171D01*
X157916269Y-124853644D01*
X157919931Y-124874428D01*
X157926206Y-124900684D01*
X157935261Y-124933574D01*
X157936568Y-124938144D01*
X157947431Y-124977752D01*
X157955418Y-125010633D01*
X157960641Y-125037735D01*
X157963216Y-125060004D01*
X157963255Y-125078388D01*
X157960874Y-125093834D01*
X157956187Y-125107291D01*
X157953160Y-125113348D01*
X157944953Y-125123575D01*
X157933272Y-125129517D01*
X157932662Y-125129715D01*
X157910810Y-125132521D01*
X157889114Y-125127826D01*
X157869942Y-125116129D01*
X157864420Y-125110948D01*
X157853888Y-125098736D01*
X157844079Y-125083632D01*
X157834620Y-125064751D01*
X157825138Y-125041209D01*
X157815257Y-125012124D01*
X157804606Y-124976613D01*
X157792809Y-124933791D01*
X157786793Y-124911534D01*
X157776356Y-124874667D01*
X157767110Y-124844937D01*
X157758734Y-124821670D01*
X157750904Y-124804192D01*
X157743299Y-124791831D01*
X157735596Y-124783912D01*
X157727472Y-124779760D01*
X157718606Y-124778703D01*
X157712424Y-124779226D01*
X157701113Y-124783175D01*
X157693647Y-124791496D01*
X157689906Y-124804848D01*
X157689768Y-124823893D01*
X157693115Y-124849292D01*
X157699824Y-124881707D01*
X157700568Y-124884929D01*
X157705827Y-124907672D01*
X157712119Y-124934861D01*
X157718719Y-124963362D01*
X157724900Y-124990041D01*
X157728695Y-125006938D01*
X157735936Y-125043590D01*
X157740535Y-125074469D01*
X157742443Y-125099059D01*
X157741611Y-125116844D01*
X157737989Y-125127309D01*
X157733351Y-125132478D01*
X157728696Y-125132779D01*
X157720720Y-125128124D01*
X157711030Y-125119818D01*
X157697731Y-125100460D01*
X157686573Y-125073374D01*
X157683042Y-125063324D01*
X157673375Y-125042289D01*
X157662919Y-125027535D01*
X157652228Y-125019731D01*
X157641859Y-125019544D01*
X157638816Y-125021302D01*
X157633110Y-125028495D01*
X157632502Y-125036766D01*
X157173889Y-125036766D01*
X157184670Y-124980429D01*
X157208800Y-124893810D01*
X157240250Y-124811158D01*
X157279003Y-124732508D01*
X157325041Y-124657894D01*
X157378349Y-124587350D01*
X157438907Y-124520910D01*
X157444018Y-124515808D01*
X157491710Y-124470839D01*
X157538574Y-124431885D01*
X157586731Y-124397417D01*
X157638302Y-124365903D01*
X157695410Y-124335813D01*
X157713359Y-124327165D01*
X157791376Y-124294437D01*
X157870264Y-124269382D01*
X157951027Y-124251770D01*
X158034666Y-124241372D01*
X158122186Y-124237957D01*
X158144041Y-124238205D01*
X158232014Y-124244251D01*
X158318099Y-124258180D01*
X158401856Y-124279720D01*
X158482844Y-124308597D01*
X158560624Y-124344536D01*
X158634758Y-124387265D01*
X158704804Y-124436510D01*
X158770325Y-124491997D01*
X158830879Y-124553452D01*
X158886028Y-124620603D01*
X158935332Y-124693175D01*
X158978351Y-124770894D01*
X159010114Y-124842199D01*
X159029083Y-124897190D01*
X159038608Y-124924804D01*
X159059252Y-125008970D01*
X159072089Y-125094166D01*
X159077163Y-125179859D01*
X159074516Y-125265519D01*
X159064192Y-125350613D01*
X159046233Y-125434612D01*
X159020684Y-125516983D01*
X158995035Y-125579146D01*
X158987587Y-125597196D01*
X158946985Y-125674718D01*
G37*
G36*
X161290390Y-121748177D02*
G01*
X161237103Y-121818542D01*
X161177409Y-121883805D01*
X161173498Y-121887680D01*
X161106451Y-121948092D01*
X161035356Y-122001225D01*
X160960262Y-122047052D01*
X160881218Y-122085550D01*
X160798275Y-122116695D01*
X160711482Y-122140462D01*
X160620890Y-122156826D01*
X160619556Y-122157005D01*
X160591236Y-122159687D01*
X160556801Y-122161281D01*
X160518280Y-122161832D01*
X160477702Y-122161385D01*
X160437098Y-122159985D01*
X160398498Y-122157677D01*
X160363930Y-122154505D01*
X160335426Y-122150514D01*
X160258172Y-122133543D01*
X160174870Y-122107515D01*
X160094824Y-122074328D01*
X160018469Y-122034351D01*
X159946236Y-121987956D01*
X159878558Y-121935512D01*
X159815869Y-121877390D01*
X159758600Y-121813960D01*
X159707184Y-121745592D01*
X159662054Y-121672657D01*
X159623642Y-121595525D01*
X159592383Y-121514567D01*
X159575010Y-121458017D01*
X159559913Y-121395974D01*
X159549738Y-121334880D01*
X159544045Y-121272006D01*
X159542394Y-121204624D01*
X159543486Y-121169456D01*
X160317154Y-121169456D01*
X160317684Y-121174529D01*
X160320049Y-121186873D01*
X160324064Y-121205673D01*
X160329544Y-121230115D01*
X160336303Y-121259383D01*
X160344155Y-121292664D01*
X160352915Y-121329142D01*
X160362397Y-121368004D01*
X160377016Y-121427876D01*
X160391857Y-121489706D01*
X160404735Y-121544600D01*
X160415617Y-121592401D01*
X160424468Y-121632951D01*
X160431254Y-121666093D01*
X160435940Y-121691671D01*
X160438492Y-121709525D01*
X160438877Y-121719500D01*
X160438457Y-121722070D01*
X160433469Y-121732545D01*
X160425199Y-121737465D01*
X160415648Y-121735458D01*
X160412360Y-121732866D01*
X160404086Y-121724438D01*
X160395000Y-121713528D01*
X160393362Y-121711354D01*
X160387633Y-121702707D01*
X160382621Y-121692739D01*
X160377658Y-121679754D01*
X160372076Y-121662059D01*
X160365205Y-121637957D01*
X160364590Y-121635971D01*
X160359722Y-121629314D01*
X160349968Y-121627541D01*
X160343935Y-121628345D01*
X160334876Y-121634802D01*
X160330430Y-121647062D01*
X160330642Y-121664326D01*
X160335558Y-121685800D01*
X160345222Y-121710685D01*
X160352716Y-121725182D01*
X160369831Y-121748756D01*
X160389437Y-121765811D01*
X160410631Y-121776135D01*
X160432510Y-121779511D01*
X160454173Y-121775727D01*
X160474716Y-121764568D01*
X160493238Y-121745819D01*
X160500324Y-121736945D01*
X160507604Y-121728891D01*
X160511726Y-121725694D01*
X160512065Y-121725729D01*
X160517761Y-121728423D01*
X160528025Y-121734568D01*
X160540897Y-121743001D01*
X160555763Y-121752376D01*
X160573928Y-121762502D01*
X160589635Y-121769985D01*
X160600038Y-121773866D01*
X160623095Y-121778696D01*
X160645760Y-121777173D01*
X160670898Y-121769272D01*
X160692505Y-121757440D01*
X160714579Y-121739038D01*
X160732932Y-121717118D01*
X160745294Y-121693979D01*
X160749589Y-121679408D01*
X160753888Y-121653155D01*
X160755572Y-121624257D01*
X160754503Y-121595905D01*
X160750546Y-121571291D01*
X160750207Y-121569958D01*
X160737310Y-121531878D01*
X160719106Y-121495621D01*
X160696506Y-121462107D01*
X160670420Y-121432256D01*
X160641757Y-121406990D01*
X160611429Y-121387227D01*
X160580345Y-121373889D01*
X160549415Y-121367896D01*
X160536330Y-121367488D01*
X160514154Y-121370117D01*
X160494844Y-121378175D01*
X160475408Y-121392664D01*
X160456327Y-121409457D01*
X160451835Y-121397666D01*
X160449286Y-121390046D01*
X160444927Y-121374901D01*
X160439748Y-121355327D01*
X160434115Y-121332886D01*
X160428396Y-121309140D01*
X160422956Y-121285649D01*
X160418165Y-121263974D01*
X160414387Y-121245676D01*
X160411992Y-121232317D01*
X160411344Y-121225457D01*
X160412262Y-121220747D01*
X160415453Y-121216732D01*
X160422795Y-121214470D01*
X160436377Y-121212916D01*
X160448937Y-121211062D01*
X160463257Y-121206109D01*
X160471135Y-121199088D01*
X160471650Y-121190581D01*
X160466789Y-121184419D01*
X160454943Y-121177374D01*
X160438149Y-121171162D01*
X160418014Y-121166002D01*
X160396148Y-121162114D01*
X160374160Y-121159718D01*
X160353657Y-121159034D01*
X160336250Y-121160283D01*
X160323546Y-121163684D01*
X160317154Y-121169456D01*
X159543486Y-121169456D01*
X159544145Y-121148228D01*
X159553457Y-121059499D01*
X159568090Y-120986079D01*
X159928120Y-120986079D01*
X159929521Y-121000812D01*
X159935961Y-121021477D01*
X159947507Y-121048374D01*
X159961144Y-121074743D01*
X159974465Y-121094340D01*
X159988393Y-121108218D01*
X160003950Y-121117625D01*
X160007523Y-121119170D01*
X160029823Y-121124895D01*
X160051352Y-121123091D01*
X160072971Y-121113557D01*
X160095538Y-121096091D01*
X160097552Y-121094238D01*
X160107371Y-121085608D01*
X160113620Y-121081802D01*
X160118426Y-121082023D01*
X160123919Y-121085474D01*
X160147189Y-121101658D01*
X160168824Y-121114463D01*
X160185258Y-121121319D01*
X160190718Y-121122566D01*
X160208601Y-121124597D01*
X160228873Y-121124873D01*
X160248013Y-121123441D01*
X160262498Y-121120344D01*
X160287081Y-121108087D01*
X160309592Y-121088768D01*
X160326392Y-121064544D01*
X160336330Y-121036717D01*
X160337862Y-121027560D01*
X160338752Y-121011126D01*
X160337394Y-120992354D01*
X160540977Y-120992354D01*
X160543311Y-121006065D01*
X160549933Y-121025177D01*
X160561011Y-121050457D01*
X160574193Y-121075766D01*
X160590355Y-121098783D01*
X160607604Y-121114517D01*
X160626594Y-121123538D01*
X160647978Y-121126419D01*
X160660369Y-121125609D01*
X160676061Y-121121256D01*
X160691963Y-121112186D01*
X160710350Y-121097338D01*
X160728873Y-121080903D01*
X160753420Y-121098971D01*
X160767527Y-121108246D01*
X160784559Y-121117418D01*
X160799160Y-121123331D01*
X160808960Y-121125894D01*
X160840378Y-121129140D01*
X160869779Y-121124364D01*
X160896803Y-121111660D01*
X160921094Y-121091122D01*
X160927865Y-121083468D01*
X160939251Y-121067544D01*
X160947106Y-121050704D01*
X160951425Y-121032005D01*
X160952200Y-121010501D01*
X160949427Y-120985247D01*
X160943100Y-120955299D01*
X160933212Y-120919712D01*
X160919757Y-120877541D01*
X160909227Y-120845384D01*
X160900999Y-120818813D01*
X160895350Y-120798341D01*
X160892097Y-120783103D01*
X160891056Y-120772235D01*
X160892044Y-120764871D01*
X160894877Y-120760146D01*
X160897548Y-120757984D01*
X160908509Y-120755732D01*
X160922466Y-120760859D01*
X160938994Y-120773239D01*
X160940475Y-120774594D01*
X160946879Y-120781080D01*
X160952824Y-120788630D01*
X160959080Y-120798553D01*
X160966415Y-120812160D01*
X160975600Y-120830759D01*
X160987404Y-120855663D01*
X160988260Y-120857451D01*
X160998035Y-120873418D01*
X161007995Y-120882246D01*
X161017523Y-120883591D01*
X161026004Y-120877113D01*
X161028713Y-120871971D01*
X161029926Y-120861280D01*
X161027091Y-120846696D01*
X161019978Y-120827232D01*
X161008354Y-120801902D01*
X160997456Y-120781985D01*
X160978216Y-120755584D01*
X160957048Y-120735457D01*
X160934675Y-120721889D01*
X160911821Y-120715162D01*
X160889210Y-120715561D01*
X160867564Y-120723369D01*
X160847607Y-120738870D01*
X160837912Y-120749854D01*
X160830429Y-120761497D01*
X160825834Y-120774222D01*
X160824112Y-120789156D01*
X160825248Y-120807427D01*
X160829230Y-120830163D01*
X160836043Y-120858491D01*
X160845672Y-120893540D01*
X160852479Y-120918203D01*
X160862713Y-120959910D01*
X160869253Y-120994813D01*
X160872058Y-121023366D01*
X160871089Y-121046027D01*
X160866304Y-121063252D01*
X160857665Y-121075497D01*
X160845130Y-121083219D01*
X160828661Y-121086873D01*
X160823841Y-121087202D01*
X160801680Y-121084598D01*
X160782141Y-121074709D01*
X160764765Y-121057216D01*
X160749092Y-121031801D01*
X160748700Y-121031028D01*
X160742774Y-121018663D01*
X160737174Y-121005404D01*
X160731504Y-120990053D01*
X160725368Y-120971414D01*
X160718373Y-120948289D01*
X160710121Y-120919480D01*
X160700219Y-120883791D01*
X160699857Y-120882473D01*
X160692434Y-120855935D01*
X160685134Y-120830611D01*
X160678465Y-120808209D01*
X160672934Y-120790440D01*
X160669050Y-120779012D01*
X160661493Y-120762234D01*
X160649479Y-120745313D01*
X160636043Y-120735886D01*
X160621639Y-120734233D01*
X160606722Y-120740634D01*
X160605213Y-120741718D01*
X160600773Y-120745990D01*
X160598578Y-120751812D01*
X160598156Y-120761430D01*
X160599031Y-120777092D01*
X160600654Y-120790503D01*
X160603949Y-120810201D01*
X160608554Y-120834255D01*
X160614109Y-120860797D01*
X160615267Y-120865913D01*
X160620257Y-120887957D01*
X160620885Y-120890622D01*
X160631075Y-120934705D01*
X160639157Y-120971534D01*
X160645241Y-121001845D01*
X160649440Y-121026373D01*
X160651865Y-121045853D01*
X160652629Y-121061022D01*
X160651841Y-121072614D01*
X160649616Y-121081366D01*
X160649553Y-121081527D01*
X160644153Y-121087461D01*
X160636156Y-121086797D01*
X160626572Y-121080428D01*
X160616409Y-121069248D01*
X160606677Y-121054148D01*
X160598383Y-121036023D01*
X160596077Y-121029943D01*
X160586522Y-121007020D01*
X160578090Y-120991165D01*
X160570242Y-120981499D01*
X160562442Y-120977142D01*
X160555075Y-120976538D01*
X160545505Y-120979933D01*
X160542763Y-120983279D01*
X160540977Y-120992354D01*
X160337394Y-120992354D01*
X160337391Y-120992311D01*
X160333579Y-120970057D01*
X160327118Y-120943304D01*
X160317810Y-120910994D01*
X160305455Y-120872068D01*
X160298341Y-120849658D01*
X160291035Y-120824976D01*
X160285234Y-120803470D01*
X160281356Y-120786702D01*
X160279819Y-120776234D01*
X160279661Y-120769408D01*
X160280410Y-120760754D01*
X160283576Y-120756875D01*
X160290351Y-120755415D01*
X160304907Y-120756989D01*
X160321242Y-120766327D01*
X160337226Y-120783347D01*
X160352544Y-120807708D01*
X160366885Y-120839066D01*
X160376409Y-120859266D01*
X160386653Y-120873473D01*
X160396822Y-120880394D01*
X160406435Y-120879537D01*
X160412368Y-120874978D01*
X160416310Y-120865913D01*
X160415572Y-120852386D01*
X160410258Y-120833110D01*
X160398961Y-120804557D01*
X160380009Y-120771747D01*
X160356219Y-120744569D01*
X160349692Y-120738682D01*
X160329435Y-120723816D01*
X160310005Y-120715528D01*
X160289586Y-120712957D01*
X160269472Y-120715386D01*
X160249280Y-120724538D01*
X160230436Y-120741238D01*
X160224086Y-120748845D01*
X160216829Y-120760418D01*
X160212370Y-120773114D01*
X160210725Y-120788047D01*
X160211909Y-120806333D01*
X160215939Y-120829087D01*
X160222831Y-120857426D01*
X160232600Y-120892464D01*
X160235764Y-120903525D01*
X160246594Y-120944120D01*
X160254117Y-120977994D01*
X160258379Y-121005874D01*
X160259424Y-121028485D01*
X160257297Y-121046553D01*
X160252044Y-121060806D01*
X160243708Y-121071968D01*
X160242286Y-121073365D01*
X160233755Y-121079980D01*
X160224073Y-121083038D01*
X160209685Y-121083775D01*
X160195560Y-121082698D01*
X160179764Y-121078091D01*
X160165493Y-121069314D01*
X160152377Y-121055782D01*
X160140045Y-121036911D01*
X160128129Y-121012115D01*
X160116258Y-120980809D01*
X160104062Y-120942408D01*
X160091171Y-120896327D01*
X160085397Y-120874892D01*
X160074236Y-120835208D01*
X160064281Y-120802852D01*
X160055219Y-120777255D01*
X160046739Y-120757847D01*
X160038531Y-120744060D01*
X160030281Y-120735324D01*
X160021680Y-120731071D01*
X160012414Y-120730731D01*
X160002173Y-120733735D01*
X159999802Y-120734822D01*
X159992993Y-120739850D01*
X159988368Y-120747435D01*
X159985957Y-120758352D01*
X159985790Y-120773375D01*
X159987896Y-120793280D01*
X159992306Y-120818843D01*
X159999049Y-120850838D01*
X160008154Y-120890041D01*
X160009415Y-120895329D01*
X160019762Y-120939835D01*
X160027828Y-120977038D01*
X160033694Y-121007558D01*
X160037439Y-121032014D01*
X160039143Y-121051026D01*
X160038887Y-121065214D01*
X160036749Y-121075197D01*
X160032809Y-121081596D01*
X160030390Y-121083854D01*
X160024681Y-121086113D01*
X160017182Y-121082509D01*
X160004596Y-121070532D01*
X159992022Y-121050038D01*
X159980799Y-121022163D01*
X159979020Y-121017084D01*
X159970083Y-120997398D01*
X159960029Y-120982870D01*
X159949666Y-120974226D01*
X159939798Y-120972192D01*
X159931231Y-120977495D01*
X159928120Y-120986079D01*
X159568090Y-120986079D01*
X159570665Y-120973157D01*
X159595635Y-120889515D01*
X159628235Y-120808887D01*
X159668330Y-120731585D01*
X159715789Y-120657922D01*
X159770477Y-120588213D01*
X159832262Y-120522769D01*
X159884449Y-120475623D01*
X159955376Y-120421256D01*
X160030267Y-120374207D01*
X160109013Y-120334529D01*
X160191505Y-120302276D01*
X160277636Y-120277500D01*
X160367296Y-120260255D01*
X160396190Y-120256922D01*
X160434239Y-120254352D01*
X160475905Y-120253027D01*
X160518817Y-120252947D01*
X160560602Y-120254112D01*
X160598890Y-120256525D01*
X160631308Y-120260185D01*
X160676638Y-120267993D01*
X160763828Y-120289088D01*
X160847734Y-120317502D01*
X160927964Y-120352959D01*
X161004127Y-120395179D01*
X161075832Y-120443883D01*
X161142688Y-120498793D01*
X161204305Y-120559631D01*
X161260290Y-120626119D01*
X161310254Y-120697976D01*
X161353805Y-120774925D01*
X161367734Y-120803445D01*
X161392004Y-120861280D01*
X161400486Y-120881492D01*
X161425520Y-120960259D01*
X161443083Y-121040798D01*
X161453425Y-121124156D01*
X161456791Y-121211385D01*
X161456716Y-121225167D01*
X161454406Y-121286665D01*
X161448576Y-121344034D01*
X161438840Y-121400271D01*
X161424809Y-121458370D01*
X161408406Y-121512306D01*
X161376381Y-121594474D01*
X161361473Y-121624257D01*
X161336929Y-121673292D01*
X161290390Y-121748177D01*
G37*
G36*
X165851526Y-121719674D02*
G01*
X165800251Y-121790438D01*
X165742556Y-121856309D01*
X165678712Y-121916864D01*
X165608989Y-121971678D01*
X165582638Y-121990050D01*
X165556740Y-122006927D01*
X165530576Y-122022522D01*
X165501664Y-122038312D01*
X165467518Y-122055775D01*
X165433999Y-122071808D01*
X165392609Y-122089352D01*
X165350700Y-122104354D01*
X165306710Y-122117263D01*
X165259077Y-122128526D01*
X165206238Y-122138592D01*
X165146632Y-122147909D01*
X165142367Y-122148226D01*
X165129919Y-122148567D01*
X165111343Y-122148751D01*
X165087957Y-122148772D01*
X165061080Y-122148627D01*
X165032030Y-122148310D01*
X165028057Y-122148254D01*
X164987646Y-122147391D01*
X164953464Y-122145936D01*
X164923586Y-122143658D01*
X164896086Y-122140330D01*
X164869038Y-122135722D01*
X164840515Y-122129605D01*
X164808592Y-122121750D01*
X164793981Y-122117853D01*
X164717874Y-122092997D01*
X164642343Y-122060968D01*
X164569079Y-122022631D01*
X164499768Y-121978854D01*
X164436099Y-121930504D01*
X164406334Y-121904575D01*
X164344632Y-121843169D01*
X164289032Y-121776821D01*
X164239781Y-121706105D01*
X164197129Y-121631594D01*
X164161322Y-121553863D01*
X164132607Y-121473485D01*
X164111234Y-121391035D01*
X164097449Y-121307087D01*
X164091501Y-121222214D01*
X164092478Y-121183231D01*
X164859697Y-121183231D01*
X164860433Y-121190482D01*
X164862197Y-121200924D01*
X164865129Y-121215257D01*
X164869368Y-121234180D01*
X164875051Y-121258394D01*
X164882317Y-121288598D01*
X164891305Y-121325493D01*
X164902154Y-121369778D01*
X164912085Y-121410427D01*
X164927911Y-121475962D01*
X164941759Y-121534362D01*
X164953595Y-121585475D01*
X164963385Y-121629150D01*
X164971095Y-121665236D01*
X164976690Y-121693582D01*
X164980136Y-121714037D01*
X164980532Y-121729653D01*
X164976500Y-121741306D01*
X164968719Y-121746451D01*
X164958171Y-121744491D01*
X164945837Y-121734832D01*
X164937096Y-121723377D01*
X164927672Y-121707173D01*
X164919362Y-121689494D01*
X164913439Y-121673069D01*
X164911180Y-121660629D01*
X164910595Y-121653630D01*
X164905809Y-121641294D01*
X164897557Y-121633960D01*
X164887482Y-121632697D01*
X164877225Y-121638571D01*
X164872227Y-121644903D01*
X164870006Y-121653450D01*
X164870754Y-121666646D01*
X164872403Y-121677376D01*
X164880721Y-121706347D01*
X164893711Y-121732590D01*
X164910425Y-121754984D01*
X164929913Y-121772409D01*
X164951226Y-121783743D01*
X164973413Y-121787866D01*
X164979323Y-121787551D01*
X164999791Y-121781751D01*
X165019526Y-121769645D01*
X165036194Y-121752545D01*
X165042254Y-121744747D01*
X165049025Y-121736857D01*
X165052600Y-121733808D01*
X165055061Y-121734854D01*
X165062894Y-121739477D01*
X165073704Y-121746537D01*
X165083402Y-121752765D01*
X165100368Y-121762806D01*
X165117020Y-121771882D01*
X165124182Y-121775364D01*
X165152355Y-121784698D01*
X165179432Y-121786171D01*
X165206465Y-121779876D01*
X165225493Y-121771520D01*
X165251734Y-121753877D01*
X165271759Y-121731159D01*
X165285744Y-121703074D01*
X165293862Y-121669326D01*
X165296291Y-121629624D01*
X165296115Y-121617545D01*
X165295195Y-121598867D01*
X165293061Y-121583723D01*
X165289176Y-121568954D01*
X165283003Y-121551402D01*
X165278421Y-121539928D01*
X165259958Y-121503383D01*
X165237184Y-121469753D01*
X165211057Y-121439920D01*
X165182538Y-121414766D01*
X165152588Y-121395173D01*
X165122167Y-121382023D01*
X165092234Y-121376197D01*
X165081236Y-121375803D01*
X165058502Y-121377997D01*
X165038287Y-121385438D01*
X165017294Y-121399137D01*
X165016327Y-121399873D01*
X165004918Y-121407792D01*
X164998056Y-121410508D01*
X164994393Y-121408578D01*
X164994221Y-121408277D01*
X164991519Y-121400964D01*
X164987478Y-121387236D01*
X164982483Y-121368676D01*
X164976914Y-121346868D01*
X164971153Y-121323394D01*
X164965583Y-121299839D01*
X164960586Y-121277783D01*
X164956543Y-121258812D01*
X164953837Y-121244507D01*
X164952851Y-121236452D01*
X164952851Y-121222292D01*
X164978415Y-121220443D01*
X164983198Y-121219999D01*
X165000140Y-121216262D01*
X165010515Y-121210162D01*
X165013888Y-121202477D01*
X165009827Y-121193985D01*
X164997899Y-121185464D01*
X164992668Y-121183061D01*
X164975503Y-121177496D01*
X164954627Y-121172997D01*
X164932001Y-121169748D01*
X164909585Y-121167931D01*
X164889338Y-121167730D01*
X164873220Y-121169326D01*
X164863191Y-121172903D01*
X164862282Y-121173624D01*
X164860760Y-121175502D01*
X164859853Y-121178471D01*
X164859697Y-121183231D01*
X164092478Y-121183231D01*
X164093637Y-121136990D01*
X164099094Y-121081511D01*
X164114146Y-120991881D01*
X164117034Y-120980852D01*
X164537247Y-120980852D01*
X164538030Y-120995761D01*
X164544252Y-121016595D01*
X164555947Y-121043521D01*
X164557722Y-121047177D01*
X164571399Y-121072586D01*
X164584492Y-121091262D01*
X164598029Y-121104466D01*
X164613039Y-121113459D01*
X164615890Y-121114703D01*
X164638353Y-121120663D01*
X164660028Y-121119031D01*
X164681734Y-121109618D01*
X164704294Y-121092231D01*
X164722951Y-121075037D01*
X164750348Y-121093791D01*
X164751926Y-121094860D01*
X164767419Y-121104483D01*
X164782252Y-121112367D01*
X164793411Y-121116894D01*
X164823840Y-121121596D01*
X164855619Y-121118860D01*
X164885566Y-121108436D01*
X164901372Y-121099142D01*
X164923258Y-121079291D01*
X164938322Y-121054672D01*
X164946478Y-121025402D01*
X164947512Y-121011539D01*
X164946444Y-120993136D01*
X164942822Y-120970882D01*
X164936448Y-120943830D01*
X164927129Y-120911035D01*
X164914668Y-120871549D01*
X164911010Y-120860215D01*
X164901892Y-120830427D01*
X164894975Y-120805343D01*
X164890531Y-120785984D01*
X164888827Y-120773374D01*
X164888689Y-120762818D01*
X164889840Y-120755535D01*
X164893680Y-120752443D01*
X164901520Y-120751256D01*
X164906978Y-120751274D01*
X164922271Y-120756993D01*
X164937870Y-120771023D01*
X164953764Y-120793356D01*
X164969944Y-120823980D01*
X164980594Y-120845408D01*
X164990869Y-120862532D01*
X164999835Y-120872790D01*
X165008033Y-120876783D01*
X165016005Y-120875112D01*
X165018257Y-120873578D01*
X165023329Y-120863934D01*
X165023170Y-120848507D01*
X165017841Y-120827805D01*
X165007400Y-120802334D01*
X164990505Y-120771770D01*
X164970646Y-120746050D01*
X164949129Y-120726828D01*
X164926607Y-120714358D01*
X164903732Y-120708893D01*
X164881159Y-120710688D01*
X164859539Y-120719996D01*
X164839526Y-120737072D01*
X164832807Y-120745211D01*
X164825713Y-120756941D01*
X164821395Y-120769977D01*
X164819870Y-120785402D01*
X164821155Y-120804305D01*
X164825269Y-120827769D01*
X164832230Y-120856882D01*
X164842053Y-120892728D01*
X164849048Y-120918173D01*
X164858962Y-120959348D01*
X164865046Y-120993710D01*
X164867249Y-121021666D01*
X164865518Y-121043623D01*
X164859802Y-121059988D01*
X164850048Y-121071169D01*
X164836205Y-121077574D01*
X164818221Y-121079608D01*
X164809977Y-121079285D01*
X164794591Y-121076453D01*
X164780752Y-121070203D01*
X164768093Y-121059937D01*
X164756247Y-121045055D01*
X164744848Y-121024956D01*
X164733527Y-120999041D01*
X164721919Y-120966709D01*
X164709656Y-120927360D01*
X164696370Y-120880394D01*
X164695559Y-120877427D01*
X164683874Y-120835995D01*
X164673482Y-120802140D01*
X164664059Y-120775306D01*
X164655285Y-120754932D01*
X164646837Y-120740464D01*
X164638394Y-120731341D01*
X164629634Y-120727007D01*
X164620234Y-120726903D01*
X164609874Y-120730472D01*
X164607303Y-120731763D01*
X164600953Y-120735989D01*
X164596378Y-120741543D01*
X164593620Y-120749266D01*
X164592718Y-120760002D01*
X164593714Y-120774591D01*
X164596647Y-120793876D01*
X164601559Y-120818699D01*
X164608490Y-120849902D01*
X164617481Y-120888328D01*
X164626528Y-120927443D01*
X164635377Y-120968701D01*
X164641755Y-121002808D01*
X164645710Y-121030193D01*
X164647287Y-121051288D01*
X164646532Y-121066522D01*
X164643493Y-121076326D01*
X164638215Y-121081131D01*
X164636845Y-121081487D01*
X164628291Y-121079163D01*
X164618225Y-121071047D01*
X164608207Y-121058665D01*
X164599796Y-121043543D01*
X164595742Y-121034375D01*
X164587898Y-121016558D01*
X164580393Y-120999435D01*
X164572131Y-120983839D01*
X164561957Y-120972203D01*
X164551735Y-120967962D01*
X164542058Y-120971547D01*
X164541873Y-120971703D01*
X164537247Y-120980852D01*
X164117034Y-120980852D01*
X164136634Y-120906011D01*
X164166567Y-120823884D01*
X164203951Y-120745481D01*
X164248795Y-120670786D01*
X164301105Y-120599780D01*
X164360891Y-120532446D01*
X164364377Y-120528870D01*
X164377973Y-120516155D01*
X165140381Y-120516155D01*
X165140382Y-120516177D01*
X165141380Y-120521600D01*
X165144186Y-120534280D01*
X165148605Y-120553399D01*
X165154443Y-120578138D01*
X165161504Y-120607678D01*
X165169595Y-120641200D01*
X165178520Y-120677886D01*
X165188086Y-120716916D01*
X165195103Y-120745596D01*
X165205406Y-120788211D01*
X165215447Y-120830301D01*
X165223361Y-120863934D01*
X165224931Y-120870607D01*
X165233565Y-120907868D01*
X165241056Y-120940825D01*
X165247111Y-120968217D01*
X165251434Y-120988786D01*
X165253692Y-121000046D01*
X165258484Y-121024296D01*
X165261764Y-121042041D01*
X165263643Y-121054482D01*
X165264231Y-121062822D01*
X165263637Y-121068262D01*
X165261971Y-121072002D01*
X165259343Y-121075244D01*
X165252830Y-121080944D01*
X165246328Y-121083791D01*
X165239340Y-121080741D01*
X165230051Y-121071486D01*
X165220085Y-121057803D01*
X165210499Y-121041501D01*
X165202345Y-121024391D01*
X165196680Y-121008280D01*
X165194557Y-120994978D01*
X165194290Y-120991463D01*
X165190094Y-120979858D01*
X165182469Y-120970787D01*
X165173580Y-120967124D01*
X165166609Y-120968832D01*
X165158798Y-120977038D01*
X165154674Y-120990705D01*
X165154907Y-121008354D01*
X165160443Y-121031980D01*
X165171063Y-121057530D01*
X165185240Y-121080878D01*
X165201718Y-121099979D01*
X165219237Y-121112792D01*
X165220047Y-121113201D01*
X165244351Y-121121873D01*
X165267095Y-121122589D01*
X165288552Y-121115259D01*
X165308995Y-121099791D01*
X165328693Y-121076095D01*
X165335514Y-121066316D01*
X165361053Y-121083656D01*
X165375498Y-121092925D01*
X165393195Y-121103264D01*
X165408302Y-121111103D01*
X165427444Y-121117917D01*
X165455213Y-121121073D01*
X165482542Y-121117017D01*
X165508426Y-121106350D01*
X165531861Y-121089675D01*
X165551844Y-121067594D01*
X165567370Y-121040711D01*
X165577435Y-121009627D01*
X165580599Y-120988645D01*
X165580415Y-120949666D01*
X165573212Y-120910029D01*
X165559607Y-120870849D01*
X165540220Y-120833242D01*
X165515671Y-120798323D01*
X165486577Y-120767209D01*
X165453558Y-120741014D01*
X165417232Y-120720855D01*
X165415526Y-120720115D01*
X165393663Y-120713639D01*
X165367502Y-120711388D01*
X165353689Y-120711718D01*
X165332377Y-120715464D01*
X165313988Y-120724296D01*
X165295433Y-120739417D01*
X165287011Y-120746737D01*
X165281512Y-120749140D01*
X165278051Y-120746529D01*
X165277917Y-120746297D01*
X165275185Y-120739041D01*
X165271109Y-120725339D01*
X165266073Y-120706777D01*
X165260462Y-120684941D01*
X165254659Y-120661416D01*
X165249050Y-120637788D01*
X165244018Y-120615645D01*
X165239948Y-120596570D01*
X165237224Y-120582150D01*
X165236230Y-120573972D01*
X165236765Y-120565748D01*
X165240299Y-120560091D01*
X165249253Y-120557228D01*
X165260854Y-120555485D01*
X165273424Y-120554624D01*
X165280141Y-120553988D01*
X165290337Y-120548986D01*
X165294281Y-120540618D01*
X165291498Y-120530827D01*
X165281512Y-120521560D01*
X165279701Y-120520525D01*
X165263510Y-120514230D01*
X165241375Y-120509109D01*
X165215344Y-120505548D01*
X165187466Y-120503930D01*
X165168468Y-120504126D01*
X165152412Y-120506057D01*
X165143276Y-120510008D01*
X165140381Y-120516155D01*
X164377973Y-120516155D01*
X164430667Y-120466874D01*
X164500975Y-120412164D01*
X164575189Y-120364798D01*
X164653194Y-120324833D01*
X164734879Y-120292328D01*
X164820130Y-120267342D01*
X164908835Y-120249932D01*
X164928992Y-120247277D01*
X164969849Y-120243612D01*
X165014212Y-120241451D01*
X165059744Y-120240809D01*
X165104107Y-120241702D01*
X165144962Y-120244144D01*
X165179971Y-120248152D01*
X165182148Y-120248487D01*
X165273192Y-120266424D01*
X165359715Y-120291336D01*
X165441874Y-120323300D01*
X165519830Y-120362398D01*
X165593740Y-120408708D01*
X165663765Y-120462310D01*
X165730061Y-120523283D01*
X165776021Y-120572704D01*
X165830930Y-120642310D01*
X165878865Y-120716299D01*
X165919638Y-120794301D01*
X165953062Y-120875949D01*
X165978949Y-120960874D01*
X165984692Y-120988645D01*
X165997113Y-121048706D01*
X165999542Y-121065651D01*
X166004103Y-121113633D01*
X166006292Y-121166123D01*
X166006146Y-121220626D01*
X166003705Y-121274651D01*
X165999007Y-121325703D01*
X165992092Y-121371291D01*
X165987014Y-121396177D01*
X165964125Y-121482269D01*
X165933733Y-121565166D01*
X165903142Y-121629624D01*
X165896110Y-121644442D01*
X165851526Y-121719674D01*
G37*
G36*
X164816457Y-128834396D02*
G01*
X164835318Y-128843715D01*
X164854657Y-128859035D01*
X164873437Y-128879590D01*
X164890622Y-128904612D01*
X164895422Y-128913031D01*
X164909692Y-128942755D01*
X164921439Y-128974534D01*
X164930518Y-129007176D01*
X164936785Y-129039490D01*
X164940096Y-129070285D01*
X164940307Y-129098369D01*
X164937272Y-129122549D01*
X164930848Y-129141635D01*
X164920890Y-129154434D01*
X164909179Y-129160821D01*
X164890839Y-129162859D01*
X164869930Y-129157549D01*
X164846940Y-129145034D01*
X164822357Y-129125458D01*
X164812324Y-129115682D01*
X164795218Y-129094377D01*
X164782391Y-129070030D01*
X164772321Y-129040041D01*
X164770504Y-129033157D01*
X164765787Y-129013657D01*
X164760796Y-128991200D01*
X164755895Y-128967630D01*
X164751449Y-128944792D01*
X164747822Y-128924530D01*
X164745379Y-128908690D01*
X164744483Y-128899116D01*
X164744954Y-128892248D01*
X164750782Y-128872808D01*
X164761941Y-128854892D01*
X164776756Y-128840768D01*
X164793550Y-128832705D01*
X164799110Y-128831846D01*
X164816457Y-128834396D01*
G37*
G36*
X162523765Y-124799856D02*
G01*
X162542803Y-124809830D01*
X162561849Y-124825987D01*
X162580332Y-124847810D01*
X162597683Y-124874785D01*
X162613330Y-124906394D01*
X162626705Y-124942124D01*
X162629975Y-124952868D01*
X162638111Y-124986653D01*
X162642880Y-125019147D01*
X162644333Y-125049275D01*
X162642521Y-125075958D01*
X162637496Y-125098120D01*
X162629309Y-125114685D01*
X162618012Y-125124575D01*
X162614501Y-125126162D01*
X162604161Y-125128905D01*
X162592791Y-125127980D01*
X162577216Y-125123287D01*
X162574964Y-125122448D01*
X162555714Y-125112525D01*
X162535268Y-125098130D01*
X162516532Y-125081529D01*
X162502411Y-125064986D01*
X162497280Y-125056586D01*
X162488946Y-125039908D01*
X162482204Y-125023028D01*
X162480583Y-125017899D01*
X162476115Y-125001645D01*
X162471009Y-124980895D01*
X162465646Y-124957445D01*
X162460405Y-124933093D01*
X162455668Y-124909637D01*
X162451813Y-124888872D01*
X162449221Y-124872597D01*
X162448273Y-124862609D01*
X162448755Y-124856731D01*
X162454201Y-124839295D01*
X162464368Y-124821739D01*
X162477582Y-124807231D01*
X162487994Y-124800520D01*
X162505305Y-124796581D01*
X162523765Y-124799856D01*
G37*
G36*
X167653189Y-124803894D02*
G01*
X167673362Y-124814635D01*
X167695030Y-124833517D01*
X167704508Y-124844067D01*
X167722456Y-124869200D01*
X167738284Y-124898140D01*
X167751731Y-124929680D01*
X167762536Y-124962615D01*
X167770441Y-124995742D01*
X167775185Y-125027855D01*
X167776507Y-125057748D01*
X167774147Y-125084218D01*
X167767845Y-125106060D01*
X167757341Y-125122068D01*
X167746055Y-125130540D01*
X167731528Y-125133791D01*
X167731267Y-125133790D01*
X167712732Y-125130239D01*
X167692012Y-125120703D01*
X167670844Y-125106520D01*
X167650961Y-125089024D01*
X167634098Y-125069551D01*
X167621989Y-125049437D01*
X167619439Y-125043395D01*
X167612573Y-125023465D01*
X167605218Y-124997722D01*
X167597817Y-124967905D01*
X167590814Y-124935753D01*
X167584652Y-124903006D01*
X167582325Y-124887671D01*
X167580897Y-124865556D01*
X167583205Y-124848134D01*
X167589616Y-124833481D01*
X167600496Y-124819669D01*
X167616646Y-124806735D01*
X167634340Y-124801269D01*
X167653189Y-124803894D01*
G37*
G36*
X167082845Y-124804146D02*
G01*
X167102779Y-124814555D01*
X167124173Y-124833135D01*
X167144410Y-124856901D01*
X167167600Y-124894677D01*
X167185941Y-124938975D01*
X167199525Y-124989986D01*
X167205310Y-125025501D01*
X167207255Y-125058702D01*
X167204928Y-125086600D01*
X167198386Y-125108545D01*
X167187688Y-125123885D01*
X167174529Y-125131806D01*
X167156816Y-125133671D01*
X167136401Y-125128283D01*
X167113767Y-125115778D01*
X167089396Y-125096291D01*
X167083189Y-125090417D01*
X167070650Y-125076745D01*
X167060075Y-125061838D01*
X167050979Y-125044521D01*
X167042875Y-125023621D01*
X167035280Y-124997964D01*
X167027706Y-124966375D01*
X167019669Y-124927682D01*
X167014681Y-124898641D01*
X167012574Y-124874752D01*
X167013681Y-124855861D01*
X167018092Y-124840562D01*
X167025893Y-124827451D01*
X167030449Y-124821868D01*
X167046816Y-124807810D01*
X167064236Y-124801900D01*
X167082845Y-124804146D01*
G37*
G36*
X160563131Y-121414265D02*
G01*
X160574444Y-121421879D01*
X160590605Y-121437128D01*
X160607163Y-121456794D01*
X160622585Y-121479017D01*
X160635337Y-121501936D01*
X160643073Y-121518786D01*
X160658021Y-121559306D01*
X160667290Y-121600067D01*
X160671769Y-121644559D01*
X160672480Y-121670073D01*
X160671392Y-121692040D01*
X160668036Y-121708386D01*
X160662124Y-121720446D01*
X160653365Y-121729559D01*
X160652660Y-121730100D01*
X160636660Y-121737137D01*
X160617730Y-121736877D01*
X160596504Y-121729535D01*
X160573610Y-121715324D01*
X160549680Y-121694457D01*
X160541575Y-121686045D01*
X160530925Y-121673154D01*
X160522174Y-121659290D01*
X160514691Y-121643000D01*
X160507846Y-121622830D01*
X160501008Y-121597328D01*
X160493548Y-121565041D01*
X160492880Y-121562011D01*
X160486346Y-121531490D01*
X160481773Y-121507664D01*
X160479074Y-121489266D01*
X160478162Y-121475026D01*
X160478949Y-121463677D01*
X160481349Y-121453948D01*
X160485274Y-121444572D01*
X160490971Y-121434530D01*
X160505728Y-121418369D01*
X160523359Y-121409338D01*
X160542836Y-121407836D01*
X160563131Y-121414265D01*
G37*
G36*
X165094128Y-121418095D02*
G01*
X165114579Y-121429322D01*
X165135622Y-121448519D01*
X165150531Y-121466532D01*
X165174627Y-121505330D01*
X165193617Y-121550625D01*
X165207532Y-121602486D01*
X165213080Y-121636148D01*
X165215226Y-121669620D01*
X165213136Y-121697965D01*
X165206870Y-121720466D01*
X165196487Y-121736406D01*
X165195275Y-121737563D01*
X165180861Y-121745381D01*
X165163108Y-121746097D01*
X165142641Y-121739893D01*
X165120082Y-121726948D01*
X165096056Y-121707441D01*
X165088823Y-121700460D01*
X165076437Y-121686424D01*
X165066158Y-121671002D01*
X165057371Y-121652815D01*
X165049463Y-121630485D01*
X165041818Y-121602635D01*
X165033822Y-121567885D01*
X165032303Y-121560820D01*
X165026182Y-121530657D01*
X165022216Y-121507036D01*
X165020322Y-121488728D01*
X165020420Y-121474501D01*
X165022429Y-121463127D01*
X165026267Y-121453375D01*
X165026703Y-121452519D01*
X165040556Y-121432051D01*
X165056693Y-121419479D01*
X165074691Y-121414820D01*
X165094128Y-121418095D01*
G37*
G36*
X165374795Y-120753089D02*
G01*
X165396091Y-120763437D01*
X165415923Y-120780023D01*
X165436673Y-120805275D01*
X165455323Y-120836316D01*
X165471292Y-120871833D01*
X165483998Y-120910515D01*
X165492860Y-120951049D01*
X165497299Y-120992124D01*
X165497317Y-120992479D01*
X165498139Y-121012563D01*
X165498062Y-121026594D01*
X165496817Y-121036796D01*
X165494135Y-121045393D01*
X165489747Y-121054610D01*
X165486244Y-121060638D01*
X165477681Y-121071838D01*
X165469602Y-121078652D01*
X165463556Y-121080961D01*
X165446160Y-121081601D01*
X165425630Y-121075316D01*
X165402620Y-121062359D01*
X165377780Y-121042983D01*
X165372687Y-121038310D01*
X165361373Y-121026046D01*
X165351620Y-121011985D01*
X165342996Y-120995048D01*
X165335068Y-120974156D01*
X165327402Y-120948231D01*
X165319565Y-120916194D01*
X165311125Y-120876968D01*
X165310269Y-120872764D01*
X165305444Y-120845714D01*
X165303312Y-120824679D01*
X165303915Y-120807999D01*
X165307294Y-120794011D01*
X165313488Y-120781055D01*
X165320961Y-120770252D01*
X165336726Y-120756604D01*
X165354839Y-120750847D01*
X165374795Y-120753089D01*
G37*
D11*
X241301179Y-40998484D02*
X240490323Y-37183708D01*
X243257474Y-40582660D02*
X242446618Y-36767885D01*
X243257474Y-40582660D02*
X241301179Y-40998484D01*
X246507474Y-78832660D02*
X245696618Y-75017885D01*
X244551179Y-79248484D02*
X243740323Y-75433708D01*
X246507474Y-78832660D02*
X244551179Y-79248484D01*
X227907474Y-82832660D02*
X227096618Y-79017885D01*
X225951179Y-83248484D02*
X225140323Y-79433708D01*
X227907474Y-82832660D02*
X225951179Y-83248484D01*
X33836525Y-99989740D02*
X33836525Y-96089740D01*
X31836525Y-99989740D02*
X31836525Y-96089740D01*
X33836525Y-99989740D02*
X31836525Y-99989740D01*
X239201179Y-99848484D02*
X238390323Y-96033708D01*
X241157474Y-99432660D02*
X239201179Y-99848484D01*
X241157474Y-99432660D02*
X240346618Y-95617885D01*
X185401179Y-52848484D02*
X184590323Y-49033708D01*
X187357474Y-52432660D02*
X185401179Y-52848484D01*
X187357474Y-52432660D02*
X186546618Y-48617885D01*
X96031028Y-126291996D02*
X97548784Y-119151518D01*
X90651216Y-125148482D02*
X92168972Y-118008004D01*
X92168972Y-118008004D02*
X93293842Y-118247103D01*
X93171871Y-103348484D02*
X91215576Y-102932660D01*
X91215576Y-102932660D02*
X92026432Y-99117885D01*
X93171871Y-103348484D02*
X93982727Y-99533708D01*
X20861525Y-40739740D02*
X20861525Y-36839740D01*
X18861525Y-40739740D02*
X18861525Y-36839740D01*
X20861525Y-40739740D02*
X18861525Y-40739740D01*
X195398784Y-133898482D02*
X193881028Y-126758004D01*
X188501216Y-127901518D02*
X189626086Y-127662420D01*
X190018972Y-135041996D02*
X188501216Y-127901518D01*
X192450000Y-26300000D02*
X185150000Y-26300000D01*
X192450000Y-31800000D02*
X185150000Y-31800000D01*
X185150000Y-31800000D02*
X185150000Y-30650000D01*
X69011525Y-80939740D02*
X67011525Y-80939740D01*
X69011525Y-80939740D02*
X69011525Y-77039740D01*
X67011525Y-80939740D02*
X67011525Y-77039740D01*
X125071871Y-90648484D02*
X125882727Y-86833708D01*
X123115576Y-90232660D02*
X123926432Y-86417885D01*
X125071871Y-90648484D02*
X123115576Y-90232660D01*
D12*
X177211525Y-30989740D02*
X177211525Y-25989740D01*
X174711525Y-30989740D02*
X177211525Y-30989740D01*
X177211525Y-25989740D02*
X174711525Y-25989740D01*
X174711525Y-25989740D02*
X174711525Y-30989740D01*
D11*
X161237252Y-80435262D02*
X161007047Y-80665467D01*
X160516003Y-79714013D02*
X160285798Y-79944218D01*
X96228570Y-31650000D02*
X88928570Y-31650000D01*
X88928570Y-31650000D02*
X88928570Y-30500000D01*
X96228570Y-26150000D02*
X88928570Y-26150000D01*
X42461525Y-61889740D02*
X42461525Y-57989740D01*
X44461525Y-61889740D02*
X44461525Y-57989740D01*
X44461525Y-61889740D02*
X42461525Y-61889740D01*
X55261525Y-99989740D02*
X53261525Y-99989740D01*
X53261525Y-99989740D02*
X53261525Y-96089740D01*
X55261525Y-99989740D02*
X55261525Y-96089740D01*
X235951179Y-61598484D02*
X235140323Y-57783708D01*
X237907474Y-61182660D02*
X235951179Y-61598484D01*
X237907474Y-61182660D02*
X237096618Y-57367885D01*
X87121871Y-63098484D02*
X87932727Y-59283708D01*
X87121871Y-63098484D02*
X85165576Y-62682660D01*
X85165576Y-62682660D02*
X85976432Y-58867885D01*
X319211525Y-42839740D02*
X317211525Y-42839740D01*
X319211525Y-42839740D02*
X319211525Y-38939740D01*
X317211525Y-42839740D02*
X317211525Y-38939740D01*
X74311525Y-99989740D02*
X74311525Y-96089740D01*
X72311525Y-99989740D02*
X72311525Y-96089740D01*
X74311525Y-99989740D02*
X72311525Y-99989740D01*
X328050000Y-31650000D02*
X320750000Y-31650000D01*
X320750000Y-31650000D02*
X320750000Y-30500000D01*
X328050000Y-26150000D02*
X320750000Y-26150000D01*
X41986525Y-43033490D02*
X41986525Y-39133490D01*
X43986525Y-43033490D02*
X43986525Y-39133490D01*
X43986525Y-43033490D02*
X41986525Y-43033490D01*
X4650000Y-81283332D02*
X4650000Y-82433332D01*
X-2650000Y-81283332D02*
X4650000Y-81283332D01*
X-2650000Y-86783332D02*
X4650000Y-86783332D01*
X187570000Y-38950000D02*
X187570000Y-36050000D01*
X187570000Y-38950000D02*
X187080000Y-39440000D01*
X182130000Y-36050000D02*
X182620000Y-35560000D01*
X182130000Y-38950000D02*
X182620000Y-39440000D01*
X182130000Y-38950000D02*
X182130000Y-36050000D01*
X183810000Y-34780000D02*
X185890000Y-34780000D01*
X183810000Y-40220000D02*
X185890000Y-40220000D01*
X187570000Y-36050000D02*
X187080000Y-35560000D01*
X329750000Y-104150000D02*
X322450000Y-104150000D01*
X329750000Y-109650000D02*
X322450000Y-109650000D01*
X322450000Y-109650000D02*
X322450000Y-108500000D01*
X154196871Y-135798484D02*
X155007727Y-131983708D01*
X154196871Y-135798484D02*
X152240576Y-135382660D01*
X152240576Y-135382660D02*
X153051432Y-131567885D01*
X-2900000Y-25250000D02*
X-2900000Y-32550000D01*
X2600000Y-32550000D02*
X1450000Y-32550000D01*
X2600000Y-25250000D02*
X2600000Y-32550000D01*
X183460000Y-31812779D02*
X183460000Y-31487221D01*
X182440000Y-31812779D02*
X182440000Y-31487221D01*
X164360030Y-93988781D02*
X164161219Y-93789970D01*
X163638781Y-94710030D02*
X163439970Y-94511219D01*
X106471871Y-86698484D02*
X104515576Y-86282660D01*
X106471871Y-86698484D02*
X107282727Y-82883708D01*
X104515576Y-86282660D02*
X105326432Y-82467885D01*
X88396871Y-123323484D02*
X86440576Y-122907660D01*
X88396871Y-123323484D02*
X89207727Y-119508708D01*
X86440576Y-122907660D02*
X87251432Y-119092885D01*
X190557474Y-90732660D02*
X189746618Y-86917885D01*
X190557474Y-90732660D02*
X188601179Y-91148484D01*
X188601179Y-91148484D02*
X187790323Y-87333708D01*
X155824538Y-81279267D02*
X156337190Y-80766615D01*
X156337190Y-90977237D02*
X155824538Y-90464585D01*
X151231879Y-85871926D02*
X151744531Y-86384578D01*
X161442501Y-85871926D02*
X160929849Y-85359274D01*
X160929849Y-86384578D02*
X161442501Y-85871926D01*
X151744531Y-85359274D02*
X151231879Y-85871926D01*
X156849842Y-90464585D02*
X156337190Y-90977237D01*
X231321425Y-26150000D02*
X224021425Y-26150000D01*
X224021425Y-31650000D02*
X224021425Y-30500000D01*
X231321425Y-31650000D02*
X224021425Y-31650000D01*
X222507474Y-103432660D02*
X220551179Y-103848484D01*
X220551179Y-103848484D02*
X219740323Y-100033708D01*
X222507474Y-103432660D02*
X221696618Y-99617885D01*
X137571871Y-54498484D02*
X138382727Y-50683708D01*
X137571871Y-54498484D02*
X135615576Y-54082660D01*
X135615576Y-54082660D02*
X136426432Y-50267885D01*
X185307474Y-111332660D02*
X183351179Y-111748484D01*
X183351179Y-111748484D02*
X182540323Y-107933708D01*
X185307474Y-111332660D02*
X184496618Y-107517885D01*
X148985798Y-87835262D02*
X149216003Y-88065467D01*
X149707047Y-87114013D02*
X149937252Y-87344218D01*
X42811525Y-80939740D02*
X42811525Y-77039740D01*
X42811525Y-80939740D02*
X40811525Y-80939740D01*
X40811525Y-80939740D02*
X40811525Y-77039740D01*
X203601179Y-126923484D02*
X202790323Y-123108708D01*
X205557474Y-126507660D02*
X204746618Y-122692885D01*
X205557474Y-126507660D02*
X203601179Y-126923484D01*
X222651179Y-45048484D02*
X221840323Y-41233708D01*
X224607474Y-44632660D02*
X223796618Y-40817885D01*
X224607474Y-44632660D02*
X222651179Y-45048484D01*
X100571871Y-46498484D02*
X101382727Y-42683708D01*
X100571871Y-46498484D02*
X98615576Y-46082660D01*
X98615576Y-46082660D02*
X99426432Y-42267885D01*
X328250000Y-52150000D02*
X320950000Y-52150000D01*
X320950000Y-57650000D02*
X320950000Y-56500000D01*
X328250000Y-57650000D02*
X320950000Y-57650000D01*
X128465576Y-110832660D02*
X129276432Y-107017885D01*
X130421871Y-111248484D02*
X128465576Y-110832660D01*
X130421871Y-111248484D02*
X131232727Y-107433708D01*
X150627047Y-85215467D02*
X150857252Y-84985262D01*
X149905798Y-84494218D02*
X150136003Y-84264013D01*
X281161525Y-42889740D02*
X279161525Y-42889740D01*
X281161525Y-42889740D02*
X281161525Y-38989740D01*
X279161525Y-42889740D02*
X279161525Y-38989740D01*
X231248784Y-126248482D02*
X229731028Y-119108004D01*
X225868972Y-127391996D02*
X224351216Y-120251518D01*
X224351216Y-120251518D02*
X225476086Y-120012420D01*
X313261525Y-99989740D02*
X313261525Y-96089740D01*
X315261525Y-99989740D02*
X313261525Y-99989740D01*
X315261525Y-99989740D02*
X315261525Y-96089740D01*
X137908004Y-135231028D02*
X145048482Y-136748784D01*
X146191996Y-131368972D02*
X145952897Y-132493842D01*
X139051518Y-129851216D02*
X146191996Y-131368972D01*
X209257474Y-86782660D02*
X207301179Y-87198484D01*
X209257474Y-86782660D02*
X208446618Y-82967885D01*
X207301179Y-87198484D02*
X206490323Y-83383708D01*
X260411525Y-99989740D02*
X258411525Y-99989740D01*
X258411525Y-99989740D02*
X258411525Y-96089740D01*
X260411525Y-99989740D02*
X260411525Y-96089740D01*
X182007474Y-73082660D02*
X180051179Y-73498484D01*
X182007474Y-73082660D02*
X181196618Y-69267885D01*
X180051179Y-73498484D02*
X179240323Y-69683708D01*
X48450000Y-120630000D02*
X48450000Y-113330000D01*
X53950000Y-120630000D02*
X53950000Y-113330000D01*
X48450000Y-113330000D02*
X49600000Y-113330000D01*
X16711525Y-59739740D02*
X16711525Y-55839740D01*
X16711525Y-59739740D02*
X14711525Y-59739740D01*
X14711525Y-59739740D02*
X14711525Y-55839740D01*
X300211525Y-42839740D02*
X298211525Y-42839740D01*
X300211525Y-42839740D02*
X300211525Y-38939740D01*
X298211525Y-42839740D02*
X298211525Y-38939740D01*
X143721871Y-94598484D02*
X141765576Y-94182660D01*
X143721871Y-94598484D02*
X144532727Y-90783708D01*
X141765576Y-94182660D02*
X142576432Y-90367885D01*
X3560000Y-118990000D02*
X3560000Y-111690000D01*
X-1940000Y-118990000D02*
X-1940000Y-111690000D01*
X-1940000Y-111690000D02*
X-790000Y-111690000D01*
X154408630Y-57918716D02*
X155219486Y-54103941D01*
X156364925Y-58334540D02*
X154408630Y-57918716D01*
X156364925Y-58334540D02*
X157175781Y-54519764D01*
X329050000Y-78150000D02*
X321750000Y-78150000D01*
X329050000Y-83650000D02*
X321750000Y-83650000D01*
X321750000Y-83650000D02*
X321750000Y-82500000D01*
X284685710Y-31650000D02*
X277385710Y-31650000D01*
X284685710Y-26150000D02*
X277385710Y-26150000D01*
X277385710Y-31650000D02*
X277385710Y-30500000D01*
X284811525Y-80939740D02*
X282811525Y-80939740D01*
X284811525Y-80939740D02*
X284811525Y-77039740D01*
X282811525Y-80939740D02*
X282811525Y-77039740D01*
X121621871Y-128848484D02*
X122432727Y-125033708D01*
X121621871Y-128848484D02*
X119665576Y-128432660D01*
X119665576Y-128432660D02*
X120476432Y-124617885D01*
X292861525Y-61889740D02*
X292861525Y-57989740D01*
X294861525Y-61889740D02*
X292861525Y-61889740D01*
X294861525Y-61889740D02*
X294861525Y-57989740D01*
X87821871Y-82748484D02*
X88632727Y-78933708D01*
X87821871Y-82748484D02*
X85865576Y-82332660D01*
X85865576Y-82332660D02*
X86676432Y-78517885D01*
X219257474Y-65182660D02*
X218446618Y-61367885D01*
X219257474Y-65182660D02*
X217301179Y-65598484D01*
X217301179Y-65598484D02*
X216490323Y-61783708D01*
X61036525Y-43033490D02*
X61036525Y-39133490D01*
X63036525Y-43033490D02*
X61036525Y-43033490D01*
X63036525Y-43033490D02*
X63036525Y-39133490D01*
X203907474Y-107382660D02*
X203096618Y-103567885D01*
X203907474Y-107382660D02*
X201951179Y-107798484D01*
X201951179Y-107798484D02*
X201140323Y-103983708D01*
X49864285Y-26150000D02*
X42564285Y-26150000D01*
X49864285Y-31650000D02*
X42564285Y-31650000D01*
X42564285Y-31650000D02*
X42564285Y-30500000D01*
X329911525Y-99989740D02*
X329911525Y-96089740D01*
X329911525Y-99989740D02*
X327911525Y-99989740D01*
X327911525Y-99989740D02*
X327911525Y-96089740D01*
X205957474Y-48582660D02*
X205146618Y-44767885D01*
X205957474Y-48582660D02*
X204001179Y-48998484D01*
X204001179Y-48998484D02*
X203190323Y-45183708D01*
D10*
X162081612Y-31414740D02*
X162081612Y-34314740D01*
X163381612Y-31414740D02*
X163381612Y-34314740D01*
X162081612Y-31414740D02*
X163381612Y-31414740D01*
X163381612Y-34314740D02*
X162081612Y-34314740D01*
D11*
X279511525Y-99989740D02*
X277511525Y-99989740D01*
X279511525Y-99989740D02*
X279511525Y-96089740D01*
X277511525Y-99989740D02*
X277511525Y-96089740D01*
X245982474Y-119457660D02*
X244026179Y-119873484D01*
X244026179Y-119873484D02*
X243215323Y-116058708D01*
X245982474Y-119457660D02*
X245171618Y-115642885D01*
X255161525Y-60789740D02*
X255161525Y-56889740D01*
X257161525Y-60789740D02*
X255161525Y-60789740D01*
X257161525Y-60789740D02*
X257161525Y-56889740D01*
X273761525Y-61889740D02*
X273761525Y-57989740D01*
X275761525Y-61889740D02*
X275761525Y-57989740D01*
X275761525Y-61889740D02*
X273761525Y-61889740D01*
X283021426Y-120450000D02*
X283021426Y-113150000D01*
X277521426Y-120450000D02*
X277521426Y-113150000D01*
X277521426Y-113150000D02*
X278671426Y-113150000D01*
X265811525Y-80939740D02*
X263811525Y-80939740D01*
X265811525Y-80939740D02*
X265811525Y-77039740D01*
X263811525Y-80939740D02*
X263811525Y-77039740D01*
X124421871Y-70998484D02*
X122465576Y-70582660D01*
X124421871Y-70998484D02*
X125232727Y-67183708D01*
X122465576Y-70582660D02*
X123276432Y-66767885D01*
X12611525Y-78789740D02*
X12611525Y-74889740D01*
X12611525Y-78789740D02*
X10611525Y-78789740D01*
X10611525Y-78789740D02*
X10611525Y-74889740D01*
X159651524Y-76665019D02*
X159651524Y-76339461D01*
X160671524Y-76665019D02*
X160671524Y-76339461D01*
X157456891Y-29639740D02*
X157131333Y-29639740D01*
X157456891Y-30659740D02*
X157131333Y-30659740D01*
X159681695Y-91057227D02*
X162510122Y-88228800D01*
X162015148Y-93390680D02*
X159681695Y-91057227D01*
X105821871Y-67098484D02*
X106632727Y-63283708D01*
X103865576Y-66682660D02*
X104676432Y-62867885D01*
X105821871Y-67098484D02*
X103865576Y-66682660D01*
X149121871Y-115198484D02*
X147165576Y-114782660D01*
X147165576Y-114782660D02*
X147976432Y-110967885D01*
X149121871Y-115198484D02*
X149932727Y-111383708D01*
X315761525Y-80939740D02*
X313761525Y-80939740D01*
X313761525Y-80939740D02*
X313761525Y-77039740D01*
X315761525Y-80939740D02*
X315761525Y-77039740D01*
X159071525Y-76339461D02*
X159071525Y-76665019D01*
X158051525Y-76339461D02*
X158051525Y-76665019D01*
X2350000Y-53716666D02*
X2350000Y-54866666D01*
X-4950000Y-53716666D02*
X2350000Y-53716666D01*
X-4950000Y-59216666D02*
X2350000Y-59216666D01*
X318661525Y-61889740D02*
X318661525Y-57989740D01*
X316661525Y-61889740D02*
X316661525Y-57989740D01*
X318661525Y-61889740D02*
X316661525Y-61889740D01*
X36211525Y-119039740D02*
X36211525Y-115139740D01*
X34211525Y-119039740D02*
X34211525Y-115139740D01*
X36211525Y-119039740D02*
X34211525Y-119039740D01*
X157991525Y-37281804D02*
X157991525Y-36077676D01*
X159811525Y-37281804D02*
X159811525Y-36077676D01*
X119071871Y-50498484D02*
X117115576Y-50082660D01*
X117115576Y-50082660D02*
X117926432Y-46267885D01*
X119071871Y-50498484D02*
X119882727Y-46683708D01*
X111821871Y-107248484D02*
X112632727Y-103433708D01*
X109865576Y-106832660D02*
X110676432Y-103017885D01*
X111821871Y-107248484D02*
X109865576Y-106832660D01*
X262511525Y-40689740D02*
X262511525Y-36789740D01*
X260511525Y-40689740D02*
X260511525Y-36789740D01*
X262511525Y-40689740D02*
X260511525Y-40689740D01*
X168006333Y-30659740D02*
X168331891Y-30659740D01*
X168006333Y-29639740D02*
X168331891Y-29639740D01*
X164456003Y-87104013D02*
X164225798Y-87334218D01*
X165177252Y-87825262D02*
X164947047Y-88055467D01*
X154884099Y-80238415D02*
X154653894Y-80468620D01*
X154162850Y-79517166D02*
X153932645Y-79747371D01*
X155107047Y-91414013D02*
X155337252Y-91644218D01*
X154385798Y-92135262D02*
X154616003Y-92365467D01*
X166258038Y-92136789D02*
X166059227Y-91937978D01*
X165536789Y-92858038D02*
X165337978Y-92659227D01*
X143021871Y-74948484D02*
X141065576Y-74532660D01*
X143021871Y-74948484D02*
X143832727Y-71133708D01*
X141065576Y-74532660D02*
X141876432Y-70717885D01*
X161285798Y-81644218D02*
X161516003Y-81414013D01*
X162007047Y-82365467D02*
X162237252Y-82135262D01*
X79561525Y-40839740D02*
X79561525Y-36939740D01*
X81561525Y-40839740D02*
X81561525Y-36939740D01*
X81561525Y-40839740D02*
X79561525Y-40839740D01*
X142592855Y-31650000D02*
X135292855Y-31650000D01*
X135292855Y-31650000D02*
X135292855Y-30500000D01*
X142592855Y-26150000D02*
X135292855Y-26150000D01*
X66311525Y-61889740D02*
X66311525Y-57989740D01*
X68311525Y-61889740D02*
X66311525Y-61889740D01*
X68311525Y-61889740D02*
X68311525Y-57989740D01*
X323411525Y-119089740D02*
X323411525Y-115189740D01*
X323411525Y-119089740D02*
X321411525Y-119089740D01*
X321411525Y-119089740D02*
X321411525Y-115189740D01*
X200557474Y-69132660D02*
X199746618Y-65317885D01*
X200557474Y-69132660D02*
X198601179Y-69548484D01*
X198601179Y-69548484D02*
X197790323Y-65733708D01*
M02*
