G04 #@! TF.GenerationSoftware,KiCad,Pcbnew,(5.99.0-11539-gc946070005)*
G04 #@! TF.CreationDate,2021-11-17T21:04:03-06:00*
G04 #@! TF.ProjectId,aliceq,616c6963-6571-42e6-9b69-6361645f7063,rev?*
G04 #@! TF.SameCoordinates,Original*
G04 #@! TF.FileFunction,Legend,Top*
G04 #@! TF.FilePolarity,Positive*
%FSLAX46Y46*%
G04 Gerber Fmt 4.6, Leading zero omitted, Abs format (unit mm)*
G04 Created by KiCad (PCBNEW (5.99.0-11539-gc946070005)) date 2021-11-17 21:04:03*
%MOMM*%
%LPD*%
G01*
G04 APERTURE LIST*
%ADD10C,0.150000*%
%ADD11C,0.120000*%
G04 APERTURE END LIST*
D10*
X-5164285Y-108622166D02*
X-5164285Y-107622166D01*
X-4926190Y-107622166D01*
X-4783333Y-107669786D01*
X-4688095Y-107765024D01*
X-4640476Y-107860262D01*
X-4592857Y-108050738D01*
X-4592857Y-108193595D01*
X-4640476Y-108384071D01*
X-4688095Y-108479309D01*
X-4783333Y-108574547D01*
X-4926190Y-108622166D01*
X-5164285Y-108622166D01*
X-4116666Y-108622166D02*
X-3926190Y-108622166D01*
X-3830952Y-108574547D01*
X-3783333Y-108526928D01*
X-3688095Y-108384071D01*
X-3640476Y-108193595D01*
X-3640476Y-107812643D01*
X-3688095Y-107717405D01*
X-3735714Y-107669786D01*
X-3830952Y-107622166D01*
X-4021428Y-107622166D01*
X-4116666Y-107669786D01*
X-4164285Y-107717405D01*
X-4211904Y-107812643D01*
X-4211904Y-108050738D01*
X-4164285Y-108145976D01*
X-4116666Y-108193595D01*
X-4021428Y-108241214D01*
X-3830952Y-108241214D01*
X-3735714Y-108193595D01*
X-3688095Y-108145976D01*
X-3640476Y-108050738D01*
X-3259523Y-107717405D02*
X-3211904Y-107669786D01*
X-3116666Y-107622166D01*
X-2878571Y-107622166D01*
X-2783333Y-107669786D01*
X-2735714Y-107717405D01*
X-2688095Y-107812643D01*
X-2688095Y-107907881D01*
X-2735714Y-108050738D01*
X-3307142Y-108622166D01*
X-2688095Y-108622166D01*
D11*
X-5885714Y-110059071D02*
X-6314285Y-110059071D01*
X-6100000Y-110059071D02*
X-6100000Y-109309071D01*
X-6171428Y-109416214D01*
X-6242857Y-109487643D01*
X-6314285Y-109523357D01*
D10*
X-5164285Y-113122169D02*
X-5164285Y-112122169D01*
X-4926190Y-112122169D01*
X-4783333Y-112169789D01*
X-4688095Y-112265027D01*
X-4640476Y-112360265D01*
X-4592857Y-112550741D01*
X-4592857Y-112693598D01*
X-4640476Y-112884074D01*
X-4688095Y-112979312D01*
X-4783333Y-113074550D01*
X-4926190Y-113122169D01*
X-5164285Y-113122169D01*
X-4116666Y-113122169D02*
X-3926190Y-113122169D01*
X-3830952Y-113074550D01*
X-3783333Y-113026931D01*
X-3688095Y-112884074D01*
X-3640476Y-112693598D01*
X-3640476Y-112312646D01*
X-3688095Y-112217408D01*
X-3735714Y-112169789D01*
X-3830952Y-112122169D01*
X-4021428Y-112122169D01*
X-4116666Y-112169789D01*
X-4164285Y-112217408D01*
X-4211904Y-112312646D01*
X-4211904Y-112550741D01*
X-4164285Y-112645979D01*
X-4116666Y-112693598D01*
X-4021428Y-112741217D01*
X-3830952Y-112741217D01*
X-3735714Y-112693598D01*
X-3688095Y-112645979D01*
X-3640476Y-112550741D01*
X-2688095Y-113122169D02*
X-3259523Y-113122169D01*
X-2973809Y-113122169D02*
X-2973809Y-112122169D01*
X-3069047Y-112265027D01*
X-3164285Y-112360265D01*
X-3259523Y-112407884D01*
D11*
X-5885714Y-114559074D02*
X-6314285Y-114559074D01*
X-6100000Y-114559074D02*
X-6100000Y-113809074D01*
X-6171428Y-113916217D01*
X-6242857Y-113987646D01*
X-6314285Y-114023360D01*
D10*
X-5164285Y-117622171D02*
X-5164285Y-116622171D01*
X-4926190Y-116622171D01*
X-4783333Y-116669791D01*
X-4688095Y-116765029D01*
X-4640476Y-116860267D01*
X-4592857Y-117050743D01*
X-4592857Y-117193600D01*
X-4640476Y-117384076D01*
X-4688095Y-117479314D01*
X-4783333Y-117574552D01*
X-4926190Y-117622171D01*
X-5164285Y-117622171D01*
X-4116666Y-117622171D02*
X-3926190Y-117622171D01*
X-3830952Y-117574552D01*
X-3783333Y-117526933D01*
X-3688095Y-117384076D01*
X-3640476Y-117193600D01*
X-3640476Y-116812648D01*
X-3688095Y-116717410D01*
X-3735714Y-116669791D01*
X-3830952Y-116622171D01*
X-4021428Y-116622171D01*
X-4116666Y-116669791D01*
X-4164285Y-116717410D01*
X-4211904Y-116812648D01*
X-4211904Y-117050743D01*
X-4164285Y-117145981D01*
X-4116666Y-117193600D01*
X-4021428Y-117241219D01*
X-3830952Y-117241219D01*
X-3735714Y-117193600D01*
X-3688095Y-117145981D01*
X-3640476Y-117050743D01*
X-3021428Y-116622171D02*
X-2926190Y-116622171D01*
X-2830952Y-116669791D01*
X-2783333Y-116717410D01*
X-2735714Y-116812648D01*
X-2688095Y-117003124D01*
X-2688095Y-117241219D01*
X-2735714Y-117431695D01*
X-2783333Y-117526933D01*
X-2830952Y-117574552D01*
X-2926190Y-117622171D01*
X-3021428Y-117622171D01*
X-3116666Y-117574552D01*
X-3164285Y-117526933D01*
X-3211904Y-117431695D01*
X-3259523Y-117241219D01*
X-3259523Y-117003124D01*
X-3211904Y-116812648D01*
X-3164285Y-116717410D01*
X-3116666Y-116669791D01*
X-3021428Y-116622171D01*
D11*
X-5885714Y-119059076D02*
X-6314285Y-119059076D01*
X-6100000Y-119059076D02*
X-6100000Y-118309076D01*
X-6171428Y-118416219D01*
X-6242857Y-118487648D01*
X-6314285Y-118523362D01*
X-5850000Y-111769786D02*
X-2050000Y-111769786D01*
X-5850000Y-111769786D02*
X-5850000Y-111019786D01*
X-5850000Y-108969786D02*
X-2050000Y-108969786D01*
X-5850000Y-113469789D02*
X-2050000Y-113469789D01*
X-5850000Y-116269789D02*
X-5850000Y-115519789D01*
X-5850000Y-116269789D02*
X-2050000Y-116269789D01*
X-5850000Y-120769791D02*
X-5850000Y-120019791D01*
X-5850000Y-120769791D02*
X-2050000Y-120769791D01*
X-5850000Y-117969791D02*
X-2050000Y-117969791D01*
G36*
X270180786Y-106671562D02*
G01*
X270222960Y-106642943D01*
X270318510Y-106584236D01*
X270462827Y-106498073D01*
X270651302Y-106387083D01*
X270879326Y-106253899D01*
X271142290Y-106101150D01*
X271435584Y-105931467D01*
X271754600Y-105747482D01*
X272094728Y-105551824D01*
X272451359Y-105347126D01*
X272819885Y-105136017D01*
X273195695Y-104921129D01*
X273574181Y-104705092D01*
X273950734Y-104490537D01*
X274320745Y-104280096D01*
X274679604Y-104076398D01*
X275022702Y-103882075D01*
X275345431Y-103699757D01*
X275643181Y-103532075D01*
X275911343Y-103381661D01*
X276145307Y-103251144D01*
X276340466Y-103143157D01*
X276492209Y-103060328D01*
X276595927Y-103005291D01*
X276647012Y-102980674D01*
X276647300Y-102980569D01*
X276815367Y-102940106D01*
X277022484Y-102919816D01*
X277244308Y-102919526D01*
X277456495Y-102939061D01*
X277634702Y-102978245D01*
X277662634Y-102987868D01*
X277716495Y-103013557D01*
X277822289Y-103069286D01*
X277975473Y-103152464D01*
X278171507Y-103260501D01*
X278405848Y-103390805D01*
X278673955Y-103540787D01*
X278971286Y-103707855D01*
X279293300Y-103889418D01*
X279635454Y-104082886D01*
X279993208Y-104285669D01*
X280362020Y-104495175D01*
X280737347Y-104708814D01*
X281114648Y-104923996D01*
X281489382Y-105138128D01*
X281857007Y-105348622D01*
X282212982Y-105552885D01*
X282552763Y-105748328D01*
X282871811Y-105932360D01*
X283165583Y-106102389D01*
X283429538Y-106255826D01*
X283659133Y-106390079D01*
X283849828Y-106502558D01*
X283997081Y-106590672D01*
X284096349Y-106651830D01*
X284143092Y-106683443D01*
X284145793Y-106686062D01*
X284184205Y-106784457D01*
X284183045Y-106903245D01*
X284145122Y-107011473D01*
X284112503Y-107052658D01*
X284071258Y-107080775D01*
X283976691Y-107139047D01*
X283833423Y-107224828D01*
X283646071Y-107335474D01*
X283419254Y-107468341D01*
X283157591Y-107620783D01*
X282865701Y-107790156D01*
X282548202Y-107973814D01*
X282209714Y-108169114D01*
X281854855Y-108373411D01*
X281488243Y-108584059D01*
X281114498Y-108798414D01*
X280738237Y-109013831D01*
X280364081Y-109227665D01*
X279996647Y-109437273D01*
X279640555Y-109640008D01*
X279300423Y-109833226D01*
X278980869Y-110014282D01*
X278686514Y-110180532D01*
X278421974Y-110329331D01*
X278191870Y-110458035D01*
X278000819Y-110563997D01*
X277853441Y-110644574D01*
X277754354Y-110697121D01*
X277712569Y-110717360D01*
X277514897Y-110775432D01*
X277282254Y-110808293D01*
X277041907Y-110814388D01*
X276821118Y-110792163D01*
X276737095Y-110772984D01*
X276622866Y-110737771D01*
X276525147Y-110702373D01*
X276487423Y-110685659D01*
X276410375Y-110644270D01*
X276283744Y-110574156D01*
X276112087Y-110477933D01*
X275899960Y-110358220D01*
X275651921Y-110217634D01*
X275372527Y-110058793D01*
X275066334Y-109884314D01*
X274737899Y-109696815D01*
X274391780Y-109498914D01*
X274032533Y-109293228D01*
X273664715Y-109082375D01*
X273292883Y-108868974D01*
X272921594Y-108655640D01*
X272555405Y-108444993D01*
X272198873Y-108239649D01*
X271856555Y-108042226D01*
X271533007Y-107855343D01*
X271232788Y-107681616D01*
X270960452Y-107523664D01*
X270720559Y-107384103D01*
X270517663Y-107265553D01*
X270356323Y-107170629D01*
X270241095Y-107101951D01*
X270176537Y-107062135D01*
X270164141Y-107053340D01*
X270114801Y-106953304D01*
X270107718Y-106833395D01*
X270136780Y-106738041D01*
X271707985Y-106738041D01*
X271717103Y-106790463D01*
X271754405Y-106845828D01*
X271796754Y-106879791D01*
X271894170Y-106943956D01*
X272043404Y-107036402D01*
X272241204Y-107155211D01*
X272484321Y-107298463D01*
X272769503Y-107464238D01*
X273093500Y-107650617D01*
X273453063Y-107855680D01*
X273734456Y-108015124D01*
X274169750Y-108261287D01*
X274550776Y-108476844D01*
X274881393Y-108663649D01*
X275165463Y-108823556D01*
X275406848Y-108958418D01*
X275609409Y-109070089D01*
X275777008Y-109160423D01*
X275913505Y-109231273D01*
X276022762Y-109284493D01*
X276108641Y-109321937D01*
X276175002Y-109345459D01*
X276225708Y-109356911D01*
X276264619Y-109358149D01*
X276295596Y-109351025D01*
X276322502Y-109337394D01*
X276349197Y-109319109D01*
X276379543Y-109298023D01*
X276391308Y-109290588D01*
X276430262Y-109266882D01*
X276463971Y-109243473D01*
X276492815Y-109215648D01*
X276517172Y-109178696D01*
X276537422Y-109127906D01*
X276553944Y-109058565D01*
X276567116Y-108965962D01*
X276577316Y-108845385D01*
X276584926Y-108692123D01*
X276590322Y-108501463D01*
X276593883Y-108268694D01*
X276595990Y-107989104D01*
X276597020Y-107657982D01*
X276597353Y-107270615D01*
X276597367Y-106822293D01*
X276597365Y-106728139D01*
X276597325Y-106268781D01*
X276596992Y-105871276D01*
X276596051Y-105530900D01*
X276594184Y-105242927D01*
X276591076Y-105002632D01*
X276586409Y-104805288D01*
X276579866Y-104646170D01*
X276571132Y-104520554D01*
X276559890Y-104423713D01*
X276545822Y-104350922D01*
X276528613Y-104297455D01*
X276507946Y-104258588D01*
X276483504Y-104229594D01*
X276454970Y-104205748D01*
X276427027Y-104185832D01*
X276393136Y-104163063D01*
X276359501Y-104145589D01*
X276322067Y-104135329D01*
X276276777Y-104134206D01*
X276219577Y-104144143D01*
X276146412Y-104167059D01*
X276053225Y-104204878D01*
X275935963Y-104259521D01*
X275790568Y-104332911D01*
X275612987Y-104426967D01*
X275399163Y-104543614D01*
X275145042Y-104684772D01*
X274846568Y-104852362D01*
X274499686Y-105048308D01*
X274100340Y-105274531D01*
X273950839Y-105359281D01*
X273500365Y-105615209D01*
X273106227Y-105840332D01*
X272766383Y-106035860D01*
X272478792Y-106203003D01*
X272241415Y-106342973D01*
X272052209Y-106456981D01*
X271909135Y-106546236D01*
X271810150Y-106611950D01*
X271753216Y-106655333D01*
X271737761Y-106672183D01*
X271707985Y-106738041D01*
X270136780Y-106738041D01*
X270141652Y-106722057D01*
X270180786Y-106671562D01*
G37*
G36*
X268396193Y-112239632D02*
G01*
X268433810Y-112098318D01*
X268484802Y-111905757D01*
X268547434Y-111668531D01*
X268619972Y-111393224D01*
X268700681Y-111086418D01*
X268787827Y-110754696D01*
X268879676Y-110404642D01*
X268973294Y-110047416D01*
X269084063Y-109624723D01*
X269179589Y-109261867D01*
X269261529Y-108954285D01*
X269331537Y-108697414D01*
X269391269Y-108486690D01*
X269442381Y-108317551D01*
X269486526Y-108185435D01*
X269525362Y-108085778D01*
X269560544Y-108014017D01*
X269593726Y-107965590D01*
X269626564Y-107935934D01*
X269660714Y-107920485D01*
X269697831Y-107914682D01*
X269739570Y-107913961D01*
X269747281Y-107914016D01*
X269780062Y-107922479D01*
X269841621Y-107948496D01*
X269934393Y-107993412D01*
X270060808Y-108058572D01*
X270223299Y-108145322D01*
X270424299Y-108255008D01*
X270666238Y-108388973D01*
X270951551Y-108548565D01*
X271282668Y-108735128D01*
X271662022Y-108950007D01*
X272092046Y-109194548D01*
X272575171Y-109470097D01*
X273018728Y-109723597D01*
X273445035Y-109967247D01*
X273857622Y-110202709D01*
X274252515Y-110427734D01*
X274625740Y-110640073D01*
X274973326Y-110837476D01*
X275291297Y-111017695D01*
X275575681Y-111178479D01*
X275822504Y-111317581D01*
X276027793Y-111432751D01*
X276187575Y-111521739D01*
X276297876Y-111582297D01*
X276354724Y-111612176D01*
X276356926Y-111613212D01*
X276659551Y-111717294D01*
X276985329Y-111766261D01*
X277320660Y-111760513D01*
X277651944Y-111700451D01*
X277965583Y-111586476D01*
X278010754Y-111564508D01*
X278062104Y-111536649D01*
X278167195Y-111477929D01*
X278322021Y-111390628D01*
X278522578Y-111277027D01*
X278764861Y-111139408D01*
X279044867Y-110980050D01*
X279358590Y-110801235D01*
X279702027Y-110605243D01*
X280071172Y-110394355D01*
X280462022Y-110170852D01*
X280870572Y-109937015D01*
X281278684Y-109703224D01*
X281790536Y-109410112D01*
X282247661Y-109148870D01*
X282652904Y-108917923D01*
X283009109Y-108715701D01*
X283319123Y-108540632D01*
X283585789Y-108391142D01*
X283811953Y-108265660D01*
X284000460Y-108162614D01*
X284154154Y-108080432D01*
X284275880Y-108017541D01*
X284368484Y-107972369D01*
X284434810Y-107943345D01*
X284477703Y-107928895D01*
X284493655Y-107926566D01*
X284538350Y-107927265D01*
X284577815Y-107932458D01*
X284613758Y-107946786D01*
X284647889Y-107974890D01*
X284681917Y-108021413D01*
X284717550Y-108090996D01*
X284756498Y-108188282D01*
X284800469Y-108317912D01*
X284851172Y-108484527D01*
X284910316Y-108692770D01*
X284979610Y-108947282D01*
X285060764Y-109252705D01*
X285155485Y-109613681D01*
X285254863Y-109994168D01*
X285348179Y-110350920D01*
X285439221Y-110697600D01*
X285526128Y-111027212D01*
X285607040Y-111332757D01*
X285680094Y-111607238D01*
X285743430Y-111843657D01*
X285795186Y-112035017D01*
X285833501Y-112174319D01*
X285852669Y-112241691D01*
X285895123Y-112401156D01*
X285928486Y-112555147D01*
X285948269Y-112681373D01*
X285951756Y-112734003D01*
X285944809Y-112835771D01*
X285915242Y-112912340D01*
X285849968Y-112993429D01*
X285826920Y-113017497D01*
X285784624Y-113050479D01*
X285697548Y-113108215D01*
X285564570Y-113191358D01*
X285384571Y-113300561D01*
X285156431Y-113436480D01*
X284879030Y-113599768D01*
X284551247Y-113791078D01*
X284171964Y-114011065D01*
X283740059Y-114260384D01*
X283254413Y-114539686D01*
X282713906Y-114849628D01*
X282117418Y-115190862D01*
X281541267Y-115519861D01*
X281054232Y-115797511D01*
X280582238Y-116066091D01*
X280128593Y-116323743D01*
X279696609Y-116568605D01*
X279289594Y-116798820D01*
X278910859Y-117012526D01*
X278563712Y-117207864D01*
X278251465Y-117382976D01*
X277977425Y-117536000D01*
X277744904Y-117665077D01*
X277557211Y-117768348D01*
X277417654Y-117843953D01*
X277329545Y-117890033D01*
X277296837Y-117904742D01*
X277267231Y-117896378D01*
X277202727Y-117867394D01*
X277101624Y-117816845D01*
X276962222Y-117743784D01*
X276782820Y-117647266D01*
X276561716Y-117526344D01*
X276297211Y-117380072D01*
X275987602Y-117207505D01*
X275631188Y-117007697D01*
X275226270Y-116779700D01*
X274771145Y-116522570D01*
X274264113Y-116235360D01*
X273703473Y-115917124D01*
X273087524Y-115566917D01*
X272835635Y-115423567D01*
X268458047Y-112931680D01*
X268376718Y-112770036D01*
X268295391Y-112608393D01*
X268362410Y-112364199D01*
X269493877Y-112364199D01*
X269513365Y-112459327D01*
X269566708Y-112531351D01*
X269614788Y-112568031D01*
X269687489Y-112613238D01*
X269810178Y-112686599D01*
X269978303Y-112785523D01*
X270187310Y-112907414D01*
X270432646Y-113049680D01*
X270709759Y-113209726D01*
X271014096Y-113384960D01*
X271341103Y-113572788D01*
X271686228Y-113770615D01*
X272044917Y-113975850D01*
X272412619Y-114185897D01*
X272784779Y-114398163D01*
X273156845Y-114610056D01*
X273524264Y-114818980D01*
X273882484Y-115022343D01*
X274226950Y-115217551D01*
X274553111Y-115402011D01*
X274856413Y-115573129D01*
X275132304Y-115728311D01*
X275376229Y-115864963D01*
X275583638Y-115980493D01*
X275749976Y-116072307D01*
X275870690Y-116137810D01*
X275941228Y-116174410D01*
X275958053Y-116181473D01*
X276035085Y-116159328D01*
X276111189Y-116105677D01*
X276134312Y-116080577D01*
X276152499Y-116051588D01*
X276166589Y-116010570D01*
X276177419Y-115949382D01*
X276185828Y-115859880D01*
X276192653Y-115733926D01*
X276198734Y-115563376D01*
X276204908Y-115340089D01*
X276209720Y-115148600D01*
X276221467Y-114643999D01*
X276230066Y-114203143D01*
X276235497Y-113823271D01*
X276237739Y-113501620D01*
X276236769Y-113235430D01*
X276232568Y-113021940D01*
X276225114Y-112858388D01*
X276214386Y-112742012D01*
X276200362Y-112670052D01*
X276190566Y-112647359D01*
X276155311Y-112621316D01*
X276066583Y-112565865D01*
X275929225Y-112483717D01*
X275748082Y-112377588D01*
X275527996Y-112250191D01*
X275273813Y-112104239D01*
X274990375Y-111942447D01*
X274682528Y-111767528D01*
X274355114Y-111582196D01*
X274012978Y-111389164D01*
X273660963Y-111191147D01*
X273303913Y-110990859D01*
X272946673Y-110791012D01*
X272594085Y-110594320D01*
X272250995Y-110403498D01*
X271922246Y-110221259D01*
X271612681Y-110050317D01*
X271327145Y-109893386D01*
X271070481Y-109753179D01*
X270847534Y-109632409D01*
X270663147Y-109533792D01*
X270522164Y-109460040D01*
X270429429Y-109413868D01*
X270390734Y-109398057D01*
X270313282Y-109413867D01*
X270267705Y-109447992D01*
X270247633Y-109493406D01*
X270213572Y-109595565D01*
X270167779Y-109746644D01*
X270112512Y-109938822D01*
X270050029Y-110164275D01*
X269982587Y-110415181D01*
X269923812Y-110639672D01*
X269851555Y-110918176D01*
X269780976Y-111188716D01*
X269714694Y-111441359D01*
X269655329Y-111666170D01*
X269605502Y-111853217D01*
X269567833Y-111992565D01*
X269550309Y-112055680D01*
X269506705Y-112233729D01*
X269493877Y-112364199D01*
X268362410Y-112364199D01*
X268373686Y-112323115D01*
X268396193Y-112239632D01*
G37*
M02*
