M48
; DRILL file {KiCad (5.99.0-10089-gf88d39b4f0)} date Sat Apr  3 17:52:49 2021
; FORMAT={-:-/ absolute / inch / decimal}
; #@! TF.CreationDate,2021-04-03T17:52:49-06:00
; #@! TF.GenerationSoftware,Kicad,Pcbnew,(5.99.0-10089-gf88d39b4f0)
; #@! TF.FileFunction,NonPlated,1,2,NPTH
FMAT,2
INCH
; #@! TA.AperFunction,NonPlated,NPTH,ComponentDrill
T1C0.0689
; #@! TA.AperFunction,NonPlated,NPTH,ComponentDrill
T2C0.1200
; #@! TA.AperFunction,NonPlated,NPTH,ComponentDrill
T3C0.1570
%
G90
G05
T1
X-0.385Y-2.2543
X-0.2248Y-1.5043
X-0.061Y-0.7543
X0.015Y-2.2543
X0.1752Y-1.5043
X0.339Y-0.7543
X0.451Y-3.0886
X0.5449Y-3.8386
X0.6397Y-2.3386
X0.8024Y-2.3386
X0.826Y-3.0886
X0.8453Y-0.8386
X0.851Y-3.0886
X0.8689Y-1.5886
X0.9449Y-3.8386
X1.0397Y-2.3386
X1.2024Y-2.3386
X1.226Y-3.0886
X1.2453Y-0.8386
X1.2689Y-1.5886
X1.2947Y-3.0886
X1.5953Y-0.8386
X1.6947Y-3.0886
X1.8063Y-1.5886
X1.8339Y-2.3386
X1.9953Y-0.8386
X2.0445Y-3.0886
X2.2063Y-1.5886
X2.2339Y-2.3386
X2.3291Y-0.7543
X2.4445Y-3.0886
X2.6178Y-1.5242
X2.6453Y-2.297
X2.6666Y-3.8954
X2.7291Y-0.7543
X2.8559Y-3.1084
X3.009Y-1.6073
X3.0366Y-2.3802
X3.0578Y-3.9786
X3.1406Y-0.8687
X3.2472Y-3.1916
X3.3514Y-1.6801
X3.3789Y-2.4529
X3.5319Y-0.9518
X3.5896Y-3.2644
X3.7426Y-1.7633
X3.7702Y-2.5361
X3.8742Y-1.0246
X3.9752Y-4.1131
X3.9808Y-3.3475
X4.0654Y-4.1324
X4.085Y-1.836
X4.1125Y-2.6089
X4.2655Y-1.1078
X4.3232Y-3.4203
X4.3664Y-4.1962
X4.4567Y-4.2156
X4.4762Y-1.9192
X4.5038Y-2.692
X4.6078Y-1.1805
X4.7144Y-3.5035
X4.8186Y-1.992
X4.8462Y-2.7648
X4.9991Y-1.2637
X5.0568Y-3.5762
X5.168Y-4.3666
X5.2099Y-2.0751
X5.2374Y-2.848
X5.2591Y-4.386
X5.3414Y-1.3365
X5.448Y-3.6594
X5.5592Y-4.4498
X5.6504Y-4.4691
X5.7327Y-1.4196
X6.239Y-2.1531
X6.3673Y-3.6594
X6.45Y-1.3417
X6.5783Y-2.848
X6.6302Y-2.0699
X6.7586Y-3.5762
X6.8413Y-1.2585
X6.9696Y-2.7648
X6.9726Y-1.9972
X7.1009Y-3.5035
X7.1666Y-4.2565
X7.1836Y-1.1857
X7.312Y-2.692
X7.3638Y-1.914
X7.4922Y-3.4203
X7.5578Y-4.1734
X7.5749Y-1.1026
X7.7032Y-2.6089
X7.7062Y-1.8412
X7.8345Y-3.3475
X7.9172Y-1.0298
X8.0456Y-2.5361
X8.0975Y-1.7581
X8.2258Y-3.2644
X8.3085Y-0.9466
X8.4368Y-2.4529
X8.4398Y-1.6853
X8.5682Y-3.1916
X8.6508Y-0.8739
X8.7575Y-3.9786
X8.7792Y-2.3802
X8.8311Y-1.6021
X8.9594Y-3.1084
X9.0421Y-0.7907
X9.1488Y-3.8954
X9.1704Y-2.297
X9.2425Y-1.5469
X9.3709Y-3.0886
X9.4535Y-0.7543
X9.5819Y-2.3386
X9.6425Y-1.5469
X9.7709Y-3.0886
X9.8535Y-0.7543
X9.976Y-1.5886
X9.9819Y-2.3386
X10.1209Y-3.0886
X10.187Y-0.8386
X10.3319Y-2.3386
X10.376Y-1.5886
X10.5209Y-3.0886
X10.587Y-0.8386
X10.726Y-1.5886
X10.7319Y-2.3386
X10.937Y-0.8386
X11.126Y-1.5886
X11.1522Y-3.0886
X11.312Y-0.8386
X11.337Y-0.8386
X11.5271Y-3.0886
X11.5504Y-2.3386
X11.5522Y-3.0886
X11.6638Y-1.5886
X11.687Y-0.8386
X11.712Y-0.8386
X11.851Y-3.8405
X11.9271Y-3.0886
X11.9504Y-2.3386
X12.0638Y-1.5886
X12.087Y-0.8386
X12.1834Y-3.0886
X12.251Y-3.8405
X12.5834Y-3.0886
T2
X0.5572Y-2.8136
X1.4947Y-2.8136
X3.6551Y-4.3262
X3.7453Y-4.3455
X4.5721Y-4.5211
X4.6624Y-4.5405
X6.9609Y-4.5814
X7.8779Y-4.3865
X11.0433Y-0.5636
X11.2583Y-2.8136
X11.2817Y-2.6136
X11.9808Y-0.5636
X12.1958Y-2.8136
X12.2192Y-2.6136
T3
X-0.185Y-2.2543
X-0.0248Y-1.5043
X0.139Y-0.7543
X0.5572Y-3.4136
X0.651Y-3.0886
X0.7449Y-3.8386
X0.8397Y-2.3386
X1.0024Y-2.3386
X1.026Y-3.0886
X1.0453Y-0.8386
X1.0689Y-1.5886
X1.4947Y-3.0886
X1.4947Y-3.4136
X1.7953Y-0.8386
X2.0063Y-1.5886
X2.0339Y-2.3386
X2.2445Y-3.0886
X2.5291Y-0.7543
X2.8134Y-1.5657
X2.8409Y-2.3386
X2.8622Y-3.937
X3.0516Y-3.15
X3.3362Y-0.9102
X3.547Y-1.7217
X3.5746Y-2.4945
X3.7799Y-3.7393
X3.7852Y-3.3059
X3.8701Y-3.7587
X4.0698Y-1.0662
X4.1708Y-4.1547
X4.261Y-4.174
X4.2806Y-1.8776
X4.3082Y-2.6505
X4.5188Y-3.4619
X4.6969Y-3.9342
X4.7871Y-3.9536
X4.8034Y-1.2221
X5.0142Y-2.0336
X5.0418Y-2.8064
X5.2524Y-3.6178
X5.3636Y-4.4082
X5.4547Y-4.4276
X5.5371Y-1.378
X6.4346Y-2.1115
X6.563Y-3.6178
X6.6456Y-1.3001
X6.774Y-2.8064
X6.8361Y-3.9945
X7.1682Y-1.9556
X7.2966Y-3.4619
X7.3622Y-4.215
X7.3792Y-1.1442
X7.5076Y-2.6505
X7.7531Y-3.7996
X7.9018Y-1.7996
X8.0302Y-3.3059
X8.1129Y-0.9882
X8.2412Y-2.4945
X8.6354Y-1.6437
X8.7638Y-3.15
X8.8465Y-0.8323
X8.9532Y-3.937
X8.9748Y-2.3386
X9.4425Y-1.5469
X9.5709Y-3.0886
X9.6535Y-0.7543
X9.7819Y-2.3386
X10.176Y-1.5886
X10.3209Y-3.0886
X10.387Y-0.8386
X10.5319Y-2.3386
X10.926Y-1.5886
X11.0433Y-1.1636
X11.137Y-0.8386
X11.2583Y-3.4136
X11.2817Y-2.0136
X11.3522Y-3.0886
X11.512Y-0.8386
X11.7271Y-3.0886
X11.7504Y-2.3386
X11.8638Y-1.5886
X11.887Y-0.8386
X11.9808Y-1.1636
X12.051Y-3.8405
X12.1958Y-3.4136
X12.2192Y-2.0136
X12.3834Y-3.0886
T0
M30
